<svg width="17" height="17" viewBox="0 0 17 17" fill="none" xmlns="http://www.w3.org/2000/svg">
<path d="M5.49659 11.5035C6.32533 12.3322 7.40909 12.7502 8.49992 12.7502L8.49992 8.50016L11.5033 5.49683C9.84575 3.83933 7.15409 3.83933 5.4895 5.49683C3.832 7.15433 3.832 9.84599 5.49659 11.5035ZM8.49992 15.5835C12.4099 15.5835 15.5833 12.4102 15.5833 8.50016C15.5833 4.59016 12.4099 1.41683 8.49992 1.41683C4.58992 1.41683 1.41658 4.59016 1.41658 8.50016C1.41658 12.4102 4.58992 15.5835 8.49992 15.5835ZM8.49992 2.83349C11.6308 2.83349 14.1666 5.36933 14.1666 8.50016C14.1666 11.631 11.6308 14.1668 8.49992 14.1668C5.36908 14.1668 2.83325 11.631 2.83325 8.50016C2.83325 5.36933 5.36909 2.83349 8.49992 2.83349Z" fill="#326699"/>
</svg>
