<svg fill="none" height="20" viewBox="0 0 20 20" width="20" xmlns="http://www.w3.org/2000/svg"><path d="m19.6728 9.99889c0 1.91421-.5677 3.78551-1.6312 5.37711-1.0634 1.5916-2.575 2.8321-4.3435 3.5647-1.7686.7325-3.7146.9242-5.59205.5507-1.87745-.3734-3.602-1.2952-4.95557-2.6488-1.35356-1.3535-2.275354-3.0781-2.648803-4.9555-.373448-1.8775-.181781-3.8235.550763-5.59201.73255-1.76852 1.97307-3.2801 3.56469-4.34359 1.59163-1.06349 3.46288-1.631125 5.37711-1.631125 2.56686 0 5.02866 1.019695 6.84376 2.834775 1.8151 1.81507 2.8348 4.27684 2.8348 6.84374z" fill="#ffcc24"/><path d="m7.45132 4.04891c-.00986-.01675-.01628-.0353-.01889-.05456s-.00136-.03884.00368-.05762c.00504-.01877.01377-.03635.02568-.05171s.02676-.02819.04368-.03775l2.41964-1.39647s.01267 0 .01843-.00691l.02766-.00922h.0576l.0265.00922s.0127 0 .0184.00691l2.4197 1.39647c.0339.01971.0586.05209.0686.09001.0101.03793.0047.07829-.015.11221-.0198.03392-.0521.05862-.0901.06866-.0379.01005-.0782.00462-.1122-.01509l-2.347-1.35384-2.34474 1.35384c-.03398.01929-.07419.02442-.11193.01429-.03774-.01014-.06996-.03472-.08971-.06844zm-.39636.96555 2.41964-1.39648c.01679-.00975.0315-.02273.04328-.03817s.02041-.03306.02538-.05184c.00498-.01877.00621-.03834.00362-.0576-.00259-.01925-.00895-.0378-.01871-.0546-.00976-.01679-.02273-.0315-.03817-.04328-.01545-.01178-.03306-.02041-.05184-.02538-.03792-.01005-.07828-.00463-.1122.01509l-2.41963 1.39647c-.03392.01955-.05868.05179-.06884.0896s-.00487.07811.01468.11203c.01956.03392.05179.05868.08961.06884.03781.01016.07811.00487.11203-.01468zm-.59799.91139 2.41963-1.39647c.03453-.01956.05988-.05203.07047-.09028.01058-.03824.00555-.07913-.01401-.11366s-.05203-.05988-.09028-.07047-.07913-.00555-.11366.01401l-2.41964 1.39647c-.03392.01971-.05862.05209-.06866.09001-.01005.03792-.00462.07828.01509.1122s.05208.05862.09001.06867c.03792.01005.07828.00462.1122-.01509zm-.598.91139 2.41964-1.39647c.01692-.00956.03177-.02239.04368-.03775s.02064-.03294.02568-.05171.00629-.03836.00368-.05762-.00903-.0378-.01889-.05455c-.00967-.01681-.02256-.03155-.03793-.04337s-.03293-.0205-.05166-.02553-.03826-.00632-.05749-.00379-.03777.00883-.05456.01853l-2.41963 1.39763c-.01816.0089-.03429.02145-.04739.03685-.01311.01541-.0229.03334-.02878.05269-.00587.01935-.00771.03971-.00539.0598s.00875.03948.01889.05699c.01013.0175.02376.03272.04003.04473s.03484.02055.05455.02508.04014.00496.06002.00126.03879-.01145.05555-.02277zm-.59799.9114 2.41963-1.39647c.0168-.00969.03152-.02258.04333-.03796.01181-.01537.02048-.03292.02551-.05165.00503-.01872.00632-.03825.0038-.05747-.00252-.01923-.0088-.03776-.01849-.05456-.00968-.01679-.02258-.03152-.03795-.04333s-.03292-.02048-.05165-.02551c-.01872-.00502-.03825-.00632-.05748-.0038-.01922.00252-.03776.0088-.05455.01849l-2.41848 1.39877c-.03372.01975-.05831.05198-.06844.08971-.01014.03774-.00501.07795.01428.11193.00975.01673.02273.03136.03817.04304.01545.01168.03306.02018.05182.025.01876.00483.03828.00588.05745.0031.01916-.00278.03759-.00934.0542-.01929zm-.59685.91139 2.41964-1.39647c.01692-.00956.03177-.02239.04368-.03775s.02064-.03294.02568-.05171.00629-.03836.00368-.05762-.00903-.03781-.01889-.05456c-.01974-.03371-.05197-.0583-.08971-.06844-.03773-.01013-.07794-.005-.11192.01429l-2.41964 1.39762c-.01816.00891-.03429.02146-.04739.03686-.0131.01541-.0229.03334-.02877.05269-.00588.01935-.00772.03971-.0054.05979.00232.02009.00875.03949.01889.05699.01013.0175.02376.03273.04003.04474s.03484.02055.05455.02508.04014.00496.06002.00126.03879-.01145.05555-.02277zm-.59684.90909 2.41963-1.39647c.03392-.01971.05862-.05209.06867-.09001s.00462-.07828-.01509-.1122-.05209-.05862-.09001-.06867-.07828-.00462-.1122.01509l-2.41618 1.39993c-.02.00754-.03813.01933-.05312.03457s-.02649.03355-.03371.05368c-.00721.02012-.00996.04157-.00806.06286s.0084.04192.01906.06045c.01067.01852.02523.03451.04268.04686.01745.01234.03738.02074.0584.02462s.04264.00314.06334-.00216c.02071-.0053.04002-.01504.05659-.02855zm-.59684.91258 2.41963-1.39766c.01816-.0089.03429-.02145.04739-.03685.0131-.01541.0229-.03334.02878-.05269s.00771-.03971.00539-.0598-.00875-.03948-.01889-.05698c-.01013-.0175-.02376-.03273-.04003-.04474s-.03484-.02055-.05455-.02508-.04014-.00496-.06002-.00126-.03879.01145-.05555.02277l-2.41963 1.39649c-.01683.0096-.03157.0225-.04337.0379-.01179.0154-.02041.033-.02534.0518s-.00608.0383-.00339.0575c.0027.0192.00919.0377.01909.0544.01936.0338.05121.0587.0887.0692.0375.0106.07764.006.11179-.0127zm-.598.9114 2.41964-1.39651c.03392-.01956.05868-.05179.06883-.0896.01016-.03782.00488-.07812-.01468-.11204s-.05179-.05868-.0896-.06883c-.03782-.01016-.07812-.00488-.11204.01468l-2.41963 1.3965c-.03392.0195-.05868.0518-.06884.0896-.01015.0378-.00487.0781.01469.112.01955.0339.05179.0587.0896.0688.03781.0102.07811.0049.11203-.0146zm-.59799.9114 2.41963-1.3977c.01816-.0089.03429-.0214.04739-.0368s.0229-.0334.02878-.0527c.00587-.0194.00771-.0397.00539-.0598s-.00875-.0395-.01889-.057c-.01013-.0175-.02376-.0327-.04003-.0447s-.03484-.0206-.05455-.0251-.04014-.005-.06002-.0013-.03879.0115-.05555.0228l-2.41963 1.3965c-.03392.0195-.05869.0518-.06884.0896-.01016.0378-.00488.0781.01468.112s.05179.0587.0896.0688c.03782.0102.07812.0049.11204-.0146zm1.67415-.7409-2.41963 1.3965c-.03392.0195-.05868.0517-.06884.0896-.01015.0378-.00487.0781.01469.112.01955.0339.05178.0587.0896.0688.03781.0102.07811.0049.11203-.0147l2.41964-1.3976c.01815-.0089.03428-.0214.04739-.0368.0131-.0154.02289-.0334.02877-.0527.00588-.0194.00772-.0397.00539-.0598-.00232-.0201-.00875-.0395-.01888-.057-.01014-.0175-.02376-.0327-.04004-.0447-.01627-.0121-.03483-.0206-.05454-.0251-.01971-.0046-.04014-.005-.06002-.0013-.01989.0037-.0388.0115-.05556.0228zm6.51919-8.14725c-.0197.03377-.0252.07398-.0152.11179.0099.03781.0344.07012.0682.08984l2.4196 1.39648c.0168.00968.0354.01596.0546.01848s.0387.00123.0575-.0038c.0187-.00503.0362-.0137.0516-.02551s.0283-.02653.038-.04333c.0097-.01679.0159-.03533.0185-.05455.0025-.01923.0012-.03876-.0038-.05748-.0051-.01872-.0137-.03627-.0256-.05165-.0118-.01537-.0265-.02827-.0433-.03795l-2.4196-1.39647c-.0339-.01893-.0738-.02387-.1113-.01375-.0374.01012-.0695.03449-.0892.0679zm.598.91139c-.0197.03377-.0252.07398-.0152.11179.0099.03781.0344.07013.0682.08985l2.4196 1.39647c.0168.00976.0354.01612.0546.01871.0193.00258.0389.00136.0576-.00362.0188-.00497.0364-.0136.0519-.02538.0154-.01178.0284-.02649.0381-.04329.0098-.01679.0162-.03535.0187-.0546.0026-.01925.0014-.03882-.0036-.0576-.0049-.01878-.0136-.03639-.0254-.05183-.0117-.01545-.0264-.02842-.0432-.03818l-2.4208-1.40108c-.017-.00934-.0357-.01523-.055-.01733s-.0388-.00037-.0575.00509c-.0186.00546-.036.01454-.0511.02673-.0151.01218-.0276.02723-.0369.04427zm.5968.9114c-.0097.01679-.016.03533-.0185.05455-.0025.01923-.0012.03877.0038.0575s.0137.03628.0255.05165.0266.02826.0434.03793l2.4196 1.39647c.0168.01132.0357.01907.0556.02277s.0403.00327.06-.00126.0383-.01307.0545-.02508c.0163-.01201.0299-.02723.0401-.04473.0101-.01751.0165-.0369.0189-.05699.0023-.02009.0004-.04045-.0054-.0598-.0059-.01935-.0157-.03728-.0288-.05269-.0131-.0154-.0292-.02795-.0474-.03685l-2.4196-1.39763c-.034-.01929-.0742-.02442-.112-.01428-.0377.01013-.0699.03472-.0897.06844zm.598.91139c-.0098.01675-.0163.0353-.0189.05456s-.0013.03885.0037.05762c.0051.01877.0138.03635.0257.05171s.0268.02819.0437.03775l2.4196 1.39647c.0168.00986.0353.01628.0546.01889.0192.00261.0388.00136.0576-.00368s.0363-.01377.0517-.02568.0282-.02676.0378-.04369c.0192-.03398.0244-.07419.0142-.11192-.0101-.03774-.0347-.06997-.0684-.08971l-2.4196-1.39647c-.0168-.00971-.0354-.016-.0546-.01853s-.0388-.00125-.0575.00378-.0363.01371-.0516.02553c-.0154.01182-.0283.02656-.038.04337zm.5969.91139c-.01.01671-.0166.03522-.0194.05447s-.0017.03887.0031.05772.0133.03656.025.05211.0264.02863.0431.03849l2.4197 1.39647c.0167.00961.0351.01583.0542.01831.0192.00248.0386.00117.0572-.00386s.0361-.01368.0513-.02545c.0153-.01177.0281-.02643.0377-.04315s.0159-.03517.0183-.05429c.0025-.01912.0012-.03855-.0038-.05717-.005-.01861-.0137-.03606-.0255-.05133-.0117-.01528-.0264-.02808-.0431-.03769l-2.4196-1.39763c-.0336-.01832-.0728-.02304-.1097-.01317s-.0686.03357-.0885.06617zm.598.9114c-.0097.01679-.016.03533-.0186.05455-.0025.01923-.0012.03877.0038.0575.0051.01873.0137.03628.0256.05165.0118.01537.0265.02826.0433.03793l2.4197 1.39648c.0167.01131.0356.01906.0555.02276s.0403.00327.06-.00126.0383-.01306.0546-.02507c.0162-.01201.0299-.02724.04-.04474s.0166-.0369.0189-.05699.0005-.04044-.0054-.0598c-.0059-.01935-.0157-.03728-.0288-.05268-.0131-.01541-.0292-.02795-.0474-.03686l-2.4196-1.39763c-.0168-.0097-.0353-.016-.0546-.01853-.0192-.00252-.0387-.00124-.0574.00379-.0188.00503-.0363.01371-.0517.02553s-.0283.02656-.0379.04337zm.5968.91139c-.0097.01679-.016.03533-.0185.05456s-.0013.03876.0038.05749c.005.01873.0137.03628.0255.05166.0118.01537.0266.02826.0434.03793l2.4196 1.39765c.0339.0195.0742.0248.112.0147.0378-.0102.0701-.035.0896-.0689.0196-.0339.0249-.0742.0147-.112-.0101-.0378-.0349-.0701-.0688-.0896l-2.4197-1.39649c-.0338-.01939-.0739-.02469-.1116-.01478-.0377.00992-.0701.03426-.09.06778zm.598.91255c-.0097.01679-.016.03533-.0185.05455-.0026.01923-.0013.03877.0038.0575.005.01873.0137.03628.0255.05165s.0266.02826.0434.03793l2.4196 1.39651c.0339.0197.0743.0251.1122.0151.0379-.0101.0703-.0348.09-.0687s.0251-.0743.0151-.1122c-.0101-.0379-.0348-.0703-.0687-.09l-2.4196-1.3965c-.0169-.00995-.0357-.01639-.0552-.01893s-.0393-.00114-.0582.00413-.0366.01429-.0519.02654c-.0154.01224-.0281.02745-.0375.04472zm.5968.91144c-.0192.0338-.0243.0738-.0141.1113.0101.0376.0347.0696.0683.0891l2.4196 1.3977c.034.0195.0743.0248.1121.0146.0378-.0101.07-.0349.0896-.0688.0195-.0339.0248-.0742.0147-.112-.0102-.0378-.035-.0701-.0689-.0896l-2.4196-1.3965c-.0168-.0097-.0353-.016-.0546-.0185-.0192-.0026-.0387-.0013-.0575.0038-.0187.005-.0362.0137-.0516.0255s-.0283.0265-.038.0434zm3.2193 2.2537-2.4196-1.3965c-.0336-.0165-.0721-.0196-.1078-.0087-.0358.0108-.0661.0349-.0848.0672s-.0245.0705-.0161.1069c.0084.0365.0302.0683.0612.0892l2.4196 1.3977c.0168.0097.0354.0161.0546.0187.0193.0025.0389.0013.0576-.0037.0188-.0049.0364-.0136.0519-.0253.0154-.0118.0284-.0265.0381-.0433.0098-.0168.0162-.0354.0187-.0546.0026-.0193.0014-.0388-.0036-.0576-.0049-.0188-.0136-.0364-.0253-.0519-.0118-.0154-.0265-.0284-.0433-.0381zm-13.82646-1.5705v2.5464h2.52102v-3.5822h2.08665v3.5822h6.11589v-2.5464l-5.3658-8.11497zm15.36006-1.39301c.0003 2.31361-.8017 4.55571-2.2693 6.34431-1.4675 1.7886-3.5099 3.0129-5.779 3.4645-2.2691.4515-4.62458.1023-6.66507-.9882s-3.63973-2.8547-4.525217-4.9922c-.885492-2.1374-1.002444-4.51576-.330928-6.72976.671515-2.21401 2.089945-4.12667 4.013605-5.41208 1.92366-1.285418 4.23351-1.864049 6.53601-1.6373024 2.3024.2267474 4.455 1.2448424 6.091 2.8808124.9292.92771 1.666 2.02985 2.168 3.24312s.7595 2.51377.7574 3.8268zm-.6487 0c-.0005-2.16287-.751-4.25864-2.1235-5.93024s-3.2822-2.81561-5.4036-3.237112c-2.12137-.4215-4.3233-.094414-6.23059.925532-1.90729 1.01994-3.40193 2.66963-4.22928 4.66801-.827347 1.99838-.936212 4.22182-.30804 6.29142.62817 2.0697 1.9545 3.8575 3.75303 5.0589 1.79852 1.2014 3.95797 1.742 6.11038 1.5297 2.1525-.2122 4.1647-1.1642 5.694-2.6937.8686-.8679 1.5573-1.8988 2.0265-3.0336.4692-1.1347.7097-2.351.7077-3.57891z" fill="#2f4358"/></svg>