<svg fill="none" height="31" viewBox="0 0 31 31" width="31" xmlns="http://www.w3.org/2000/svg"><circle cx="15.5" cy="15.5" fill="#fff" r="15.5"/><path d="m15.5 0c-8.525 0-15.5 6.975-15.5 15.5s6.975 15.5 15.5 15.5 15.5-6.975 15.5-15.5-6.975-15.5-15.5-15.5zm8.6542 11.2375-10.3334 10.3333c-.2583.2584-.5166.3875-.9041.3875s-.6459-.1291-.9042-.3875l-5.16667-5.1666c-.51666-.5167-.51666-1.2917 0-1.8084.51667-.5166 1.29167-.5166 1.80834 0l4.26253 4.2625 9.4291-9.42913c.5167-.51667 1.2917-.51667 1.8084 0 .5166.51666.5166 1.29163 0 1.80833z" fill="#25d366"/></svg>