<svg height="231.415" viewBox="0 0 231.417 231.415" width="231.417" xmlns="http://www.w3.org/2000/svg" xmlns:xlink="http://www.w3.org/1999/xlink"><clipPath id="a"><path d="m0 283.46h283.46v-283.46h-283.46z"/></clipPath><g clip-path="url(#a)" transform="matrix(1.3333333 0 0 -1.3333333 -73.265598 304.68093)"><path d="m0 0c0-46.373-37.594-83.966-83.969-83.966-46.373 0-83.969 37.593-83.969 83.966 0 46.375 37.596 83.969 83.969 83.969 46.375 0 83.969-37.594 83.969-83.969" fill="#ffcc24" transform="translate(225.6992 141.729)"/><path d="m0 0c-14.695-14.69-34.967-23.769-57.387-23.77-22.419.001-42.69 9.08-57.386 23.77-14.691 14.695-23.769 34.966-23.77 57.384.001 22.42 9.079 42.691 23.77 57.387 14.696 14.69 34.967 23.768 57.386 23.77 22.42-.002 42.692-9.08 57.387-23.77 14.69-14.696 23.769-34.967 23.77-57.387-.001-22.418-9.08-42.689-23.77-57.384m3.977 118.748c-15.696 15.7-37.409 25.419-61.364 25.418-23.954.001-45.668-9.718-61.363-25.418-15.7-15.695-25.42-37.408-25.418-61.364-.002-23.953 9.718-45.666 25.418-61.362 15.695-15.699 37.409-25.418 61.363-25.417 23.955-.001 45.668 9.718 61.364 25.417 15.7 15.696 25.419 37.409 25.418 61.362.001 23.955-9.718 45.669-25.418 61.364m1.05-70.883c-1.162-4.961-2.605-9.16-3.992-12.549-1.377-3.392-2.701-5.976-3.64-7.722-.056-.101-.105-.189-.158-.284l-1.897 1.09c.045.08.086.154.133.239.91 1.695 2.193 4.199 3.535 7.504 1.344 3.298 2.758 7.388 3.885 12.216 1.113 4.83 1.98 10.406 1.962 16.629-.023 3.113-.251 6.385-.884 9.763-.627 3.383-1.639 6.885-3.28 10.323-1.632 3.431-3.951 6.795-6.988 9.609-3.027 2.822-6.75 5.02-10.703 6.4-1.975.7-4.004 1.208-6.047 1.559-1.019.184-2.039.305-3.066.412-.514.043-1.024.084-1.533.127-.483.024-.967.051-1.454.072-3.877.184-7.814.163-11.779-.146-7.926-.623-15.977-2.285-23.606-5.352-7.609-3.054-14.844-7.464-20.672-13.547-2.9-3.042-5.437-6.515-7.269-10.455-.907-1.966-1.637-4.05-2.11-6.22-.472-2.172-.672-4.438-.531-6.705.131-2.262.6-4.518 1.391-6.627.785-2.115 1.881-4.074 3.179-5.793 1.293-1.724 2.774-3.224 4.332-4.508 1.559-1.285 3.188-2.371 4.832-3.31.415-.223.829-.451 1.243-.674.412-.205.828-.406 1.242-.613.412-.201.832-.383 1.246-.565.406-.17.816-.345 1.217-.515 1.474-.6 2.92-1.19 4.342-1.77 2.835-1.166 5.562-2.308 8.16-3.428 3.439-1.483 6.637-2.933 9.555-4.35l-1.244-1.831c-2.802 1.355-5.876 2.747-9.178 4.174-2.583 1.113-5.295 2.248-8.125 3.41-1.418.578-2.864 1.168-4.329 1.765-.423.18-.845.36-1.269.541-.442.186-.877.375-1.313.596-.437.213-.875.424-1.312.641-.434.238-.875.474-1.311.715-1.746.992-3.482 2.148-5.156 3.531-1.674 1.379-3.271 2.996-4.682 4.877-1.414 1.873-2.617 4.019-3.484 6.334-.863 2.32-1.383 4.798-1.525 7.273-.153 2.482.07 4.945.58 7.289.508 2.351 1.293 4.584 2.265 6.685 1.957 4.2 4.637 7.858 7.668 11.047 6.104 6.365 13.598 10.914 21.444 14.067 7.863 3.158 16.131 4.865 24.252 5.5 4.063.316 8.094.341 12.053.152.494-.025.99-.047 1.482-.072.539-.045 1.073-.09 1.612-.133 1.076-.113 2.15-.242 3.228-.436 2.151-.369 4.301-.908 6.402-1.65 4.207-1.469 8.211-3.83 11.463-6.861 3.264-3.022 5.741-6.631 7.477-10.266 1.74-3.654 2.801-7.338 3.455-10.869.66-3.535.898-6.934.918-10.154.021-6.446-.871-12.176-2.016-17.135m-11.268-18.556-1.902 1.091c.029.053.055.099.084.153.862 1.597 2.075 3.972 3.352 7.105 1.273 3.131 2.619 7.022 3.695 11.613 1.055 4.584 1.871 9.875 1.854 15.703-.022 2.908-.237 5.947-.821 9.049-.574 3.098-1.494 6.268-2.951 9.32-1.453 3.045-3.472 5.967-6.101 8.397-2.617 2.437-5.821 4.34-9.305 5.56-3.48 1.233-7.23 1.817-10.961 1.942-3.711.177-7.488.158-11.275-.139-7.573-.59-15.223-2.18-22.421-5.074-3.595-1.438-7.062-3.199-10.328-5.285-3.234-2.108-6.285-4.514-8.933-7.305-2.645-2.783-4.922-5.918-6.528-9.373-1.593-3.44-2.523-7.24-2.281-11.002.111-1.877.498-3.723 1.148-5.457.645-1.734 1.541-3.351 2.631-4.787 2.166-2.9 5.004-5.068 7.928-6.736 1.459-.844 2.988-1.514 4.484-2.141 1.475-.603 2.928-1.195 4.352-1.777 2.855-1.17 5.605-2.318 8.227-3.455 3.68-1.587 7.111-3.146 10.245-4.681l-1.244-1.831c-3.016 1.472-6.319 2.97-9.873 4.502-2.603 1.125-5.335 2.274-8.187 3.44-1.424.58-2.871 1.172-4.342 1.769-1.558.656-3.185 1.371-4.74 2.268-3.117 1.781-6.203 4.119-8.602 7.328-1.201 1.59-2.209 3.394-2.929 5.334-.731 1.939-1.164 4.007-1.285 6.093-.127 2.092.058 4.19.5 6.213.437 2.027 1.121 3.982 1.984 5.844 1.724 3.718 4.148 7.035 6.928 9.961 5.603 5.847 12.619 10.136 20.029 13.109 7.434 2.986 15.303 4.617 23.071 5.227 3.886.304 7.75.326 11.554.144.473-.021.946-.047 1.42-.07l1.477-.123c.982-.104 1.957-.221 2.935-.393 1.95-.336 3.875-.82 5.747-1.478 3.738-1.311 7.226-3.373 10.066-6.022 2.855-2.64 5.031-5.803 6.588-9.058 1.556-3.262 2.525-6.614 3.129-9.864.609-3.257.83-6.422.853-9.441.016-6.043-.83-11.49-1.914-16.207-1.105-4.718-2.488-8.722-3.797-11.947-1.312-3.223-2.562-5.672-3.453-7.322-.038-.07-.072-.13-.108-.197m-3.423 2.117c-.023-.041-.041-.075-.064-.114l-1.898 1.089c.013.024.023.042.036.066.813 1.502 1.957 3.74 3.164 6.705s2.483 6.662 3.5 11.01c1.004 4.341 1.772 9.347 1.75 14.771-.015 2.711-.219 5.519-.746 8.338-.521 2.82-1.353 5.654-2.629 8.316-1.269 2.662-3 5.144-5.211 7.193-2.203 2.049-4.894 3.655-7.91 4.713-1.512.535-3.094.936-4.73 1.219-.817.141-1.651.244-2.483.33-.424.041-.845.074-1.265.107-.452.02-.893.043-1.336.067-3.561.168-7.17.148-10.782-.133-7.212-.566-14.474-2.082-21.229-4.801-3.38-1.351-6.625-3.004-9.648-4.935-3.004-1.953-5.813-4.172-8.203-6.7-2.399-2.517-4.414-5.314-5.791-8.287-1.373-2.964-2.111-6.107-1.92-9.084.176-2.976 1.23-5.753 2.986-8.067 1.735-2.336 4.127-4.184 6.69-5.649 1.291-.744 2.64-1.336 4.019-1.916 1.479-.609 2.938-1.201 4.371-1.787 2.871-1.178 5.637-2.336 8.289-3.477 3.923-1.695 7.587-3.36 10.935-5.016l-1.244-1.83c-3.229 1.591-6.764 3.197-10.558 4.833-2.633 1.136-5.392 2.295-8.252 3.468-1.429.581-2.888 1.174-4.365 1.776-1.441.609-2.891 1.242-4.271 2.045-2.756 1.57-5.391 3.595-7.366 6.236-1.988 2.621-3.226 5.857-3.418 9.257-.218 3.409.623 6.905 2.118 10.131 1.5 3.237 3.662 6.217 6.193 8.879 2.529 2.67 5.471 4.99 8.607 7.029 3.147 2.016 6.52 3.727 10.014 5.127 6.997 2.815 14.467 4.368 21.879 4.95 3.703.289 7.407.31 11.051.136 3.633-.125 7.158-.685 10.432-1.841 3.277-1.147 6.246-2.914 8.676-5.176 2.437-2.258 4.33-4.979 5.701-7.852 1.371-2.877 2.25-5.892 2.802-8.859.555-2.975.766-5.908.784-8.729.023-5.642-.774-10.804-1.805-15.28-1.053-4.477-2.361-8.286-3.604-11.338-1.248-3.059-2.425-5.367-3.269-6.92m-3.522 1.912c-.005-.011-.01-.02-.017-.03l-1.901 1.092c.754 1.401 1.827 3.495 2.959 6.289 1.141 2.795 2.348 6.293 3.307 10.401.949 4.101 1.666 8.824 1.651 13.851-.022 2.506-.209 5.084-.68 7.619-.473 2.535-1.215 5.037-2.305 7.315-1.086 2.281-2.521 4.316-4.316 5.98-1.803 1.668-3.977 2.978-6.526 3.873-1.271.453-2.636.797-4.066 1.045-.717.127-1.453.217-2.197.295-.375.031-.75.062-1.131.094-.424.021-.846.043-1.276.062-3.398.164-6.845.145-10.273-.127-6.861-.535-13.727-1.976-20.047-4.521-3.163-1.266-6.176-2.805-8.965-4.586-2.774-1.801-5.332-3.832-7.477-6.094-2.144-2.25-3.898-4.713-5.049-7.203-1.15-2.488-1.701-4.973-1.552-7.162.136-2.192.861-4.131 2.187-5.894 1.305-1.768 3.246-3.305 5.459-4.565.279-.152.557-.304.844-.457.287-.14.584-.287.873-.427.287-.147.59-.28.894-.405l.45-.195c.16-.068.277-.127.48-.203 1.492-.61 2.953-1.203 4.393-1.793 2.888-1.184 5.672-2.35 8.355-3.51 4.154-1.791 8.046-3.565 11.619-5.35l-1.24-1.826c-3.452 1.716-7.217 3.431-11.246 5.166-2.666 1.149-5.443 2.315-8.32 3.496-1.436.582-2.901 1.18-4.381 1.786-.33.138-.656.281-.985.419-.324.139-.648.276-.957.434-.312.152-.632.307-.943.459-.305.168-.609.332-.916.502-2.406 1.371-4.592 3.08-6.133 5.154-1.558 2.064-2.465 4.461-2.617 7.08-.178 2.619.473 5.463 1.744 8.211 1.279 2.756 3.174 5.396 5.455 7.795 2.28 2.406 4.981 4.541 7.871 6.424 2.918 1.865 6.059 3.464 9.344 4.777 6.557 2.641 13.637 4.123 20.69 4.67 3.527.281 7.064.297 10.553.137.437-.026.871-.047 1.301-.069.406-.035.808-.068 1.203-.099.8-.086 1.591-.18 2.363-.317 1.539-.265 3.023-.64 4.426-1.135 2.804-.988 5.261-2.459 7.277-4.334 2.027-1.875 3.621-4.152 4.809-6.64 1.187-2.49 1.98-5.172 2.476-7.862.504-2.691.703-5.394.723-8.009.014-5.246-.731-10.125-1.709-14.353-.99-4.241-2.233-7.85-3.41-10.737-1.174-2.892-2.291-5.062-3.071-6.523m-33.152.291c4.219-2.238 7.828-4.483 10.654-6.709 1.416-1.109 2.635-2.211 3.643-3.262 1.018-1.051 1.811-2.058 2.414-2.931.607-.862 1.002-1.606 1.264-2.108.136-.248.213-.453.277-.582.063-.135.09-.199.09-.199s.129-.27.332-.815c.215-.533.48-1.373.699-2.502.209-1.13.317-2.585.102-4.226-.207-1.639-.731-3.443-1.61-5.203-.851-1.779-2.033-3.52-3.433-5.225-1.403-1.713-3.047-3.363-4.879-4.998-.906-.826-1.871-1.629-2.873-2.437-.117-.1-.258-.205-.401-.311l-.431-.322c-.291-.211-.569-.44-.879-.633-.615-.391-1.225-.809-1.887-1.152-1.291-.741-2.701-1.332-4.158-1.848-1.465-.51-2.992-.873-4.561-1.16-3.146-.512-6.44-.59-9.752-.223-.83.074-1.656.215-2.494.328-.41.078-.83.159-1.242.235l-.631.113-.617.145c-1.67.347-3.321.837-4.975 1.359-3.295 1.096-6.576 2.484-9.762 4.187-3.193 1.688-6.304 3.664-9.299 5.887-3.003 2.223-5.865 4.721-8.589 7.418-2.702 2.717-5.262 5.656-7.588 8.809-.558.759-1.105 1.532-1.64 2.314l1.768 1.291c.531-.779 1.074-1.548 1.629-2.305 2.262-3.062 4.749-5.916 7.377-8.562 2.655-2.617 5.432-5.051 8.35-7.203 2.908-2.162 5.93-4.084 9.022-5.713 3.082-1.65 6.242-2.988 9.414-4.043 6.336-2.064 12.806-2.861 18.664-1.875 1.453.264 2.871.598 4.211 1.066 1.34.479 2.635 1.02 3.813 1.698.603.312 1.156.693 1.716 1.047.287.173.539.39.799.578.258.195.535.386.772.582.972.789 1.91 1.568 2.787 2.359 3.517 3.145 6.269 6.369 7.805 9.551.781 1.576 1.23 3.133 1.402 4.523.181 1.389.09 2.608-.086 3.557-.18.955-.412 1.664-.59 2.123-.172.469-.291.701-.291.701s-.021.059-.07.17c-.059.111-.127.287-.244.508-.231.435-.575 1.082-1.116 1.853-1.056 1.565-2.906 3.61-5.603 5.709-2.684 2.119-6.186 4.299-10.328 6.5-.335.178-.681.356-1.025.535l1.241 1.823c.269-.141.543-.281.809-.422m1.461 3.763c4.538-2.386 8.483-4.803 11.674-7.316 1.543-1.211 2.902-2.435 4.058-3.637 1.157-1.201 2.098-2.384 2.823-3.427.726-1.037 1.213-1.957 1.537-2.573.164-.31.273-.568.349-.732.077-.164.116-.246.116-.246s.16-.33.412-1.022c.267-.677.621-1.75.89-3.207.272-1.455.413-3.347.135-5.445-.035-.262-.074-.527-.111-.793-.053-.265-.106-.531-.158-.801-.106-.55-.27-1.074-.422-1.629-.34-1.078-.762-2.179-1.283-3.228-1.03-2.131-2.389-4.125-3.955-6.024-1.565-1.91-3.346-3.691-5.293-5.437-.971-.873-1.989-1.723-3.04-2.576l-.205-.16-.248-.188-.5-.375c-.332-.242-.66-.51-1.021-.734-.709-.455-1.42-.936-2.186-1.334-1.506-.862-3.125-1.547-4.804-2.139-1.676-.586-3.422-1.002-5.2-1.32-3.548-.584-7.215-.654-10.84-.258-.914.078-1.809.234-2.723.363-.449.084-.902.164-1.355.248l-.684.129-.664.151c-1.812.379-3.584.904-5.363 1.466-3.531 1.17-7.016 2.655-10.387 4.454-3.383 1.787-6.66 3.873-9.812 6.216-3.164 2.332-6.17 4.961-9.031 7.797-2.846 2.856-5.54 5.944-7.985 9.258-.563.768-1.114 1.548-1.655 2.337l1.769 1.292c.538-.786 1.086-1.563 1.648-2.326 2.379-3.229 4.996-6.233 7.766-9.012 2.789-2.764 5.714-5.32 8.794-7.588 3.065-2.279 6.248-4.312 9.534-6.039 3.265-1.748 6.638-3.178 10.037-4.308 1.717-.54 3.42-1.043 5.154-1.407l.647-.146.65-.123c.43-.082.863-.158 1.293-.241.871-.119 1.724-.269 2.598-.345 3.453-.381 6.918-.301 10.242.24 1.668.305 3.293.691 4.858 1.232 1.552.551 3.058 1.188 4.453 1.981.703.371 1.361.816 2.017 1.234.332.211.631.457.948.684l.459.342.23.174.195.156c1.026.824 2.012 1.65 2.953 2.496 1.881 1.685 3.586 3.396 5.063 5.199 1.477 1.789 2.736 3.652 3.674 5.592.949 1.912 1.545 3.924 1.771 5.767.244 1.844.121 3.502-.113 4.78-.242 1.279-.551 2.22-.789 2.824-.227.609-.365.908-.365.908s-.037.074-.108.223c-.068.14-.16.371-.308.648-.285.555-.727 1.373-1.389 2.317-.656.953-1.521 2.039-2.596 3.158-1.074 1.119-2.361 2.273-3.838 3.433-2.941 2.321-6.638 4.608-10.921 6.885-.206.109-.428.217-.636.326zm-68.538-19.742c-1.192 1.88-2.316 3.814-3.339 5.813l-.715 1.406-.672 1.426c-.457.947-.854 1.932-1.276 2.898-.791 1.957-1.541 3.944-2.162 5.977-.652 2.016-1.164 4.084-1.634 6.158-.424 2.084-.809 4.178-1.041 6.291-.27 2.11-.391 4.227-.471 6.342-.01 1.055-.022 2.111 0 3.164.047 1.054.053 2.109.146 3.152l.121 1.57c.032.522.108 1.033.166 1.557.061.517.116 1.033.186 1.549.072.513.156 1.027.236 1.539.143 1.029.358 2.037.553 3.049l.149.757.175.723c.114.48.231.961.344 1.441.238.955.465 1.913.695 2.866.264.947.557 1.888.829 2.83.138.468.279.935.419 1.404.135.469.276.934.444 1.395.33.919.652 1.839.976 2.755 2.618 7.311 6.305 14.092 10.653 19.969 2.226 2.899 4.539 5.639 7.07 8.016.313.303.625.605.932.906.318.283.638.566.961.85.642.558 1.267 1.127 1.916 1.66 1.32 1.029 2.593 2.078 3.931 2.974 1.307.95 2.651 1.764 3.963 2.579.656.402 1.334.753 1.985 1.125.333.183.66.363.984.546.328.176.662.332.99.496.654.325 1.307.643 1.945.958.647.287 1.295.57 1.932.847.629.289 1.268.529 1.895.774.627.234 1.242.49 1.859.699 4.922 1.728 9.373 2.703 13.109 3.203 3.739.514 6.746.602 8.955.516.393-.014.753-.034 1.096-.058l-.344-2.168c-.262.016-.535.03-.828.04-2.082.078-4.974-.004-8.584-.502-3.607-.478-7.91-1.426-12.668-3.094-.599-.201-1.193-.449-1.802-.677-.602-.233-1.221-.467-1.829-.746-.617-.272-1.238-.543-1.871-.823-.617-.304-1.246-.609-1.879-.924-.316-.158-.64-.312-.957-.478-.312-.176-.628-.348-.945-.525-.633-.36-1.287-.702-1.922-1.088-1.261-.789-2.566-1.579-3.824-2.496-1.297-.866-2.525-1.874-3.803-2.868-.621-.517-1.224-1.066-1.851-1.605-.305-.274-.616-.547-.936-.822-.289-.289-.588-.582-.89-.877-2.442-2.291-4.678-4.946-6.84-7.75-4.207-5.696-7.793-12.278-10.348-19.414-.316-.891-.637-1.788-.953-2.688-.164-.445-.301-.904-.436-1.365-.134-.455-.269-.916-.408-1.373-.265-.918-.553-1.838-.808-2.766-.225-.933-.454-1.867-.68-2.808-.469-1.856-.883-3.823-1.192-5.807-.076-.498-.156-.996-.234-1.49-.064-.502-.117-1.004-.176-1.504-.052-.504-.125-1.002-.158-1.506l-.119-1.523c-.094-1.008-.094-2.028-.139-3.047-.025-1.019-.009-2.039 0-3.064.076-2.045.188-4.096.457-6.135.221-2.045.592-4.072 1.006-6.092.457-2.006.951-4.01 1.584-5.967.598-1.968 1.326-3.89 2.096-5.791.406-.941.787-1.894 1.234-2.81l.653-1.389.695-1.359c.973-1.899 2.037-3.739 3.166-5.527zm57.329 105.965c-.114.005-.223.011-.344.015-1.84.073-4.524 0-7.891-.464-3.363-.45-7.41-1.333-11.871-2.899-.557-.191-1.113-.422-1.682-.637-.572-.22-1.148-.435-1.72-.699-.574-.252-1.162-.508-1.75-.765-.574-.29-1.164-.579-1.762-.872-.293-.146-.598-.289-.896-.445-.288-.164-.586-.332-.885-.496-.59-.334-1.201-.65-1.793-1.016-1.184-.738-2.403-1.47-3.58-2.332-1.213-.808-2.358-1.755-3.553-2.683-.584-.483-1.152-.996-1.732-1.5-.288-.256-.58-.512-.87-.77-.277-.269-.56-.547-.835-.816-2.293-2.149-4.389-4.641-6.417-7.278-3.955-5.349-7.361-11.57-9.796-18.388-.303-.854-.608-1.707-.912-2.569-.157-.427-.284-.863-.413-1.302-.129-.444-.257-.879-.392-1.321-.258-.88-.531-1.759-.778-2.65-.218-.9-.435-1.799-.652-2.703-.918-3.6-1.515-7.367-1.777-11.168-.092-.951-.092-1.91-.137-2.861-.019-.961 0-1.922.008-2.881.066-1.918.176-3.845.422-5.761.211-1.918.564-3.821.945-5.719.43-1.887.897-3.77 1.492-5.614.565-1.851 1.254-3.664 1.971-5.46.393-.885.744-1.788 1.172-2.655l.615-1.306.66-1.289c.875-1.712 1.828-3.377 2.842-4.997l-1.771-1.293c-1.079 1.711-2.093 3.472-3.02 5.288l-.674 1.324-.638 1.353c-.438.897-.805 1.823-1.208 2.739-.746 1.851-1.457 3.724-2.039 5.644-.615 1.901-1.095 3.852-1.546 5.805-.395 1.961-.758 3.935-.977 5.922-.254 1.984-.367 3.978-.438 5.965-.009.996-.031 1.992-.003 2.98.046.988.046 1.982.14 2.96l.112 1.481c.035.488.105.976.152 1.467.058.486.111.974.176 1.459l.224 1.451c.297 1.932.703 3.844 1.164 5.676.227.92.446 1.841.668 2.756.252.912.533 1.812.797 2.716.133.45.266.899.403 1.35.128.449.257.894.423 1.336.315.881.621 1.76.936 2.635 2.498 6.99 6 13.408 10.098 18.947 2.101 2.726 4.269 5.305 6.644 7.533.293.285.58.568.867.85.301.269.604.531.907.799.605.523 1.195 1.056 1.796 1.556 1.235.965 2.434 1.947 3.69 2.783 1.219.897 2.486 1.655 3.713 2.424.613.375 1.246.707 1.863 1.053.307.172.611.344.916.514.311.16.623.308.928.463.619.304 1.228.603 1.826.9.615.267 1.221.535 1.818.793.59.273 1.188.5 1.78.726.587.223 1.162.463 1.746.661 4.623 1.621 8.81 2.539 12.306 3.007 3.496.481 6.293.557 8.272.483.212-.008.411-.018.605-.029zm-.632-3.992c-1.607.053-4.018-.015-7.056-.434-3.131-.412-6.906-1.246-11.074-2.707-.52-.174-1.035-.391-1.57-.594-.532-.203-1.069-.404-1.602-.652-.539-.235-1.084-.473-1.633-.713-.543-.268-1.086-.537-1.64-.811-.278-.136-.555-.269-.834-.414-.276-.154-.545-.308-.827-.461-.55-.314-1.119-.609-1.671-.947-1.094-.689-2.237-1.371-3.329-2.172-1.125-.748-2.195-1.633-3.308-2.496-.543-.449-1.067-.931-1.613-1.4-.268-.237-.538-.473-.813-.711-.258-.256-.52-.51-.779-.768-2.133-1.994-4.084-4.324-5.989-6.789-3.701-5.017-6.914-10.869-9.24-17.367-.287-.814-.578-1.631-.867-2.451-.152-.404-.275-.826-.402-1.242-.121-.422-.248-.842-.368-1.266-.246-.842-.511-1.684-.746-2.535-.207-.865-.421-1.729-.629-2.596-.439-1.746-.804-3.463-1.072-5.215l-.201-1.314c-.059-.442-.103-.883-.16-1.322-.047-.446-.109-.885-.143-1.327l-.103-1.334c-.082-.89-.078-1.787-.121-2.677-.02-.896-.004-1.793 0-2.689.066-1.793.172-3.598.4-5.389.193-1.795.527-3.576.885-5.351.404-1.764.836-3.528 1.394-5.256.534-1.741 1.18-3.446 1.858-5.127.365-.832.697-1.682 1.101-2.496l.577-1.231.617-1.219c.779-1.525 1.632-3.009 2.533-4.46l-1.774-1.294c-.963 1.542-1.871 3.126-2.703 4.752l-.642 1.254-.598 1.276c-.412.845-.758 1.722-1.139 2.58-.701 1.746-1.371 3.506-1.916 5.308-.582 1.793-1.031 3.622-1.447 5.452-.369 1.843-.717 3.689-.924 5.554-.236 1.856-.341 3.725-.41 5.588-.004.932-.023 1.865 0 2.795.043.925.043 1.857.129 2.781.258 3.695.83 7.328 1.733 10.867.21.887.431 1.77.638 2.652.246.873.51 1.739.762 2.604.129.428.258.861.387 1.291.123.43.252.859.406 1.277.297.842.598 1.68.889 2.514 2.388 6.676 5.707 12.725 9.544 17.926 1.973 2.556 4.002 4.976 6.219 7.054.274.266.547.53.817.795.283.248.562.496.843.742.563.489 1.11.985 1.678 1.458 1.154.894 2.264 1.814 3.443 2.597 1.137.832 2.321 1.537 3.459 2.258.581.352 1.17.658 1.741.984.289.161.58.321.861.477.291.154.58.291.867.435.574.284 1.143.565 1.709.842.571.25 1.133.5 1.692.742.55.256 1.113.467 1.664.678.558.205 1.088.436 1.636.615 4.327 1.52 8.246 2.383 11.51 2.815 3.252.447 5.842.516 7.572.447.044-.001.081-.004.124-.005zm-.633-3.999c-1.386.016-3.402-.069-5.884-.412-2.883-.382-6.398-1.156-10.265-2.511-.485-.162-.969-.369-1.461-.553-.493-.19-.993-.375-1.493-.604-.492-.218-.998-.439-1.511-.662-.496-.248-1.004-.5-1.516-.75-.258-.131-.519-.254-.777-.386-.252-.143-.504-.286-.762-.426-.504-.293-1.037-.565-1.547-.879-1.014-.639-2.074-1.266-3.082-2.01-1.049-.687-2.031-1.515-3.062-2.306-.5-.418-.987-.866-1.491-1.299-.248-.223-.502-.442-.756-.66-.238-.231-.476-.473-.718-.709-1.985-1.848-3.787-4.016-5.567-6.309-3.445-4.68-6.48-10.166-8.685-16.346-.276-.773-.549-1.551-.821-2.328-.154-.387-.269-.785-.38-1.189-.118-.401-.241-.803-.358-1.205-.234-.805-.49-1.608-.713-2.422-.199-.83-.398-1.658-.599-2.492-.1-.415-.2-.833-.305-1.25l-.146-.624-.124-.605c-.152-.811-.328-1.617-.445-2.437l-.189-1.225c-.057-.41-.092-.82-.141-1.236-.047-.411-.109-.821-.137-1.233l-.095-1.246c-.077-.826-.073-1.658-.112-2.49-.023-.832-.006-1.666 0-2.502.065-1.67.153-3.343.369-5.009.178-1.67.491-3.329.823-4.987.379-1.64.781-3.287 1.308-4.902 1.447-4.671 3.547-9.16 6.109-13.35l-1.778-1.298c-.848 1.375-1.653 2.78-2.389 4.222l-.602 1.178-.566 1.195c-.391.797-.711 1.617-1.067 2.426-.66 1.635-1.287 3.287-1.797 4.971-.546 1.679-.96 3.39-1.355 5.101-.35 1.723-.672 3.446-.859 5.186-.229 1.734-.317 3.474-.387 5.213-.006.869-.02 1.736 0 2.603.041.867.039 1.732.121 2.595l.096 1.289c.029.434.093.862.14 1.284.049.433.094.861.147 1.287l.203 1.269c.26 1.701.613 3.364 1.045 5.08.209.854.41 1.704.615 2.549.234.836.492 1.66.733 2.487.123.414.244.826.363 1.236.117.414.24.824.388 1.221.286.8.571 1.599.852 2.394 2.27 6.354 5.398 12.037 8.988 16.904 1.842 2.387 3.731 4.643 5.793 6.571.254.248.504.494.758.74.26.228.52.457.781.685.528.456 1.036.922 1.559 1.354 1.078.834 2.103 1.689 3.195 2.41 1.055.778 2.157 1.434 3.219 2.102.531.326 1.082.611 1.613.912.27.152.535.299.797.445.264.141.543.268.809.402.531.266 1.06.528 1.586.786.531.234 1.058.461 1.578.687.512.24 1.037.438 1.547.633.519.191 1.023.406 1.527.574 4.027 1.412 7.684 2.217 10.707 2.617 2.78.387 5.014.463 6.519.425zm24.281-102.208c-.125.631-.272 1.105-.403 1.426-.066.16-.101.283-.138.365-.035.076-.061.123-.061.123s-.068.164-.221.481c-.17.316-.42.796-.843 1.394-.815 1.203-2.334 2.93-4.776 4.834-2.426 1.91-5.73 3.986-9.732 6.107-.462.246-.936.492-1.416.738l1.242 1.826c.405-.209.81-.418 1.203-.626 4.074-2.168 7.485-4.301 10.051-6.322 2.586-2.01 4.283-3.912 5.232-5.311.487-.691.786-1.265.987-1.644.191-.387.279-.592.279-.592s.096-.199.246-.604c.158-.394.35-1 .502-1.804.152-.803.227-1.823.072-3.004-.152-1.186-.529-2.535-1.236-3.957-1.371-2.86-3.965-5.946-7.377-8.985-.85-.771-1.764-1.527-2.713-2.295-.238-.199-.476-.363-.715-.548-.24-.172-.474-.368-.734-.53-.52-.322-1.024-.677-1.582-.961-1.086-.627-2.274-1.123-3.514-1.564-1.252-.434-2.566-.75-3.931-.996-5.477-.926-11.673-.188-17.79 1.81-3.062 1.02-6.129 2.315-9.129 3.92-3.004 1.582-5.947 3.457-8.781 5.567-2.85 2.097-5.563 4.47-8.147 7.031-2.568 2.582-4.994 5.363-7.201 8.35-.554.755-1.096 1.522-1.626 2.3l1.772 1.293c.526-.773 1.065-1.536 1.616-2.287 2.137-2.9 4.49-5.601 6.984-8.109 2.512-2.485 5.145-4.789 7.907-6.821 2.753-2.044 5.597-3.861 8.501-5.39 2.895-1.547 5.85-2.795 8.784-3.774 5.863-1.916 11.718-2.584 16.746-1.734 1.25.231 2.455.516 3.58.908 1.119.405 2.194.846 3.166 1.408.502.256.957.575 1.416.866.233.14.44.318.657.47l.318.243c.105.074.219.154.336.257.918.743 1.807 1.479 2.621 2.217 3.289 2.924 5.688 5.83 6.867 8.309.615 1.236.914 2.342 1.031 3.275.124.942.065 1.711-.05 2.34m-67.237 10.19c.519-.768 1.049-1.526 1.598-2.27 2.017-2.731 4.242-5.285 6.595-7.652 2.371-2.344 4.864-4.524 7.467-6.444 5.18-3.859 10.74-6.787 16.137-8.566 5.392-1.766 10.629-2.311 14.826-1.59 1.041.193 2.039.428 2.95.744.902.328 1.759.674 2.521 1.125.397.193.744.451 1.111.674.184.109.342.252.512.371l.252.186.127.093.164.129c.867.703 1.695 1.393 2.451 2.074 3.061 2.713 5.108 5.303 5.936 7.079.441.89.597 1.546.662 2.027.06.48.029.818-.023 1.119-.065.299-.129.545-.206.727-.041.086-.058.152-.076.203-.029.047-.037.072-.037.072s-.045.096-.139.287c-.107.199-.257.5-.562.932-.295.428-.727.982-1.369 1.652-.641.67-1.5 1.453-2.582 2.303-2.166 1.711-5.274 3.672-9.137 5.719-.584.309-1.189.622-1.807.936l1.244 1.828c.542-.276 1.073-.552 1.59-.827 3.94-2.09 7.157-4.111 9.459-5.933 2.33-1.817 3.702-3.393 4.407-4.436.369-.522.572-.92.715-1.182.128-.265.187-.394.187-.394s.014-.035.045-.1c.031-.064.06-.164.109-.293.114-.258.215-.631.313-1.107.09-.475.133-1.055.039-1.781-.096-.731-.328-1.629-.863-2.707-1.024-2.163-3.254-4.928-6.446-7.754-.785-.713-1.644-1.428-2.543-2.155l-.164-.134-.146-.106-.293-.211c-.199-.144-.381-.305-.586-.43-.422-.261-.826-.55-1.283-.777-.873-.51-1.848-.908-2.875-1.281-1.028-.36-2.133-.617-3.289-.834-4.653-.787-10.226-.176-15.874 1.674-5.658 1.863-11.412 4.9-16.768 8.886-2.683 1.985-5.253 4.235-7.703 6.655-2.429 2.439-4.722 5.076-6.808 7.898-.549.748-1.083 1.51-1.606 2.28zm108.227 51.88c-.682 3.658-1.781 7.496-3.609 11.322-1.815 3.813-4.424 7.619-7.877 10.818-1.721 1.594-3.637 3.032-5.68 4.249-2.041 1.216-4.207 2.216-6.412 2.994-2.215.781-4.467 1.343-6.709 1.73-1.119.201-2.238.336-3.358.453-.552.043-1.113.09-1.67.137-.503.023-1.003.049-1.511.076-4.028.192-8.137.168-12.282-.154-8.281-.651-16.729-2.391-24.789-5.631-8.043-3.23-15.75-7.895-22.09-14.5-3.142-3.311-5.943-7.117-7.996-11.537-1.029-2.211-1.855-4.574-2.395-7.07-.544-2.487-.781-5.122-.617-7.78.155-2.648.707-5.314 1.637-7.804.932-2.486 2.221-4.791 3.73-6.791 1.508-2.008 3.208-3.727 4.973-5.185 1.77-1.465 3.598-2.672 5.424-3.715.459-.248.916-.498 1.373-.744.457-.235.912-.452 1.367-.674.459-.229.91-.422 1.362-.619.443-.19.884-.375 1.322-.563 1.465-.594 2.906-1.184 4.32-1.76 2.824-1.158 5.525-2.291 8.09-3.398 3.19-1.374 6.163-2.717 8.869-4.02l-1.533-2.256 2.411-1.64 1.761 2.592c.681-.346 1.35-.689 1.989-1.028 3.796-2.009 6.816-3.926 8.859-5.543 1.027-.806 1.816-1.529 2.396-2.131.577-.599.944-1.078 1.186-1.425.478-.698.508-.914.531-.92l.024-.049c.017-.035.023-.078.046-.133.059-.113.083-.258.122-.41.027-.152.039-.287.007-.563-.041-.275-.125-.72-.492-1.459-.668-1.453-2.554-3.902-5.513-6.515-.725-.656-1.536-1.326-2.379-2.014l-.155-.121-.109-.082-.219-.16c-.156-.106-.289-.234-.453-.324-.318-.194-.617-.422-.969-.592-.668-.397-1.425-.701-2.23-.996-.813-.281-1.707-.492-2.656-.674-1.918-.299-4.102-.381-6.475-.117-.586.043-1.194.156-1.799.234l-.926.176-.461.082-.471.111c-1.252.258-2.531.643-3.826 1.045-5.18 1.709-10.582 4.543-15.617 8.295-2.531 1.865-4.953 3.986-7.264 6.27-2.295 2.306-4.459 4.791-6.42 7.447-.546.741-1.073 1.497-1.589 2.263l2.07 1.51-1.723 2.36-1.921-1.403c-2.453 4.034-4.46 8.344-5.844 12.819-.512 1.558-.899 3.152-1.266 4.74-.322 1.6-.625 3.203-.797 4.816-.207 1.612-.297 3.229-.357 4.84-.002.803-.024 1.612-.002 2.414.048.808.035 1.609.117 2.408l.086 1.201c.027.399.092.797.129 1.195.047.399.091.797.14 1.196l.186 1.183c.105.791.281 1.577.431 2.356l.11.59.148.609c.102.41.203.82.297 1.227.199.818.397 1.631.594 2.441.219.797.469 1.584.693 2.371.117.397.235.789.35 1.18.113.394.224.785.371 1.16.27.764.535 1.521.803 2.277 2.156 6.035 5.103 11.356 8.437 15.881 1.717 2.215 3.459 4.311 5.373 6.09.231.231.463.459.696.684.242.216.482.427.722.636.487.416.953.848 1.434 1.248.998.764 1.947 1.561 2.953 2.227.973.715 1.988 1.316 2.967 1.936.492.302 1.002.562 1.494.841.25.141.492.278.732.412.248.133.502.252.75.373.492.247.985.487 1.463.725.492.215.985.43 1.461.639.481.22.961.4 1.438.584.478.176.937.375 1.404.533 3.732 1.305 7.135 2.055 9.908 2.422 2.231.309 4.055.398 5.345.395l-.509-3.217 2.883-.456.485 3.062c.987-.641 2.635-1.695 3.265-2.007.926-.457 2.75-.367 3.573-.547.82-.185 1.828-.185 3.375 0 1.552.18 2.463-.365 4.654-.14 2.189.23 3.375-.09 4.746 1.576 1.367 1.666 2.098 1.39-.641.935-2.736-.457-4.195-.638-6.023-.275-1.822.365-2.012.457-2.924.457-.904 0-2.912.82-4.01.09-1.088-.729-2.394-.729-2.75-.363-.353.363-1.078 1.093-1.257 1.64-.105.312-.979.418-1.72.451l.284 1.795c.927-.268 2.383-.509 4.537-.418 4.377.182 8.572.619 11.582.493 3.014-.127 5.203-.698 6.481 0 .188.102.356.166.498.208-.422-.003-1.18.054-2.418.301-3.647.731-9.034 1.553-10.491 1.553s-4.652.271-5.294 0c-.635-.277-2.772-.953-3.645-.369-.3.2-.609.369-.89.507l.324 2.046c.503-.174 1.172-.298 2.009-.178 1.93.273.438.082 4.008-.184 3.578-.261 8.963-.603 10.422-.332 1.461.274 2.465 1.141 0 .891-2.461-.254-13.723 1.105-14.871 1.775-.409.24-.824.354-1.191.406l.287 1.816c.438-.024.902-.026.966.065.12.178.999-.377 1.461-.789.465-.412 1.657-.447 2.25-.976.598-.528 1.657-.596 2.383-.463.727.133 1.457 0 1.457 0h4.168s-.197.527-1.988 1.439c-1.785.91-.658-.05-2.449 0-1.797.049-.989.545-1.653 1.055-.658.512-.527.219-1.255.486-.727.262-.663.262-1.788.459-1.125.2-.66.268-1.453.729-.392.229-1.105.312-1.728.337l.205 1.296c.383.118.814.287 1.215.518.551.017 1.113.196 1.574.687 1.465 1.549 9.762-5.252 11.5-6.504 1.734-1.25 4.01.523 5.203 0 1.184-.522 2.369-1.479 3.098-1.457.73.021-1.094 2.67-3.192 3.033-2.097.365-4.017-.092-6.478 1.459-2.467 1.553-4.289 3.375-5.842 4.289-.88.517-2.432.858-3.686 1.023.913 1.02 2.214 1.868 4.137 1.807 2.834-.092 5.209-1.967 6.576-2.125 1.369-.156 3.012.438 3.012.438s-1.643.134-2.375.41c-.73.273-1.822 1.099-3.191 1.279-1.371.178-4.561.463-4.836.461-.276-.006-2.192.186-2.555 0-.363-.191-.641-.283-1.189-.736-.54-.459-1.547-.731-1.502-.823.046-.089-.965-.591-.965-.591l-.003-.003.268 1.694-2.882.459-.426-2.69c-.408.03-.842.056-1.313.073-2.317.086-5.424-.004-9.274-.533-3.843-.514-8.414-1.514-13.47-3.291-.633-.215-1.264-.477-1.909-.719-.646-.248-1.3-.496-1.947-.793-.656-.289-1.318-.578-1.99-.871-.658-.326-1.326-.655-1.996-.985-.338-.168-.68-.336-1.024-.511-.332-.184-.668-.371-1.007-.559-.672-.383-1.364-.746-2.043-1.158-1.34-.838-2.727-1.678-4.071-2.654-1.381-.922-2.691-1.997-4.05-3.059-.659-.547-1.305-1.131-1.965-1.705-.332-.293-.662-.584-.992-.875-.317-.309-.637-.619-.954-.93-2.601-2.447-4.976-5.26-7.261-8.236-4.469-6.031-8.243-12.979-10.91-20.436-.329-.931-.661-1.867-.995-2.806-.173-.473-.314-.946-.455-1.426-.136-.475-.281-.953-.424-1.428-.279-.957-.574-1.914-.837-2.879-.239-.967-.475-1.943-.715-2.916-.117-.488-.229-.978-.348-1.467l-.176-.734-.156-.775c-.203-1.035-.422-2.075-.568-3.127-.08-.528-.159-1.053-.244-1.582-.071-.528-.125-1.061-.19-1.588-.053-.533-.129-1.067-.17-1.6l-.123-1.607c-.096-1.076-.103-2.16-.15-3.238-.02-1.078-.004-2.164.004-3.252.082-2.168.203-4.348.48-6.514.24-2.164.633-4.316 1.07-6.457.485-2.129 1.01-4.246 1.678-6.32.635-2.084 1.406-4.117 2.213-6.127.434-.994.84-1.998 1.309-2.967l.691-1.465.732-1.439c1.066-2.084 2.241-4.097 3.486-6.051l-2.964-2.164 1.719-2.357 2.854 2.084c.544-.792 1.096-1.576 1.661-2.346 2.504-3.393 5.25-6.547 8.157-9.469 2.925-2.898 6-5.582 9.234-7.968 3.228-2.397 6.58-4.532 10.043-6.364 3.461-1.845 7.037-3.369 10.682-4.576 1.83-.58 3.658-1.119 5.531-1.514l.693-.156.707-.135c.465-.088.934-.173 1.399-.257.951-.135 1.877-.293 2.832-.375 3.767-.416 7.6-.34 11.336.269 1.867.34 3.711.779 5.488 1.397 1.778.625 3.496 1.357 5.096 2.271.809.422 1.57.932 2.322 1.42.379.242.735.523 1.09.777.174.135.356.27.531.399l.264.199.211.17c1.076.867 2.119 1.734 3.115 2.637 1.996 1.793 3.844 3.638 5.485 5.636 1.636 1.983 3.078 4.096 4.185 6.387.563 1.125 1.018 2.32 1.385 3.492.174.604.344 1.172.461 1.78.062.294.117.585.176.875.041.293.082.585.125.873.3 2.296.15 4.394-.149 6-.301 1.605-.687 2.777-.976 3.521-.284.758-.457 1.119-.457 1.119s-.047.092-.121.276c-.092.17-.207.457-.383.791-.352.673-.883 1.67-1.668 2.777-.772 1.127-1.785 2.391-3.004 3.658-1.215 1.274-2.652 2.553-4.25 3.813-3.271 2.571-7.239 5.009-11.766 7.398l1.596 2.348-2.412 1.64-1.798-2.645c-3.675 1.843-7.668 3.664-11.927 5.503-2.696 1.162-5.498 2.338-8.391 3.521-1.441.59-2.906 1.19-4.396 1.793-.209.082-.315.135-.467.196l-.424.191c-.289.117-.578.24-.84.375-.271.133-.547.27-.82.402-.258.141-.518.284-.781.426-2.051 1.168-3.786 2.563-4.899 4.07-1.125 1.512-1.695 3.07-1.82 4.904-.133 1.828.332 4.02 1.381 6.289 1.052 2.27 2.689 4.58 4.72 6.711 2.024 2.143 4.477 4.086 7.139 5.822 2.682 1.711 5.596 3.2 8.658 4.426 6.126 2.465 12.809 3.871 19.505 4.395 3.349.262 6.718.283 10.052.125.413-.024.831-.041 1.245-.063l1.066-.09c.707-.074 1.398-.158 2.07-.277 1.338-.23 2.602-.555 3.764-.967 2.344-.822 4.277-1.998 5.893-3.488 1.607-1.49 2.906-3.326 3.916-5.432 1.005-2.101 1.705-4.451 2.15-6.859.451-2.406.633-4.883.65-7.297.022-4.844-.679-9.437-1.595-13.429-.938-3.992-2.118-7.408-3.223-10.127-1.097-2.685-2.123-4.706-2.855-6.065l-2.715 1.559-1.45-2.531 2.457-1.412c-.263-.065-.553-.106-.859-.088-1.137.058-3.383.662-4.176-.006-.793-.666-1.035-1.758-.912-2.611.119-.852 1.217-1.957 1.217-1.957s-.426 1.652-.305 2.201c.119.551.485 1.219 1.461 1.031.973-.182 2.129 0 2.373.065.09.023.44.038.845.055-.155-.146-.314-.297-.503-.481-1.865-1.824-2.715-2.92-2.228-5.352.486-2.431 2.435-6.328 2.795-7.91.367-1.578.453 4.383-.567 6.57-1.012 2.19-1.543 2.5-.183 4.11 1.087 1.283 2.224 2.309 2.705 3.418l1.987-1.142c-.277-.235-.568-.596-.778-1.155-.547-1.459-1.153-1.401-1.459-2.25-.305-.856-.913-2.492-.364-3.469.545-.973 1.336-3.1 1.336-3.709s.451 1.522.287 3.346c-.168 1.822-.933 2.676 0 3.59.799.782.913 1.028 1.316 1.583-.113-.674-.171-1.499.04-2.132.426-1.278.607-3.1.726-3.955.125-.85.559-.973.797 0 .242.976-.367 2.174-.306 3.308.06 1.133-.061 2.018.06 2.278.121.256.244-.149 0 .742-.074.273-.076.591-.048.9l2.734-1.571c-.173-.615-.38-1.481-.405-2.189-.045-1.23.413-1.687-.457-3.285-.865-1.595-1.125-2.111-1.521-2.72-.393-.608-.69-1.395-.858-2.532-.173-1.134-.058-1.591 0-2.502.051-.914.858-2.601.858-2.601s-.33 2.789 0 4.156c.338 1.363.326 1.955.832 2.781.504.821.92.955 1.189 2.186.278 1.232.227 1.369.276 2.01.047.638.094.773.322 1.593.229.825.193 1.096.438 1.391.145.179.247.733.305 1.149l1.353-.777c-.389-.731-1.049-1.993-1.049-2.126 0-.182.271-1.265 0-2.478-.274-1.217-.953-2.678-1.004-2.813-.043-.135-.18.318-.318-.867-.096-.82.006-2.547.033-3.646.053.434.124.945.195 1.41.182 1.187-.181 1.873.276 2.328.451.459.773.623 1.185 1.338.408.714.641.666.727 1.851.093 1.19.047.643.232 1.6.182.957-.049.324.27 1.277.171.52.331 1.116.442 1.558l2.74-1.574c-.346-.078-.817-.422-1.036-1.671-.365-2.098-1.476-3.786-1.808-4.606-.338-.826-1.112-.914-1.112-2.056 0-1.139.186-6.704 0-7.483-.185-.773.504-.908.588.367.098 1.28-.133 1.186.051 3.422.183 2.238-.61 2.51.473 3.559 1.078 1.049.892.808 1.257 1.224.368.416.457.416.688 1.327.23.918-.047.261.271 1.205.323.943-.134 1.488.502 1.851.236.136.312.172.336.191.062-.609.126-1.252.164-1.644.094-.914-.226-1.324 0-2.057.231-.732.414-2.279.5-2.736.094-.457.645-1.642 1.1-2.33.457-.682.732-.178.773-1.549.047-1.365.545-2.965.545-2.965s-.086 2.83 0 4.653c.098 1.826-.179 2.191-.545 3.56-.361 1.367-.679 2.147-.773 2.645-.088.504-.483 1.324-.287 1.869.138.382.396 1.37.542 1.943l2.055-1.181 1.454 2.531-2.575 1.478c.06.109.117.211.18.327.961 1.787 2.316 4.431 3.729 7.898 1.408 3.469 2.884 7.758 4.078 12.826 1.162 5.074 2.08 10.927 2.062 17.554-.023 3.313-.267 6.817-.949 10.481" fill="#2f4358" transform="translate(199.1172 84.3447)"/></g></svg>