<svg width="22" height="22" viewBox="0 0 22 22" fill="none" xmlns="http://www.w3.org/2000/svg">
<g clip-path="url(#clip0_23570_20237)">
<path d="M21.6439 11C21.6439 13.1059 21.0194 15.1645 19.8494 16.9155C18.6794 18.6665 17.0165 20.0312 15.0709 20.8371C13.1253 21.643 10.9844 21.8539 8.91901 21.4431C6.85357 21.0322 4.95635 20.0181 3.46725 18.529C1.97816 17.0399 0.964069 15.1427 0.553229 13.0773C0.142388 11.0118 0.353246 8.87096 1.15914 6.92537C1.96503 4.97977 3.32976 3.31684 5.08075 2.14686C6.83174 0.976888 8.89035 0.352417 10.9963 0.352417C13.8202 0.352417 16.5284 1.47422 18.5253 3.47103C20.5221 5.46785 21.6439 8.17611 21.6439 11Z" fill="#FFDA00"/>
<path d="M19.2735 8.70572C19.1849 8.20934 19.031 7.72685 18.8159 7.27083C18.5722 6.75491 18.2333 6.2896 17.817 5.89932C17.5962 5.69546 17.3549 5.51493 17.0971 5.3606C16.8397 5.20683 16.5675 5.07943 16.2846 4.98033C16.0078 4.88328 15.7232 4.80992 15.434 4.76104C15.292 4.73442 15.1501 4.71794 15.0081 4.70273L14.7964 4.68625L14.605 4.67611C14.0863 4.6502 13.5664 4.65655 13.0484 4.69512C11.9708 4.77295 10.9113 5.014 9.90613 5.41003C8.85266 5.81655 7.89805 6.44316 7.10606 7.24801C6.69109 7.67703 6.34861 8.17064 6.092 8.70953C5.95807 8.99608 5.85646 9.29666 5.78905 9.6057C5.7174 9.92921 5.69095 10.2611 5.71046 10.5919C5.74878 11.2626 5.98572 11.9068 6.39114 12.4425C6.57626 12.6852 6.78895 12.9056 7.02493 13.0991C7.24029 13.2759 7.47059 13.4337 7.71322 13.5707L7.88688 13.6645C7.94519 13.6949 8.00223 13.7215 8.06054 13.7507C8.11885 13.7798 8.17589 13.8039 8.23293 13.828L8.40025 13.9002L8.94784 14.1233C9.3053 14.2704 9.64881 14.4136 9.97331 14.5543C10.3777 14.728 10.7541 14.8978 11.0976 15.0613L10.9075 15.3503L11.213 15.5582L11.4361 15.2299L11.6896 15.3567C12.0834 15.5581 12.4592 15.793 12.8127 16.0589C12.9194 16.1423 13.0205 16.2325 13.1156 16.3289C13.1709 16.385 13.2214 16.4456 13.2665 16.5102C13.2936 16.5461 13.3162 16.5853 13.3336 16.6268C13.3364 16.632 13.3385 16.6375 13.34 16.6433C13.3469 16.66 13.352 16.6774 13.3552 16.6952C13.3592 16.7187 13.3592 16.7427 13.3552 16.7662C13.3448 16.8309 13.3238 16.8934 13.2931 16.9513C13.1119 17.2669 12.8748 17.547 12.5934 17.7777C12.5021 17.8601 12.3994 17.9451 12.2917 18.0313L12.2727 18.0465L12.2587 18.0566L12.2309 18.0769C12.2127 18.0919 12.1936 18.1059 12.1738 18.1187C12.1333 18.1428 12.0952 18.172 12.0471 18.1935C11.9568 18.244 11.8622 18.2865 11.7644 18.3203C11.6544 18.3576 11.5417 18.3865 11.4272 18.4065C11.1557 18.4476 10.8799 18.4527 10.6071 18.4217C10.5323 18.4153 10.455 18.4014 10.3789 18.3912L10.261 18.3697L10.2027 18.3583L10.1432 18.3443C9.98471 18.3114 9.82246 18.2632 9.65895 18.2176C8.9474 17.974 8.27908 17.6189 7.679 17.1655C7.35281 16.9235 7.04481 16.6578 6.75747 16.3707C6.46397 16.0763 6.192 15.7611 5.94369 15.4277C5.87524 15.3326 5.80806 15.2375 5.74341 15.1399L6.00453 14.9485L5.78651 14.6494L5.54694 14.837C5.23445 14.3282 4.98582 13.7828 4.80668 13.2132C4.74076 13.0155 4.6926 12.8127 4.6457 12.6124C4.5988 12.4121 4.56711 12.2055 4.54429 12.0014C4.52147 11.7973 4.50753 11.592 4.49993 11.3879C4.49993 11.2865 4.49993 11.1838 4.49993 11.0824C4.49993 10.981 4.49993 10.8783 4.51514 10.7769L4.52655 10.6248C4.52655 10.5741 4.53795 10.5234 4.54302 10.4727C4.54809 10.422 4.55443 10.3713 4.56077 10.3219L4.58359 10.171C4.59753 10.0709 4.61908 9.97203 4.63809 9.87316L4.65203 9.79837L4.67105 9.72105C4.68372 9.66908 4.69767 9.61711 4.70907 9.56514C4.73443 9.4612 4.75978 9.35852 4.78386 9.25585C4.80795 9.15318 4.84344 9.05557 4.87259 8.95543C4.88654 8.90473 4.90175 8.8553 4.91696 8.80586C4.92972 8.75598 4.94538 8.70688 4.96386 8.65882L5.06526 8.36982C5.32215 7.65042 5.68255 6.97232 6.13509 6.35691C6.34051 6.0814 6.56771 5.82283 6.81451 5.58369C6.84367 5.55454 6.87282 5.52538 6.90324 5.4975L6.99451 5.41637C7.05535 5.36313 7.12127 5.30863 7.17577 5.25792C7.30253 5.16159 7.42929 5.06018 7.55604 4.97652C7.6828 4.89286 7.80956 4.8092 7.93632 4.73061C7.99843 4.69259 8.06307 4.65963 8.12645 4.62414L8.21899 4.57217C8.25068 4.55442 8.28236 4.53921 8.31405 4.524L8.49912 4.43273L8.68419 4.35161C8.74503 4.32372 8.81094 4.30091 8.86672 4.27809C8.92249 4.25527 8.98587 4.22992 9.04418 4.20964C9.45166 4.06588 9.87246 3.96312 10.3003 3.90289C10.5249 3.87029 10.7516 3.85376 10.9785 3.85345L10.9075 4.25654L11.2726 4.31485L11.3347 3.92697C11.4614 4.0081 11.6681 4.14119 11.7479 4.18049C11.8658 4.23879 12.0965 4.22739 12.2004 4.2502C12.3422 4.27494 12.4871 4.27494 12.6289 4.2502C12.8253 4.22739 12.9407 4.2971 13.2183 4.26795C13.4959 4.2388 13.6467 4.27936 13.8204 4.06894C13.994 3.85852 14.0866 3.89148 13.7393 3.94979C13.392 4.0081 13.2069 4.03091 12.9787 3.98528C12.8577 3.95108 12.733 3.9315 12.6073 3.92697C12.4932 3.92697 12.2385 3.82303 12.1003 3.91556C11.9621 4.0081 11.7973 4.0081 11.7517 3.9612C11.6863 3.90214 11.6322 3.83171 11.592 3.75331C11.5793 3.71402 11.4652 3.70008 11.374 3.69627L11.4107 3.46938C11.5986 3.51681 11.7928 3.53435 11.9862 3.52135C12.5401 3.49853 13.0725 3.44276 13.4541 3.45924C13.8356 3.47572 14.1132 3.54797 14.2755 3.45924C14.2926 3.44729 14.3108 3.4371 14.33 3.42882C14.2267 3.42684 14.1239 3.4141 14.0232 3.39079C13.5842 3.29957 13.1402 3.23396 12.6935 3.19431C12.5085 3.19431 12.1041 3.16009 12.0217 3.19431C11.9393 3.22854 11.6706 3.31473 11.5603 3.24121C11.5241 3.21737 11.4864 3.19578 11.4475 3.17657L11.4881 2.91672C11.5694 2.94506 11.6565 2.9529 11.7416 2.93953C11.9862 2.90531 11.7973 2.92939 12.2486 2.96362C12.6999 2.99784 13.3894 3.03967 13.5694 3.00545C13.7494 2.97122 13.8825 2.86094 13.5694 2.89263C13.2563 2.92432 11.8341 2.75573 11.6883 2.66827C11.6419 2.64145 11.5907 2.62421 11.5375 2.61757L11.5743 2.38687C11.6288 2.38687 11.6883 2.38687 11.701 2.378C11.7137 2.36912 11.8278 2.42617 11.8861 2.47814C11.9444 2.53011 12.0965 2.53518 12.1713 2.60489C12.2149 2.63524 12.2644 2.65611 12.3166 2.66615C12.3688 2.67619 12.4225 2.67519 12.4742 2.6632C12.5351 2.65365 12.5971 2.65365 12.658 2.6632H13.1866C13.1866 2.6632 13.1613 2.59729 12.9331 2.48067C12.7049 2.36405 12.8494 2.48067 12.6225 2.48067C12.3956 2.48067 12.4958 2.41222 12.4134 2.35391C12.331 2.2956 12.3462 2.32603 12.2549 2.2918C12.1821 2.26271 12.1059 2.24312 12.028 2.23349C11.8848 2.20814 11.9444 2.20054 11.8442 2.14223C11.775 2.11247 11.7003 2.09778 11.625 2.09913L11.6503 1.93435C11.7042 1.91843 11.7561 1.89632 11.8049 1.86843C11.8423 1.8686 11.8792 1.86103 11.9135 1.8462C11.9477 1.83136 11.9785 1.80958 12.004 1.78224C12.1903 1.58576 13.2411 2.44771 13.4617 2.60616C13.6822 2.76461 13.9687 2.54025 14.1208 2.60616C14.2729 2.67207 14.4212 2.79376 14.5138 2.79123C14.6063 2.78869 14.3756 2.45278 14.1094 2.41095C13.8432 2.36912 13.6024 2.42236 13.288 2.22589C12.9737 2.02942 12.7442 1.79745 12.5477 1.6821C12.4003 1.61333 12.242 1.57045 12.08 1.55534C12.1442 1.47974 12.2249 1.41985 12.3159 1.3803C12.4069 1.34075 12.5057 1.32258 12.6048 1.32718C12.9648 1.33859 13.2652 1.58069 13.4389 1.5959C13.568 1.60237 13.6972 1.58342 13.8191 1.54013C13.7171 1.53282 13.616 1.51541 13.5174 1.48816C13.3912 1.41509 13.255 1.36086 13.1131 1.32718C12.9394 1.30436 12.5351 1.2676 12.5008 1.2676C12.393 1.25682 12.2842 1.25682 12.1763 1.2676C12.1224 1.29257 12.0718 1.32407 12.0255 1.3614C11.9571 1.41971 11.8303 1.45394 11.8354 1.46535C11.8404 1.47675 11.7086 1.54013 11.7086 1.54013L11.7428 1.32464L11.3778 1.26634L11.3233 1.60731L11.161 1.58576C10.7682 1.57522 10.3751 1.59769 9.98598 1.65295C9.40409 1.73389 8.83198 1.87406 8.27856 2.07124C8.19744 2.09786 8.11758 2.13082 8.03645 2.16124C7.95533 2.19166 7.87167 2.22462 7.78294 2.26265L7.52943 2.37293L7.27591 2.49968L7.14915 2.56433L7.0224 2.63531C6.93747 2.68475 6.85001 2.73038 6.76888 2.78235C6.59903 2.88883 6.42283 2.99531 6.25298 3.11953C6.08312 3.24375 5.912 3.37304 5.74595 3.4998C5.66229 3.56952 5.5799 3.6443 5.49243 3.71655L5.36568 3.82683L5.24526 3.94472C4.90769 4.26843 4.59696 4.61901 4.31613 4.993C3.7307 5.78422 3.26474 6.65719 2.9332 7.58392C2.89137 7.70181 2.84954 7.81969 2.80645 7.93884C2.7849 7.99968 2.76715 8.0656 2.74941 8.1201C2.73166 8.17461 2.71391 8.24052 2.6949 8.30137C2.65941 8.42812 2.62265 8.54347 2.58969 8.66516L2.49843 9.03529C2.48322 9.0974 2.46927 9.16205 2.45406 9.22163L2.43251 9.31416L2.41223 9.41303C2.38688 9.53979 2.35899 9.67542 2.33998 9.80851L2.30956 10.0101C2.30069 10.076 2.29308 10.1444 2.28548 10.2103C2.27787 10.2762 2.269 10.346 2.26393 10.4131L2.24872 10.6172C2.23604 10.7541 2.23477 10.891 2.2297 11.0279C2.22463 11.1648 2.2297 11.3017 2.2297 11.4399C2.23984 11.7149 2.25505 11.9913 2.29055 12.2651C2.32604 12.5389 2.3704 12.8127 2.42618 13.0839C2.48195 13.3552 2.55293 13.6226 2.63913 13.885C2.72532 14.1474 2.81659 14.4073 2.91926 14.662C2.97377 14.7888 3.02574 14.9156 3.08531 15.0423L3.17278 15.2274L3.26531 15.4099C3.40094 15.6736 3.54925 15.9296 3.70769 16.1705L3.32742 16.4455L3.55558 16.7459L3.91557 16.4848C3.98402 16.585 4.05374 16.6838 4.12599 16.7814C4.74803 17.6227 5.4908 18.3676 6.3303 18.9921C6.73177 19.2926 7.15552 19.5621 7.59787 19.7983C8.03185 20.0298 8.48474 20.224 8.95164 20.3788C9.18229 20.4546 9.41668 20.5185 9.65388 20.5702L9.74134 20.5905L9.83134 20.6082L10.0075 20.6399C10.1343 20.6577 10.2458 20.678 10.3675 20.6881C10.8456 20.7414 11.3287 20.7299 11.8037 20.6539C12.0399 20.6128 12.2726 20.5535 12.4996 20.4764C12.7235 20.4008 12.94 20.3045 13.146 20.1887C13.247 20.1336 13.3452 20.0736 13.4401 20.0087C13.4883 19.9783 13.5327 19.9428 13.5783 19.9098C13.5998 19.8933 13.6227 19.8756 13.6455 19.8604L13.6784 19.835L13.7063 19.8135C13.8419 19.7032 13.9738 19.5929 14.1005 19.4788C14.3501 19.2588 14.5824 19.0197 14.7952 18.7639C15.004 18.5167 15.1824 18.2451 15.3263 17.9552C15.3964 17.8121 15.4553 17.6638 15.5025 17.5116C15.524 17.4355 15.5456 17.3632 15.5608 17.2859C15.5684 17.2492 15.5747 17.2124 15.5823 17.1756C15.5899 17.1389 15.5925 17.1009 15.5988 17.0654C15.6515 16.6575 15.6023 16.2429 15.4556 15.8586C15.4201 15.7623 15.3973 15.7167 15.3973 15.7167L15.382 15.6812C15.3706 15.6596 15.3567 15.6229 15.3339 15.581C15.2717 15.4587 15.201 15.341 15.1222 15.2287C15.0081 15.0641 14.8809 14.9089 14.7419 14.7647C14.5737 14.5907 14.3937 14.4285 14.2032 14.2792C13.7347 13.9229 13.2354 13.609 12.7113 13.3412L12.9141 13.0446L12.6086 12.8355L12.3804 13.1714C11.914 12.9382 11.4082 12.7075 10.8682 12.4742C10.5272 12.3272 10.171 12.1776 9.80472 12.028L9.24699 11.7999L9.18868 11.7758L9.13417 11.7517C9.09868 11.7365 9.06192 11.7213 9.0277 11.7035L8.92376 11.6528L8.82489 11.5983C8.58491 11.4704 8.37356 11.2948 8.20377 11.0824C8.06712 10.9028 7.98684 10.6866 7.97308 10.4613C7.96519 10.1852 8.02526 9.91144 8.148 9.66401C8.3008 9.35009 8.50325 9.06288 8.74756 8.81347C9.01882 8.53293 9.32217 8.28532 9.65134 8.07574C9.99926 7.85531 10.3667 7.66734 10.7491 7.5142C11.5406 7.20501 12.3744 7.01739 13.2221 6.95774C13.6438 6.92529 14.0672 6.91979 14.4897 6.94126L14.6468 6.94887L14.7825 6.96027C14.8725 6.97042 14.9599 6.98056 15.0449 6.99577C15.207 7.02448 15.3665 7.06689 15.5215 7.12252C15.7987 7.21662 16.0534 7.36726 16.2693 7.56491C16.4797 7.75789 16.6517 7.98883 16.7764 8.24559C16.9053 8.5221 16.997 8.81451 17.0489 9.11515C17.104 9.42007 17.1316 9.72934 17.1313 10.0392C17.1289 10.6125 17.0613 11.1836 16.9297 11.7416C16.8267 12.1794 16.6903 12.6087 16.5216 13.0256C16.4142 13.2882 16.2932 13.545 16.1591 13.795L15.8143 13.5973L15.6318 13.918L15.9423 14.0967C15.9066 14.1052 15.87 14.1091 15.8333 14.1081C15.6901 14.1005 15.4049 14.0245 15.3047 14.1081C15.2594 14.1492 15.2251 14.2011 15.2049 14.2589C15.1848 14.3166 15.1794 14.3786 15.1894 14.439C15.2183 14.5351 15.271 14.6223 15.3427 14.6925C15.3176 14.6016 15.3048 14.5078 15.3047 14.4136C15.3069 14.3924 15.3137 14.3719 15.3246 14.3535C15.3355 14.3352 15.3503 14.3194 15.3679 14.3074C15.3855 14.2953 15.4055 14.2872 15.4266 14.2837C15.4476 14.2801 15.4692 14.2812 15.4898 14.2868C15.5896 14.302 15.6914 14.299 15.7902 14.278C15.8016 14.278 15.846 14.278 15.8979 14.2716L15.8333 14.3325C15.5975 14.5632 15.4898 14.7026 15.5506 15.0106C15.6115 15.3187 15.8599 15.813 15.9055 16.0133C15.9512 16.2136 15.9626 15.4581 15.8333 15.1805C15.704 14.9029 15.6381 14.8636 15.8105 14.6595C15.9428 14.5304 16.0578 14.3847 16.1527 14.226L16.4062 14.3718C16.3609 14.4107 16.3268 14.461 16.3074 14.5175C16.2389 14.7026 16.1616 14.695 16.1223 14.8027C16.083 14.9105 16.007 15.1184 16.0767 15.2426C16.1567 15.3899 16.214 15.5484 16.2465 15.7129C16.2465 15.7902 16.3036 15.5202 16.282 15.2882C16.2605 15.0563 16.1641 14.9498 16.282 14.8332C16.3458 14.7736 16.4021 14.7063 16.4493 14.6329C16.429 14.7217 16.429 14.814 16.4493 14.9029C16.4948 15.0689 16.5257 15.2386 16.5419 15.4099C16.5571 15.5177 16.6129 15.5367 16.642 15.4099C16.6712 15.2832 16.5964 15.1336 16.604 14.9904C16.6008 14.894 16.6033 14.7974 16.6116 14.7013C16.6268 14.6697 16.642 14.7204 16.6116 14.6075C16.6024 14.5702 16.6003 14.5316 16.6052 14.4935L16.9513 14.6925C16.9242 14.7829 16.9072 14.876 16.9006 14.9701C16.8943 15.126 16.9526 15.1843 16.8423 15.3858C16.732 15.5874 16.7003 15.6546 16.6496 15.7306C16.5907 15.8289 16.5535 15.9387 16.5406 16.0526C16.526 16.1577 16.526 16.2643 16.5406 16.3695C16.5615 16.4838 16.5982 16.5947 16.6496 16.699C16.6273 16.524 16.6273 16.3468 16.6496 16.1717C16.6657 16.0494 16.7012 15.9304 16.7548 15.8193C16.8195 15.7154 16.8714 15.6989 16.9057 15.543C16.927 15.4601 16.9389 15.3751 16.9412 15.2895C16.9451 15.2203 16.9588 15.1521 16.9817 15.0867C17.0109 14.9827 17.0058 14.9485 17.0375 14.9105C17.0587 14.8645 17.0716 14.8152 17.0755 14.7647L17.2466 14.8636C17.1995 14.9512 17.1572 15.0414 17.1199 15.1336C17.1388 15.2371 17.1388 15.3432 17.1199 15.4467C17.0872 15.569 17.0448 15.6885 16.9931 15.8041C16.9931 15.8206 16.9703 15.7636 16.9526 15.9131C16.9412 16.0171 16.9526 16.2364 16.9526 16.3758C16.9526 16.3213 16.9678 16.2567 16.9766 16.1971C16.9995 16.0462 16.9538 15.96 17.0121 15.9017C17.0713 15.854 17.1219 15.7966 17.1617 15.7319C17.2137 15.6419 17.2428 15.6482 17.2542 15.4974C17.2562 15.4289 17.266 15.3608 17.2834 15.2946C17.2862 15.2394 17.2978 15.1851 17.3176 15.1336C17.3392 15.0677 17.3595 14.9916 17.3734 14.9358L17.7207 15.1349C17.6776 15.145 17.618 15.1881 17.594 15.3465C17.5441 15.5508 17.4669 15.7473 17.3645 15.9309C17.3214 16.0361 17.2238 16.0462 17.2238 16.192C17.2238 16.3378 17.2466 17.0413 17.2238 17.1402C17.201 17.239 17.2872 17.2555 17.2986 17.0933C17.31 16.931 17.2809 16.9437 17.3049 16.6597C17.329 16.3758 17.2276 16.3416 17.3645 16.2085C17.5014 16.0754 17.4773 16.1058 17.5242 16.0538C17.5719 16.0094 17.6028 15.9498 17.6117 15.8853C17.6409 15.7686 17.6117 15.8523 17.6459 15.7319C17.6802 15.6115 17.6282 15.5443 17.7093 15.4974L17.7511 15.4733C17.76 15.5506 17.7676 15.6317 17.7727 15.6824C17.7841 15.7978 17.7435 15.8498 17.7727 15.936C17.8018 16.0222 17.8247 16.225 17.8361 16.2833C17.8686 16.3877 17.9155 16.4871 17.9755 16.5786C18.0338 16.6648 18.068 16.6014 18.0731 16.7751C18.0819 16.9041 18.1053 17.0316 18.1428 17.1554C18.1428 17.1554 18.1314 16.7966 18.1428 16.5659C18.1529 16.4122 18.1291 16.2582 18.0731 16.1147C18.0275 15.941 17.9869 15.8422 17.9755 15.78C17.9641 15.7179 17.9147 15.6115 17.9387 15.543C17.9628 15.4746 17.9894 15.3694 18.0072 15.2895L18.2683 15.4391L18.4521 15.1184L18.1263 14.9308C18.1339 14.9181 18.1403 14.9042 18.1492 14.8902C18.3243 14.565 18.4821 14.2307 18.622 13.8888C18.8353 13.3607 19.0077 12.817 19.1379 12.2625C19.3109 11.5323 19.3989 10.7846 19.4002 10.0341C19.397 9.58848 19.3546 9.14396 19.2735 8.70572ZM5.55962 15.2819C5.62553 15.3795 5.68637 15.4758 5.76243 15.5696C6.01722 15.9125 6.29639 16.2366 6.59776 16.5393C6.89326 16.8343 7.20972 17.1076 7.54464 17.3569C8.16487 17.8246 8.85542 18.1908 9.5905 18.442C10.1922 18.6556 10.836 18.7234 11.469 18.6397C11.5958 18.6176 11.7208 18.5862 11.843 18.5459C11.9537 18.5081 12.0606 18.4602 12.1624 18.4027C12.2131 18.3786 12.2575 18.3456 12.3044 18.3177C12.3272 18.3038 12.3475 18.286 12.369 18.2708L12.4007 18.2467L12.4172 18.2353L12.4375 18.2189C12.5477 18.1301 12.653 18.0427 12.748 17.9552C13.052 17.7054 13.3073 17.4016 13.501 17.059C13.5423 16.9796 13.5705 16.894 13.5846 16.8055C13.5919 16.7585 13.5919 16.7106 13.5846 16.6635C13.5782 16.632 13.5693 16.6011 13.558 16.571C13.5542 16.5627 13.5508 16.5543 13.5479 16.5457V16.5368L13.5301 16.5C13.509 16.4593 13.4853 16.4199 13.4591 16.3821C13.4067 16.3081 13.3487 16.2381 13.2855 16.173C13.1832 16.0676 13.0735 15.9698 12.9572 15.8802C12.5933 15.6056 12.2061 15.3634 11.7999 15.1564C11.7251 15.1171 11.649 15.0765 11.5704 15.0373L11.7276 14.8053C11.7973 14.8408 11.8645 14.875 11.9304 14.9105C12.3508 15.1257 12.7517 15.3772 13.1283 15.6622C13.3423 15.8201 13.5308 16.0099 13.6873 16.225C13.7206 16.273 13.7511 16.3229 13.7786 16.3745L13.8014 16.424L13.8077 16.4367C13.8077 16.4455 13.8153 16.4582 13.8217 16.4747C13.839 16.5198 13.8522 16.5665 13.861 16.6141C13.8728 16.6889 13.8728 16.765 13.861 16.8397C13.8437 16.9594 13.8068 17.0755 13.7519 17.1833C13.5431 17.5592 13.2658 17.8928 12.9344 18.1669C12.8355 18.2569 12.7265 18.3469 12.6124 18.4394L12.5908 18.4559L12.5731 18.4698L12.5351 18.4965C12.5115 18.5158 12.487 18.534 12.4616 18.551C12.4083 18.5839 12.3563 18.6207 12.298 18.6498C12.182 18.715 12.0602 18.7693 11.9342 18.8121C11.7982 18.858 11.6588 18.8932 11.5172 18.9173C10.8394 19.0073 10.1498 18.9348 9.50557 18.7056C8.74145 18.4457 8.02381 18.0653 7.37985 17.5787C7.0349 17.3213 6.70873 17.0396 6.40382 16.7358C6.09184 16.4237 5.80331 16.089 5.5406 15.7344C5.47089 15.6393 5.40244 15.543 5.33652 15.4454L5.55962 15.2819ZM14.0828 16.5735C14.0714 16.5116 14.054 16.4509 14.0308 16.3923L14.0143 16.3467L14.0067 16.3314C14.0067 16.3314 13.9979 16.3099 13.9776 16.2693C13.9457 16.2085 13.9101 16.1497 13.8711 16.0931C13.7019 15.8595 13.498 15.653 13.2665 15.4809C12.8782 15.1874 12.4651 14.9282 12.0318 14.7064L11.8531 14.6126L12.0103 14.3819L12.1624 14.4605C12.6072 14.6905 13.0313 14.9585 13.43 15.2616C13.684 15.4513 13.9079 15.6782 14.0942 15.9347C14.1407 16.0017 14.1831 16.0716 14.2209 16.1438C14.245 16.1933 14.2564 16.2186 14.2564 16.2186C14.2564 16.2186 14.2691 16.244 14.2881 16.2947C14.3166 16.3689 14.3379 16.4458 14.3515 16.5241C14.3748 16.6496 14.3778 16.778 14.3604 16.9044C14.3371 17.0809 14.2844 17.2523 14.2045 17.4114C13.9675 17.8473 13.6501 18.2344 13.269 18.5522C13.1613 18.6511 13.0446 18.7462 12.9255 18.8438C12.8951 18.8691 12.8646 18.8894 12.8342 18.9135C12.8038 18.9376 12.7746 18.9591 12.7417 18.9807C12.6758 19.0212 12.6149 19.0656 12.5401 19.1074C12.398 19.1865 12.2491 19.2527 12.0952 19.3052C11.9327 19.3603 11.7662 19.4027 11.5971 19.4319C10.8378 19.5359 10.0648 19.4573 9.34205 19.2025C8.94305 19.0696 8.55592 18.9034 8.18476 18.7056C7.79605 18.4994 7.42396 18.2634 7.07183 17.9996C6.33079 17.4491 5.67513 16.7922 5.12611 16.05C5.05639 15.9537 4.98667 15.8574 4.92076 15.7585L5.14512 15.595C5.21103 15.6926 5.27948 15.7889 5.3492 15.884C5.88185 16.6042 6.51783 17.2419 7.23662 17.7765C7.57772 18.0321 7.9384 18.2606 8.31532 18.4597C8.67211 18.6505 9.04442 18.8108 9.42825 18.9388C10.1108 19.1755 10.8398 19.2468 11.5552 19.1467C11.7093 19.1203 11.861 19.0817 12.009 19.0314C12.1475 18.9841 12.2815 18.9247 12.4096 18.8539C12.473 18.821 12.5363 18.7804 12.5896 18.7436C12.6187 18.7259 12.6454 18.7031 12.672 18.6841L12.7125 18.6536L12.7556 18.6207C12.8722 18.5269 12.9838 18.4331 13.0877 18.3393C13.442 18.0464 13.7375 17.689 13.9586 17.2859C14.0235 17.1557 14.0663 17.0157 14.0853 16.8714C14.0997 16.7726 14.0989 16.6721 14.0828 16.5735ZM11.0051 3.61768C10.7553 3.61735 10.5058 3.63471 10.2585 3.66965C9.81548 3.73207 9.3798 3.83866 8.95798 3.98782C8.89587 4.00936 8.83122 4.03472 8.77291 4.0588C8.71461 4.08288 8.64616 4.1057 8.58278 4.13485L8.39138 4.21851L8.19997 4.31358L8.1011 4.36302L8.00477 4.41752C7.94012 4.45428 7.87801 4.48851 7.80829 4.5278C7.68153 4.60893 7.5459 4.68878 7.41788 4.78132C7.28985 4.87385 7.16436 4.97399 7.03 5.07413C6.96662 5.12736 6.90324 5.1844 6.84113 5.23891L6.7448 5.32257L6.65353 5.41257C6.39728 5.65997 6.16119 5.92743 5.94749 6.21241C5.48193 6.8456 5.11127 7.54336 4.84724 8.28362C4.81175 8.38249 4.77752 8.48009 4.7433 8.57897C4.7242 8.62822 4.70811 8.6786 4.69513 8.72981L4.6495 8.87938C4.62034 8.98079 4.58739 9.08219 4.5595 9.18613L4.48345 9.50176C4.47077 9.55373 4.4581 9.60697 4.44415 9.66021L4.42641 9.7388L4.40993 9.81612C4.39091 9.91879 4.36937 10.0215 4.35416 10.1254L4.33007 10.28C4.32247 10.332 4.31866 10.384 4.31233 10.4372C4.30599 10.4905 4.29838 10.5412 4.29458 10.5931L4.28317 10.7516C4.27303 10.8555 4.27303 10.9607 4.26796 11.0672C4.26289 11.1737 4.26796 11.2776 4.26796 11.3841C4.27683 11.5958 4.28824 11.8075 4.31486 12.0179C4.34148 12.2283 4.37697 12.4387 4.42007 12.6517C4.46317 12.8646 4.51894 13.0687 4.58485 13.2741C4.77221 13.8671 5.03236 14.4347 5.35934 14.9637L5.13498 15.1285C5.02724 14.9549 4.92456 14.7761 4.83203 14.5936L4.75471 14.444L4.68372 14.2932C4.63429 14.1918 4.59373 14.0878 4.54809 13.9852C4.46443 13.7786 4.38458 13.5694 4.31993 13.3514C4.25528 13.1334 4.19317 12.9217 4.14881 12.7049C4.10444 12.4882 4.06388 12.2676 4.0398 12.047C4.01571 11.8265 3.99923 11.6072 3.99036 11.3866C3.99036 11.2764 3.99036 11.1673 3.99036 11.0571C3.99036 10.9468 3.99036 10.8378 4.00557 10.7275L4.01825 10.564C4.01825 10.5095 4.02966 10.455 4.03599 10.4017C4.04233 10.3485 4.0474 10.2927 4.05501 10.2382L4.08036 10.0772C4.11332 9.86175 4.15768 9.65133 4.20712 9.43331C4.23247 9.32557 4.25909 9.21782 4.28444 9.11135C4.30979 9.00487 4.34655 8.89966 4.37697 8.79572C4.39345 8.74248 4.40866 8.69051 4.42387 8.63854C4.43908 8.58657 4.45429 8.5346 4.47204 8.4839C4.5088 8.38249 4.54429 8.28109 4.58105 8.18095C4.85478 7.41466 5.23912 6.69252 5.72187 6.03748C5.94455 5.7409 6.19039 5.46244 6.45706 5.20469L6.55339 5.11089L6.65226 5.02469C6.71818 4.96638 6.77902 4.90681 6.85001 4.8523C6.98564 4.74709 7.1162 4.63808 7.25436 4.54682C7.39253 4.45555 7.52816 4.36555 7.66252 4.28062C7.7297 4.24006 7.79942 4.2033 7.8666 4.16528L7.96801 4.10823C8.00096 4.09049 8.03646 4.07528 8.07068 4.05753L8.27096 3.95866L8.47123 3.8712C8.53588 3.84078 8.59799 3.81543 8.66771 3.79134C8.73742 3.76726 8.79446 3.73937 8.86164 3.71782C9.30147 3.56194 9.75586 3.45068 10.2179 3.38572C10.4916 3.34621 10.7679 3.32841 11.0444 3.33248L11.0051 3.61768ZM11.085 3.11065C10.7856 3.10458 10.4863 3.12323 10.1901 3.16643C9.71186 3.23224 9.24166 3.34692 8.78686 3.50867C8.72094 3.53149 8.6601 3.55811 8.58785 3.58473C8.5156 3.61135 8.45222 3.63543 8.38504 3.66712L8.17716 3.75712L7.96927 3.85979L7.86406 3.91303L7.75886 3.97134C7.68914 4.01063 7.61689 4.04866 7.54717 4.09809C7.40901 4.18429 7.2645 4.27175 7.12507 4.37316C6.98564 4.47456 6.85127 4.56963 6.7055 4.68245C6.63705 4.73949 6.57114 4.80033 6.50142 4.85991L6.39875 4.9499L6.29988 5.04751C6.02442 5.31424 5.77014 5.602 5.53934 5.90819C5.04434 6.58151 4.64981 7.32318 4.3681 8.10996L4.25782 8.42052C4.23881 8.47122 4.22359 8.52573 4.20712 8.5777C4.19064 8.62967 4.17543 8.68417 4.16022 8.73868C4.12979 8.84516 4.09557 8.95163 4.06642 9.05938L3.98656 9.38895C3.93031 9.60667 3.88504 9.82708 3.85093 10.0493L3.82558 10.2167C3.81797 10.2724 3.81163 10.3282 3.8053 10.384C3.79896 10.4398 3.79135 10.4955 3.78628 10.5526L3.77361 10.7212C3.76347 10.834 3.76347 10.9481 3.75839 11.0609C3.75332 11.1737 3.75839 11.2878 3.75839 11.4019C3.76727 11.6287 3.77994 11.8569 3.8091 12.0851C3.83825 12.3132 3.87628 12.5376 3.92064 12.7632C3.96501 12.9889 4.02712 13.2094 4.0981 13.4287C4.16909 13.648 4.24768 13.866 4.33387 14.079C4.37951 14.1842 4.42134 14.2919 4.47331 14.3959L4.54556 14.5518L4.62415 14.7051C4.72302 14.8991 4.83076 15.0854 4.94484 15.2705L4.72048 15.4353C4.59373 15.2401 4.48345 15.0385 4.37824 14.8332L4.29585 14.6735L4.22106 14.5125C4.16909 14.4047 4.12472 14.2932 4.07656 14.1854C3.98783 13.9636 3.9029 13.7405 3.83318 13.5124C3.76347 13.2842 3.70642 13.0535 3.65065 12.8215C3.59488 12.5896 3.55939 12.3538 3.53277 12.1168C3.50615 11.8797 3.48967 11.6452 3.4808 11.4095C3.4808 11.2903 3.4808 11.1724 3.4808 11.0545C3.4808 10.9367 3.4808 10.8188 3.49728 10.7022C3.52909 10.2372 3.60248 9.77611 3.71656 9.3243C3.74318 9.21275 3.77107 9.09994 3.79769 8.98839C3.82431 8.87685 3.86234 8.76783 3.89403 8.65882L3.94346 8.49531C3.95867 8.4408 3.97515 8.3863 3.99543 8.33306L4.10698 8.01363C4.39806 7.2017 4.80585 6.43651 5.31751 5.74214C5.55588 5.42316 5.81954 5.12389 6.10594 4.84723L6.20861 4.74709L6.31636 4.65329C6.38734 4.59118 6.45706 4.52653 6.52931 4.46823C6.67508 4.35541 6.81578 4.23879 6.96536 4.13866C7.11493 4.03852 7.25943 3.94345 7.40394 3.85218C7.47745 3.80782 7.55224 3.76979 7.62449 3.72543L7.7335 3.66458L7.84378 3.61008C7.91561 3.5729 7.98786 3.5374 8.06054 3.5036L8.27476 3.40853C8.34448 3.37684 8.41546 3.35023 8.48518 3.32361C8.55489 3.29699 8.62334 3.26783 8.69306 3.24502C9.16583 3.07641 9.65475 2.95705 10.152 2.88883C10.4696 2.84207 10.7907 2.82298 11.1116 2.83179H11.1268L11.085 3.11065ZM11.1648 2.60363H11.1217C10.7873 2.59444 10.4526 2.61437 10.1216 2.6632C9.60884 2.73401 9.10466 2.85719 8.617 3.0308C8.54602 3.05488 8.47503 3.08404 8.40278 3.11065C8.33053 3.13727 8.25828 3.16643 8.18476 3.19939L7.96293 3.29699L7.73984 3.40727C7.70308 3.42628 7.66379 3.44403 7.62576 3.46431L7.51421 3.52642C7.43943 3.56952 7.36211 3.60881 7.28732 3.65318C7.13648 3.74698 6.98183 3.83951 6.83353 3.94852C6.68522 4.05753 6.53438 4.17161 6.38227 4.28823C6.30875 4.35034 6.2365 4.41499 6.16298 4.47837L6.0527 4.57597L5.94749 4.67991C5.65164 4.96492 5.37948 5.27353 5.13371 5.6027C4.60858 6.31524 4.1901 7.10052 3.89149 7.93377C3.85346 8.04151 3.81544 8.14926 3.77614 8.25827C3.75713 8.31278 3.74065 8.36855 3.72417 8.42432L3.67474 8.59164C3.64178 8.70319 3.60755 8.81473 3.57587 8.92755C3.54418 9.04036 3.52009 9.15571 3.49347 9.26979C3.37565 9.73397 3.30013 10.2079 3.26784 10.6857C3.25644 10.8124 3.25644 10.9278 3.2501 11.0482C3.24376 11.1686 3.2501 11.2916 3.2501 11.4133C3.25897 11.6566 3.27291 11.9013 3.30334 12.1434C3.33376 12.3855 3.37559 12.6276 3.43009 12.8684C3.4846 13.1093 3.54291 13.3463 3.61896 13.5795C3.69502 13.8128 3.77741 14.0447 3.87248 14.2716C3.92191 14.3844 3.96754 14.4985 4.02078 14.6088L4.09937 14.7749L4.18303 14.9371C4.29331 15.1551 4.415 15.3656 4.54302 15.5709L4.31613 15.7357C4.17923 15.5185 4.05247 15.2954 3.93586 15.0664L3.85093 14.8978L3.7698 14.7267C3.71403 14.6126 3.66713 14.496 3.61643 14.3794C3.52136 14.1449 3.43136 13.9078 3.36291 13.6645C3.29446 13.4211 3.22348 13.1752 3.16644 12.928C3.1094 12.6808 3.07137 12.4299 3.03968 12.1776C3.00799 11.9254 2.99278 11.6706 2.98391 11.4171C2.98391 11.2903 2.98391 11.1635 2.98391 11.0368C2.98391 10.91 2.98391 10.7833 3.00165 10.6565L3.0156 10.4689C3.0156 10.4081 3.02827 10.3422 3.03461 10.2839C3.04095 10.2255 3.04855 10.1571 3.05743 10.0988L3.08531 9.91499C3.12334 9.66908 3.17404 9.42697 3.23235 9.19501C3.26151 9.07839 3.28939 8.96177 3.31728 8.84516C3.34517 8.72854 3.38573 8.61572 3.41869 8.50164C3.43516 8.4446 3.45164 8.38756 3.46939 8.33052C3.48713 8.27348 3.50235 8.21644 3.52389 8.16067L3.64178 7.82729C3.94852 6.96624 4.37986 6.15481 4.92203 5.41891C5.17679 5.0789 5.45823 4.75972 5.7637 4.46442L5.87397 4.35668L5.98932 4.25527C6.06538 4.18936 6.14016 4.12091 6.21622 4.05753C6.3734 3.93077 6.52551 3.81036 6.68395 3.70515C6.8424 3.59994 6.99958 3.49473 7.15549 3.39839C7.23281 3.35023 7.31267 3.3084 7.39126 3.26403L7.50788 3.19939L7.62449 3.14108L7.85646 3.027L8.08716 2.92559C8.16194 2.89136 8.23673 2.86221 8.31279 2.83432C8.38884 2.80644 8.45982 2.77475 8.53334 2.75066C9.03915 2.57105 9.562 2.44363 10.0937 2.37039C10.4407 2.31975 10.7915 2.29939 11.142 2.30955H11.2193L11.1648 2.60363ZM3.89783 16.0399C3.74699 15.8016 3.60502 15.557 3.47446 15.3034L3.38446 15.126L3.30207 14.9409C3.24376 14.8205 3.19306 14.6963 3.13982 14.5733C3.03968 14.3198 2.94461 14.0739 2.86602 13.8128C2.78743 13.5517 2.71772 13.2943 2.65814 13.0319C2.59857 12.7696 2.55674 12.5021 2.53138 12.2346C2.50603 11.9672 2.48195 11.6985 2.47181 11.4297C2.47181 11.2966 2.47181 11.1623 2.47181 11.0292C2.47181 10.8961 2.47181 10.7617 2.49082 10.6299L2.50603 10.4309C2.50603 10.365 2.51998 10.3041 2.52758 10.2331C2.53519 10.1622 2.54152 10.1064 2.5504 10.0367C2.55927 9.96696 2.57068 9.90992 2.58082 9.84147C2.59857 9.71471 2.62519 9.58795 2.65054 9.45486L2.66955 9.35979L2.6911 9.26726C2.70631 9.20641 2.72025 9.1405 2.73546 9.08473C2.76589 8.95797 2.79377 8.84262 2.82293 8.7222C2.85208 8.60178 2.89391 8.48263 2.92814 8.36348L2.98137 8.18475C2.99912 8.12517 3.01687 8.06687 3.03715 8.00856C3.08024 7.89194 3.12081 7.77532 3.1639 7.65871C3.48866 6.7527 3.9434 5.89872 4.51387 5.12356C4.78545 4.76249 5.08511 4.42342 5.41004 4.1095L5.52919 3.99415L5.65595 3.88641C5.73708 3.81543 5.81567 3.74444 5.89806 3.67599C6.06538 3.54923 6.22763 3.41234 6.39622 3.29572C6.5648 3.1791 6.73212 3.07136 6.90324 2.96869C6.98564 2.91798 7.07183 2.87362 7.15676 2.82545L7.28352 2.757C7.32408 2.73419 7.36718 2.71517 7.41027 2.69362L7.65618 2.56687L7.90082 2.46039C7.98068 2.42363 8.06181 2.39321 8.14166 2.36152C8.22152 2.32983 8.29884 2.29941 8.37743 2.27279C8.91065 2.08823 9.46097 1.95745 10.0202 1.88238C10.3958 1.82788 10.7754 1.80625 11.1547 1.81773H11.2941L11.2498 2.09279H11.1458C10.7817 2.0829 10.4174 2.1041 10.057 2.15617C9.50964 2.23212 8.97151 2.36378 8.45095 2.54912C8.3749 2.57447 8.30011 2.60616 8.22279 2.63405C8.14547 2.66193 8.06814 2.69362 7.99082 2.72912L7.75379 2.83306L7.51548 2.95094C7.47619 2.97122 7.43436 2.99024 7.38872 3.01178L7.26197 3.0777C7.18211 3.12333 7.09845 3.16643 7.01859 3.21586C6.85888 3.316 6.69283 3.41614 6.53311 3.53149C6.3734 3.64684 6.21368 3.76979 6.05143 3.89528C5.97285 3.9612 5.89679 4.03091 5.81693 4.09936L5.69778 4.2033C5.66229 4.24006 5.62426 4.27682 5.58497 4.31485C5.27044 4.61887 4.98053 4.94735 4.71795 5.29722C4.16376 6.04925 3.72222 6.8781 3.40728 7.75758L3.28052 8.09855C3.26024 8.15433 3.24249 8.21264 3.22601 8.27094C3.20954 8.32925 3.19179 8.38756 3.17404 8.44587C3.13982 8.56122 3.10433 8.67784 3.07137 8.79572C3.03841 8.9136 3.01433 9.03276 2.98518 9.15191C2.9256 9.38768 2.87363 9.63612 2.83433 9.88837C2.82419 9.95175 2.81405 10.0151 2.80518 10.0772C2.79631 10.1393 2.78997 10.204 2.78236 10.2674C2.77476 10.3308 2.76589 10.3941 2.76208 10.4588L2.75955 10.654C2.74814 10.7807 2.74814 10.9075 2.7418 11.0343C2.73546 11.161 2.7418 11.2878 2.7418 11.4221C2.75194 11.682 2.76589 11.9418 2.80011 12.2004C2.83433 12.459 2.8749 12.7163 2.92687 12.9724C2.97884 13.2284 3.05362 13.4794 3.12714 13.7329C3.20066 13.9864 3.29573 14.2273 3.39333 14.4681C3.44404 14.5873 3.4922 14.7077 3.54925 14.8243L3.63164 15.0005L3.72037 15.1716C3.84713 15.4125 3.97388 15.6457 4.12092 15.8726L3.89783 16.0399ZM12.5858 13.5377C13.1052 13.7994 13.6003 14.107 14.065 14.4567C14.2477 14.5977 14.4197 14.7519 14.5797 14.9181C14.7103 15.0527 14.8298 15.1977 14.9371 15.3516C15.0097 15.456 15.0749 15.5652 15.1323 15.6786C15.1488 15.7086 15.1637 15.7395 15.1767 15.7712L15.1919 15.8016C15.1919 15.8016 15.2122 15.8434 15.2439 15.9284C15.2945 16.0596 15.3323 16.1954 15.3567 16.334C15.3982 16.562 15.4038 16.7951 15.3732 17.0248C15.3732 17.0578 15.3643 17.092 15.3592 17.1249C15.3542 17.1579 15.3465 17.1921 15.3389 17.2264C15.3248 17.2961 15.307 17.3651 15.2857 17.433C15.2422 17.5734 15.188 17.7103 15.1235 17.8424C14.9856 18.1153 14.8153 18.3707 14.6164 18.6029C14.411 18.8497 14.1868 19.0803 13.9459 19.2925C13.8191 19.4028 13.6924 19.5105 13.5656 19.6195L13.5403 19.6398L13.5086 19.6626L13.4452 19.7108C13.4034 19.7412 13.3615 19.7754 13.3184 19.8033C13.2284 19.8616 13.1384 19.9225 13.0408 19.9732C12.8464 20.0814 12.6428 20.1722 12.4324 20.2444C12.2173 20.3171 11.997 20.3731 11.7733 20.4118C11.3188 20.4845 10.8566 20.4951 10.3992 20.4434C10.2826 20.4346 10.1698 20.4143 10.0544 20.3978L9.88204 20.3661L9.79585 20.3497L9.71092 20.3306C9.48149 20.2825 9.25713 20.2166 9.0315 20.1456C8.57724 19.9949 8.13665 19.8057 7.71449 19.5802C7.28077 19.3538 6.86505 19.0945 6.471 18.8045C5.65088 18.1928 4.92487 17.4643 4.31613 16.642C4.24514 16.5444 4.17543 16.4455 4.10698 16.3467L4.33134 16.1819C4.39979 16.282 4.46824 16.3809 4.54049 16.4772C4.83929 16.8816 5.1681 17.263 5.52412 17.618C5.87226 17.9652 6.24505 18.2867 6.63959 18.5801C7.02187 18.8646 7.42576 19.1189 7.84759 19.3407C8.25387 19.5583 8.67792 19.7411 9.11516 19.887C9.32965 19.957 9.54752 20.0163 9.76796 20.0644L9.85035 20.0835L9.93274 20.0987L10.0963 20.1291C10.2065 20.1443 10.3156 20.1633 10.4258 20.1735C10.8579 20.2218 11.2945 20.2116 11.7238 20.143C11.9327 20.1063 12.1386 20.0542 12.3399 19.9871C12.5347 19.9187 12.7234 19.8339 12.9039 19.7336C12.9939 19.6854 13.0763 19.6297 13.1574 19.5764C13.1993 19.5498 13.2373 19.5181 13.2779 19.4902L13.3362 19.4471L13.3653 19.4243L13.3894 19.4053C13.5162 19.3001 13.6429 19.1962 13.7697 19.0884C14.0004 18.8854 14.2153 18.6651 14.4123 18.4293C14.5947 18.2122 14.7509 17.9744 14.8775 17.7207C14.993 17.4913 15.0688 17.244 15.1019 16.9893C15.1287 16.7878 15.124 16.5834 15.088 16.3834C15.0662 16.2613 15.0326 16.1416 14.9878 16.026C14.9587 15.9486 14.9409 15.9106 14.9409 15.9106C14.9409 15.9106 14.9409 15.9005 14.9283 15.8827C14.9156 15.865 14.908 15.8358 14.889 15.8003C14.8371 15.6984 14.7782 15.6001 14.7128 15.5063C14.6137 15.3642 14.5035 15.2302 14.3832 15.1057C14.2316 14.9497 14.0694 14.8045 13.8977 14.6709C13.4626 14.3398 12.999 14.0479 12.5123 13.7988L12.4324 13.757L12.5858 13.5377ZM12.4007 14.0156C12.8751 14.2583 13.3269 14.543 13.7507 14.8661C13.9147 14.9925 14.0693 15.1306 14.2133 15.2794C14.325 15.3948 14.4271 15.519 14.5188 15.6508C14.5787 15.7358 14.6321 15.8252 14.6785 15.9182C14.6918 15.942 14.7036 15.9666 14.714 15.9917L14.7254 16.0171C14.7254 16.0171 14.7419 16.0513 14.7673 16.1198C14.8718 16.3912 14.9067 16.6845 14.8687 16.9728C14.8384 17.2025 14.7694 17.4254 14.6646 17.632C14.5466 17.8695 14.4007 18.0921 14.2298 18.2949C14.0401 18.5217 13.8333 18.7335 13.6112 18.9287C13.4972 19.0326 13.3742 19.1353 13.2474 19.2367L13.1967 19.276L13.1422 19.3178C13.1055 19.3445 13.07 19.3736 13.0307 19.3977C12.9521 19.4471 12.8748 19.5004 12.7911 19.5435C12.6227 19.638 12.4463 19.7173 12.2638 19.7805C12.0752 19.8442 11.8819 19.8934 11.6858 19.9275C11.277 19.9929 10.8612 20.0022 10.4499 19.9554C10.3447 19.9466 10.2395 19.9288 10.1343 19.9136L9.97584 19.8845L9.89598 19.8705L9.81866 19.8515C9.60698 19.8071 9.39783 19.745 9.18488 19.6791C8.75793 19.5381 8.344 19.3604 7.94772 19.148C7.53628 18.9301 7.14217 18.6809 6.76888 18.4027C5.98782 17.8215 5.29674 17.1282 4.71795 16.3454C4.64696 16.2491 4.57851 16.1514 4.51007 16.0526L4.73443 15.8891C4.80161 15.9879 4.87132 16.0843 4.94104 16.1806C5.50389 16.9412 6.17574 17.6148 6.93493 18.1796C7.29624 18.4495 7.67762 18.6915 8.07575 18.9033C8.45811 19.1062 8.85717 19.2758 9.26854 19.4104C10.0283 19.6797 10.8415 19.7632 11.6402 19.6538C11.8212 19.6222 11.9996 19.5768 12.1738 19.5181C12.3409 19.4608 12.5025 19.3887 12.6568 19.3026C12.7328 19.2633 12.8038 19.2152 12.8748 19.1759C12.9103 19.1531 12.9432 19.1264 12.9762 19.1024C13.0091 19.0783 13.0434 19.0529 13.0738 19.0288C13.2005 18.9287 13.3159 18.8298 13.4274 18.7297C13.8303 18.3921 14.1658 17.9813 14.4161 17.5192C14.5069 17.339 14.5669 17.1449 14.5936 16.9449C14.6143 16.792 14.6109 16.6367 14.5835 16.4848C14.5664 16.3928 14.5413 16.3025 14.5087 16.2148C14.4859 16.1553 14.4719 16.1261 14.4719 16.1261L14.4567 16.1045C14.4567 16.0906 14.4415 16.0691 14.4263 16.0399C14.3845 15.9588 14.3375 15.8804 14.2856 15.8054C14.0864 15.5296 13.8467 15.2856 13.5745 15.0816C13.1632 14.7689 12.725 14.4932 12.2651 14.2577L12.1383 14.1905L12.2955 13.9585L12.4007 14.0156ZM16.6027 14.0523L16.3619 13.9129C16.5037 13.655 16.6307 13.3893 16.7421 13.1169C16.9162 12.6891 17.0565 12.2483 17.1617 11.7986C17.2988 11.223 17.369 10.6335 17.3709 10.0417C17.3703 9.71831 17.3415 9.39553 17.2847 9.07712C17.2284 8.75644 17.1304 8.4445 16.9931 8.14926C16.8603 7.86341 16.6745 7.60534 16.4455 7.38871C16.2067 7.16951 15.9248 7.00244 15.6178 6.89816C15.4503 6.84109 15.2781 6.79868 15.1032 6.77141C15.0119 6.7562 14.9181 6.74479 14.8243 6.73465L14.6811 6.72197L14.5188 6.71437C14.085 6.69265 13.6502 6.69815 13.217 6.73084C12.3478 6.79218 11.493 6.98537 10.6819 7.30379C10.2841 7.46138 9.90217 7.65619 9.54106 7.8856C9.19591 8.10495 8.87768 8.36404 8.59292 8.65756C8.33395 8.9257 8.11993 9.23388 7.95913 9.57021C7.81964 9.85185 7.75213 10.1637 7.76266 10.4778C7.77766 10.7494 7.87443 11.0101 8.04026 11.2257C8.22856 11.4641 8.46421 11.6609 8.73235 11.8037L8.83883 11.862L8.94911 11.9165C8.98587 11.9342 9.02389 11.952 9.06319 11.9672L9.12023 11.9925L9.18107 12.0179L9.73754 12.2448C10.1039 12.3956 10.4563 12.5427 10.7972 12.6897C11.3233 12.9166 11.8113 13.1422 12.2689 13.3679L12.1117 13.5998C11.6744 13.3818 11.1978 13.165 10.6869 12.9445C10.3485 12.7987 9.99612 12.6517 9.63233 12.5021L9.07713 12.2752L8.95037 12.222C8.90981 12.2042 8.86798 12.1877 8.82362 12.1675L8.69686 12.1092L8.58151 12.0458C8.27983 11.8836 8.01487 11.661 7.80322 11.3917C7.60527 11.1326 7.48998 10.8199 7.47238 10.4943C7.45837 10.1344 7.53417 9.77679 7.69294 9.45359C7.86874 9.08919 8.10247 8.75572 8.38504 8.46615C8.68454 8.15638 9.01935 7.88283 9.38262 7.6511C9.75741 7.41286 10.1538 7.21042 10.5665 7.04647C11.4054 6.71578 12.2897 6.51489 13.1891 6.45071C13.6341 6.41695 14.0807 6.41103 14.5264 6.43296L14.6912 6.44184L14.8446 6.45451C14.946 6.46465 15.0461 6.47733 15.1437 6.49381C15.3346 6.52623 15.5225 6.57456 15.7053 6.63831C16.0468 6.75612 16.3605 6.94295 16.6268 7.18717C16.8812 7.42684 17.0881 7.7124 17.2365 8.02884C17.3841 8.34589 17.4897 8.68081 17.5509 9.02515C17.6108 9.35986 17.6413 9.69917 17.6421 10.0392C17.6397 10.6522 17.567 11.263 17.4254 11.8594C17.3172 12.324 17.1723 12.7793 16.9919 13.2208C16.8775 13.5037 16.7476 13.78 16.6027 14.0485V14.0523ZM17.0489 14.2945L17.0413 14.3084L16.8005 14.1702V14.1626C16.9494 13.8866 17.0831 13.6027 17.201 13.3121C17.3852 12.8597 17.5336 12.3934 17.6447 11.9178C17.791 11.3044 17.8654 10.6761 17.8665 10.0455C17.8667 9.69107 17.8353 9.33729 17.7727 8.98839C17.7076 8.62434 17.5955 8.27027 17.4393 7.93504C17.2786 7.59195 17.0546 7.2823 16.7789 7.02239C16.4887 6.7573 16.1476 6.55415 15.7763 6.42536C15.5804 6.35779 15.3795 6.30608 15.1754 6.27071C15.0728 6.25297 14.9663 6.24029 14.8611 6.22888L14.7102 6.21748L14.5404 6.2086C14.085 6.18561 13.6286 6.19112 13.1739 6.22508C12.2513 6.29095 11.3441 6.49609 10.4829 6.83352C10.0565 7.00367 9.64699 7.2133 9.25966 7.4597C8.88091 7.70081 8.53202 7.98588 8.22025 8.30897C7.92 8.61645 7.67209 8.97098 7.48633 9.35852C7.3111 9.71654 7.22748 10.1124 7.24295 10.5107C7.26508 10.882 7.39749 11.2381 7.62323 11.5337C7.85447 11.8274 8.14297 12.071 8.47123 12.2499C8.63512 12.3409 8.80445 12.4217 8.97826 12.492L9.53219 12.7189C9.89725 12.8684 10.2471 13.0142 10.583 13.1587C11.0812 13.3742 11.5451 13.5859 11.9697 13.7925L11.8113 14.0245C11.4031 13.8229 10.9544 13.6188 10.474 13.4122C10.1394 13.2677 9.78951 13.1207 9.42698 12.9724L8.87432 12.7467C8.68859 12.6741 8.50779 12.5894 8.33307 12.4932C7.97085 12.2962 7.65289 12.027 7.39887 11.7023C7.14168 11.3629 6.99083 10.9548 6.96536 10.5298C6.94579 10.083 7.03725 9.63835 7.23155 9.23557C7.43051 8.82048 7.69597 8.44069 8.01744 8.11123C8.34471 7.77369 8.7106 7.47587 9.10755 7.22393C9.50862 6.96767 9.93303 6.74995 10.3751 6.57366C11.2622 6.22322 12.1973 6.00952 13.1486 5.93988C13.6146 5.90486 14.0824 5.89893 14.5492 5.92213C14.9993 5.93277 15.4451 6.01184 15.8713 6.15663C16.2791 6.29666 16.6533 6.51981 16.9703 6.81197C17.2718 7.09508 17.5169 7.43271 17.6928 7.80701C17.8597 8.16434 17.9795 8.54187 18.049 8.93008C18.1143 9.29534 18.1474 9.66563 18.1479 10.0367C18.1465 10.6889 18.07 11.3388 17.9197 11.9735C17.8042 12.4637 17.6512 12.9442 17.4621 13.411C17.3412 13.7118 17.2032 14.0055 17.0489 14.2907V14.2945ZM17.4837 14.5632L17.2416 14.4237L17.253 14.4047C17.4104 14.1125 17.5522 13.8121 17.6776 13.5048C17.8718 13.0267 18.0287 12.5342 18.1466 12.0318C18.3008 11.3797 18.3795 10.7119 18.3811 10.0417C18.3803 9.65915 18.3455 9.27738 18.2772 8.90093C18.2041 8.49263 18.0784 8.09553 17.9032 7.71955C17.7143 7.31982 17.452 6.95908 17.13 6.65606C16.7891 6.34243 16.3875 6.10212 15.9499 5.95002C15.5003 5.7977 15.0302 5.71477 14.5556 5.70411C14.0791 5.68093 13.6016 5.68686 13.1258 5.72186C12.1513 5.79094 11.193 6.00808 10.2839 6.36578C9.82774 6.54725 9.38976 6.77133 8.97573 7.03506C8.56318 7.29872 8.18286 7.6097 7.84252 7.96166C7.50424 8.30996 7.22509 8.71114 7.01606 9.14937C6.80496 9.58282 6.7052 10.062 6.72578 10.5437C6.74016 10.7803 6.78928 11.0135 6.87156 11.2358C6.95264 11.4529 7.06495 11.657 7.20493 11.8417C7.47769 12.1926 7.81988 12.4834 8.21011 12.696C8.39374 12.7987 8.58385 12.8893 8.77925 12.9673L9.33572 13.1891C9.69698 13.3374 10.0456 13.4832 10.3777 13.6264C10.8441 13.828 11.2802 14.0257 11.6769 14.2197L11.5197 14.4529C11.1395 14.2653 10.7186 14.0726 10.2674 13.8812C9.93781 13.7393 9.59219 13.5939 9.23051 13.4452L8.67911 13.2221C8.47333 13.1381 8.27271 13.042 8.07828 12.9343C7.65503 12.7027 7.28397 12.3864 6.98817 12.0052C6.83256 11.799 6.70747 11.5715 6.61677 11.3296C6.52405 11.0815 6.46935 10.8208 6.45452 10.5564C6.43931 10.2923 6.46063 10.0274 6.5179 9.76922C6.57439 9.51374 6.65943 9.26542 6.77142 9.02895C6.99361 8.56162 7.29029 8.13352 7.64985 7.76138C8.36781 7.03464 9.23192 6.46865 10.185 6.10086C11.1206 5.73304 12.1066 5.50951 13.1093 5.43792C13.5964 5.40061 14.0854 5.39426 14.5733 5.41891L14.7533 5.42778L14.9409 5.44426C15.0677 5.45693 15.1944 5.47214 15.3136 5.49369C15.5609 5.53603 15.8042 5.59878 16.0412 5.68129C16.5144 5.84449 16.9489 6.10338 17.3176 6.44184C17.6657 6.7688 17.9491 7.1584 18.153 7.59026C18.3388 7.98781 18.4718 8.40799 18.5484 8.84009C18.6198 9.23498 18.6563 9.63539 18.6574 10.0367C18.6554 10.7287 18.5738 11.4181 18.4141 12.0914C18.2938 12.6081 18.1331 13.1146 17.9337 13.6062C17.8046 13.9233 17.6582 14.233 17.4951 14.534L17.4837 14.5632ZM18.911 12.2106C18.7845 12.7535 18.6149 13.2854 18.4039 13.8014C18.2687 14.136 18.1147 14.4627 17.9425 14.7799L17.9223 14.8167L17.6827 14.6773L17.6992 14.6481C17.8655 14.3392 18.0149 14.0214 18.1466 13.6962C18.3517 13.1928 18.5166 12.674 18.6397 12.1446C18.8051 11.4541 18.8901 10.7467 18.8932 10.0367C18.893 9.62137 18.8557 9.20692 18.7817 8.79826C18.7 8.34402 18.5589 7.90251 18.3621 7.48505C18.1459 7.02663 17.8448 6.6133 17.4748 6.26691C17.083 5.90646 16.6214 5.63033 16.1185 5.45567C15.8689 5.36815 15.6124 5.302 15.3516 5.25792C15.2249 5.23511 15.0981 5.2199 14.9625 5.20595L14.7685 5.18948L14.5835 5.18567C14.0858 5.16102 13.5871 5.16737 13.0903 5.20469C12.0641 5.27762 11.0549 5.50628 10.0975 5.88284C9.11459 6.26329 8.22399 6.84881 7.48506 7.6004C7.10752 7.98857 6.79621 8.43605 6.56353 8.92501C6.44579 9.17724 6.3561 9.44164 6.29608 9.71344C6.23487 9.99255 6.21226 10.2787 6.22889 10.564C6.2452 10.851 6.30459 11.1338 6.40509 11.4031C6.5032 11.6664 6.63897 11.914 6.80818 12.1383C6.96765 12.3497 7.15192 12.5412 7.35703 12.7087C7.54876 12.8662 7.75358 13.007 7.96927 13.1296L8.12772 13.2145L8.2849 13.2918C8.33687 13.3172 8.39011 13.3412 8.44335 13.3641L8.59672 13.4287L9.14685 13.6531C9.50684 13.8014 9.85289 13.9459 10.1812 14.0878C10.6172 14.2754 11.0229 14.4592 11.393 14.6392L11.2345 14.8712C10.8796 14.7001 10.4905 14.5226 10.0722 14.3426C9.74388 14.2007 9.40036 14.0574 9.04164 13.9104L8.49278 13.686L8.3318 13.6176C8.27603 13.5948 8.22152 13.5707 8.16575 13.5428L7.99969 13.4604L7.83364 13.3704C7.60309 13.2404 7.38425 13.0907 7.17957 12.9229C6.9581 12.7409 6.75897 12.5333 6.58635 12.3044C6.40153 12.0595 6.25296 11.7893 6.14524 11.502C6.0346 11.2059 5.96922 10.8948 5.9513 10.5792C5.93342 10.2697 5.95816 9.95918 6.02482 9.6564C6.0887 9.36386 6.18522 9.07941 6.31255 8.8084C6.55844 8.29403 6.88637 7.8231 7.28352 7.41407C8.05314 6.63385 8.97998 6.02632 10.0025 5.63186C10.9857 5.24475 12.0223 5.00967 13.0763 4.93469C13.5845 4.8957 14.0947 4.88893 14.6038 4.91441L14.7926 4.92455L14.9967 4.94103C15.1323 4.95497 15.2692 4.97145 15.4061 4.99554C15.6821 5.04221 15.9535 5.11261 16.2174 5.20595C16.7562 5.39294 17.2507 5.68895 17.67 6.07551C18.0646 6.4459 18.3862 6.88704 18.6182 7.37604C18.8219 7.814 18.9672 8.27682 19.0504 8.75262C19.1276 9.17757 19.1667 9.60857 19.167 10.0405C19.1659 10.7701 19.08 11.497 18.911 12.2068V12.2106ZM18.7842 3.226C16.9848 1.42688 14.6172 0.307342 12.0848 0.0581392C9.55246 -0.191064 7.01205 0.445487 4.89641 1.85933C2.78077 3.27318 1.22081 5.37684 0.482314 7.8119C-0.256184 10.247 -0.127526 12.8627 0.846368 15.2136C1.82026 17.5644 3.57914 19.5048 5.82331 20.7042C8.06748 21.9037 10.6581 22.2878 13.1538 21.7913C15.6494 21.2948 17.8957 19.9483 19.51 17.9813C21.1242 16.0143 22.0064 13.5484 22.0064 11.0038C22.0079 9.55796 21.7234 8.12606 21.1693 6.79056C20.6153 5.45506 19.8025 4.24234 18.7779 3.2222L18.7842 3.226ZM18.2772 18.2784C16.5941 19.9618 14.3794 21.0094 12.0104 21.2429C9.64146 21.4764 7.26484 20.8812 5.28552 19.5588C3.3062 18.2364 1.84665 16.2686 1.15556 13.9907C0.464477 11.7128 0.584616 9.26572 1.49551 7.06647C2.40641 4.86722 4.0517 3.05185 6.15103 1.92969C8.25037 0.807534 10.6739 0.448024 13.0085 0.912418C15.3432 1.37681 17.4447 2.63638 18.9548 4.47649C20.4649 6.3166 21.2902 8.6234 21.2902 11.0038C21.2912 12.3546 21.0253 13.6923 20.5078 14.9401C19.9903 16.1878 19.2314 17.3211 18.2746 18.2746L18.2772 18.2784Z" fill="#2F4358"/>
</g>
<defs>
<clipPath id="clip0_23570_20237">
<rect width="22" height="22" fill="white"/>
</clipPath>
</defs>
</svg>
