<svg fill="none" height="22" viewBox="0 0 22 22" width="22" xmlns="http://www.w3.org/2000/svg" xmlns:xlink="http://www.w3.org/1999/xlink"><clipPath id="a"><path d="m0 0h22v22h-22z"/></clipPath><g clip-path="url(#a)"><path d="m21.6439 11c0 2.1059-.6245 4.1645-1.7945 5.9155s-2.8329 3.1157-4.7785 3.9216-4.0865 1.0168-6.15189.606c-2.06544-.4109-3.96266-1.425-5.45176-2.9141-1.48909-1.4891-2.503181-3.3863-2.914021-5.4517-.410841-2.0655-.199983-4.20634.605911-6.15193.80589-1.9456 2.17062-3.60853 3.92161-4.77851 1.75099-1.169972 3.8096-1.794443 5.91555-1.794443 2.8239 0 5.5321 1.121803 7.529 3.118613 1.9968 1.99682 3.1186 4.70508 3.1186 7.52897z" fill="#ffcc24"/><path d="m19.2735 8.70572c-.0886-.49638-.2425-.97887-.4576-1.43489-.2437-.51592-.5826-.98123-.9989-1.37151-.2208-.20386-.4621-.38439-.7199-.53872-.2574-.15377-.5296-.28117-.8125-.38027-.2768-.09705-.5614-.17041-.8506-.21929-.142-.02662-.2839-.0431-.4259-.05831l-.2117-.01648-.1914-.01014c-.5187-.02591-1.0386-.01956-1.5566.01901-1.0776.07783-2.1371.31888-3.14227.71491-1.05347.40652-2.00808 1.03313-2.80007 1.83798-.41497.42902-.75745.92263-1.01406 1.46152-.13393.28655-.23554.58713-.30295.89617-.07165.32351-.0981.6554-.07859.9862.03832.6707.27526 1.3149.68068 1.8506.18512.2427.39781.4631.63379.6566.21536.1768.44566.3346.68829.4716l.17366.0938c.05831.0304.11535.057.17366.0862.05831.0291.11535.0532.17239.0773l.16732.0722.54759.2231c.35746.1471.70097.2903 1.02547.431.40439.1737.78079.3435 1.12429.507l-.1901.289.3055.2079.2231-.3283.2535.1268c.3938.2014.7696.4363 1.1231.7022.1067.0834.2078.1736.3029.27.0553.0561.1058.1167.1509.1813.0271.0359.0497.0751.0671.1166.0028.0052.0049.0107.0064.0165.0069.0167.012.0341.0152.0519.004.0235.004.0475 0 .071-.0104.0647-.0314.1272-.0621.1851-.1812.3156-.4183.5957-.6997.8264-.0913.0824-.194.1674-.3017.2536l-.019.0152-.014.0101-.0278.0203c-.0182.015-.0373.029-.0571.0418-.0405.0241-.0786.0533-.1267.0748-.0903.0505-.1849.093-.2827.1268-.11.0373-.2227.0662-.3372.0862-.2715.0411-.5473.0462-.8201.0152-.0748-.0064-.1521-.0203-.2282-.0305l-.1179-.0215-.0583-.0114-.0595-.014c-.15849-.0329-.32074-.0811-.48425-.1267-.71155-.2436-1.37987-.5987-1.97995-1.0521-.32619-.242-.63419-.5077-.92153-.7948-.2935-.2944-.56547-.6096-.81378-.943-.06845-.0951-.13563-.1902-.20028-.2878l.26112-.1914-.21802-.2991-.23957.1876c-.31249-.5088-.56112-1.0542-.74026-1.6238-.06592-.1977-.11408-.4005-.16098-.6008s-.07859-.4069-.10141-.611-.03676-.4094-.04436-.6135c0-.1014 0-.2041 0-.3055s0-.2041.01521-.3055l.01141-.1521c0-.0507.0114-.1014.01647-.1521s.01141-.1014.01775-.1508l.02282-.1509c.01394-.1001.03549-.19897.0545-.29784l.01394-.07479.01902-.07732c.01267-.05197.02662-.10394.03802-.15591.02536-.10394.05071-.20662.07479-.30929.02409-.10267.05958-.20028.08873-.30042.01395-.0507.02916-.10013.04437-.14957.01276-.04988.02842-.09898.0469-.14704l.1014-.289c.25689-.7194.61729-1.3975 1.06983-2.01291.20542-.27551.43262-.53408.67942-.77322.02916-.02915.05831-.05831.08873-.08619l.09127-.08113c.06084-.05324.12676-.10774.18126-.15845.12676-.09633.25352-.19774.38027-.2814.12676-.08366.25352-.16732.38028-.24591.06211-.03802.12675-.07098.19013-.10647l.09254-.05197c.03169-.01775.06337-.03296.09506-.04817l.18507-.09127.18507-.08112c.06084-.02789.12675-.0507.18253-.07352.05577-.02282.11915-.04817.17746-.06845.40748-.14376.82828-.24652 1.25612-.30675.2246-.0326.4513-.04913.6782-.04944l-.071.40309.3651.05831.0621-.38788c.1267.08113.3334.21422.4132.25352.1179.0583.3486.0469.4525.06971.1418.02474.2867.02474.4285 0 .1964-.02281.3118.0469.5894.01775s.4284.01141.6021-.19901c.1736-.21042.2662-.17746-.0811-.11915s-.5324.08112-.7606.03549c-.121-.0342-.2457-.05378-.3714-.05831-.1141 0-.3688-.10394-.507-.01141-.1382.09254-.303.09254-.3486.04564-.0654-.05906-.1195-.12949-.1597-.20789-.0127-.03929-.1268-.05323-.218-.05704l.0367-.22689c.1879.04743.3821.06497.5755.05197.5539-.02282 1.0863-.07859 1.4679-.06211.3815.01648.6591.08873.8214 0 .0171-.01195.0353-.02214.0545-.03042-.1033-.00198-.2061-.01472-.3068-.03803-.439-.09122-.883-.15683-1.3297-.19648-.185 0-.5894-.03422-.6718 0-.0824.03423-.3511.12042-.4614.0469-.0362-.02384-.0739-.04543-.1128-.06464l.0406-.25985c.0813.02834.1684.03618.2535.02281.2446-.03422.0557-.01014.507.02409.4513.03422 1.1408.07605 1.3208.04183.18-.03423.3131-.14451 0-.11282s-1.7353-.1369-1.8811-.22436c-.0464-.02682-.0976-.04406-.1508-.0507l.0368-.2307c.0545 0 .114 0 .1267-.00887.0127-.00888.1268.04817.1851.10014s.2104.05704.2852.12675c.0436.03035.0931.05122.1453.06126s.1059.00904.1576-.00295c.0609-.00955.1229-.00955.1838 0h.5286s-.0253-.06591-.2535-.18253-.0837 0-.3106 0-.1267-.06845-.2091-.12676-.0672-.02788-.1585-.06211c-.0728-.02909-.149-.04868-.2269-.05831-.1432-.02535-.0836-.03295-.1838-.09126-.0692-.02976-.1439-.04445-.2192-.0431l.0253-.16478c.0539-.01592.1058-.03803.1546-.06592.0374.00017.0743-.0074.1086-.02223.0342-.01484.065-.03662.0905-.06396.1863-.19648 1.2371.66547 1.4577.82392.2205.15845.507-.06591.6591 0s.3004.1876.393.18507c.0925-.00254-.1382-.33845-.4044-.38028s-.507.01141-.8214-.18506c-.3143-.19647-.5438-.42844-.7403-.54379-.1474-.06877-.3057-.11165-.4677-.12676.0642-.0756.1449-.13549.2359-.17504s.1898-.05772.2889-.05312c.36.01141.6604.25351.8341.26872.1291.00647.2583-.01248.3802-.05577-.102-.00731-.2031-.02472-.3017-.05197-.1262-.07307-.2624-.1273-.4043-.16098-.1737-.02282-.578-.05958-.6123-.05958-.1078-.01078-.2166-.01078-.3245 0-.0539.02497-.1045.05647-.1508.0938-.0684.05831-.1952.09254-.1901.10395.005.0114-.1268.07478-.1268.07478l.0342-.21549-.365-.0583-.0545.34097-.1623-.02155c-.3928-.01054-.7859.01193-1.17502.06719-.58189.08094-1.154.22111-1.70742.41829-.08112.02662-.16098.05958-.24211.09-.08112.03042-.16478.06338-.25351.10141l-.25351.11028-.25352.12675-.12676.06465-.12675.07098c-.08493.04944-.17239.09507-.25352.14704-.16985.10648-.34605.21296-.5159.33718-.16986.12422-.34098.25351-.50703.38027-.08366.06972-.16605.1445-.25352.21675l-.12675.11028-.12042.11789c-.33757.32371-.6483.67429-.92913 1.04828-.58543.79122-1.05139 1.66419-1.38293 2.59092-.04183.11789-.08366.23577-.12675.35492-.02155.06084-.0393.12676-.05704.18126-.01775.05451-.0355.12042-.05451.18127-.03549.12675-.07225.2421-.10521.36379l-.09126.37013c-.01521.06211-.02916.12676-.04437.18634l-.02155.09253-.02028.09887c-.02535.12676-.05324.26239-.07225.39548l-.03042.20159c-.00887.0659-.01648.1343-.02408.2002-.00761.0659-.01648.1357-.02155.2028l-.01521.2041c-.01268.1369-.01395.2738-.01902.4107s0 .2738 0 .412c.01014.275.02535.5514.06085.8252.03549.2738.07985.5476.13563.8188.05577.2713.12675.5387.21295.8011.08619.2624.17746.5223.28013.777.05451.1268.10648.2536.16605.3803l.08747.1851.09253.1825c.13563.2637.28394.5197.44238.7606l-.38027.275.22816.3004.35999-.2611c.06845.1002.13817.199.21042.2966.62204.8413 1.36481 1.5862 2.20431 2.2107.40147.3005.82522.57 1.26757.8062.43398.2315.88687.4257 1.35377.5805.23065.0758.46504.1397.70224.1914l.08746.0203.09.0177.17616.0317c.1268.0178.2383.0381.36.0482.4781.0533.9612.0418 1.4362-.0342.2362-.0411.4689-.1004.6959-.1775.2239-.0756.4404-.1719.6464-.2877.101-.0551.1992-.1151.2941-.18.0482-.0304.0926-.0659.1382-.0989.0215-.0165.0444-.0342.0672-.0494l.0329-.0254.0279-.0215c.1356-.1103.2675-.2206.3942-.3347.2496-.22.4819-.4591.6947-.7149.2088-.2472.3872-.5188.5311-.8087.0701-.1431.129-.2914.1762-.4436.0215-.0761.0431-.1484.0583-.2257.0076-.0367.0139-.0735.0215-.1103.0076-.0367.0102-.0747.0165-.1102.0527-.4079.0035-.8225-.1432-1.2068-.0355-.0963-.0583-.1419-.0583-.1419l-.0153-.0355c-.0114-.0216-.0253-.0583-.0481-.1002-.0622-.1223-.1329-.24-.2117-.3523-.1141-.1646-.2413-.3198-.3803-.464-.1682-.174-.3482-.3362-.5387-.4855-.4685-.3563-.9678-.6702-1.4919-.938l.2028-.2966-.3055-.2091-.2282.3359c-.4664-.2332-.9722-.4639-1.5122-.6972-.341-.147-.6972-.2966-1.06348-.4462l-.55773-.2281-.05831-.0241-.05451-.0241c-.03549-.0152-.07225-.0304-.10647-.0482l-.10394-.0507-.09887-.0545c-.23998-.1279-.45133-.3035-.62112-.5159-.13665-.1796-.21693-.3958-.23069-.6211-.00789-.2761.05218-.54986.17492-.79729.1528-.31392.35525-.60113.59956-.85054.27126-.28054.57461-.52815.90378-.73773.34792-.22043.71536-.4084 1.09776-.56154.7915-.30919 1.6253-.49681 2.473-.55646.4217-.03245.8451-.03795 1.2676-.01648l.1571.00761.1357.0114c.09.01015.1774.02029.2624.0355.1621.02871.3216.07112.4766.12675.2772.0941.5319.24474.7478.44239.2104.19298.3824.42392.5071.68068.1289.27651.2206.56892.2725.86956.0551.30492.0827.61419.0824.92405-.0024.5733-.07 1.1444-.2016 1.7024-.103.4378-.2394.8671-.4081 1.284-.1074.2626-.2284.5194-.3625.7694l-.3448-.1977-.1825.3207.3105.1787c-.0357.0085-.0723.0124-.109.0114-.1432-.0076-.4284-.0836-.5286 0-.0453.0411-.0796.093-.0998.1508-.0201.0577-.0255.1197-.0155.1801.0289.0961.0816.1833.1533.2535-.0251-.0909-.0379-.1847-.038-.2789.0022-.0212.009-.0417.0199-.0601.0109-.0183.0257-.0341.0433-.0461.0176-.0121.0376-.0202.0587-.0237.021-.0036.0426-.0025.0632.0031.0998.0152.2016.0122.3004-.0088.0114 0 .0558 0 .1077-.0064l-.0646.0609c-.2358.2307-.3435.3701-.2827.6781.0609.3081.3093.8024.3549 1.0027.0457.2003.0571-.5552-.0722-.8328s-.1952-.3169-.0228-.521c.1323-.1291.2473-.2748.3422-.4335l.2535.1458c-.0453.0389-.0794.0892-.0988.1457-.0685.1851-.1458.1775-.1851.2852-.0393.1078-.1153.3157-.0456.4399.08.1473.1373.3058.1698.4703 0 .0773.0571-.1927.0355-.4247-.0215-.2319-.1179-.3384 0-.455.0638-.0596.1201-.1269.1673-.2003-.0203.0888-.0203.1811 0 .27.0455.166.0764.3357.0926.507.0152.1078.071.1268.1001 0 .0292-.1267-.0456-.2763-.038-.4195-.0032-.0964-.0007-.193.0076-.2891.0152-.0316.0304.0191 0-.0938-.0092-.0373-.0113-.0759-.0064-.114l.3461.199c-.0271.0904-.0441.1835-.0507.2776-.0063.1559.052.2142-.0583.4157-.1103.2016-.142.2688-.1927.3448-.0589.0983-.0961.2081-.109.322-.0146.1051-.0146.2117 0 .3169.0209.1143.0576.2252.109.3295-.0223-.175-.0223-.3522 0-.5273.0161-.1223.0516-.2413.1052-.3524.0647-.1039.1166-.1204.1509-.2763.0213-.0829.0332-.1679.0355-.2535.0039-.0692.0176-.1374.0405-.2028.0292-.104.0241-.1382.0558-.1762.0212-.046.0341-.0953.038-.1458l.1711.0989c-.0471.0876-.0894.1778-.1267.27.0189.1035.0189.2096 0 .3131-.0327.1223-.0751.2418-.1268.3574 0 .0165-.0228-.0405-.0405.109-.0114.104 0 .3233 0 .4627 0-.0545.0152-.1191.024-.1787.0229-.1509-.0228-.2371.0355-.2954.0592-.0477.1098-.1051.1496-.1698.052-.09.0811-.0837.0925-.2345.002-.0685.0118-.1366.0292-.2028.0028-.0552.0144-.1095.0342-.161.0216-.0659.0419-.142.0558-.1978l.3473.1991c-.0431.0101-.1027.0532-.1267.2116-.0499.2043-.1271.4008-.2295.5844-.0431.1052-.1407.1153-.1407.2611s.0228.8493 0 .9482c-.0228.0988.0634.1153.0748-.0469.0114-.1623-.0177-.1496.0063-.4336.0241-.2839-.0773-.3181.0596-.4512s.1128-.1027.1597-.1547c.0477-.0444.0786-.104.0875-.1685.0292-.1167 0-.033.0342-.1534.0343-.1204-.0177-.1876.0634-.2345l.0418-.0241c.0089.0773.0165.1584.0216.2091.0114.1154-.0292.1674 0 .2536.0291.0862.052.289.0634.3473.0325.1044.0794.2038.1394.2953.0583.0862.0925.0228.0976.1965.0088.129.0322.2565.0697.3803 0 0-.0114-.3588 0-.5895.0101-.1537-.0137-.3077-.0697-.4512-.0456-.1737-.0862-.2725-.0976-.3347-.0114-.0621-.0608-.1685-.0368-.237.0241-.0684.0507-.1736.0685-.2535l.2611.1496.1838-.3207-.3258-.1876c.0076-.0127.014-.0266.0229-.0406.1751-.3252.3329-.6595.4728-1.0014.2133-.5281.3857-1.0718.5159-1.6263.173-.7302.261-1.4779.2623-2.2284-.0032-.44562-.0456-.89014-.1267-1.32838zm-13.71388 6.57618c.06591.0976.12675.1939.20281.2877.25479.3429.53396.667.83533.9697.2955.295.61196.5683.94688.8176.62023.4677 1.31078.8339 2.04586 1.0851.6017.2136 1.2455.2814 1.8785.1977.1268-.0221.2518-.0535.374-.0938.1107-.0378.2176-.0857.3194-.1432.0507-.0241.0951-.0571.142-.085.0228-.0139.0431-.0317.0646-.0469l.0317-.0241.0165-.0114.0203-.0164c.1102-.0888.2155-.1762.3105-.2637.304-.2498.5593-.5536.753-.8962.0413-.0794.0695-.165.0836-.2535.0073-.047.0073-.0949 0-.142-.0064-.0315-.0153-.0624-.0266-.0925-.0038-.0083-.0072-.0167-.0101-.0253v-.0089l-.0178-.0368c-.0211-.0407-.0448-.0801-.071-.1179-.0524-.074-.1104-.144-.1736-.2091-.1023-.1054-.212-.2032-.3283-.2928-.3639-.2746-.7511-.5168-1.1573-.7238-.0748-.0393-.1509-.0799-.2295-.1191l.1572-.232c.0697.0355.1369.0697.2028.1052.4204.2152.8213.4667 1.1979.7517.214.1579.4025.3477.559.5628.0333.048.0638.0979.0913.1495l.0228.0495.0063.0127c0 .0088.0076.0215.014.038.0173.0451.0305.0918.0393.1394.0118.0748.0118.1509 0 .2256-.0173.1197-.0542.2358-.1091.3436-.2088.3759-.4861.7095-.8175.9836-.0989.09-.2079.18-.322.2725l-.0216.0165-.0177.0139-.038.0267c-.0236.0193-.0481.0375-.0735.0545-.0533.0329-.1053.0697-.1636.0988-.116.0652-.2378.1195-.3638.1623-.136.0459-.2754.0811-.417.1052-.6778.09-1.3674.0175-2.01163-.2117-.76412-.2599-1.48176-.6403-2.12572-1.1269-.34495-.2574-.67112-.5391-.97603-.8429-.31198-.3121-.60051-.6468-.86322-1.0014-.06971-.0951-.13816-.1914-.20408-.289zm8.52318 1.2916c-.0114-.0619-.0288-.1226-.052-.1812l-.0165-.0456-.0076-.0153s-.0088-.0215-.0291-.0621c-.0319-.0608-.0675-.1196-.1065-.1762-.1692-.2336-.3731-.4401-.6046-.6122-.3883-.2935-.8014-.5527-1.2347-.7745l-.1787-.0938.1572-.2307.1521.0786c.4448.23.8689.498 1.2676.8011.254.1897.4779.4166.6642.6731.0465.067.0889.1369.1267.2091.0241.0495.0355.0748.0355.0748s.0127.0254.0317.0761c.0285.0742.0498.1511.0634.2294.0233.1255.0263.2539.0089.3803-.0233.1765-.076.3479-.1559.507-.237.4359-.5544.823-.9355 1.1408-.1077.0989-.2244.194-.3435.2916-.0304.0253-.0609.0456-.0913.0697s-.0596.0456-.0925.0672c-.0659.0405-.1268.0849-.2016.1267-.1421.0791-.291.1453-.4449.1978-.1625.0551-.329.0975-.4981.1267-.7593.104-1.5323.0254-2.25505-.2294-.399-.1329-.78613-.2991-1.15729-.4969-.38871-.2062-.7608-.4422-1.11293-.706-.74104-.5505-1.3967-1.2074-1.94572-1.9496-.06972-.0963-.13944-.1926-.20535-.2915l.22436-.1635c.06591.0976.13436.1939.20408.289.53265.7202 1.16863 1.3579 1.88742 1.8925.3411.2556.70178.4841 1.0787.6832.35679.1908.7291.3511 1.11293.4791.68255.2367 1.41155.308 2.12695.2079.1541-.0264.3058-.065.4538-.1153.1385-.0473.2725-.1067.4006-.1775.0634-.0329.1267-.0735.18-.1103.0291-.0177.0558-.0405.0824-.0595l.0405-.0305.0431-.0329c.1166-.0938.2282-.1876.3321-.2814.3543-.2929.6498-.6503.8709-1.0534.0649-.1302.1077-.2702.1267-.4145.0144-.0988.0136-.1993-.0025-.2979zm-3.0777-12.95582c-.2498-.00033-.4993.01703-.7466.05197-.44302.06242-.8787.16901-1.30052.31817-.06211.02154-.12676.0469-.18507.07098-.0583.02408-.12675.0469-.19013.07605l-.1914.08366-.19141.09507-.09887.04944-.09633.0545c-.06465.03676-.12676.07099-.19648.11028-.12676.08113-.26239.16098-.39041.25352-.12803.09253-.25352.19267-.38788.29281-.06338.05323-.12676.11027-.18887.16478l-.09633.08366-.09127.09c-.25625.2474-.49234.51486-.70604.79984-.46556.63319-.83622 1.33095-1.10025 2.07121-.03549.09887-.06972.19647-.10394.29535-.0191.04925-.03519.09963-.04817.15084l-.04563.14957c-.02916.10141-.06211.20281-.09.30675l-.07605.31563c-.01268.05197-.02535.10521-.0393.15845l-.01774.07859-.01648.07732c-.01902.10267-.04056.20538-.05577.30928l-.02409.1546c-.0076.052-.01141.104-.01774.1572-.00634.0533-.01395.104-.01775.1559l-.01141.1585c-.01014.1039-.01014.2091-.01521.3156s0 .2104 0 .3169c.00887.2117.02028.4234.0469.6338s.06211.4208.10521.6338c.0431.2129.09887.417.16478.6224.18736.593.44751 1.1606.77449 1.6896l-.22436.1648c-.10774-.1736-.21042-.3524-.30295-.5349l-.07732-.1496-.07099-.1508c-.04943-.1014-.08999-.2054-.13563-.308-.08366-.2066-.16351-.4158-.22816-.6338s-.12676-.4297-.17112-.6465c-.04437-.2167-.08493-.4373-.10901-.6579-.02409-.2205-.04057-.4398-.04944-.6604 0-.1102 0-.2193 0-.3295 0-.1103 0-.2193.01521-.3296l.01268-.1635c0-.0545.01141-.109.01774-.1623.00634-.0532.01141-.109.01902-.1635l.02535-.161c.03296-.21545.07732-.42587.12676-.64389.02535-.10774.05197-.21549.07732-.32196.02535-.10648.06211-.21169.09253-.31563.01648-.05324.03169-.10521.0469-.15718s.03042-.10394.04817-.15464c.03676-.10141.07225-.20281.10901-.30295.27373-.76629.65807-1.48843 1.14082-2.14347.22268-.29658.46852-.57504.73519-.83279l.09633-.0938.09887-.0862c.06592-.05831.12676-.11788.19775-.17239.13563-.10521.26619-.21422.40435-.30548.13817-.09127.2738-.18127.40816-.2662.06718-.04056.1369-.07732.20408-.11534l.10141-.05705c.03295-.01774.06845-.03295.10267-.0507l.20028-.09887.20027-.08746c.06465-.03042.12676-.05577.19648-.07986.06971-.02408.12675-.05197.19393-.07352.43983-.15588.89422-.26714 1.35626-.3321.2737-.03951.55-.05731.8265-.05324zm.0799-.50703c-.2994-.00607-.5987.01258-.8949.05578-.47824.06581-.94844.18049-1.40324.34224-.06592.02282-.12676.04944-.19901.07606s-.13563.0507-.20281.08239l-.20788.09-.20789.10267-.10521.05324-.1052.05831c-.06972.03929-.14197.07732-.21169.12675-.13816.0862-.28267.17366-.4221.27507-.13943.1014-.2738.19647-.41957.30929-.06845.05704-.13436.11788-.20408.17746l-.10267.08999-.09887.09761c-.27546.26673-.52974.55449-.76054.86068-.495.67332-.88953 1.41499-1.17124 2.20177l-.11028.31056c-.01901.0507-.03423.10521-.0507.15718-.01648.05197-.03169.10647-.0469.16098-.03043.10648-.06465.21295-.0938.3207l-.07986.32957c-.05625.21772-.10152.43813-.13563.66035l-.02535.1674c-.00761.0557-.01395.1115-.02028.1673-.00634.0558-.01395.1115-.01902.1686l-.01267.1686c-.01014.1128-.01014.2269-.01522.3397-.00507.1128 0 .2269 0 .341.00888.2268.02155.455.05071.6832.02915.2281.06718.4525.11154.6781.04437.2257.10648.4462.17746.6655.07099.2193.14958.4373.23577.6503.04564.1052.08747.2129.13944.3169l.07225.1559.07859.1533c.09887.194.20661.3803.32069.5654l-.22436.1648c-.12675-.1952-.23703-.3968-.34224-.6021l-.08239-.1597-.07479-.161c-.05197-.1078-.09634-.2193-.1445-.3271-.08873-.2218-.17366-.4449-.24338-.673-.06971-.2282-.12676-.4589-.18253-.6909-.05577-.2319-.09126-.4677-.11788-.7047-.02662-.2371-.0431-.4716-.05197-.7073 0-.1192 0-.2371 0-.355 0-.1178 0-.2357.01648-.3523.03181-.465.1052-.92609.21928-1.3779.02662-.11155.05451-.22436.08113-.33591.02662-.11154.06465-.22056.09634-.32957l.04943-.16351c.01521-.05451.03169-.10901.05197-.16225l.11155-.31943c.29108-.81193.69887-1.57712 1.21053-2.27149.23837-.31898.50203-.61825.78843-.89491l.10267-.10014.10775-.0938c.07098-.06211.1407-.12676.21295-.18506.14577-.11282.28647-.22944.43605-.32957.14957-.10014.29407-.19521.43858-.28648.07351-.04436.1483-.08239.22055-.12675l.10901-.06085.11028-.0545c.07183-.03718.14408-.07268.21676-.10648l.21422-.09507c.06972-.03169.1407-.0583.21042-.08492.06971-.02662.13816-.05578.20788-.07859.47277-.16861.96169-.28797 1.45894-.35619.3176-.04676.6387-.06585.9596-.05704h.0152zm.0798-.50702h-.0431c-.3344-.00919-.6691.01074-1.0001.05957-.51276.07081-1.01694.19399-1.5046.3676-.07098.02408-.14197.05324-.21422.07985-.07225.02662-.1445.05578-.21802.08874l-.22183.0976-.22309.11028c-.03676.01901-.07605.03676-.11408.05704l-.11155.06211c-.07478.0431-.1521.08239-.22689.12676-.15084.0938-.30549.18633-.45379.29534-.14831.10901-.29915.22309-.45126.33971-.07352.06211-.14577.12676-.21929.19014l-.11028.0976-.10521.10394c-.29585.28501-.56801.59362-.81378.92279-.52513.71254-.94361 1.49782-1.24222 2.33107-.03803.10774-.07605.21549-.11535.3245-.01901.05451-.03549.11028-.05197.16605l-.04943.16732c-.03296.11155-.06719.22309-.09887.33591-.03169.11281-.05578.22816-.0824.34224-.11782.46418-.19334.93811-.22563 1.41591-.0114.1267-.0114.2421-.01774.3625s0 .2434 0 .3651c.00887.2433.02281.488.05324.7301.03042.2421.07225.4842.12675.725.05451.2409.11282.4779.18887.7111.07606.2333.15845.4652.25352.6921.04943.1128.09506.2269.1483.3372l.07859.1661.08366.1622c.11028.218.23197.4285.35999.6338l-.22689.1648c-.1369-.2172-.26366-.4403-.38027-.6693l-.08493-.1686-.08113-.1711c-.05577-.1141-.10267-.2307-.15337-.3473-.09507-.2345-.18507-.4716-.25352-.7149-.06845-.2434-.13943-.4893-.19647-.7365s-.09507-.4981-.12676-.7504c-.03169-.2522-.0469-.507-.05577-.7605 0-.1268 0-.2536 0-.3803 0-.1268 0-.2535.01774-.3803l.01395-.1876c0-.0608.01267-.1267.01901-.185.00634-.0584.01394-.1268.02282-.1851l.02788-.18381c.03803-.24591.08873-.48802.14704-.71998.02916-.11662.05704-.23324.08493-.34985.02789-.11662.06845-.22944.10141-.34352.01647-.05704.03295-.11408.0507-.17112.01774-.05704.03296-.11408.0545-.16985l.11789-.33338c.30674-.86105.73808-1.67248 1.28025-2.40838.25476-.34001.5362-.65919.84167-.95449l.11027-.10774.11535-.10141c.07606-.06591.15084-.13436.2269-.19774.15718-.12676.30929-.24717.46773-.35238.15845-.10521.31563-.21042.47154-.30676.07732-.04816.15718-.08999.23577-.13436l.11662-.06464.11661-.05831.23197-.11408.2307-.10141c.07478-.03423.14957-.06338.22563-.09127.07605-.02788.14703-.05957.22055-.08366.50581-.17961 1.02866-.30703 1.56036-.38027.347-.05064.6978-.071 1.0483-.06084h.0773zm-7.26697 13.43627c-.15084-.2383-.29281-.4829-.42337-.7365l-.09-.1774-.08239-.1851c-.05831-.1204-.10901-.2446-.16225-.3676-.10014-.2535-.19521-.4994-.2738-.7605s-.1483-.5185-.20788-.7809c-.05957-.2623-.1014-.5298-.12676-.7973-.02535-.2674-.04943-.5361-.05957-.8049 0-.1331 0-.2674 0-.4005s0-.2675.01901-.3993l.01521-.199c0-.0659.01395-.1268.02155-.1978.00761-.0709.01394-.1267.02282-.1964.00887-.06974.02028-.12678.03042-.19523.01775-.12676.04437-.25352.06972-.38661l.01901-.09507.02155-.09253c.01521-.06085.02915-.12676.04436-.18253.03043-.12676.05831-.24211.08747-.36253.02915-.12042.07098-.23957.10521-.35872l.05323-.17873c.01775-.05958.0355-.11788.05578-.17619.04309-.11662.08366-.23324.12675-.34985.32476-.90601.7795-1.75999 1.34997-2.53515.27158-.36107.57124-.70014.89617-1.01406l.11915-.11535.12676-.10774c.08113-.07098.15972-.14197.24211-.21042.16732-.12676.32957-.26365.49816-.38027.16858-.11662.3359-.22436.50702-.32703.0824-.05071.16859-.09507.25352-.14324l.12676-.06845c.04056-.02281.08366-.04183.12675-.06338l.24591-.12675.24464-.10648c.07986-.03676.16099-.06718.24084-.09887.07986-.03169.15718-.06211.23577-.08873.53322-.18456 1.08354-.31534 1.64277-.39041.3756-.0545.7552-.07613 1.1345-.06465h.1394l-.0443.27506h-.104c-.3641-.00989-.7284.01131-1.0888.06338-.54736.07595-1.08549.20761-1.60605.39295-.07605.02535-.15084.05704-.22816.08493-.07732.02788-.15465.05957-.23197.09507l-.23703.10394-.23831.11788c-.03929.02028-.08112.0393-.12676.06084l-.12675.06592c-.07986.04563-.16352.08873-.24338.13816-.15971.10014-.32576.20028-.48548.31563-.15971.11535-.31943.2383-.48168.36379-.07858.06592-.15464.13563-.2345.20408l-.11915.10394c-.03549.03676-.07352.07352-.11281.11155-.31453.30402-.60444.6325-.86702.98237-.55419.75203-.99573 1.58088-1.31067 2.46036l-.12676.34097c-.02028.05578-.03803.11409-.05451.17239-.01647.05831-.03422.11662-.05197.17493-.03422.11535-.06971.23197-.10267.34985s-.05704.23704-.08619.35619c-.05958.23577-.11155.48421-.15085.73646-.01014.06338-.02028.12673-.02915.18883s-.01521.1268-.02282.1902c-.0076.0634-.01647.1267-.02028.1914l-.00253.1952c-.01141.1267-.01141.2535-.01775.3803-.00634.1267 0 .2535 0 .3878.01014.2599.02409.5197.05831.7783s.07479.5159.12676.772c.05197.256.12675.507.20027.7605s.16859.4944.26619.7352c.05071.1192.09887.2396.15592.3562l.08239.1762.08873.1711c.12676.2409.25351.4741.40055.701zm8.68797-2.5022c.5194.2617 1.0145.5693 1.4792.919.1827.141.3547.2952.5147.4614.1306.1346.2501.2796.3574.4335.0726.1044.1378.2136.1952.327.0165.03.0314.0609.0444.0926l.0152.0304s.0203.0418.052.1268c.0506.1312.0884.267.1128.4056.0415.228.0471.4611.0165.6908 0 .033-.0089.0672-.014.1001-.005.033-.0127.0672-.0203.1015-.0141.0697-.0319.1387-.0532.2066-.0435.1404-.0977.2773-.1622.4094-.1379.2729-.3082.5283-.5071.7605-.2054.2468-.4296.4774-.6705.6896-.1268.1103-.2535.218-.3803.327l-.0253.0203-.0317.0228-.0634.0482c-.0418.0304-.0837.0646-.1268.0925-.09.0583-.18.1192-.2776.1699-.1944.1082-.398.199-.6084.2712-.2151.0727-.4354.1287-.6591.1674-.4545.0727-.9167.0833-1.3741.0316-.1166-.0088-.2294-.0291-.3448-.0456l-.17236-.0317-.08619-.0164-.08493-.0191c-.22943-.0481-.45379-.114-.67942-.185-.45426-.1507-.89485-.3399-1.31701-.5654-.43372-.2264-.84944-.4857-1.24349-.7757-.82012-.6117-1.54613-1.3402-2.15487-2.1625-.07099-.0976-.1407-.1965-.20915-.2953l.22436-.1648c.06845.1001.1369.199.20915.2953.2988.4044.62761.7858.98363 1.1408.34814.3472.72093.6687 1.11547.9621.38228.2845.78617.5388 1.208.7606.40628.2176.83033.4004 1.26757.5463.21449.07.43236.1293.6528.1774l.08239.0191.08239.0152.16356.0304c.1102.0152.2193.0342.3295.0444.4321.0483.8687.0381 1.298-.0305.2089-.0367.4148-.0888.6161-.1559.1948-.0684.3835-.1532.564-.2535.09-.0482.1724-.1039.2535-.1572.0419-.0266.0799-.0583.1205-.0862l.0583-.0431.0291-.0228.0241-.019c.1268-.1052.2535-.2091.3803-.3169.2307-.203.4456-.4233.6426-.6591.1824-.2171.3386-.4549.4652-.7086.1155-.2294.1913-.4767.2244-.7314.0268-.2015.0221-.4059-.0139-.6059-.0218-.1221-.0554-.2418-.1002-.3574-.0291-.0774-.0469-.1154-.0469-.1154s0-.0101-.0126-.0279c-.0127-.0177-.0203-.0469-.0393-.0824-.0519-.1019-.1108-.2002-.1762-.294-.0991-.1421-.2093-.2761-.3296-.4006-.1516-.156-.3138-.3012-.4855-.4348-.4351-.3311-.8987-.623-1.3854-.8721l-.0799-.0418zm-.1851.4779c.4744.2427.9262.5274 1.35.8505.164.1264.3186.2645.4626.4133.1117.1154.2138.2396.3055.3714.0599.085.1133.1744.1597.2674.0133.0238.0251.0484.0355.0735l.0114.0254s.0165.0342.0419.1027c.1045.2714.1394.5647.1014.853-.0303.2297-.0993.4526-.2041.6592-.118.2375-.2639.4601-.4348.6629-.1897.2268-.3965.4386-.6186.6338-.114.1039-.237.2066-.3638.308l-.0507.0393-.0545.0418c-.0367.0267-.0722.0558-.1115.0799-.0786.0494-.1559.1027-.2396.1458-.1684.0945-.3448.1738-.5273.237-.1886.0637-.3819.1129-.578.147-.4088.0654-.8246.0747-1.2359.0279-.1052-.0088-.2104-.0266-.3156-.0418l-.15846-.0291-.07986-.014-.07732-.019c-.21168-.0444-.42083-.1065-.63378-.1724-.42695-.141-.84088-.3187-1.23716-.5311-.41144-.2179-.80555-.4671-1.17884-.7453-.78106-.5812-1.47214-1.2745-2.05093-2.0573-.07099-.0963-.13944-.194-.20788-.2928l.22436-.1635c.06718.0988.13689.1952.20661.2915.56285.7606 1.2347 1.4342 1.99389 1.999.36131.2699.74269.5119 1.14082.7237.38236.2029.78142.3725 1.19279.5071.75976.2693 1.57296.3528 2.37166.2434.181-.0316.3594-.077.5336-.1357.1671-.0573.3287-.1294.483-.2155.076-.0393.147-.0874.218-.1267.0355-.0228.0684-.0495.1014-.0735.0329-.0241.0672-.0495.0976-.0736.1267-.1001.2421-.199.3536-.2991.4029-.3376.7384-.7484.9887-1.2105.0908-.1802.1508-.3743.1775-.5743.0207-.1529.0173-.3082-.0101-.4601-.0171-.092-.0422-.1823-.0748-.27-.0228-.0595-.0368-.0887-.0368-.0887l-.0152-.0216c0-.0139-.0152-.0354-.0304-.0646-.0418-.0811-.0888-.1595-.1407-.2345-.1992-.2758-.4389-.5198-.7111-.7238-.4113-.3127-.8495-.5884-1.3094-.8239l-.1268-.0672.1572-.232zm4.202.0367-.2408-.1394c.1418-.2579.2688-.5236.3802-.796.1741-.4278.3144-.8686.4196-1.3183.1371-.5756.2073-1.1651.2092-1.7569-.0006-.32339-.0294-.64617-.0862-.96458-.0563-.32068-.1543-.63262-.2916-.92786-.1328-.28585-.3186-.54392-.5476-.76055-.2388-.2192-.5207-.38627-.8277-.49055-.1675-.05707-.3397-.09948-.5146-.12675-.0913-.01521-.1851-.02662-.2789-.03676l-.1432-.01268-.1623-.0076c-.4338-.02172-.8686-.01622-1.3018.01647-.8692.06134-1.724.25453-2.5351.57295-.3978.15759-.77973.3524-1.14084.58181-.34515.21935-.66338.47844-.94814.77196-.25897.26814-.47299.57632-.63379.91265-.13949.28164-.207.59349-.19647.90759.015.2716.11177.5323.2776.7479.1883.2384.42395.4352.69209.578l.10648.0583.11028.0545c.03676.0177.07478.0355.11408.0507l.05704.0253.06084.0254.55647.2269c.36636.1508.71876.2979 1.05966.4449.5261.2269 1.0141.4525 1.4717.6782l-.1572.2319c-.4373-.218-.9139-.4348-1.4248-.6553-.3384-.1458-.69078-.2928-1.05457-.4424l-.5552-.2269-.12676-.0532c-.04056-.0178-.08239-.0343-.12675-.0545l-.12676-.0583-.11535-.0634c-.30168-.1622-.56664-.3848-.77829-.6541-.19795-.2591-.31324-.5718-.33084-.8974-.01401-.3599.06179-.71751.22056-1.04071.1758-.3644.40953-.69787.6921-.98744.2995-.30977.63431-.58332.99758-.81505.37479-.23824.77118-.44068 1.18388-.60463.8389-.33069 1.7232-.53158 2.6226-.59576.445-.03376.8916-.03968 1.3373-.01775l.1648.00888.1534.01267c.1014.01014.2015.02282.2991.0393.1909.03242.3788.08075.5616.1445.3415.11781.6552.30464.9215.54886.2544.23967.4613.52523.6097.84167.1476.31705.2532.65197.3144.99631.0599.33471.0904.67402.0912 1.01405-.0024.613-.0751 1.2238-.2167 1.8202-.1082.4646-.2531.9199-.4335 1.3614-.1144.2829-.2443.5592-.3892.8277zm.4462.2422-.0076.0139-.2408-.1382v-.0076c.1489-.276.2826-.5599.4005-.8505.1842-.4524.3326-.9187.4437-1.3943.1463-.6134.2207-1.2417.2218-1.8723.0002-.35443-.0312-.70821-.0938-1.05711-.0651-.36405-.1772-.71812-.3334-1.05335-.1607-.34309-.3847-.65274-.6604-.91265-.2902-.26509-.6313-.46824-1.0026-.59703-.1959-.06757-.3968-.11928-.6009-.15465-.1026-.01774-.2091-.03042-.3143-.04183l-.1509-.0114-.1698-.00888c-.4554-.02299-.9118-.01748-1.3665.01648-.9226.06587-1.8298.27101-2.691.60844-.4264.17015-.83591.37978-1.22324.62618-.37875.24111-.72764.52618-1.03941.84927-.30025.30748-.54816.66201-.73392 1.04955-.17523.35802-.25885.75388-.24338 1.15218.02213.3713.15454.7274.38028 1.023.23124.2937.51974.5373.848.7162.16389.091.33322.1718.50703.2421l.55393.2269c.36506.1495.71491.2953 1.05081.4398.4982.2155.9621.4272 1.3867.6338l-.1584.232c-.4082-.2016-.8569-.4057-1.3373-.6123-.3346-.1445-.68449-.2915-1.04702-.4398l-.55266-.2257c-.18573-.0726-.36653-.1573-.54125-.2535-.36222-.197-.68018-.4662-.9342-.7909-.25719-.3394-.40804-.7475-.43351-1.1725-.01957-.4468.07189-.89145.26619-1.29423.19896-.41509.46442-.79488.78589-1.12434.32727-.33754.69316-.63536 1.09011-.8873.40107-.25626.82548-.47398 1.26755-.65027.8871-.35044 1.8222-.56414 2.7735-.63378.466-.03502.9338-.04095 1.4006-.01775.4501.01064.8959.08971 1.3221.2345.4078.14003.782.36318 1.099.65534.3015.28311.5466.62074.7225.99504.1669.35733.2867.73486.3562 1.12307.0653.36526.0984.73555.0989 1.10662-.0014.6522-.0779 1.3021-.2282 1.9368-.1155.4902-.2685.9707-.4576 1.4375-.1209.3008-.2589.5945-.4132.8797zm.4348.2687-.2421-.1395.0114-.019c.1574-.2922.2992-.5926.4246-.8999.1942-.4781.3511-.9706.469-1.473.1542-.6521.2329-1.3199.2345-1.9901-.0008-.38255-.0356-.76432-.1039-1.14077-.0731-.4083-.1988-.8054-.374-1.18138-.1889-.39973-.4512-.76047-.7732-1.06349-.3409-.31363-.7425-.55394-1.1801-.70604-.4496-.15232-.9197-.23525-1.3943-.24591-.4765-.02318-.954-.01725-1.4298.01775-.9745.06908-1.9328.28622-2.8419.64392-.45616.18147-.89414.40555-1.30817.66928-.41255.26366-.79287.57464-1.13321.9266-.33828.3483-.61743.74948-.82646 1.18771-.2111.43345-.31086.91263-.29028 1.39433.01438.2366.0635.4698.14578.6921.08108.2171.19339.4212.33337.6059.27276.3509.61495.6417 1.00518.8543.18363.1027.37374.1933.56914.2713l.55647.2218c.36126.1483.70988.2941 1.04198.4373.4664.2016.9025.3993 1.2992.5933l-.1572.2332c-.3802-.1876-.8011-.3803-1.2523-.5717-.32959-.1419-.67521-.2873-1.03689-.436l-.5514-.2231c-.20578-.084-.4064-.1801-.60083-.2878-.42325-.2316-.79431-.5479-1.09011-.9291-.15561-.2062-.2807-.4337-.3714-.6756-.09272-.2481-.14742-.5088-.16225-.7732-.01521-.2641.00611-.529.06338-.78718.05649-.25548.14153-.5038.25352-.74027.22219-.46733.51887-.89543.87843-1.26757.71796-.72674 1.58207-1.29273 2.53515-1.66052.9356-.36782 1.9216-.59135 2.9243-.66294.4871-.03731.9761-.04366 1.464-.01901l.18.00887.1876.01648c.1268.01267.2535.02788.3727.04943.2473.04234.4906.10509.7276.1876.4732.1632.9077.42209 1.2764.76055.3481.32696.6315.71656.8354 1.14842.1858.39755.3188.81773.3954 1.24983.0714.39489.1079.7953.109 1.19661-.002.692-.0836 1.3814-.2433 2.0547-.1203.5167-.281 1.0232-.4804 1.5148-.1291.3171-.2755.6268-.4386.9278zm1.4273-2.3526c-.1265.5429-.2961 1.0748-.5071 1.5908-.1352.3346-.2892.6613-.4614.9785l-.0202.0368-.2396-.1394.0165-.0292c.1663-.3089.3157-.6267.4474-.9519.2051-.5034.37-1.0222.4931-1.5516.1654-.6905.2504-1.3979.2535-2.1079-.0002-.41533-.0375-.82978-.1115-1.23844-.0817-.45424-.2228-.89575-.4196-1.31321-.2162-.45842-.5173-.87175-.8873-1.21814-.3918-.36045-.8534-.63658-1.3563-.81124-.2496-.08752-.5061-.15367-.7669-.19775-.1267-.02281-.2535-.03802-.3891-.05197l-.194-.01647-.185-.00381c-.4977-.02465-.9964-.0183-1.4932.01902-1.0262.07293-2.0354.30159-2.9928.67815-.98291.38045-1.87351.96597-2.61244 1.71756-.37754.38817-.68885.83565-.92153 1.32461-.11774.25223-.20743.51663-.26745.78843-.06121.27911-.08382.56526-.06719.85056.01631.287.0757.5698.1762.8391.09811.2633.23388.5109.40309.7352.15947.2114.34374.4029.54885.5704.19173.1575.39655.2983.61224.4209l.15845.0849.15718.0773c.05197.0254.10521.0494.15845.0723l.15337.0646.55013.2244c.35999.1483.70604.2928 1.03435.4347.436.1876.8417.3714 1.2118.5514l-.1585.232c-.3549-.1711-.744-.3486-1.1623-.5286-.32832-.1419-.67184-.2852-1.03056-.4322l-.54886-.2244-.16098-.0684c-.05577-.0228-.11028-.0469-.16605-.0748l-.16606-.0824-.16605-.09c-.23055-.13-.44939-.2797-.65407-.4475-.22147-.182-.4206-.3896-.59322-.6185-.18482-.2449-.33339-.5151-.44111-.8024-.11064-.2961-.17602-.6072-.19394-.9228-.01788-.3095.00686-.62002.07352-.9228.06388-.29254.1604-.57699.28773-.848.24589-.51437.57382-.9853.97097-1.39433.76962-.78022 1.69646-1.38775 2.71898-1.78221.9832-.38711 2.0198-.62219 3.0738-.69717.5082-.03899 1.0184-.04576 1.5275-.02028l.1888.01014.2041.01648c.1356.01394.2725.03042.4094.05451.276.04667.5474.11707.8113.21041.5388.18699 1.0333.483 1.4526.86956.3946.37039.7162.81153.9482 1.30053.2037.43796.349.90078.4322 1.37658.0772.42495.1163.85595.1166 1.28788-.0011.7296-.087 1.4565-.256 2.1663zm-.1268-8.9846c-1.7994-1.79912-4.167-2.918658-6.6994-3.1678608-2.53234-.2492032-5.07275.3873478-7.18839 1.8011908-2.11564 1.41385-3.6756 3.51751-4.414096 5.95257-.738498 2.4351-.60984 5.0508.364054 7.4017.973892 2.3508 2.732772 4.2912 4.976942 5.4906 2.24417 1.1995 4.83479 1.5836 7.33049 1.0871 2.4956-.4965 4.7419-1.843 6.3562-3.81 1.6142-1.967 2.4964-4.4329 2.4964-6.9775.0015-1.44584-.283-2.87774-.8371-4.21324-.554-1.3355-1.3668-2.54822-2.3914-3.56836zm-.507 15.0524c-1.6831 1.6834-3.8978 2.731-6.2668 2.9645-2.36894.2335-4.74556-.3617-6.72488-1.6841s-3.43887-3.2902-4.12996-5.5681c-.691083-2.2779-.570944-4.72498.33995-6.92423.9109-2.19925 2.55619-4.01462 4.65552-5.13678 2.09934-1.122156 4.52287-1.481666 6.85747-1.017272 2.3347.464392 4.4362 1.723962 5.9463 3.564072s2.3354 4.14691 2.3354 6.52731c.001 1.3508-.2649 2.6885-.7824 3.9363-.5175 1.2477-1.2764 2.381-2.2332 3.3345z" fill="#2f4358"/></g></svg>