<svg height="231.412" viewBox="0 0 231.417 231.412" width="231.417" xmlns="http://www.w3.org/2000/svg" xmlns:xlink="http://www.w3.org/1999/xlink"><clipPath id="a"><path d="m0 283.46h283.46v-283.46h-283.46z"/></clipPath><g clip-path="url(#a)" transform="matrix(1.3333333 0 0 -1.3333333 -73.264265 304.67946)"><path d="m0 0c0-46.372-37.598-83.966-83.971-83.966s-83.967 37.594-83.967 83.966c0 46.375 37.594 83.969 83.967 83.969s83.971-37.594 83.971-83.969" fill="#ffcc24" transform="translate(225.6992 141.7285)"/><path d="m0 0-6.464 11.743-2.754-2.754-24.471 24.623 18.619 18.619.043-.041c.469.411.986.682 1.52.815 1.218.238 2.515-.207 3.515-1.207 2.759-2.758-.515-9.391-2.687-11.561l-.002-.009c-2.233-2.235-1.442-3.426-1.442-3.426 6.952 6.951 10.116 10.793 11.144 15.785.494 2.064.605 4.25.449 6.828l.08-.078c-.213 3.559.603 5.945 1.83 7.267 1.535 1.338 3.584 1.135 5.078-.361 2.828-2.828-.496-9.133-2.758-11.625l-.082-.097c-.347-.379-.617-.725-.816-1.04-.887-1.302-.699-1.912-.594-2.093l.119-.137c9.563 9.562 11.803 14.105 11.32 22.186-.482 8.157 4.424 10.239 7.249 7.403 2.832-2.833-.5-9.534-2.809-11.843-2.305-2.301-1.168-3.307-1.168-3.307 11.059 11.053 11.668 14.115 11.168 22.341-.488 8.233 4.523 9.727 7.125 7.125 2.609-2.605-.098-9.133-2.535-11.572-2.448-2.443-1.721-3.705-1.721-3.705 1.4 1.396 3.729 3.728 7.463 7.457 14.92 14.928 4.371 20.602 11.152 27.383 6.012 6.011 6.662 10.982 6.735 12.043l.007.111-.097-.006c-1.061-.076-6.035-.726-12.047-6.734-6.785-6.785-12.453 3.763-27.375-11.156-3.732-3.735-6.065-6.059-7.465-7.461 0 0 1.272-.723 3.711 1.718 2.436 2.44 8.969 5.145 11.566 2.545 2.606-2.603 1.106-7.627-7.125-7.127-8.226.493-11.281-.117-22.339-11.168 0 0 1-1.144 3.308 1.162 2.309 2.309 9.012 5.643 11.84 2.811 2.83-2.832.754-7.738-7.402-7.246-.254.016-.502.023-.75.039l-.129.002c-7.551.264-12.098-2.158-21.309-11.368l.129-.113c.175-.106.789-.309 2.103.585.317.204.656.473 1.033.825l.104.086c2.486 2.261 8.799 5.588 11.625 2.754 1.489-1.487 1.7-3.524.385-5.059-1.312-1.238-3.713-2.065-7.289-1.848l.074-.078c-2.651.156-4.887.037-7-.5-4.906-1.057-8.746-4.232-15.61-11.098l-.007-.001s1.203-.795 3.441 1.447c2.168 2.172 8.803 5.437 11.559 2.687.992-.996 1.439-2.283 1.211-3.502-.165-.654-.528-1.279-1.102-1.828l.039-.035-18.343-18.337-18.618 18.618.039.041c-.41.473-.681.989-.816 1.518-.235 1.221.211 2.519 1.213 3.517 2.754 2.754 9.386-.515 11.56-2.685l.006-.002c2.238-2.234 3.432-1.441 3.432-1.441-6.957 6.951-10.801 10.117-15.785 11.136-2.073.5-4.254.614-6.833.455l.079.08c-3.557-.218-5.95.6-7.27 1.831-1.338 1.535-1.129 3.584.361 5.076 2.83 2.831 9.135-.494 11.627-2.756l.094-.082c.383-.346.725-.619 1.043-.819 1.301-.886 1.914-.699 2.096-.587l.135.115c-9.559 9.561-14.104 11.804-22.188 11.319-8.16-.488-10.238 4.422-7.402 7.246 2.832 2.834 9.535-.5 11.843-2.808 2.305-2.301 3.309-1.164 3.309-1.164-8.636 8.637-12.394 10.897-17.544 11.237.266 1.166.554 2.324.87 3.471 1.639-1.156 2.483-.673 2.483-.673-.542.542-1.23 1.231-2.082 2.083 3.883 13.155 10.991 24.924 20.441 34.377 14.695 14.691 34.966 23.769 57.385 23.77 22.419-.001 42.691-9.079 57.387-23.77 14.691-14.695 23.771-34.966 23.771-57.386 0-22.418-9.08-42.689-23.771-57.384-12.595-12.59-29.29-21.037-47.917-23.202m-38.937 28.357 24.613-24.471-2.758-2.754 2.811-1.546c-14.791.863-28.505 5.679-40.12 13.416zm-50.609 45.085c-.016-.252-.024-.5-.039-.746v-.129c-.266-7.554 2.156-12.101 11.363-21.312l.115.133c.106.172.311.785-.586 2.101-.201.319-.471.658-.826 1.033l-.078.104c-2.266 2.486-5.59 8.793-2.758 11.627 1.484 1.486 3.522 1.697 5.057.381 1.24-1.313 2.068-3.709 1.849-7.289l.082.076c-.164-2.649-.043-4.887.494-7.002 1.057-4.904 4.233-8.742 11.098-15.609l.002-.006s.795 1.201-1.445 3.439c-2.172 2.172-5.436 8.805-2.692 11.561 1.004.99 2.289 1.439 3.504 1.209.656-.164 1.281-.524 1.828-1.102l.039.045 18.341-18.35-16.141-16.233c-2.272 1.831-4.454 3.768-6.516 5.829-14.48 14.485-23.488 34.391-23.745 56.425.768-1.411 1.219-3.448 1.054-6.185m141.44 68.508c-15.696 15.699-37.41 25.419-61.364 25.417-23.954.002-45.667-9.718-61.362-25.417-15.7-15.696-25.419-37.409-25.418-61.364-.001-23.954 9.718-45.666 25.418-61.361 15.695-15.7 37.407-25.418 61.362-25.417 23.954-.001 45.668 9.717 61.364 25.417 15.701 15.695 25.42 37.407 25.419 61.361.001 23.955-9.718 45.668-25.419 61.364" fill="#2f4358" transform="translate(151.1982 61.1426)"/></g></svg>