<svg height="231.41733" viewBox="0 0 231.41333 231.41733" width="231.41333" xmlns="http://www.w3.org/2000/svg" xmlns:xlink="http://www.w3.org/1999/xlink"><clipPath id="a"><path d="m0 283.46h283.46v-283.46h-283.46z"/></clipPath><g clip-path="url(#a)" transform="matrix(1.3333333 0 0 -1.3333333 -73.266398 304.68119)"><path d="m0 0c0-46.377-37.594-83.971-83.968-83.971-46.373 0-83.967 37.594-83.967 83.971 0 46.373 37.594 83.967 83.967 83.967 46.374 0 83.968-37.594 83.968-83.967" fill="#ffdb00" transform="translate(225.6973 141.7319)"/><path d="m0 0c-.001 22.419-9.079 42.689-23.77 57.385-14.695 14.69-34.966 23.768-57.386 23.769-22.419-.001-42.689-9.079-57.385-23.769-14.69-14.696-23.768-34.966-23.769-57.385.001-22.421 9.079-42.693 23.769-57.388 14.696-14.692 34.966-23.77 57.385-23.771 22.42.001 42.691 9.079 57.386 23.771 14.691 14.695 23.769 34.967 23.77 57.388m5.625 0c.001-23.957-9.718-45.67-25.418-61.366-15.695-15.7-37.408-25.419-61.363-25.418-23.954-.001-45.667 9.718-61.362 25.418-15.699 15.696-25.419 37.409-25.417 61.366-.002 23.955 9.718 45.667 25.417 61.362 15.695 15.7 37.408 25.419 61.362 25.417 23.955.002 45.668-9.717 61.363-25.417 15.7-15.695 25.419-37.408 25.418-61.362m-25.812 19.922c-2.922 5.021-6.309 8.758-9.368 11.068-.218.164-.439.334-.662.492-11.318 8.309-22.556 10.19-22.83 10.233h-.008l.008.045c-3.783 1.129-6.898.744-9.394-.334-2.575-1.11-4.508-2.977-5.75-4.746-.651-.92-1.508-1.94-2.502-3.018-.991-1.078-2.116-2.215-3.287-3.363-2.356-2.291-4.905-4.612-6.965-6.516-1.367-1.265-2.527-2.349-3.23-3.082h-.004c-.41-.428-.738-.861-1.012-1.306-.371-.604-.637-1.237-.851-1.905-.208-.67-.364-1.383-.497-2.138-.269-1.5-.466-3.159-.988-4.905-.441-1.474-1.008-3.15-1.555-4.857-.543-1.711-1.07-3.451-1.433-5.031-.242-1.055-.416-2.036-.477-2.876-.109-1.369-.226-3.016-.191-4.715.031-1.711.217-3.474.695-5.068.319-1.072.758-2.061 1.371-2.93.739-1.054 1.397-2.345 2.028-3.912.634-1.562 1.244-3.406 1.877-5.557 1.259-4.294 2.601-9.849 4.349-16.9 1.965-7.922 5.541-12.445 8.834-14.863 1.207-.891 2.388-1.494 3.422-1.869.13-.047.259-.088.386-.127.475-.106 1.026-.213 1.651-.309.142-.023.304-.045.457-.074h.07v-.008c2.012-.297 4.633-.519 7.633-.49 6.527.06 14.808 1.334 22.392 5.672 5.057 2.888 9.809 7.125 13.592 13.299.098.166.196.328.293.484 3.541 5.961 6.242 12.877 7.772 19.945 1.535 7.074 1.898 14.289.81 20.829-1.254 7.488-3.717 13.805-6.636 18.832m-72.066-36.053c-.762 1.08-1.297 2.291-1.676 3.548-.367 1.247-.576 2.545-.684 3.813-.226 2.547-.047 5.016.096 6.887.076 1.012.271 2.106.537 3.242.262 1.137.594 2.321.951 3.504.721 2.367 1.537 4.735 2.112 6.653.349 1.152.542 2.324.746 3.525.191 1.195.388 2.42.773 3.639.254.816.6 1.629 1.078 2.41.354.578.781 1.14 1.297 1.676v-.002c.586.609 1.391 1.381 2.356 2.273.955.897 2.058 1.908 3.228 2.986.795.731 1.617 1.5 2.439 2.274-1.255.875-2.568 1.664-3.953 2.348-2.808 1.394-5.679 2.634-8.535 3.9-3.383 1.488-5.375 2.115-13.531 2.478-8.84.399-20.051-12.111-21.188-15.662-.085-.351-.171-.705-.238-1.066-.254-1.252-.463-2.533-.488-3.818-.01-.495-.012-.993.037-1.485.023-.217.045-.439.082-.656l.01-.051.004-.008c.949-2.935 1.5-6.029 1.972-9.111.52-3.387.932-6.797 1.377-10.202.377-2.847.748-5.394 2.608-7.224 1.347-1.326 2.724-2.557 3.92-4.065 1.148-1.461 2.244-2.967 3.388-4.433 1.129-1.434 2.301-2.914 3.707-4.024 1.418-1.125 8.164-2.386 9.465-2.468 3.268-.208 7.098 1.08 10.281.339.551-.129 1.082-.324 1.6-.56-.668 2.275-1.295 4.197-1.932 5.765-.599 1.498-1.209 2.674-1.839 3.575m8.06-26.051c.703-2.85 1.617-5.309 2.654-7.424-2.363-.746-4.863-1.394-7.503-1.902-2.698-.524-5.627-.53-8.686-.108-7.67 1.065-16.172 4.834-23.834 10.26-7.66 5.434-14.484 12.527-18.738 20.336-2.828 5.199-4.524 10.73-4.496 16.291.023 3.68.287 7.114.726 10.299 1.272 9.178 3.985 16.262 6.391 21.049 1.394 2.783 2.679 4.787 3.527 5.994 2.264 4.096 5.369 7.571 9.342 9.731 3.303 1.802 7.049 2.572 10.641 3.131 4.74.74 9.603.808 14.332.267.212-.023.427-.049.638-.082 4.43-.609 8.655-2.285 12.746-4.113 3.789-1.686 7.627-3.291 11.351-5.137.5-.25 1-.51 1.5-.769-.257-.28-.527-.561-.804-.848-.254-.266-.516-.539-.782-.803-.257.127-.511.258-.779.389-2.697 1.34-5.529 2.582-8.261 3.777-1.008.44-2.016.885-3.014 1.33-3.853 1.717-8.004 3.387-12.261 3.973-.2.027-.395.057-.594.078-4.672.533-9.332.445-13.85-.26-3.4-.533-6.972-1.254-10.021-2.918-3.399-1.847-6.254-4.834-8.485-8.865l-.062-.107-.07-.098c-.791-1.137-2.016-3.043-3.348-5.701-.725-1.442-1.527-3.211-2.318-5.268-.047-.406-.084-.814-.104-1.218-.125-2.313.725-4.422 1.172-6.45 1.369-6.166 1.738-12.564 2.805-18.801.687-4.018 3.218-6.127 5.8-8.695 2.621-2.614 4.664-6.153 7.246-8.928 2.797-3.006 6.563-5.135 10.231-6.529 2.715-1.035 5.709-1.207 8.582-1.02.387.026.781.094 1.168.137.191-.006.389-.016.582-.027h.041c.076-.004.154-.016.234-.024.569-.074 1.139-.168 1.705-.269.629-.106 1.26-.235 1.887-.368.149-.031.299-.066.451-.101.235-.055.83-.188.998-.227 3.153-.769 6.282-1.636 9.407-2.506.574-2.273 1.185-4.763 1.853-7.476" fill="#414142" transform="translate(222.8848 141.7319)"/></g></svg>