<svg height="231.417" viewBox="0 0 231.412 231.417" width="231.412" xmlns="http://www.w3.org/2000/svg" xmlns:xlink="http://www.w3.org/1999/xlink"><clipPath id="a"><path d="m0 283.46h283.46v-283.46h-283.46z"/></clipPath><g clip-path="url(#a)" transform="matrix(1.3333333 0 0 -1.3333333 -73.267732 304.68133)"><path d="m0 0c0-46.375-37.594-83.969-83.967-83.969s-83.967 37.594-83.967 83.969 37.594 83.969 83.967 83.969 83.967-37.594 83.967-83.969" fill="#ffcc24" transform="translate(225.6973 141.73)"/><path d="m0 0c0 22.42-9.078 42.689-23.768 57.385-14.695 14.691-34.966 23.769-57.387 23.771-22.42-.002-42.689-9.08-57.385-23.771-14.691-14.696-23.769-34.965-23.769-57.385 0-20.19 7.379-38.625 19.574-52.825-.418 4.317-.818 8.639-1.25 12.953-.062.629-.738 1.508-1.33 1.723-4.74 1.731-7.1 4.863-7.103 9.924-.024 13.275-.024 26.555.001 39.83.012 5.979 4.081 9.858 10.008 10.149 3.073.152 5.112-.567 6.682-3.399 1.738-3.14 4.031-5.972 6.279-9.21 2.248 3.257 4.559 6.212 6.412 9.421 1.473 2.551 3.27 3.426 6.157 3.2 2.562-.204 4.904-.596 6.894-2.307 1.537-1.324 2.43-2.897 2.879-4.658-.592.156-1.141.258-1.602.324-.853.117-1.488.141-1.808.141-.379 0-1.18-.028-2.238-.203l-.016-.004c-.793-.141-1.766-.379-2.826-.801h.002c-.789-.319-1.643-.754-2.481-1.35-1.265-.896-2.502-2.189-3.375-3.888-.437-.848-.773-1.77-.99-2.754-.223-.969-.33-1.995-.33-3.061 0-.299.004-.603.023-.916l.008-.121-.008.125c.129-2.375.612-4.504 1.352-6.364.562-1.418 1.277-2.656 2.078-3.73-1.422-.028-2.805-.256-4.096-.739-2.027-.748-3.806-2.156-4.955-3.994-1.156-1.828-1.683-3.994-1.689-6.228-.002-1.895-.006-3.793-.006-5.688 0-2.652.004-5.299.004-7.945v-3.805h.019c.006-1.449.012-2.906.012-4.353 0-1.811-.012-3.621-.031-5.42v-.184c0-1.14.137-2.26.447-3.338.459-1.615 1.336-3.099 2.487-4.255.925-.938 1.996-1.665 3.14-2.247.483-4.578.906-9.171 1.356-13.759 1.32-.787 2.67-1.534 4.037-2.244-.557 5.777-1.096 11.558-1.705 17.332-.071.638-.723 1.494-1.317 1.75-3.066 1.326-4.683 3.48-4.646 6.898.06 4.535.017 9.078.017 13.625h-.017c0 4.543-.006 9.08.006 13.625.011 4.422 2.736 7.16 7.154 7.174 5.601.013 11.213.013 16.816.002 5.186-.016 7.971-2.828 7.981-8.065.01-8.658-.012-17.314.006-25.97.005-3.5-1.471-5.93-4.774-7.297-.578-.239-1.183-1.151-1.246-1.809-.853-7.826-1.613-15.668-2.392-23.506 6.863-1.886 14.085-2.916 21.554-2.916 3.001 0 5.96.176 8.874.492-.737 6.114-1.598 12.207-2.194 18.329-.211 2.187-1.089 2.718-3.088 2.679-4.506-.09-4.453-.027-3.547 4.481 1.891 9.429 3.731 18.875 5.262 28.441-1.468-3.107-2.939-6.224-4.402-9.348-1.118-2.371-2.192-4.761-3.34-7.117-1.067-2.179-2.991-2.99-4.866-2.14-1.892.849-2.419 2.742-1.347 5.08 3.385 7.408 6.785 14.814 10.201 22.207 1.313 2.838 3.129 3.396 5.789 1.74 4.458-2.771 8.934-2.77 13.489-.266 3.511 1.926 4.504 1.606 6.238-1.961 3.504-7.191 7.02-14.386 10.516-21.585.761-1.571.982-3.165-.391-4.516-1.148-1.127-2.623-1.301-3.914-.449-.82.541-1.469 1.507-1.91 2.427-2.518 5.215-4.949 10.479-7.403 15.717-.14-.047-.277-.097-.414-.154 1.348-6.791 2.686-13.582 4.039-20.379.606-3.053 1.243-6.107 1.852-9.158.51-2.547.106-3.039-2.465-3.055-4.326-.021-4.242-.033-4.699-4.369-.512-4.826-1.133-9.643-1.725-14.463 1.338.348 2.661.731 3.971 1.149.529 4.277 1.07 8.568 1.535 12.914.035.363.071.675.102.962.252 0 .533.006.838.006.586.006 1.138.02 1.748.112.468.064.965.166 1.535.396.426.166.891.414 1.34.777.672.538 1.218 1.346 1.484 2.098.27.754.326 1.414.328 1.973-.002.84-.125 1.519-.265 2.242v.002c-.493 2.461-.993 4.908-1.489 7.346.989-.547 2.125-.879 3.287-.879.928 0 1.858.199 2.682.566.834.363 1.572.889 2.199 1.5.674.656 1.242 1.453 1.612 2.336.375.875.533 1.801.529 2.652-.008 1.579-.481 2.85-.984 3.903v.008c-3.504 7.203-7.022 14.396-10.524 21.586-.599 1.21-1.141 2.257-2.099 3.308-.487.518-1.114 1.033-1.893 1.408-.539.26-1.131.393-1.715.469 1.07 2.145 1.781 4.701 1.945 7.65v-.003l.01.132-.01-.125c.02.313.028.614.028.911 0 1.257-.149 2.465-.463 3.6l-.002.019-.008.014.008-.01c-.279.994-.672 1.904-1.156 2.732v.004c-.86 1.463-1.993 2.584-3.145 3.391l.002-.008c-.002.01-.006.01-.006.01-.859.6-1.726 1.031-2.519 1.346l-.018.002h.006c-1.199.468-2.285.701-3.137.82-.853.119-1.488.139-1.814.139-.375 0-1.17-.024-2.237-.207h-.011c-.793-.141-1.77-.377-2.824-.799h.007c-.795-.319-1.648-.756-2.482-1.35-1.17-.832-2.295-2.004-3.15-3.512 1.296 3.151 2.593 6.301 3.886 9.45.858 2.093 1.684 4.213 2.602 6.281 1.254 2.828 3.988 3.64 6.658 2.125 8.332-4.742 16.697-4.832 25.061-.078 2.867 1.629 5.543.877 6.8-2.141 4.727-11.373 9.411-22.77 14.063-34.178 1.08-2.649.121-5.127-2.178-6.082-2.494-1.033-5.119.08-6.244 2.775-3.281 7.832-6.518 15.688-9.777 23.54-.256.613-.547 1.207-1.217 1.734-.342-2.914-.713-5.83-1.02-8.758-.349-3.307-.799-6.621-.92-9.945-.07-2.004.106-4.122.7-6.024 2.898-9.176 5.964-18.301 8.972-27.445 1.004-3.065.483-3.77-2.82-3.779-1.352 0-2.703-.047-4.047.013-1.691.078-2.582-.539-2.875-2.336-1.07-6.629-2.203-13.25-3.324-19.871 7.115 3.795 13.607 8.61 19.267 14.266 14.69 14.695 23.768 34.967 23.768 57.387m5.625 0c-.002-47.93-38.85-86.778-86.78-86.782-47.928.004-86.779 38.852-86.779 86.782 0 47.928 38.851 86.779 86.779 86.781 47.93-.002 86.778-38.853 86.78-86.781m-47.207 45.156c-.754 1.289-1.744 2.27-2.785 3-.781.543-1.586.953-2.36 1.254-1.168.457-2.257.688-3.121.809-.863.121-1.494.136-1.734.136-.285 0-1.086-.017-2.172-.203-.805-.14-1.771-.377-2.793-.787-.76-.306-1.547-.713-2.312-1.254-1.143-.814-2.219-1.939-2.993-3.451-.382-.744-.695-1.582-.904-2.508-.211-.922-.318-1.933-.318-3.029 0-.31.004-.627.023-.951.153-2.715.692-5.059 1.479-7.031 1.183-2.977 2.931-5.133 4.728-6.549.906-.709 1.817-1.233 2.703-1.594.442-.176.871-.322 1.299-.412.428-.094.844-.145 1.26-.145.555 0 1.117.09 1.687.254 1.008.285 2.067.801 3.122 1.559 1.584 1.133 3.152 2.822 4.373 5.131 1.218 2.306 2.091 5.228 2.285 8.787.017.324.025.641.025.951 0 1.301-.154 2.475-.441 3.537-.258.926-.617 1.754-1.051 2.496m-61.59-37.521c-.555.949-1.286 1.674-2.051 2.209-.567.402-1.162.699-1.735.92-.855.334-1.656.506-2.289.597-.632.084-1.099.104-1.269.104-.207 0-.803-.022-1.6-.151-.595-.105-1.31-.279-2.052-.584-.563-.226-1.141-.523-1.704-.917-.836-.598-1.632-1.43-2.197-2.536-.283-.554-.515-1.166-.666-1.843-.152-.68-.238-1.422-.238-2.229 0-.228.004-.459.023-.701.11-1.994.504-3.711 1.086-5.169.871-2.183 2.153-3.773 3.477-4.808.664-.52 1.332-.912 1.984-1.172.322-.133.649-.234.955-.305.315-.068.623-.109.932-.109.402.008.812.07 1.234.191.74.211 1.516.586 2.289 1.145 1.164.832 2.321 2.074 3.221 3.769.893 1.696 1.535 3.845 1.678 6.458.015.242.021.473.021.701 0 .955-.115 1.816-.326 2.6-.189.679-.449 1.289-.773 1.83m29.178-16.63c.865-2.185 2.15-3.771 3.471-4.81.664-.522 1.339-.906 1.988-1.176.318-.129.637-.23.951-.297.316-.07.621-.109.926-.109.412.004.822.066 1.24.187.738.211 1.52.59 2.293 1.145 1.164.836 2.32 2.078 3.215 3.773.902 1.692 1.535 3.836 1.68 6.455.015.237.023.471.023.702 0 .953-.117 1.818-.328 2.602-.19.671-.449 1.285-.774 1.828-.554.951-1.281 1.672-2.043 2.207-.574.398-1.169.701-1.734.924-.863.33-1.66.501-2.295.591-.633.094-1.092.102-1.277.102-.201 0-.797-.016-1.588-.145-.602-.105-1.309-.281-2.057-.586-.56-.222-1.146-.525-1.705-.918-.838-.597-1.633-1.429-2.195-2.531-.289-.551-.512-1.168-.664-1.847-.156-.679-.24-1.427-.24-2.227 0-.231.009-.465.021-.702.113-1.994.506-3.713 1.092-5.168m-4.889 4.957v-.005c-.019.312-.023.617-.023.918 0 1.066.109 2.09.328 3.063.047.191.109.363.16.554-2.149-5.231-4.295-10.453-6.418-15.692-.731-1.797-.594-3.484.175-4.765.541 1.172 1.071 2.34 1.608 3.506.424.914.931 1.769 1.623 2.554.687.78 1.602 1.49 2.707 1.905.571.218 1.178.332 1.774.371-.196.402-.406.793-.582 1.228-.742 1.854-1.219 3.99-1.352 6.363m1.297 6.727v-.005l.006.007s0-.002-.006-.002m-40.813 39.971c.283-1.062.438-2.236.438-3.537 0-.31-.004-.627-.024-.951-.191-3.559-1.066-6.481-2.285-8.787-1.223-2.309-2.797-3.998-4.375-5.131-1.063-.758-2.113-1.274-3.125-1.559-.566-.164-1.127-.254-1.68-.254-.418 0-.836.051-1.261.145-.426.09-.86.236-1.301.412-.883.361-1.797.885-2.699 1.594-1.803 1.416-3.549 3.572-4.731 6.549-.787 1.972-1.326 4.316-1.48 7.031-.022.324-.028.641-.028.951 0 1.096.114 2.107.323 3.029.209.926.517 1.764.904 2.508.771 1.512 1.851 2.637 2.992 3.451.768.541 1.551.948 2.314 1.254 1.018.41 1.987.647 2.799.787 1.078.186 1.887.203 2.168.203.239 0 .869-.015 1.731-.136.859-.121 1.957-.352 3.121-.809.773-.301 1.582-.711 2.357-1.254 1.043-.73 2.028-1.711 2.789-3 .436-.742.791-1.57 1.053-2.496" fill="#2f4358" transform="translate(222.8848 141.73)"/></g></svg>