<svg height="231.41199" viewBox="0 0 231.41733 231.41199" width="231.41733" xmlns="http://www.w3.org/2000/svg" xmlns:xlink="http://www.w3.org/1999/xlink"><clipPath id="a"><path d="m0 283.46h283.46v-283.46h-283.46z"/></clipPath><g clip-path="url(#a)" transform="matrix(1.3333333 0 0 -1.3333333 -73.264931 304.67933)"><path d="m0 0c0-46.372-37.594-83.966-83.97-83.966-46.373 0-83.968 37.594-83.968 83.966 0 46.375 37.595 83.969 83.968 83.969 46.376 0 83.97-37.594 83.97-83.969" fill="#ffdc24" transform="translate(225.6992 141.7285)"/><path d="m0 0c-.001 22.42-9.079 42.69-23.77 57.386-14.695 14.691-34.966 23.768-57.387 23.77-22.419-.002-42.69-9.079-57.386-23.77-14.69-14.696-23.769-34.966-23.77-57.386.001-22.419 9.08-42.688 23.77-57.384 7.916-7.913 17.46-14.177 28.075-18.292-.041 1.382-.07 2.788-.07 4.249 0 1.858.025 3.768.084 5.719 1.586-.68 3.48-1.342 5.588-1.793-.026-1.336-.041-2.648-.041-3.926 0-2.186.049-4.264.141-6.227 7.47-2.269 15.393-3.499 23.609-3.499 12.261.001 23.87 2.731 34.285 7.594.167 1.943.35 4.082.542 6.328.726 8.543 1.57 18.539 2.039 24.345.129 1.576.187 3.328.187 5.186 0 4.16-.298 8.871-.767 13.482-.473 4.617-1.108 9.147-1.777 12.973-.444 2.549-.903 4.787-1.325 6.51-.437 1.787-1.007 3.31-1.625 4.606.813 1.74 1.934 4.149 2.895 6.199 1.539-2.197 3.187-5.32 4.203-9.464.459-1.898.937-4.236 1.398-6.884.465-2.643.907-5.59 1.297-8.672.776-6.158 1.332-12.85 1.332-18.75 0-1.981-.062-3.873-.205-5.637-.522-6.478-1.507-18.098-2.279-27.151 6.301 3.601 12.087 8.005 17.187 13.104 14.691 14.696 23.769 34.965 23.77 57.384m5.625 0c.001-23.954-9.718-45.666-25.418-61.361-15.695-15.7-37.408-25.418-61.364-25.417-23.954-.001-45.667 9.717-61.363 25.417-15.7 15.695-25.419 37.407-25.418 61.361-.001 23.955 9.718 45.668 25.418 61.363 15.696 15.7 37.409 25.419 61.363 25.418 23.956.001 45.669-9.718 61.364-25.418 15.7-15.695 25.419-37.408 25.418-61.363m-105.903 54.084.703-3.328 35.598 7.543-.703 3.326zm1.988 5.795.01-2.711 5.836.021 13.003 2.754zm2.582 5.572.006-2.724 8.838.031 12.385 2.623-16.792-.059v.147zm5.715 3.875.01-2.709 18.702.065-.01 2.709zm1.861-8.123 13.454.047 6.914 1.465-.572 2.683zm17.218-5.822-13.243-2.803 21.387.072-.007 2.76zm3.375-5.649c0 .508-.02.989-.055 1.448l-26.548-5.621c.514-3.797 1.559-6.891 2.868-9.358 1.628-3.074 3.658-5.215 5.57-6.586 1.273-.914 2.494-1.48 3.441-1.746.539-.156.987-.211 1.262-.209.207 0 .512.029.879.11.364.082.792.212 1.259.404.933.375 2.015.984 3.119 1.853 2.203 1.739 4.498 4.494 6.107 8.532 1.074 2.693 1.844 5.964 2.063 9.908.027.437.035.859.035 1.265m-5.191 1.645-13.458-.047-13.938-2.951.568-2.686zm-26.607 4.35v.15h-.226l-.008 2.551-.332 1.568.328.067-.006 1.101 2.924.01c.066.09.133.187.203.275h-.516l-.019 5.274 5.715.019-.01 3.867 21.28.075.012-3.868 2.324.008.303.063.013-.063 1.229.004.014-4.06 2.519.533.426-2.01h.035l.004-.174.68-3.219.144-.691-.812-.174c.049-.129.097-.254.142-.387l1.428.006.016-4.617.004-.621h-.44c.035-.547.057-1.103.057-1.682 0-.511-.016-1.039-.045-1.578-.328-5.91-1.768-10.758-3.797-14.59-2.029-3.835-4.639-6.642-7.266-8.527-1.752-1.254-3.513-2.109-5.181-2.584-.957-.269-1.886-.422-2.806-.422-.687 0-1.383.088-2.092.24-.705.159-1.429.387-2.162.686-1.469.592-2.984 1.471-4.482 2.647-2.989 2.349-5.889 5.933-7.858 10.869-.931 2.336-1.644 4.974-2.074 7.914l-.855-.182-1.086 5.141.847.181-1.195 5.647zm-17.588-71.712c.49 4.013 1.135 8.209 1.955 11.742.41 1.764.864 3.364 1.34 4.671.238.656.481 1.23.719 1.717.24.48.473.867.672 1.13.517.704 1.207 1.454 2.029 2.204 1.439 1.318 3.27 2.636 5.205 3.832 2.91 1.804 6.063 3.351 8.539 4.423 1.168.51 2.184.914 2.944 1.19.06-.082.126-.17.193-.252.539-.715 1.223-1.652 2.004-2.66.586-.756 1.23-1.559 1.926-2.35 1.039-1.183 2.183-2.35 3.492-3.322.652-.481 1.347-.92 2.113-1.272.762-.345 1.598-.609 2.508-.703.191-.023.383-.029.566-.029.639 0 1.249.105 1.812.281 1.053.328 1.945.867 2.767 1.488.725.551 1.399 1.178 2.059 1.852 1.15 1.189 2.254 2.549 3.359 3.961 1.649 2.127 3.289 4.389 4.871 6.316.383.469.76.909 1.133 1.33-1.556 1.29-5.64 2.045-5.644 2.045-.426-.521-.848-1.054-1.266-1.593-1.031-1.325-2.031-2.678-3.004-3.938-.726-.949-1.433-1.851-2.113-2.66-1.012-1.207-1.973-2.191-2.736-2.777-.375-.293-.703-.481-.917-.58-.219-.094-.313-.094-.313-.094-.207.017-.523.105-.93.316-.359.188-.773.463-1.214.815-.774.615-1.608 1.465-2.411 2.39-.603.698-1.189 1.43-1.74 2.151-.42.539-.81 1.066-1.181 1.564-.278.369-.543.727-.797 1.055-.19.246-.371.48-.555.703-.137.17-.27.328-.414.486-.106.117-.217.235-.336.352-.186.176-.385.363-.703.574-.162.1-.361.217-.631.322-.272.106-.635.205-1.107.205-.176 0-.297-.011-.399-.023-.199-.023-.34-.053-.474-.082-.26-.059-.504-.135-.784-.217-.517-.164-1.138-.387-1.871-.668-2.554-.984-6.439-2.719-10.306-4.969-1.934-1.125-3.862-2.384-5.616-3.761-1.756-1.377-3.349-2.877-4.593-4.565-.457-.621-.848-1.289-1.2-2.015-.664-1.354-1.213-2.889-1.705-4.577-.855-2.948-1.529-6.352-2.076-9.844-.82-5.233-1.351-10.641-1.683-14.754-.213-2.707-.342-4.858-.407-6.018 1.75 1.114 4.248 2.537 5.864 3.44.207 2.935.546 6.955 1.056 11.168m62.788-40.911c-.48.399-.982.786-1.492 1.161.395 6.615.543 13.177.543 19.289 0 8.689-.297 16.47-.602 22.189-1.871-4.822-3.978-11.437-5.097-15.053.041-2.291.064-4.675.064-7.136 0-5.08-.103-10.471-.365-15.926-1.59.85-3.172 1.605-4.648 2.256-.399-1.852-.778-3.762-1.133-5.666.277-.129.556-.258.838-.393 1.49-.715 3.023-1.517 4.463-2.385 1.078-.644 2.105-1.33 3.023-2.027 1.373-1.043 2.496-2.133 3.195-3.123.352-.498.602-.961.756-1.377.153-.422.217-.785.217-1.137-.004-.422-.086-.838-.344-1.371-.011-.023-.019-.058-.144-.158-.094-.07-.258-.164-.496-.264-.36-.146-.891-.287-1.551-.38-.658-.094-1.442-.141-2.305-.141-2.129-.006-4.742.293-7.422.762-.718.123-1.441.263-2.164.404-.322-2.139-.59-4.043-.797-5.578.662-.135 1.33-.258 1.996-.375 2.885-.498 5.756-.844 8.387-.85.953 0 1.879.047 2.772.158.668.082 1.318.2 1.955.37.949.251 1.867.615 2.72 1.189.424.287.832.627 1.194 1.031.363.399.679.862.922 1.365.603 1.231.914 2.549.91 3.838 0 .862-.133 1.705-.371 2.496-.446 1.489-1.227 2.801-2.176 3.979-.832 1.037-1.797 1.975-2.848 2.853m-50.389 49.331c-.002-.018-.844-5.321-1.899-13.313 1.85 1.395 4.547 3.551 6.369 5.022.205 1.453.391 2.736.545 3.796.174 1.155.307 2.057.405 2.672.046.311.082.545.105.703.016.082.023.135.029.176l.01.059c.246 1.535-.805 2.982-2.34 3.222-1.537.247-2.978-.802-3.224-2.337m40.069-18.51c-2.111-7.043-6.898-26.748-8.023-34.213-1.129-7.465-.25-9.106-2.676-9.856s-9.294.774-20.136 3.663c-10.84 2.882-23.58 8.935-26.115 11.261-2.537 2.326-2.043 17.039-1.832 18.867.211 1.829 7.041 4.694 7.041 4.694 35.103 18.773 54.815 48.429 54.815 48.429s.336.709 1.434 1.013c1.101.305 7.32-3.732 9.219-5.842 1.904-2.115-.489-4.224-3.379-10.277-2.885-6.06-8.235-20.696-10.348-27.739" fill="#4d4c4e" transform="translate(222.8867 141.7285)"/></g></svg>