<svg fill="none" height="20" viewBox="0 0 20 20" width="20" xmlns="http://www.w3.org/2000/svg"><path d="m19.6808 9.99985c0 1.91465-.5678 3.78635-1.6316 5.37835-1.0637 1.592-2.5756 2.8328-4.3445 3.5655-1.769.7327-3.71544.9244-5.59333.5509-1.87788-.3735-3.60283-1.2955-4.9567-2.6494-1.35388-1.3539-2.275886-3.0788-2.64942-4.9567s-.181823-3.82439.55089-5.59331c.73271-1.76893 1.97352-3.28086 3.56551-4.34459 1.592-1.063735 3.46367-1.631501 5.37834-1.631501 2.56751 0 5.02981 1.019931 6.84531 2.835421 1.8155 1.8155 2.8355 4.27783 2.8355 6.84533z" fill="#ffcc24"/><path clip-rule="evenodd" d="m11.6999 13.7373c0-.5993 0-1.1836 0-1.7656-.0076-.2559.0028-.5119.0311-.7664.0693-.3931.2747-.7493.5802-1.0061.3056-.25687.6917-.39802 1.0909-.39873.8171-.00691 1.5604.59123 1.6884 1.38293.0317.2719.0433.5458.0345.8194v1.6435.091c.0565 0 .1072.0069.1591.0069h1.3265c.2224 0 .2858.0646.2858.2824v1.0879c0 .1879-.0761.2628-.2662.2628h-12.84663c-.18555 0-.25355-.0692-.2547-.257 0-.3727 0-.7441 0-1.1145 0-.1901.07261-.2627.26737-.2627h7.77116c.0391.0023.0806-.0023.1325-.0058zm1.0291-2.2323c-.0024.0927.0136.185.0472.2715.0335.0865.0839.1654.1483.2322.0643.0668.1413.1202.2265.157.0851.0368.1768.0562.2695.0573.1889-.0068.3683-.0847.5022-.218.134-.1334.2127-.3123.2204-.5012-.0024-.1846-.0776-.3608-.2093-.4903-.1316-.1295-.309-.2018-.4937-.2012-.0925-.0026-.1846.0134-.2709.047-.0862.0337-.1648.0843-.2312.1489-.0663.0646-.1189.1419-.1548.2272s-.0543.177-.0542.2696zm-1.6134-9.23362c0-.20053-.0599-.26391-.257-.26506h-1.32651c-.19592 0-.25931.06338-.26161.26276v.46099h-.27314c-.26622 0-.32614.06108-.32614.3273v4.19153 1.19396c0 .1867.09334.27198.27889.27429h.18094v.52783c0 .19131.07261.26737.26161.26737h1.63076c.1855 0 .2581-.0726.2593-.25584.0011-.18325 0-.35151 0-.53821h.1348c.2478 0 .3135-.06799.3124-.31462v-1.7483c-.2157.02955-.4352.0122-.6435-.05088-.2083-.06309-.4006-.1704-.5636-.31462-.1631-.14421-.2931-.32193-.3811-.521-.088-.19908-.132-.41481-.129-.63246.002-.19773.0438-.39303.123-.57422s.1942-.34454.338-.48029c.1656-.15916.3649-.27899.5832-.35061.2182-.07162.4498-.0932.6776-.06312 0-.2305 0-.46099 0-.67996 0-.17633-.083-.25354-.264-.257h-.3457zm.3331 8.28052h-4.93378c-.0313-.0044-.0632-.0015-.09318.0085s-.05722.0269-.07957.0492c-.02235.0224-.0392.0496-.04922.0796s-.01294.0619-.00852.0932v1.1006c0 .2581.04955.3054.31232.3054h4.70785c-.0128-.2781-.0105-.5566.0069-.8344.044-.2696.1029-.5367.1763-.7998-.013-.0015-.0261-.0022-.0391-.0023zm3.2522-3.76514c-.3961-.75763-.9793-1.40148-1.6941-1.87046.0438.66959-.1556 1.15247-.6915 1.52587.96.74219 1.3761 1.72871 1.2919 2.89731.276.0848.5456.18917.8068.31232.2427.15547.4738.32841.6914.5175.2835-.99347.1718-2.29345-.4045-3.38254zm-3.1681-2.71176c.2153.00115.4255.06619.6039.18689s.3169.29162.398.49112c.0812.19949.1013.41858.0578.62952-.0435.21093-.1486.40421-.302.55536-.1534.15116-.3482.25337-.5598.29371-.2115.04033-.4303.01697-.6286-.06713-.1982-.0841-.3671-.22516-.4851-.4053-.118-.18013-.18-.39125-.1779-.60661.0007-.14266.0297-.28376.0851-.41521s.1363-.25065.2379-.35077.222-.17919.3543-.23266c.1322-.05347.2737-.08029.4164-.07892zm-.2052 1.285h.3953v-.3999h-.3953zm5.7428-2.43171c-1.636-1.63575-3.7887-2.653628-6.0911-2.8802025-2.30235-.2265745-4.61208.3521735-6.53561 1.6376325-1.92353 1.28546-3.34184 3.1981-4.013275 5.41204-.671439 2.21394-.554463 4.59224.330997 6.72954.885458 2.1374 2.484618 3.9016 4.525008 4.9921s4.39576 1.4398 6.66478.9884c2.2691-.4515 4.3114-1.6757 5.779-3.4641 1.4677-1.7884 2.2698-4.0303 2.2698-6.34385.0021-1.31326-.2551-2.61401-.7571-3.82755-.5019-1.21355-1.2387-2.31599-2.1679-3.24401zm-.461 13.68561c-1.5303 1.5313-3.5442 2.4847-5.6986 2.6975-2.15447.2129-4.31604-.3279-6.11641-1.5302-1.80038-1.2023-3.12814-2.9917-3.75703-5.0632-.628893-2.0716-.519997-4.29712.30813-6.29738.82813-2.00026 2.32424-3.65147 4.23339-4.67225 1.90915-1.020779 4.11319-1.347963 6.23652-.925795 2.1234.422165 4.0346 1.567565 5.4081 3.241005 1.3735 1.67343 2.1242 3.77136 2.1242 5.93627.0029 1.22795-.2368 2.44435-.7054 3.57935-.4685 1.135-1.1566 2.1663-2.0248 3.0347z" fill="#2f4358" fill-rule="evenodd"/></svg>