<svg fill="none" height="20" viewBox="0 0 20 20" width="20" xmlns="http://www.w3.org/2000/svg"><path d="m19.6762 10.0035c0 1.9142-.5676 3.7855-1.6311 5.3771s-2.5751 2.8321-4.3436 3.5647c-1.7685.7325-3.71455.9242-5.592.5508-1.87745-.3735-3.602-1.2953-4.95556-2.6489-1.35357-1.3535-2.275358-3.0781-2.648806-4.9555-.373448-1.8775-.181782-3.82349.550766-5.59201.73254-1.76851 1.97306-3.28009 3.56469-4.34358 1.59162-1.063491 3.46287-1.631126 5.3771-1.631126 2.56691 0 5.02871 1.019696 6.84371 2.834776 1.8151 1.81507 2.8348 4.27684 2.8348 6.84374z" fill="#ffcc24"/><path d="m12.4346 11.5405c.0737-.0553.1475-.106.2224-.1532 1.9092.0772 3.5799.0127 4.0246-.3699 0 0-1.5243.0104-3.2261-.0483.3018-.13.6177-.2243.9413-.2812l.0784-.0115v-.0081c.5484.0231 1.0174.0369 1.3826.0369 1.635 0 2.0429-.5335 2.0429-.5335s.5899-1.49093 1.075-1.06807c0 0 .0749 2.20297-2.1339 3.40357-1.4264.7766-3.8115.8838-5.8359.7674.0391-.0864.0818-.1705.1256-.2523.3172-.5858.7626-1.0923 1.3031-1.4818zm-.8008-.6659c.1546-.1219.3171-.2335.4863-.3342-.7536-.0461-1.5659-.0991-2.40701-.1555-.26565.0614-.52578.1446-.77773.2489.71091.061 1.41144.1244 2.02554.1843.2155.0231.4413.0392.6729.0565zm-3.41166 2.0739c.46088.0876 1.09114.1763 1.79976.2455.2071-.5753.5051-1.1137.8826-1.5947.0818-.1037.1694-.2039.2627-.3019-1.037-.0737-2.07399-.1751-2.96119-.2777-.44643.2944-.82379.682-1.10612 1.1361-.09431.1534-.17785.3132-.25003.4782.52541.1463 1.00012.25 1.37228.3191zm-2.24334-.5761c.07589-.2182.16715-.4307.27307-.636.16929-.3245.38554-.6223.64178-.8837l-.26155-.0392c-2.4807-.3768-2.8448-.5358-2.18919-.5208.34566.0081 1.50593.091 2.86553.2005.11103-.0829.22641-.1599.34566-.2305l.0242-.0138-.83074-.0553c-3.68706-.2454-3.9175-.82381-4.50858-1.38263s-1.04505-.48969-1.04505-.48969c.29381 2.14192 2.64777 3.38292 4.68487 4.05572zm4.527 3.2711c0 .0104-.0057.0208-.0081.0312.8909.083 1.7886.0571 2.6732-.0772.7708-.2236 1.4667-.6015.8468-.8458-1.143.0531-2.2882.0423-3.4301-.0322-.0435.2865-.0693.5755-.0772.8653v.0299zm-4.07188-.9574c-.00741.0435-.01741.0866-.02996.129 1.0322.3524 2.09544.6062 3.17548.7582 0-.0265 0-.0519 0-.083.00391-.284.02816-.5674.07259-.848-1.0729-.0963-2.13492-.2891-3.17318-.5761-.01843.1786-.03226.3664-.03802.5646v.0288zm-.90679-.2167c.03572-.2246.07029-.4608.11522-.6913-.5297-.1979-1.0289-.4694-1.48289-.8065 0 0-.54153.1624.49545 1.0012.26907.2023.56201.3706.87222.5013zm8.62657-4.3023c-4.1157.4217-4.41871 4.807-4.3876 5.4073s.4528.6015.5588 0c.121-4.6284 4.0558-5.163 4.0558-5.163.182-.3295-.227-.2397-.227-.2397zm-8.45835 4.451c-.09448.5865.45282.6003.55882 0 .12099-4.62958 4.33003-4.62958 4.33003-4.62958.1809-.33413-.2305-.24426-.2305-.24426-4.11335.42744-4.32651 2.78604-4.65835 4.87844zm14.30465-4.61921c.0002 2.31361-.8017 4.55571-2.2693 6.34431s-3.5099 3.0129-5.779 3.4645c-2.26911.4515-4.62458.1023-6.66507-.9882s-3.63973-2.8547-4.525218-4.9922c-.885491-2.1374-1.002443-4.51576-.330927-6.72976.671515-2.21401 2.089945-4.12667 4.013605-5.41208 1.92365-1.285418 4.23351-1.864049 6.53601-1.6373024 2.3024.2267474 4.455 1.2448424 6.091 2.8808124.9304.92797 1.6681 2.03073 2.1707 3.24485.5027 1.21412.7603 2.51563.7582 3.82968zm-.6487 0c-.0008-2.16225-.7512-4.25736-2.1235-5.92838-1.3722-1.67102-3.2814-2.81458-5.4022-3.23585-2.12081-.421272-4.32209-.094196-6.22881.9255-1.90672 1.01971-3.40091 2.66895-4.22803 4.66676-.827109 1.99781-.93597 4.22058-.30803 6.28968.62793 2.0691 1.95382 3.8564 3.75177 5.0575 1.79796 1.2012 3.95674 1.7418 6.1086 1.5298 2.1518-.212 4.1636-1.1636 5.6926-2.6925.8689-.8669 1.558-1.897 2.0278-3.0309.4698-1.134.711-2.3496.7098-3.577z" fill="#2f4358"/></svg>