<svg fill="none" height="20" viewBox="0 0 20 20" width="20" xmlns="http://www.w3.org/2000/svg"><path d="m19.6762 9.99429c0 1.91421-.5676 3.78551-1.6311 5.37711s-2.5751 2.8321-4.3436 3.5647c-1.7685.7325-3.71454.9242-5.59199.5507-1.87745-.3734-3.602-1.2952-4.95557-2.6488-1.35357-1.3535-2.275357-3.0781-2.648806-4.9555-.373448-1.8775-.181781-3.8235.550766-5.59202.73254-1.76852 1.97306-3.2801 3.56469-4.34359 1.59163-1.063489 3.46287-1.631124 5.37711-1.631124 2.5669 0 5.0287 1.019694 6.8438 2.834774 1.815 1.81507 2.8347 4.27684 2.8347 6.84375z" fill="#ffcc24"/><path d="m10.1659 4.88311c.1901 1.57506.4148 3.22617.257 4.6526-.2063.07143-.4125.14517-.61417.22237-.51591.19257-1.01661.42362-1.49786.69132-.24649.1396-.48464.2935-.71322.4609.27538-.8596.51389-2.0325.67519-3.68707l-.10139.04494s-.27653 2.18919-1.25245 4.22633c-.06683.0668-.1302.1348-.19242.205-.06452-.0914-.1325-.1812-.20394-.2696-.32572-.394-.6846-.7595-1.0727-1.0923-.10485-1.35725-.03457-3.04754.98513-4.85765.86898-1.57519 2.16287-2.87467 3.73433-3.75043 0 0-.25236 1.09344-.0035 3.15359zm-6.60097 4.30924c-1.31006-1.00127-1.77555-1.77785-1.77555-1.77785-.44701 1.44537-.49281 2.985-.13251 4.4544.54039 2.21 1.96913 3.2412 2.91163 3.9613.35674.257.68643.5497.98398.8734-.0595-.4234-.08991-.8503-.09102-1.2778v-.0311c-.50582-1.9588-1.75711-3.6076-1.75711-3.6076l.03571-.0887c.94136 1.1637 1.48059 2.0429 1.78477 2.7399.05496-.4178.15502-.8285.29842-1.2248.17039-.4668.41131-.9047.71437-1.2985-.70169-1.0197-1.87464-1.8827-2.97269-2.72265zm16.43507.80654c.0003 2.31361-.8017 4.55571-2.2693 6.34431-1.4675 1.7886-3.5099 3.0129-5.779 3.4645-2.2691.4515-4.62458.1023-6.66507-.9882-2.04048-1.0905-3.63973-2.8547-4.525218-4.9922-.885491-2.1374-1.002443-4.51576-.330927-6.72977.671515-2.214 2.089945-4.12666 4.013605-5.41207 1.92366-1.285418 4.23351-1.864049 6.53601-1.6373024 2.3024.2267474 4.455 1.2448424 6.091 2.8808124.9293.92688 1.6664 2.02814 2.169 3.24059s.7608 2.51222.7599 3.82472zm-.6487 0c.0009-1.53812-.3776-3.05271-1.102-4.40957s-1.7723-2.51409-3.0509-3.36914c-1.2785-.85504-2.7483-1.381511-4.2789-1.532746-1.5307-.151235-3.07505.077432-4.49622.665736-1.42116.58831-2.67527 1.51809-3.6512 2.70695-.97592 1.18886-1.64352 2.6001-1.943643 4.10866-.300121 1.50855-.223495 3.06782.223083 4.53972.44659 1.4719 1.24934 2.8108 2.33712 3.8983.68013.678 1.45997 1.2481 2.31248 1.6903.16707-.6314.32377-1.067.32377-1.067-.42632-2.2191-.15324-4.2343 1.2559-5.572 1.40915-1.3377 3.72851-1.93574 5.89701-2.5441 2.1684-.60836 3.1513-1.3573 3.1513-1.3573-.0911.82037-.2835 3.202-2.0878 5.7253-1.8044 2.5233-4.1341 3.111-5.69423 3.5465-1.56009.4355-1.91497.7489-1.91497.7489 1.31697-3.1927 5.0559-5.4407 5.0559-5.4407v-.1313c-4.47864 2.5118-4.82315 4.0327-5.26906 5.2678-.11594.3402-.2038.6894-.2627 1.0439 1.42425.6432 2.98702.919 4.54536.8023 1.5584-.1167 3.0626-.6222 4.3752-1.4704 1.3126-.8481 2.3915-2.0118 3.1383-3.3846.7467-1.3728 1.1374-2.9108 1.1362-4.47357z" fill="#2f4358"/></svg>