<svg fill="none" height="25" viewBox="0 0 25 25" width="25" xmlns="http://www.w3.org/2000/svg"><g fill="#326699"><path d="m21.4142 3.75c-2.3447-2.42187-5.549-3.75-8.9096-3.75-3.28244 0-6.4086 1.25-8.75321 3.59375-2.34462 2.34375-3.6732361 5.46875-3.75139 8.82815 0 3.3593 1.25046 6.4843 3.59508 8.8281 2.34462 2.4219 5.54892 3.75 8.90952 3.75 3.2825 0 6.4086-1.25 8.7533-3.5938 4.9237-4.8437 5.0018-12.81245.1563-17.6562zm-1.3287 16.4844c-2.032 2.0312-4.7673 3.125-7.5809 3.125-2.89167 0-5.62706-1.1719-7.73721-3.2032-2.032-2.0312-3.12616-4.7656-3.12616-7.6562 0-2.89062 1.17231-5.625 3.20431-7.65625s4.76739-3.125 7.58096-3.125c2.8917 0 5.627 1.17188 7.7372 3.20313 4.2203 4.21874 4.2203 11.09372-.0782 15.31252z"/><path d="m13.3644 11.6406h-7.50275c-.46893 0-.8597.3906-.8597.8594s.39077.8594.8597.8594h7.65905zm0 1.7188h5.7834c.4689 0 .8597-.3906.8597-.8594s-.3908-.8594-.8597-.8594h-5.7834"/></g></svg>