<svg fill="none" height="20" viewBox="0 0 20 20" width="20" xmlns="http://www.w3.org/2000/svg"><path d="m19.6762 10.0012c0 1.9142-.5676 3.7855-1.6311 5.3771s-2.5751 2.8321-4.3436 3.5647c-1.7685.7325-3.71454.9242-5.592.5507-1.87745-.3734-3.60199-1.2952-4.95556-2.6488-1.35357-1.3535-2.275358-3.0781-2.648806-4.9555-.373448-1.8775-.181782-3.82349.550766-5.59201.73254-1.76852 1.97306-3.2801 3.56469-4.34359 1.59162-1.063485 3.46287-1.63112 5.3771-1.63112 2.56691 0 5.02871 1.0197 6.84371 2.83477 1.8151 1.81508 2.8348 4.27685 2.8348 6.84375z" fill="#ffcc24"/><path d="m12.975 14.0558c-.0496-.0092-.0991-.0207-.1498-.0334.461-.099.9114-.2425 1.3446-.4286l-.0564.0852c-.0553.0807-.1153.1544-.159.2132-.0242.03-.0484.0553-.0692.0772-.0207.0219-.0391.0392-.0518.0507l-.0231.0127c-.0183.0094-.0376.0167-.0576.0219-.0253.008-.0564.0149-.0898.0218-.0845.0149-.1701.0222-.2558.0219-.145-.0014-.2896-.0157-.4321-.0426zm-4.38761-.5669.19127-.0449c.05185-.0104.09909-.0184.13942-.0242.03288-.0041.06596-.0064.09909-.0069h.03341c.01998.0027.03942.0086.05761.0173.03323.0191.06449.0415.09333.0668l.09678.0864c.07851.0282.15852.0521.23966.0714.13942.0254.25694.0427.39751.0588.14053.0161.29723.0346.41713.0357-.1867-.1924-.2835-.3053-.46091-.4666-.11522-.106-.23044-.2005-.33068-.2789-.05185-.038-.1014-.0725-.15325-.1037-.02535-.0149-.05069-.0299-.07719-.0426-.02651-.0127-.05531-.0242-.08642-.0357-.03768-.0118-.0762-.0206-.11522-.0265-.03825-.0044-.07673-.0063-.11522-.0058-.0597.0005-.11933.0043-.17859.0116-.1215.0173-.24191.0415-.36064.0725-.16477.0415-.34567.0968-.5231.1579-.06222.0207-.12675.0426-.19012.0657-.14057.0495-.28114.1025-.4171.1555-.21892.0841-.42401.1694-.59569.2408-.27653.1153-.8342.4171-.8365.4171-.07517.0341-.13373.0966-.1628.1739-.02906.0772-.02624.1629.00783.238.03407.0752.09661.1338.17386.1628.07725.0291.16288.0263.23805-.0078 0 0 .8584-.4367 1.41491-.651l.17053-.0657c.23044-.0841.46088-.1647.66597-.2304zm4.81741 1.7905c-.3304-.0023-.659-.0488-.9771-.1382-.3392-.0934-.6635-.2342-.9633-.4183-.2067-.1271-.3964-.28-.5645-.4551-.0304-.0318-.0571-.067-.0795-.1048-.017-.0274-.0313-.0563-.0427-.0865-.0049-.012-.0091-.0243-.0126-.0368l-.4171-.0081c-.0715 0-.1487-.0069-.2305-.0138l-.21774-.0231-.18897-.0253c-.20031-.056-.39728-.1233-.58993-.2016l-.08065-.0335-.08066-.038h-.01036c-.03111 0-.07144.0115-.11522.0208-.09218.0184-.2074.0484-.33184.0852-.17053.0519-.36064.1152-.55075.1867.86991.9805 2.28022 2.165 4.40832 1.8965.4609-.0576.9725-.2938 1.5048-.6452-.1522.0261-.3064.0388-.4609.038zm2.2041-2.4622c.0112-.0254.0189-.0521.0231-.0795.011-.0742-.0053-.1499-.0457-.2131s-.1023-.1097-.1742-.1309c-.072-.0212-.1492-.0156-.2174.0156s-.1228.0861-.1538.1544c0 0-.1509.3364-.3572.7132l-.0564.1026c-.0888.1567-.1856.3157-.2835.4608-.0588.0865-.1152.166-.174.2305-.0472.0584-.0992.1127-.1555.1624-.0252.021-.0531.0385-.083.0519-.0696.032-.1433.0545-.2189.0668-.1016.0175-.2045.026-.3076.0254-.1613-.0007-.3222-.0165-.4805-.0473-.2308-.043-.4558-.1126-.6706-.2074l-.0841-.0391c-.03-.015-.0588-.0323-.0887-.0484-.03-.0162-.0611-.0311-.091-.0484-.03-.0173-.06-.038-.0899-.0576-.03-.0196-.0484-.03-.0703-.0461-.0219-.0162-.0703-.053-.1037-.0795-.0138-.0115-.03-.0219-.0438-.0346-.0461-.0392-.0899-.0806-.1313-.1233-.0281-.0295-.0618-.0533-.0991-.0698s-.0775-.0255-.1183-.0265-.0813.0061-.1194.0209c-.038.0147-.0728.0368-.1022.0651-.0146.0135-.0277.0286-.0392.0449-.0054.0082-.0104.0166-.015.0253-.0053.0081-.0099.0166-.0138.0254-.0045.0092-.008.0188-.0104.0288 0 .0092-.0069.0173-.0092.0253-.0006.0104-.0006.0208 0 .0311v.0565.0265c.0014.0105.0033.0209.0058.0311l.0069.0242c0 .0104.0069.0208.0115.0311l.0104.0208c0 .0103.0126.0207.0196.0311-.0004.0026-.0004.0054 0 .008.0069.0102.0146.0198.023.0288.0346.0369.0714.0726.1095.1072.1237.1136.2579.215.4009.303.5408.329 1.1599.5069 1.7929.5151.1856.0012.3706-.0209.5507-.0657.0847-.0211.1669-.0508.2454-.0887.0786-.037.1518-.0843.2178-.1406.0837-.0726.1608-.1524.2304-.2385.1315-.1639.252-.3364.3607-.5162.1682-.2731.3157-.5554.424-.7697s.174-.3606.1751-.3641zm-7.18973-.1763s-1.78822-1.7675-1.94262-1.8954c-.05818-.0505-.13336-.077-.21035-.0742s-.15005.0346-.20444.0892c.09333.1152.48162.5968.92176 1.06s.96094.916.96094.916zm7.00083-.5346c.042.0552.0921.1037.1486.144l.0761.0472.0783.0288c.0378.0086.0766.0117.1152.0093.077-.0042.1526-.0217.2236-.0519.1385-.0575.2616-.1467.3594-.2604.1311-.1535.2274-.3335.2823-.5277l.0162-.0599c.0192-.0753.0281-.1528.0265-.2304-.0021-.0594-.0118-.1183-.0288-.1752-.0266-.0871-.0713-.1677-.1314-.2362-.0393-.0436-.0838-.0823-.1325-.1152-.0898-.0626-.1901-.1086-.2961-.136-.1092-.0248-.2221-.0295-.333-.0138-.0573.0084-.1133.0235-.1671.0449-.0946.0374-.1788.0971-.2454.174-.0381.0451-.0706.0946-.0968.1475-.0295.0602-.0519.1236-.0668.189l-.0138.061c-.0301.1561-.0347.316-.0139.4736.023.177.0917.345.1994.4874zm4.58-2.10741c.0002 2.31361-.8017 4.55571-2.2693 6.34431s-3.5099 3.0129-5.779 3.4645c-2.2691.4515-4.62458.1023-6.66507-.9882s-3.63973-2.8547-4.525218-4.9922c-.885491-2.1374-1.002443-4.51576-.330927-6.72977.671515-2.214 2.089945-4.12666 4.013605-5.41207 1.92365-1.285418 4.23351-1.864049 6.53601-1.6373024 2.3024.2267474 4.455 1.2448424 6.091 2.8808124.9301.9277 1.6677 2.03009 2.1703 3.24379s.7604 2.51477.7586 3.82844zm-18.33506-4.22974c.17279.00927.344.03787.51043.08526.0818.02305.16015.06222.23966.09333.03658.01527.0756.02385.11522.02535-.13481-.22237-.34567-.3641-.55882-.54499l.35488.03572c-.09384-.11458-.19882-.21957-.3134-.3134-.1279.19818-.24082.40557-.34797.61873zm4.66067 12.83445c-2.26408-2.9958-2.61205-8.88239-2.66044-10.1671l-.23966.04264c0-.01844.01152-.03572.01844-.05416.0203-.0533.03009-.11004.0288-.16707l-.27999.17168v-.34566l-.0265-.01267c-.14172.23044-.26731.48507-.53347.64177.02996-.09563.05531-.17167.0795-.24772l-.02304-.01843c-.28229.27422-.69132.39866-.90218.78695-.01382-.08411-.02534-.14863-.03802-.22353-.13736.12182-.24363.2747-.30994.44591-.07029.17974-.13366.36294-.21777.53577-.05305.08352-.11528.16082-.1855.23042l-.03572-.0161c-.006916-.1083-.018438-.21662-.019591-.32608-.006913-.33069-.024196-.66137-.006913-.9909.028124-.16591.074494-.3282.138264-.48393l-.256941.16016c.046161-.18798.145341-.35875.285751-.49199.1302-.13135.26731-.25579.41479-.39521h-.14748c.09005-.13353.20798-.24596.34566-.32953.1302-.08756.26731-.16591.4171-.25694-.17531-.05892-.36508-.05892-.54039 0-.19472.07029-.38944.14633-.58532.22353-.659669 2.20229-.485914 4.57029.48815 6.65279.97406 2.0824 2.68032 3.7336 4.79356 4.6388zm12.92429-7.2267c.0677-.4554.1016-.9153.1014-1.3757 0-.22353-.0104-.4436-.0253-.66367-.6395.89297-2.3529 3.20197-4.1215 4.83007l.0426-.068c.1752-.2835.3261-.5761.4367-.7916.1106-.2154.1775-.371.1809-.3779.0336-.0758.0509-.1579.0507-.2408-.0017-.0334-.0063-.0665-.0138-.0991.0873-.0098.1729-.0311.2546-.0634.1771-.0726.3349-.1854.4609-.3295.1554-.1818.2701-.3947.3365-.6245l.0172-.0645v-.0069c0-.0173 0-.0323 0-.0496.9967-1.0185 1.8839-1.96679 2.3229-2.4415-.0254-.24081-.0611-.47816-.1049-.71206-.1052.13668-.1912.28709-.2558.44706l-.1682-.52311c-.2797.2665-.4478.62936-.4701 1.0151l-.0933-.12098c-.0899.17628-.1579.3399-.2523.48738-.174.27077-.3883.51851-.4137.88031-.1131-.1275-.1779-.2906-.1832-.4609-.0092-.15901-.008-.31687-.0115-.47472h-.0242c-.0438.05416-.0864.11522-.1348.17053-.0936-.28575-.07-.59696.0657-.86531.0624-.14496.1099-.29591.1417-.45051.0398-.27766.155-.53909.333-.75585.0322-.03802.0576-.0818.1014-.14402-.2708.0507-.3883.26961-.5761.40442-.0139-.0795-.0254-.14863-.0381-.21776l-.0218-.01498c-.0058.01649-.0139.03202-.0242.04609-.2005.19472-.3999.39059-.6038.5761-.0415.03802-.1152.09102-.1475.07835-.1233-.04379-.1717.03111-.2304.1083-.0991.13827-.2005.27653-.3007.4148l-.1095-.08411-.2304.66367c-.0766-.18953-.0978-.3969-.0611-.598.0334-.1855.0829-.3687.1302-.5761l-.1763.11522c.0611-.43092.3457-.704.6395-1.00126h-.2973c.0675-.09993.1447-.19294.2304-.27769.1614-.12789.3388-.23044.5093-.34566s.363-.24196.5439-.36294c-.5404-.13942-1.0462-.05185-1.5475.15439l.0369-.11522c-.3382.09422-.6407.28718-.8687.55421 0-.04608 0-.06567.008-.08641.0081-.02074.0127-.06683.0219-.10024.1233-.43784.4252-.70515.8331-.87222.0507-.02074.1002-.04609.1497-.07029 0-.00691 0-.01382 0-.02189l-.1613-.03687c.492-.30072 1.0117-.25003 1.5336-.18435 0-.01037.0058-.02189.0081-.03226l-.2639-.12444c.3823-.02252.762.07453 1.0866.27768l.0207-.03918c-.2546-.2915-.5081-.58416-.7639-.87567l.0127-.01383.4217.15901c-.159-.25599-.3646-.47993-.6061-.66022-.2304-.16707-.4874-.31109-.7293-.46088h.0898c.2819-.00602.5627.03726.8296.1279-.1774-.21086-.3629-.4148-.5565-.60952-.8681-.86863-1.8988-1.55769-3.0333-2.02782-1.1345-.470129-2.3506-.712106-3.5786-.712106-1.22808 0-2.4441.241977-3.5786.712106-1.1345.47013-2.16525 1.15919-3.03336 2.02782-.33175.33094-.6376.68686-.91485 1.06464.11362.03158.22521.07006.33414.11522l-.23966-.20625.03687-.05185c.29171-.00711.57683.08738.80655.26732.24887.17743.37562.4459.50236.71436l.03111-.00922c.01037-.10715.01959-.21315.02996-.32031.12328.05876.16591.23044.25463.78926.24197-.71552.6245-1.31005 1.38265-1.61308-.03802.09678-.06798.17744-.10831.28229.24542-.11522.4701-.2051.69133-.31456.34407-.17186.7251-.25653 1.10957-.24657h.08872c-.24081.15094-.49429.29497-.72934.46088-.24092.18091-.44639.40473-.60607.66022l.42286-.15901.01153.01383-.76276.87568.02074.03917c.32422-.20291.70354-.29996 1.08537-.27768l-.2627.12444c0 .01037 0 .02189.00807.03226.52195-.06568 1.03698-.11522 1.53358.18435l-.16246.03687c.00066.00728.00066.01461 0 .02189.0507.0242.09909.04955.14979.07029.40673.16707.70976.43438.83304.87222.00922.03341.01613.06682.02189.10024.00577.03341 0 .04033.00807.08641-.22802-.26703-.5305-.45999-.86876-.55421.01382.04494.02189.0749.03687.11522-.50121-.20624-1.00703-.29381-1.54857-.15439.18205.12098.3641.24081.545.36294.18089.12214.34566.22353.50927.34566.08578.08475.16297.17776.23044.27769h-.29727c.29151.29726.57611.5761.63948 1.00126l-.17629-.11522c.04724.20164.09678.38484.12905.5761.03767.20096.01688.40851-.05992.598l-.23044-.66367-.10946.08411c-.10024-.13826-.20163-.27653-.30072-.41479-.05531-.0772-.1037-.1521-.23044-.10831-.03688.01267-.10716-.04033-.14749-.07835-.20509-.19012-.40442-.38599-.60491-.5761-.01039-.01386-.01819-.02947-.02304-.04609l-.02304.01498c-.01153.06913-.0242.13826-.03918.21776-.19127-.1348-.30879-.35372-.5761-.40442.04378.06222.06913.106.10024.14402.17834.21669.29391.47811.33414.75585.03127.15473.07878.30574.14172.45051.13566.26835.15928.57956.06568.86531-.0484-.06107-.09103-.11522-.13481-.17053h-.0242c0 .15786 0 .31571-.01152.47469-.00583.1702-.07059.3331-.1832.4609-.02535-.3618-.23966-.60951-.41364-.88028-.09448-.14748-.16246-.3111-.25234-.48738l-.09332.12098c-.02229-.38574-.19033-.7486-.4701-1.0151l-.16823.52311c-.10545-.27537-.28148-.51816-.51042-.704-.00692.14057-.01037.27998-.01383.4171.36871.58301 1.90575 2.93807 3.5246 4.36337l-.03687.0127c-.17053.0611-.34566.1256-.50006.189-.7305-.9644-2.37239-3.2988-2.98882-4.17678.03341 6.45238 3.77232 9.74078 4.69408 10.11868.15632.0863.29044.2078.39175.3549.24197.0195.48623.0311.73395.0311 2.0451.0001 4.0339-.6701 5.6617-1.9081 1.6277-1.2381 2.8048-2.9756 3.3509-4.9464.0864-.356.1659-.7259.2304-1.1096z" fill="#2f4358"/></svg>