<svg fill="none" height="1955" viewBox="0 0 3529 1955" width="3529" xmlns="http://www.w3.org/2000/svg" xmlns:xlink="http://www.w3.org/1999/xlink"><clipPath id="a"><path d="m0 0h3529v1955h-3529z"/></clipPath><mask id="b" height="589" maskUnits="userSpaceOnUse" width="420" x="83" y="1360"><path d="m478.035 1948.47s-324.05-31.74-394.7191-325.63c0 0 204.0171 5.71 256.6951 73.77 0 0-109.567-80.94-126.423-252.96 0 0 151.805 86.5 181.205 172.16 0 0-58.997-62.26-33.712-254.84l141.788 267.22z" fill="#fff"/></mask><mask id="c" height="123" maskUnits="userSpaceOnUse" width="339" x="542" y="1103"><path d="m867.497 1225.87h-311.999c-7.186 0-13.01-5.83-13.01-13.02v-96.85c0-7.19 5.824-13 13.01-13h311.999c7.187 0 13.012 5.81 13.012 13v96.85c0 7.19-5.825 13.02-13.012 13.02z" fill="#fff"/></mask><mask id="d" height="724" maskUnits="userSpaceOnUse" width="310" x="555" y="1225"><path d="m826.647 1948.47h-232.936c-21.104 0-38.212-17.11-38.212-38.22v-684.38h309.361v684.38c0 21.11-17.109 38.22-38.213 38.22z" fill="#fff"/></mask><mask id="e" height="964" maskUnits="userSpaceOnUse" width="749" x="1003" y="985"><path d="m1664.07 1170.47c-55.63-50.56-162.51-94.68-152.78-184.883-79.32 0-188.42 0-267.73 0 9.77 90.123-97.32 134.463-152.79 184.893-55.29 42.99-87.64 109.11-87.64 179.16v544.47c0 30.02 24.34 54.36 54.36 54.36 36.82-.87 118.86-.48 197.84-.11 70.94.33 139.42.67 170.46.11h271.56c30.02 0 54.36-24.34 54.36-54.36v-544.47c0-70.05-32.35-136.17-87.64-179.17z" fill="#fff"/></mask><mask id="f" height="156" maskUnits="userSpaceOnUse" width="355" x="1200" y="830"><path d="m1516.13 985.587h-277.73c-20.77 0-37.61-16.84-37.61-37.613v-79.8c0-20.774 16.84-37.614 37.61-37.614h277.73c20.78 0 37.62 16.84 37.62 37.614-4.47 34.84 18.54 116.226-37.62 117.413z" fill="#fff"/></mask><mask id="g" height="103" maskUnits="userSpaceOnUse" width="74" x="2771" y="1798"><path d="m2771.01 1799.36 10.95 92.85s19.77 8.3 40.75 8.1c20.96-.22 21.81-6.72 21.81-6.72l-2.64-95.54z" fill="#fff"/></mask><mask id="h" height="112" maskUnits="userSpaceOnUse" width="117" x="3088" y="1733"><path d="m3088.75 1778 65.29 66.93s20.75-5.49 37.23-18.44c16.49-12.94 13.2-18.62 13.2-18.62l-60.35-74.11z" fill="#fff"/></mask><mask id="i" height="209" maskUnits="userSpaceOnUse" width="149" x="2730" y="398"><path d="m2792.04 606.04-6.41-52.853c-25.1 1.76-55.54 2.893-54.91-30.587l12.79-123.907 128.01.027c-3.13 51.707.93 155.733 6.88 207.32z" fill="#fff"/></mask><mask id="j" height="941" maskUnits="userSpaceOnUse" width="464" x="2287" y="606"><path d="m2654.83 662.267-127.83 223.427-164.37-182.827-75.23 52.16 158.37 241.813c17.26 26.33 46.63 42.21 78.12 42.21 54.6 4.78 81.76-30.64 112.31-68.983-8.72 41.483-69.27 333.893-65.23 420.823 4.3 92.2 160.02 155.35 160.02 155.35l19.97-940.2s-81.95 28.36-96.13 56.227z" fill="#fff"/></mask><mask id="k" height="198" maskUnits="userSpaceOnUse" width="288" x="2061" y="598"><path d="m2214.36 598.867 134.25 194.066-154.37 2.08-132.75-192.893z" fill="#fff"/></mask><mask id="l" height="92" maskUnits="userSpaceOnUse" width="108" x="2621" y="802"><path d="m2728.43 825.347s-36.02-22.867-43.52-23.28c-7.51-.414-63.39 11.52-62.98 23.28.42 11.746 29.62 69.306 39.2 68.466 9.59-.827 55.28-7.96 55.28-7.96z" fill="#fff"/></mask><g clip-path="url(#a)"><path d="m105.869 1948.47h3340.971l-241.87-1393.107c-42.1-242.493-276.68-401.91-517.65-351.78l-2094.735 435.796c-547.2615 92.606-407.58 920.701-486.716 1309.091z" fill="#e3eefe"/><path d="m424.193 1479.92-49.983-94.2-2.756-566.307c-.076-15.586 12.543-28.267 28.134-28.267h24.605z" fill="#b9d2ff"/><path d="m478.034 1948.47h-101.084l-.116-23.8c37.679 12.69 69.03 18.93 86.426 21.76 4.695 1.33 9.652 2.04 14.774 2.04z" fill="#b9d2ff"/><path d="m478.035 1948.47s-324.05-31.74-394.7191-325.63c0 0 204.0171 5.71 256.6951 73.77 0 0-109.567-80.94-126.423-252.96 0 0 151.805 86.5 181.205 172.16 0 0-58.997-62.26-33.712-254.84l141.788 267.22z" fill="#a7bd37"/><g mask="url(#b)"><path d="m463.26 1946.43c-17.885-2.91-50.512-9.42-89.612-22.86 38.708-68.62 29.927-382.33 25.637-490.6l24.908 46.95v414.71c0 24.61 16.514 45.37 39.067 51.8z" fill="#7f9526"/></g><path d="m1609.08 1948.47h-1131.045c-29.736 0-53.842-24.11-53.842-53.84v-1356.27c0-29.733 24.106-53.84 53.842-53.84h1131.045c29.75 0 53.84 24.107 53.84 53.84v1356.27c0 29.73-24.09 53.84-53.84 53.84z" fill="#d1daf7"/><path d="m642.324 743.894h-117.197c-22.157 0-40.12-17.96-40.12-40.12 0-22.161 17.963-40.12 40.12-40.12h117.197z" fill="#fff"/><path d="m642.324 663.654h117.198c22.157 0 40.12 17.959 40.12 40.12 0 22.16-17.963 40.12-40.12 40.12h-117.198z" fill="#a4c4ff"/><path d="m642.115 890.387h-117.196c-22.158 0-40.12-17.96-40.12-40.12s17.962-40.12 40.12-40.12h117.196z" fill="#fff"/><path d="m642.115 810.147h117.197c22.157 0 40.12 17.96 40.12 40.12s-17.963 40.12-40.12 40.12h-117.197z" fill="#a4c4ff"/><path d="m641.907 1036.88h-117.198c-22.157 0-40.12-17.96-40.12-40.12s17.963-40.12 40.12-40.12h117.198z" fill="#fff"/><path d="m641.907 956.64h117.196c22.158 0 40.121 17.96 40.121 40.12s-17.963 40.12-40.121 40.12h-117.196z" fill="#a4c4ff"/><path d="m641.697 1183.37h-117.196c-22.158 0-40.12-17.97-40.12-40.12 0-22.16 17.963-40.12 40.12-40.12h117.196z" fill="#fff"/><path d="m641.697 1103.13h117.198c22.157 0 40.12 17.96 40.12 40.12 0 22.15-17.963 40.12-40.12 40.12h-117.198z" fill="#a4c4ff"/><path d="m641.489 1329.85h-117.197c-22.157 0-40.12-17.96-40.12-40.12 0-22.14 17.963-40.12 40.12-40.12h117.197z" fill="#fff"/><path d="m641.489 1249.61h117.196c22.159 0 40.122 17.98 40.12 40.12 0 22.16-17.961 40.12-40.12 40.12h-117.196z" fill="#a4c4ff"/><path d="m641.28 1476.35h-117.196c-22.159 0-40.12-17.96-40.12-40.12s17.961-40.12 40.12-40.12h117.196z" fill="#fff"/><path d="m641.28 1396.11h117.197c22.157 0 40.12 17.96 40.12 40.12s-17.963 40.12-40.12 40.12h-117.197z" fill="#a4c4ff"/><path d="m641.072 1622.84h-117.197c-22.157 0-40.12-17.96-40.12-40.12s17.963-40.12 40.12-40.12h117.197z" fill="#fff"/><path d="m641.072 1542.6h117.196c22.158 0 40.12 17.96 40.12 40.12s-17.962 40.12-40.12 40.12h-117.196z" fill="#a4c4ff"/><path d="m640.863 1769.33h-117.196c-22.159 0-40.122-17.96-40.122-40.12s17.963-40.12 40.122-40.12h117.196z" fill="#fff"/><path d="m640.863 1689.09h117.197c22.157 0 40.12 17.96 40.12 40.12s-17.963 40.12-40.12 40.12h-117.197z" fill="#a4c4ff"/><path d="m1044.29 743.894h-117.196c-22.158 0-40.121-17.96-40.121-40.12 0-22.161 17.963-40.12 40.121-40.12h117.196z" fill="#fff"/><path d="m1044.29 663.654h117.2c22.15 0 40.12 17.959 40.12 40.12 0 22.16-17.97 40.12-40.12 40.12h-117.2z" fill="#a4c4ff"/><path d="m1044.08 890.387h-117.194c-22.158 0-40.12-17.96-40.12-40.12s17.962-40.12 40.12-40.12h117.194z" fill="#fff"/><path d="m1044.08 810.147h117.2c22.16 0 40.12 17.96 40.12 40.12s-17.96 40.12-40.12 40.12h-117.2z" fill="#a4c4ff"/><path d="m1043.87 1036.88h-117.193c-22.159 0-40.121-17.96-40.121-40.12s17.962-40.12 40.121-40.12h117.193z" fill="#fff"/><path d="m1043.87 956.64h117.2c22.16 0 40.12 17.96 40.12 40.12s-17.96 40.12-40.12 40.12h-117.2z" fill="#a4c4ff"/><path d="m1043.66 1183.37h-117.192c-22.159 0-40.121-17.97-40.12-40.12 0-22.16 17.963-40.12 40.12-40.12h117.192z" fill="#fff"/><path d="m1043.66 1103.13h117.21c22.14 0 40.12 17.96 40.12 40.12 0 22.15-17.98 40.12-40.12 40.12h-117.21z" fill="#a4c4ff"/><path d="m1043.45 1329.85h-117.191c-22.158 0-40.12-17.96-40.12-40.12 0-22.14 17.962-40.12 40.12-40.12h117.191z" fill="#fff"/><path d="m1043.45 1249.61h117.2c22.16 0 40.12 17.98 40.12 40.12 0 22.16-17.96 40.12-40.12 40.12h-117.2z" fill="#a4c4ff"/><path d="m1043.25 1476.35h-117.199c-22.158 0-40.122-17.96-40.122-40.12s17.964-40.12 40.122-40.12h117.199z" fill="#fff"/><path d="m1043.25 1396.11h117.19c22.16 0 40.12 17.96 40.12 40.12s-17.96 40.12-40.12 40.12h-117.19z" fill="#a4c4ff"/><path d="m1043.04 1622.84h-117.199c-22.157 0-40.12-17.96-40.12-40.12s17.963-40.12 40.12-40.12h117.199z" fill="#fff"/><path d="m1043.04 1542.6h117.2c22.15 0 40.12 17.96 40.12 40.12s-17.97 40.12-40.12 40.12h-117.2z" fill="#a4c4ff"/><path d="m1042.83 1769.33h-117.198c-22.156 0-40.119-17.96-40.119-40.12s17.963-40.12 40.119-40.12h117.198z" fill="#fff"/><path d="m1042.83 1689.09h117.2c22.16 0 40.12 17.96 40.12 40.12s-17.96 40.12-40.12 40.12h-117.2z" fill="#a4c4ff"/><path d="m1446.25 743.894h-117.18c-22.16 0-40.12-17.96-40.12-40.12 0-22.161 17.96-40.12 40.12-40.12h117.18z" fill="#fff"/><path d="m1446.25 663.654h117.2c22.16 0 40.12 17.959 40.12 40.12 0 22.16-17.96 40.12-40.12 40.12h-117.2z" fill="#a4c4ff"/><path d="m1446.05 890.387h-117.2c-22.16 0-40.12-17.96-40.12-40.12s17.96-40.12 40.12-40.12h117.2z" fill="#fff"/><path d="m1446.05 810.147h117.19c22.16 0 40.12 17.96 40.12 40.12s-17.96 40.12-40.12 40.12h-117.19z" fill="#a4c4ff"/><path d="m1445.84 1036.88h-117.2c-22.16 0-40.12-17.96-40.12-40.12s17.96-40.12 40.12-40.12h117.2z" fill="#fff"/><path d="m1445.84 956.64h117.2c22.16 0 40.12 17.96 40.12 40.12s-17.96 40.12-40.12 40.12h-117.2z" fill="#a4c4ff"/><path d="m1445.63 1183.37h-117.19c-22.16 0-40.12-17.97-40.12-40.12 0-22.16 17.96-40.12 40.12-40.12h117.19z" fill="#fff"/><path d="m1445.63 1103.13h117.2c22.16 0 40.12 17.96 40.12 40.12 0 22.15-17.96 40.12-40.12 40.12h-117.2z" fill="#a4c4ff"/><path d="m1445.43 1329.85h-117.2c-22.16 0-40.12-17.96-40.12-40.12 0-22.14 17.96-40.12 40.12-40.12h117.2z" fill="#fff"/><path d="m1445.43 1249.61h117.18c22.16 0 40.12 17.98 40.12 40.12 0 22.16-17.96 40.12-40.12 40.12h-117.18z" fill="#a4c4ff"/><path d="m1445.21 1476.35h-117.2c-22.16 0-40.12-17.96-40.12-40.12s17.96-40.12 40.12-40.12h117.2z" fill="#fff"/><path d="m1445.21 1396.11h117.2c22.16 0 40.12 17.96 40.12 40.12s-17.96 40.12-40.12 40.12h-117.2z" fill="#a4c4ff"/><path d="m1445 1622.84h-117.19c-22.16 0-40.12-17.96-40.12-40.12s17.96-40.12 40.12-40.12h117.19z" fill="#fff"/><path d="m1445 1542.6h117.2c22.16 0 40.12 17.96 40.12 40.12s-17.96 40.12-40.12 40.12h-117.2z" fill="#a4c4ff"/><path d="m1444.8 1769.33h-117.2c-22.16 0-40.12-17.96-40.12-40.12s17.96-40.12 40.12-40.12h117.2z" fill="#fff"/><path d="m1444.8 1689.09h117.19c22.16 0 40.12 17.96 40.12 40.12s-17.96 40.12-40.12 40.12h-117.19z" fill="#a4c4ff"/><path d="m1869 1361.83c-27.52-144.5-185.48-413.641-70.22-544.32-13.23 154.144 98.68 362.88 122.59 488.37l305.18-92.84c4.24 12.97 8.64 25.04 13.29 35.98z" fill="#ccdffe"/><path d="m2061.83 1943.07c-279.88-4.88-175.19-394.59-193.81-567.83h387.63c-18.54 172.41 85.94 563.31-193.82 567.83z" fill="#ccdffe"/><path d="m2331.36 1181.16-409.99 124.72c-36.04-189.21-272.17-567.723 22.29-662.94 297.35-85.239 312.62 361.82 387.7 538.22z" fill="#3875ff"/><path d="m1920.28 1320.72h428.53c-20.58 191.51 95.17 622.36-214.26 627.75-309.28-4.99-193.77-437.15-214.27-627.75z" fill="#a4c4ff"/><path d="m2398.62 1337.98c-4.95-71.02-104.7-98.85-146.1-41.74-24.01-51.02-105.15-32.9-104.19 24.48-1.45 44.48 54.36 71.41 88.35 43.66 2.49 11.64 7.43 22.36 14.29 31.6-47.63 79.8 15.48 189.55 109.35 186.96 141.42 1.59 171.64-204.53 38.3-244.96z" fill="#fff"/><path d="m867.498 1225.87h-312c-7.185 0-13.01-5.83-13.01-13.02v-96.85c0-7.17 5.825-13 13.01-13h312c7.186 0 13.011 5.83 13.011 13v96.85c0 7.19-5.825 13.02-13.011 13.02z" fill="#38385c"/><g mask="url(#c)"><path d="m896.861 1235.77h-366.067v-47.5h366.067z" fill="#1a1a35"/></g><path d="m826.647 1948.47h-232.935c-21.106 0-38.213-17.11-38.213-38.22v-684.38h309.361v684.38c0 21.11-17.109 38.22-38.213 38.22z" fill="#a4c4ff"/><g mask="url(#d)"><path d="m518.98 1360.97 376.079-34.2v638.1h-367.167z" fill="#3875ff"/></g><path d="m825.802 1760.6h-234.85c-6.919 0-12.528-5.6-12.528-12.52v-314.39c0-6.92 5.609-12.52 12.528-12.52h234.85c6.919 0 12.528 5.6 12.528 12.52v314.39c0 6.92-5.609 12.52-12.528 12.52z" fill="#739bfd"/><g fill="#a4c4ff"><path d="m811.495 1500.76h-206.236v-33.73h206.236z"/><path d="m811.495 1554.48h-206.236v-33.73h206.236z"/><path d="m811.495 1608.2h-206.236v-33.73h206.236z"/><path d="m811.495 1661.92h-206.236v-33.73h206.236z"/><path d="m742.039 1715.63h-136.78v-33.72h136.78z"/></g><path d="m1066.16 1946.44c-51.42 0-101.195-9.19-102.452-68.76v-108.35h79.122v-80.24h-79.122v-66.25h79.332v-80.24h-79.332v-66.25h79.542v-80.24h-79.543v-66.26h79.743v-80.24h-67.966c7.259-20.54 18.736-43.41 36.806-66.24h31.37 117.21c22.14 0 40.12-17.97 40.12-40.12 0-22.16-17.98-40.12-40.12-40.12h-61.22c28.4-25.62 49.62-48.37 64.82-66.4 20.57-1.72 36.72-18.96 36.72-39.97 0-21.36-16.68-38.813-37.74-40.053v-66.374c21.15-1.133 37.95-18.64 37.95-40.066 0-1.094-.04-2.187-.13-3.254h81.3v1098.197h-134.3c-5.04-.44-10.56-.6-16.42-.6-9.72 0-20.4.46-31.53.92-11.11.46-22.68.91-34.16.91zm-23.33-257.35v80.24h117.2c22.16 0 40.12-17.96 40.12-40.12s-17.96-40.12-40.12-40.12zm.21-146.49v80.24h117.2c22.15 0 40.12-17.96 40.12-40.12s-17.97-40.12-40.12-40.12zm.21-146.49v80.24h117.19c22.16 0 40.12-17.96 40.12-40.12s-17.96-40.12-40.12-40.12zm.2-146.5v80.24h117.2c22.16 0 40.12-17.96 40.12-40.12 0-22.14-17.96-40.12-40.12-40.12z" fill="#96b3fa"/><path d="m1163.45 890.333v-19.813c0-12.986 10.54-23.507 23.52-23.507h14.3c.09 1.067.13 2.161.13 3.254 0 21.426-16.8 38.933-37.95 40.066z" fill="#7aa5ff"/><path d="m1164.47 1036.73c22.62-26.82 31.97-43.237 31.97-43.237-1.73.214-3.47.32-5.2.32-14.35.014-27.63-7.493-27.79-23.826v-13.28c21.06 1.24 37.74 18.693 37.74 40.053 0 21.01-16.15 38.25-36.72 39.97z" fill="#7aa5ff"/><path d="m1043.66 1183.37h-31.37c8.8-11.13 19.17-22.24 31.37-33.06z" fill="#b2c9ff"/><path d="m1160.87 1183.37h-117.21v-33.06c3.92-3.47 8.03-6.92 12.33-10.32 16.14-12.78 30.66-25.12 43.66-36.86h61.22c22.14 0 40.12 17.96 40.12 40.12 0 22.15-17.98 40.12-40.12 40.12z" fill="#7aa5ff"/><path d="m1043.45 1329.85h-79.743v-3.25s-3.664-33.25 11.777-76.99h67.966z" fill="#b2c9ff"/><path d="m1160.65 1329.85h-117.2v-80.24h117.2c22.16 0 40.12 17.98 40.12 40.12 0 22.16-17.96 40.12-40.12 40.12z" fill="#7aa5ff"/><path d="m1043.25 1476.35h-79.542l-.001-80.24h79.543z" fill="#b2c9ff"/><path d="m1160.44 1476.35h-117.19v-80.24h117.19c22.16 0 40.12 17.96 40.12 40.12s-17.96 40.12-40.12 40.12z" fill="#7aa5ff"/><path d="m963.708 1622.84h79.332v-80.24h-79.332z" fill="#b2c9ff"/><path d="m1160.24 1622.84h-117.2v-80.24h117.2c22.15 0 40.12 17.96 40.12 40.12s-17.97 40.12-40.12 40.12z" fill="#7aa5ff"/><path d="m963.708 1769.33h79.122v-80.24h-79.122z" fill="#b2c9ff"/><path d="m1160.03 1769.33h-117.2v-80.24h117.2c22.16 0 40.12 17.96 40.12 40.12s-17.96 40.12-40.12 40.12z" fill="#7aa5ff"/><path d="m1664.07 1170.47c-55.63-50.56-162.51-94.68-152.78-184.884-79.32 0-188.42 0-267.73 0 9.77 90.124-97.32 134.464-152.79 184.884-55.29 43-87.64 109.12-87.64 179.17v544.47c0 30.02 24.34 54.36 54.36 54.36 69.87-1.64 302.68 1.18 368.3 0h271.56c30.02 0 54.36-24.34 54.36-54.36v-544.47c0-70.05-32.35-136.17-87.64-179.17z" fill="#f85c3d"/><g mask="url(#e)"><path d="m1790.67 1338.23-810.606-45.79v693.61h796.296z" fill="#df4930"/></g><path d="m1751.71 1696.61h-748.58v-335.64h748.58z" fill="#fff"/><path d="m1662.93 1466.13h-550.37v-44.96h550.37z" fill="#a4c4ff"/><path d="m1662.93 1537.61h-550.37v-44.96h550.37z" fill="#a4c4ff"/><path d="m1516.36 1609.09h-403.8v-44.96h403.8z" fill="#a4c4ff"/><path d="m1662.93 1562.88h-49.57v-49.56h-47.44v49.56h-49.56v47.45h49.56v49.56h47.44v-49.56h49.57z" fill="#3875ff"/><path d="m1516.13 985.587h-277.73c-20.77 0-37.61-16.84-37.61-37.613v-79.8c0-20.774 16.84-37.614 37.61-37.614h277.73c20.78 0 37.62 16.84 37.62 37.614-4.47 34.84 18.54 116.226-37.62 117.413z" fill="#38385c"/><g mask="url(#f)"><path d="m1571.61 997.88h-385.54v-56.653h385.54z" fill="#1a1a35"/></g><path d="m2356.84 19.2608h327.44c47.02 0 85.51 38.4843 85.51 85.5062-.02 81.284 18.08 191.64-100.28 186.562v57.159c0 18.284-21.8 27.782-35.19 15.308l-77.77-72.467h-199.71c-47.02 0-85.49-38.484-85.49-85.506.63-71.556-18.36-182.7677 85.49-186.5622z" fill="#a4c4ff"/><path d="m2361.22 153.061c.52 29.84 44.89 29.824 45.4 0-.52-29.823-44.9-29.823-45.4 0z" fill="#fff"/><path d="m2495.64 153.069c.49 29.833 44.87 29.833 45.38 0-.51-29.832-44.89-29.815-45.38 0z" fill="#fff"/><path d="m2630.07 153.065c.51 29.839 44.89 29.821 45.39 0-.5-29.84-44.88-29.822-45.39 0z" fill="#fff"/><path d="m2808.79 1948.47-151.14-3.59 13.04-35.27 85.21-52.37v-20h-38.26l-10.88-277.13c-259.75-77.86-135.15-351.12-107-514.38 0 0-30 24.81-68.83 24.81-11.2 0-23.13-2.07-35.3-7.39-47.7-20.87-149.21-204.581-173.35-249.257l3.65-.039 47.14 71.974c-.02-.009 0 .01 0 0l72.7 111.015c18.26 28.677 48.36 42.497 80.07 42.497.58 0 1.14-.02 1.72-.02 2.04.11 4.07.18 6.03.18 22.16 0 39.54-7.06 54.65-18.17 19.11-11.63 36.02-28.821 47.95-51.261-8.71 41.481-69.26 333.891-65.21 420.831 4.29 92.2 160 155.34 160 155.34l10.78-507.18h67.03v539.3l-1.03.45 1.03 1.07zm-281.79-1062.78s116.18-251.549 122.69-259.362c6.5-7.816 110.8-53.36 110.8-53.36s-38.32-4.141-45.58-23.071c-7.27-18.927 13.11-164.437 13.11-164.437l80.77-4.73v210.296l-18.54.27s-17.53 5.824-39.31 14.758c-1.37.472-82.05 28.58-96.11 56.218z" fill="#cbdefe"/><path d="m3111.03 1941.91s-18.57-20.51-22.29-25.63 33.17-71.35 33.17-71.35l-19.7-17.94-36.69 17.94-256.74-265.05v-1.52l46.98-20.32c1.73 2.31 3.56 4.55 5.47 6.73l224.91 252.23 55.15-37.73 56.14 60.84z" fill="#cbdefe"/><path d="m2808.79 1579.88-1.03-1.07 1.03-.45z" fill="#bcd4fe"/><path d="m2771.02 1799.36 10.94 92.85s19.78 8.3 40.75 8.1c20.96-.22 21.81-6.72 21.81-6.72l-2.63-95.54z" fill="#c99673"/><g mask="url(#g)"><path d="m2863.59 1849.17s-50.63 11.47-101.64-13.4l-1.27-43.52h97.56z" fill="#996847"/></g><path d="m2844.53 1893.59s-54.58 17.05-63.68-19.24l-74.02 36.06c-12.2 5.95-19.43 18.92-18.08 32.44l149.91 2.03c20.29.52 6.47-39.43 5.87-51.29z" fill="#38385c"/><path d="m3088.74 1778 65.29 66.93s20.75-5.49 37.23-18.44c16.49-12.94 13.19-18.62 13.19-18.62l-60.33-74.11z" fill="#c99673"/><g mask="url(#h)"><path d="m3199.6 1775.62s-33.12 39.95-88.71 51.34l-27.55-33.72 77.31-59.48z" fill="#996847"/></g><path d="m3204.47 1807.87s-32.86 46.8-62.23 23.57l-36.65 73.72c-6.04 12.16-3.85 26.85 5.44 36.75l120.07-89.82c16.51-11.69-19.03-35.38-26.63-44.22z" fill="#38385c"/><path d="m2792.05 606.042-6.42-52.862c-25.09 1.76-55.53 2.891-54.9-30.586l12.78-123.902 128.02.03c-3.14 51.702.94 155.732 6.88 207.32z" fill="#c99673"/><g mask="url(#i)"><path d="m2785.63 553.183s25.46-5.033 35.15-32.374c0 0 2.32 49.401-37.31 59.438z" fill="#996847"/><path d="m2855.2 423.007s-80.91 22.094-124.01 16.996l3.9-52.122 120.11 16.996z" fill="#996847"/><path d="m2744.25 521.276 31.16-8.92s-14.87 28.985-31.16 8.92z" fill="#fff"/></g><path d="m2844.84 411.636s-39.24-12.013-101.33-12.937c-62.11-.922-41.56-54.926-41.56-54.926s142.89-39.666 172.52 0c29.63 39.667 7.65 49.225 7.65 49.225 70.42-1.941-6.69 98.004-12.08 105.152l-20.38-36.764s11.98.836 13.92-3.906c1.97-4.742 5.89-25.38 1.14-27.055-4.74-1.675-20.65 8.089-20.65 8.089z" fill="#38385c"/><path d="m2790.27 591.289s-107.46 35.712-120.89 65.908c-13.41 30.193 29.59 381.853 29.59 381.853h281.18s31.94-325.928 32.18-350.715c.58-63.448-135.17-98.307-135.17-98.307z" fill="#f85c3d"/><path d="m2698.96 1039.06 49.74 787.93h128.92v-787.93z" fill="#38385c"/><path d="m2980.13 1039.05 25.36 68.36c31.04 62.96-4.63 286.07-4.25 354.98l182.74 287.68-97.82 66.93-224.92-252.23c-20.17-23.16-31.29-52.84-31.29-83.56v-442.16z" fill="#38385c"/><path d="m2877.62 1583.16s-47.68-50.72-47.68-89.28c0-17.12-10.84-284.55-10.84-284.55s-32.12 271.36-30.82 303.3c1.33 31.92 89.34 149.64 89.34 149.64z" fill="#1a1a35"/><path d="m2790.1 590.026 38.95.698c-11.31 15.299-23.38 48.605-47.98 30.802l-20.57-19.317z" fill="#fff"/><path d="m2828.03 590.598c32.46 49.584 27.58 32.931 71.22 6.175l-22.14-7.421z" fill="#fff"/><path d="m2834.65 617.782c12.46-4.635 8.36-26.17 4.9-27.752 0 0-12.29-8.085-20.02.836-.22-.709-9.78 21.59.08 28.112-5.12 43.246-34.46 290.553-34.1 296.38.4 6.386 26.81 70.2 26.81 70.2s45.18-54.507 46.3-64.081c1.05-8.839-20.6-263.806-23.97-303.695z" fill="#38385c"/><path d="m2654.83 662.268-127.83 223.419-164.37-182.827-75.23 52.164 158.37 241.814c17.25 26.332 46.63 42.212 78.13 42.212 54.6 4.78 81.76-30.64 112.3-68.984-8.71 41.484-69.27 333.894-65.23 420.824 4.3 92.2 160.02 155.35 160.02 155.35l19.97-940.196s-81.95 28.351-96.13 56.224z" fill="#fff"/><g mask="url(#j)"><path d="m2743.87 939.416c-15.61-7.575-51.89-25.068-55.43-25.827-4.5-.961-27.31-19.771-27.31-19.771l53.78-20.11 29.97 18.236z" fill="#f1f6fe"/></g><path d="m2525.86 1039.33c-31.72 0-61.81-13.81-80.08-42.494l-72.71-111.016c.02.011 0-.008 0 .002l72.71 111.014c17.26 26.334 46.63 42.214 78.12 42.214 1.24.11 2.46.2 3.67.27-.58 0-1.13.01-1.71.01zm62.41-18c17.8-13.08 32.43-31.801 47.94-51.268-11.93 22.441-28.86 39.628-47.94 51.268z" fill="#d7e6fe"/><path d="m2527.57 1039.32c-1.21-.07-2.44-.16-3.67-.27-31.49 0-60.87-15.88-78.12-42.213l-72.72-111.014c70.11 66.094 116.75 95.389 152.39 95.389 55.43 0 84.32-70.789 133.69-183.838l-22.94 172.69c-15.5 19.467-30.14 38.186-47.95 51.266-18.98 11.57-40.14 17.67-60.68 17.99z" fill="#f1f6fe"/><path d="m2907.27 594.967s23.08 846.063 58.95 889.723c35.87 43.69 182.49 121.41 202.78 102.04 20.26-19.37-87.35-580.86-87.35-638.58-7-237.122 45.07-291.635-174.38-353.183z" fill="#fff"/><path d="m3104.26 1107.35c-4.03-24.68-7.72-47.75-10.93-68.29z" fill="#e3eefe"/><path d="m3077.95 1110.97c-74.34 0-126.23-83.88-156.08-118.654 0 0 33.57 16.054 85.11 40.684 20.54 9.82 38.43 12.77 52.5 12.77 21.18 0 33.75-6.67 33.85-6.72 3.21 20.55 6.93 43.61 10.95 68.29l.02.15c-9.08 2.39-17.87 3.48-26.35 3.48z" fill="#f1f6fe"/><path d="m2914.81 821.76-.02-.254c0 .093.02.161.02.254z" fill="#eda59e"/><path d="m3029.26 885.824-112.98-25.64-1.47-38.422c0-.092-.02-.16-.02-.253l83.1 21.546c-5.42-86.127 31.37-120.619 31.37-120.619-16.19 70.405 0 163.388 0 163.388z" fill="#f1f6fe"/><path d="m3069.17 678.315 79.28 238.938c10.69 32.16 3.92 67.547-17.83 93.517-28.63 34.18-76.79 44.63-117.03 25.4l-298.68-142.752 15.66-78.875 287.97 70.779s-26.93-154.922 50.63-207.007z" fill="#fff"/><path d="m2363.43 813.432-167.2 1.857c-14.01 12.492-152.22-211.344-160.4-215.95-3.13-4.525.05-10.702 5.55-10.767l170.65-1.893c3.85-.048 7.46 1.813 9.66 4.974l146.9 211.782c2.91 4.196-.04 9.939-5.16 9.997z" fill="#38385c"/><path d="m2214.35 598.862 134.26 194.067-154.38 2.079-132.75-192.886z" fill="#d1daf7"/><g mask="url(#k)"><path d="m2194.23 795.008-37.09-53.901c54.88-44.396 26.12-120.327 16.65-141.371l40.56-.874 134.26 194.067z" fill="#dae4fb"/></g><path d="m2346.94 713.736s-33.4-31.726-39.09-33.433-58.32-10.243-58.6-7.398c9.15 25.984 34.82 30.115 53.82 36.097 0 0 17.04 24.579 16.47 23.74-.59-.84 27.4-19.006 27.4-19.006z" fill="#c99673"/><path d="m2691.37 741.558c-4.86-2.138-10.52.061-12.65 4.912-.69 1.902-76.02 171.818-76.42 173.752l-.03-.027c-12.55 50.654-16.47 50.08 16.7 8.534 2.32-2.48 75.63-171.707 77.31-174.523 2.13-4.848-.07-10.511-4.91-12.648z" fill="#38385c"/><path d="m2728.42 825.345s-36.01-22.858-43.52-23.274c-7.5-.418-63.39 11.519-62.97 23.274s29.61 69.305 39.2 68.472c9.6-.835 55.28-7.96 55.28-7.96z" fill="#c99673"/><g mask="url(#l)"><path d="m2732.67 845.906s-59.56 44.201-87.86 37.35l12.47 15.756 77.09-7.19z" fill="#996847"/></g><path d="m2797.73 450.984-.78-2.552 49.21-14.797.78 2.554z" fill="#38385c"/><path d="m2744.25 423.072c-19.42-.057-19.42 48.447 0 48.384 19.43.057 19.43-48.449 0-48.384zm0 51.05c-22.91.027-22.91-53.749 0-53.716 22.93-.028 22.93 53.749 0 53.716z" fill="#38385c"/><path d="m2781.08 425.524c-19.42-.06-19.42 48.446 0 48.383 19.43.058 19.43-48.447 0-48.383zm0 51.049c-22.92.028-22.92-53.749 0-53.715 22.91-.027 22.91 53.747 0 53.715z" fill="#38385c"/><path d="m2764.66 449.295-4.39-.713.44-2.63 4.38.71z" fill="#38385c"/><path d="m3528.82 1954.81h-3528.028984v-12.68h3528.028984z" fill="#38385c"/><path d="m1764.81 296.253c-6.73 393.965-592.74 393.894-599.42-.014 6.73-393.951 592.75-393.894 599.42.014z" fill="#a4c4ff"/><path d="m1606.89 125.04-188.32 188.32-74.98-74.987-54.64 54.64 74.98 75-.2.2 54.64 54.641 243.16-243.174z" fill="#e3eefd"/></g></svg>