<svg fill="none" height="25" viewBox="0 0 25 25" width="25" xmlns="http://www.w3.org/2000/svg"><g fill="#326699"><path d="m21.4005 3.71797c-2.3678-2.39766-5.528-3.71797-8.8977-3.71797-3.30865 0-6.42902 1.28125-8.78356 3.60625-2.37876 2.34531-3.697865 5.47578-3.71896438 8.81565-.02188082 3.3383 1.25971438 6.4844 3.60487438 8.8617 2.3686 2.3977 5.52961 3.7164 8.89925 3.7164 3.3087 0 6.4291-1.2805 8.786-3.6039 4.9028-4.8445 4.9521-12.77501.1101-17.67813zm-1.2964 16.47573c-2.0373 2.0133-4.7372 3.1204-7.5997 3.1204-2.91561 0-5.64994-1.1414-7.69893-3.2157-2.03179-2.0562-3.13912-4.7781-3.12037-7.6664.01798-2.88825 1.16203-5.59684 3.21727-7.62653 2.03727-2.01172 4.73643-3.12031 7.59973-3.12031 2.9148 0 5.6491 1.14218 7.6973 3.2164 4.1941 4.24375 4.148 11.10234-.0953 15.29214z"/><path d="m19.1422 11.6578h-5.7953v-5.79451c0-.4664-.3775-.84297-.8432-.84297-.4666 0-.8424.37657-.8424.84297v5.79451h-5.79613c-.46575 0-.8432.3766-.8432.8422s.37667.8422.8432.8422h5.79613v5.7937c0 .4657.3758.843.8424.843.4649 0 .8432-.3773.8432-.843v-5.7937h5.7953c.4665 0 .8424-.3766.8424-.8422 0-.4664-.3775-.8422-.8424-.8422z"/></g></svg>