<svg height="231.417" viewBox="0 0 231.413 231.417" width="231.413" xmlns="http://www.w3.org/2000/svg" xmlns:xlink="http://www.w3.org/1999/xlink"><clipPath id="a"><path d="m0 283.46h283.46v-283.46h-283.46z"/></clipPath><g clip-path="url(#a)" transform="matrix(1.3333333 0 0 -1.3333333 -73.266931 304.68186)"><path d="m0 0c0-46.372-37.594-83.965-83.968-83.965-46.373 0-83.967 37.593-83.967 83.965 0 46.379 37.594 83.973 83.967 83.973 46.374 0 83.968-37.594 83.968-83.973" fill="#ffcc24" transform="translate(225.6973 141.7261)"/><path d="m0 0c-.164-1.312-.4-2.508-.658-3.488-.592-2.198-1.447-4.553-2.494-6.801-.787-1.684-1.688-3.313-2.653-4.777-.718-1.096-1.486-2.104-2.254-2.969-1.148-1.313-2.325-2.309-3.358-2.914-.524-.305-1.004-.516-1.442-.653-.42-.132-.805-.195-1.164-.203-.076.016-.312.067-.633.196-.691.265-1.752.851-2.888 1.754-1.713 1.355-3.62 3.412-5.233 6.113-1.605 2.701-2.935 6.043-3.574 10.066-.024.172-.047.344-.078.51 3.234 1.193 6.273 2.662 9.096 4.271 6.15 3.528 11.231 7.682 14.812 10.973.48.436.931.86 1.357 1.266.365-1.039.668-2.149.887-3.301.371-1.895.535-3.895.535-5.828 0-1.469-.09-2.899-.258-4.215m8.125-26.414c.816 1.945-.088 4.182-2.021 5.023l-.053.026c-.278.131-1.524.791-2.77 2.049-.623.625-1.256 1.402-1.801 2.345-.347.608-.662 1.28-.921 2.041.289.52.574 1.051.836 1.582 1.263 2.524 2.259 5.16 2.945 7.723.316 1.18.558 2.465.734 3.836.174 1.377.27 2.84.27 4.352 0 2.312-.225 4.746-.785 7.162-.424 1.81-1.036 3.615-1.911 5.332-.656 1.289-1.461 2.529-2.445 3.666-1.469 1.707-3.357 3.175-5.617 4.173-2.254 1.006-4.859 1.534-7.718 1.53-1.688 0-3.278-.145-4.764-.434-2.602-.5-4.91-1.471-6.826-2.844-1.442-1.027-2.649-2.271-3.617-3.64-1.461-2.059-2.383-4.371-2.952-6.75-.568-2.383-.783-4.852-.783-7.326 0-1.19.051-2.381.145-3.569.012-.523.017-1.031.017-1.527 0-4.637-.49-8.301-1.193-11.176-1.047-4.308-2.555-6.838-3.67-8.267-.56-.715-1.025-1.151-1.303-1.389-.14-.117-.238-.184-.277-.211l-.014-.012c-1.769-1.074-2.381-3.371-1.349-5.191 1.047-1.844 3.4-2.49 5.25-1.442.246.141 1.033.625 2.062 1.614 1.547 1.486 3.635 4.123 5.289 8.336.242.609.477 1.254.696 1.933.345-.504.707-.988 1.072-1.447 1.764-2.203 3.682-3.902 5.578-5.109.949-.608 1.896-1.088 2.857-1.442.483-.176.969-.322 1.473-.428.504-.101 1.025-.169 1.586-.169l.129.002c1.277.023 2.51.279 3.652.699 1.002.359 1.933.843 2.804 1.41.969.631 1.86 1.359 2.688 2.16.725-1.09 1.5-2.027 2.273-2.816 1.305-1.336 2.582-2.264 3.567-2.883.984-.612 1.672-.914 1.828-.977 1.963-.824 4.215.096 5.039 2.055m20.818-37.807c1.934-8.768 4.334-20.272-2.002-34.172-.722-1.582-1.765-3.186-2.968-4.805-.286-.381-.578-.761-.877-1.142-2.018-2.582-4.371-5.219-6.446-7.926-.322-.418-.638-.834-.943-1.258 0 0-.418.26-1.178.746-1.494.961-4.324 2.809-7.974 5.317-10.328 7.078-27.205 19.404-38.965 31.781.078.578.168 1.176.254 1.793.117.806.244 1.644.375 2.504.332 2.148.699 4.457 1.071 6.82.158.961.31 1.93.462 2.898.03.186.057.372.088.551 4.7.453 16.723 1.756 28.289 4.281 4.309.942 8.516 2.129 12.316 3.381.36-.164.721-.316 1.082-.433.469-.155.938-.276 1.409-.346h.002l.003-.004c.344-.049.7-.082 1.063-.082.139 0 .277.008.414.012h.006c.678.051 1.314.207 1.912.418 1.053.375 2.078.972 3.051 1.771h.004c1.023.844 2.005 1.944 2.839 3.287.795.383 1.5.745 2.096 1.075 0 0 .434-1.151 1.102-3.254.9-2.836 2.232-7.401 3.515-13.213m-23.095 18.482c-.739 1.544-1.289 3.38-1.551 5.536-.033.258-.057.512-.07.758-.059.877-.024 1.687.095 2.435.069.434.166.844.287 1.231.088.287.188.562.301.826.537 1.236 1.34 2.197 2.211 2.902.576.477 1.186.842 1.777 1.125.791.385 1.551.625 2.188.781.855.204 1.498.258 1.721.274.193.012.697.035 1.394-.016.692-.054 1.576-.179 2.529-.488.635-.199 1.301-.48 1.95-.879.867-.519 1.709-1.254 2.386-2.246.383-.563.711-1.207.963-1.934.287-.828.475-1.763.545-2.8.018-.246.028-.498.03-.762.029-2.848-.51-5.223-1.362-7.129-.853-1.907-2.023-3.336-3.222-4.327-.219-.181-.438-.345-.657-.494-.59-.406-1.179-.707-1.754-.912-.447-.164-.89-.264-1.332-.293l-.082-.002c-.304-.015-.613.002-.931.051-.342.055-.698.139-1.057.262-.727.238-1.486.613-2.242 1.131-.203.14-.414.294-.617.459-1.299 1.035-2.551 2.519-3.5 4.511m40.816-55.672c-8.943-8.941-19.963-15.787-32.266-19.787l.977 3.881-1.467.922c-.012.008-.527.33-1.451.926-.133-.186-.262-.371-.391-.561-1.503-2.174-2.787-4.513-3.607-6.81-.004-.014-.008-.028-.014-.043-3.341-.809-6.763-1.418-10.255-1.799.439 2.775 1.298 5.398 2.417 7.82 1.12 2.414 2.473 4.647 3.909 6.692-.627.427-1.278.878-1.952 1.347-6.703 4.664-15.493 11.088-23.917 18.209-4.031 3.414-7.982 6.985-11.588 10.617-.166-1.796-.187-3.015.01-3.414.717-1.435 15.34-14.925 29.474-25.06 0 0 3.234-3.311.461-7.084-2.77-3.768-6.156-1.535-9.386.695-3.231 2.231-26.164 19.469-30.938 28.09 0 0 .744 12.695 3.922 26.551 3.184 13.851 7.184 23.291 8.727 20.52 1.5-2.701 2.609-7.262 1.045-17.96 1.646.166 3.919.409 6.611.744 5.67.704 13.172 1.809 20.421 3.391 3.283.715 6.524 1.584 9.559 2.52-1.156 1.138-2.223 2.574-3.063 4.339v-.002c-.839 1.761-1.457 3.833-1.746 6.206-.035.297-.06.586-.082.875-.019.324-.031.641-.031.949 0 .678.051 1.334.148 1.967.149.92.397 1.783.743 2.572v.004l.015.026c-2.586 2.326-5.453 3.515-6.865 2.332-1.924-1.604-3.979-3.246-1.207-6.633 4.924-5.924 4.207-11.62 4.207-11.62-6.082.309-9.388 4.084-12.701 6.932-3.306 2.848-17.621 20.625-26.086 4.924-8.464-15.7-11.005-49.637-11.005-49.637 3-8.08 15.316-18.086 15.316-18.086-.042-.998-.971-8.143-1.857-14.867-11.735 4.058-22.256 10.715-30.858 19.312-14.69 14.696-23.768 34.965-23.769 57.384.001 22.422 9.079 42.694 23.769 57.389 14.695 14.692 34.966 23.77 57.385 23.771 22.419-.002 42.691-9.079 57.386-23.771 14.691-14.695 23.77-34.967 23.77-57.389 0-22.419-9.079-42.688-23.77-57.384m3.977 118.751c-15.696 15.7-37.409 25.419-61.363 25.418-23.954.001-45.667-9.718-61.362-25.418-15.7-15.696-25.419-37.41-25.417-61.367-.002-23.954 9.717-45.665 25.417-61.36 15.695-15.699 37.408-25.418 61.362-25.418s45.667 9.719 61.363 25.418c15.701 15.695 25.42 37.406 25.418 61.36.002 23.957-9.717 45.671-25.418 61.367" fill="#2f4358" transform="translate(152.4512 185.7534)"/></g></svg>