<svg fill="none" height="20" viewBox="0 0 20 20" width="20" xmlns="http://www.w3.org/2000/svg"><path d="m19.6761 9.99985c0 1.91465-.5677 3.78635-1.6315 5.37835-1.0637 1.592-2.5756 2.8328-4.3445 3.5655-1.769.7327-3.71545.9244-5.59334.5509-1.87788-.3735-3.60283-1.2955-4.9567-2.6494-1.35388-1.3539-2.275885-3.0788-2.64942-4.9567-.373534-1.8779-.181823-3.82439.55089-5.59331.73271-1.76893 1.97352-3.28086 3.56551-4.34459 1.592-1.063735 3.46367-1.631501 5.37835-1.631501 2.56751 0 5.02981 1.019931 6.84531 2.835421 1.8155 1.8155 2.8354 4.27783 2.8354 6.84533z" fill="#ffcc24"/><path d="m17.0704 2.92829c-1.636-1.63575-3.7887-2.653628-6.0911-2.8802025-2.30235-.2265745-4.61208.3521735-6.53561 1.6376325-1.92353 1.28546-3.34184 3.1981-4.013275 5.41204-.671439 2.21394-.554463 4.59224.330997 6.72954.885458 2.1374 2.484618 3.9016 4.525008 4.9921s4.39577 1.4398 6.66478.9884c2.2691-.4515 4.3114-1.6757 5.7791-3.4641 1.4676-1.7884 2.2697-4.0303 2.2697-6.34385.0015-1.31358-.2565-2.61452-.7592-3.82809-.5028-1.21356-1.2403-2.31582-2.1704-3.24347zm-5.0928-2.074445c-.3007.075502-.5921.184115-.8689.323845-.4092.20744-.8333.38492-1.29771.59698.07607-.19938.13369-.35266.20401-.5359-1.43254.56471-2.15745 1.68837-2.61498 3.04252-.16826-1.06603-.24893-1.38296-.48288-1.49821l-.05532.60735-.05878.01614c-.24087-.50709-.48173-1.01648-.95194-1.353-.12529-.08891-.2566-.16901-.39299-.23972 1.38814-.77383 2.95147-1.178949 4.54073-1.176669.66556.003578 1.32886.077751 1.97876.221274zm-8.20556 2.873105-.64884-.06454c.08528-.09335.17287-.1867.26161-.27659l.04034-.03688c.12261.11942.23842.24562.34689.37801zm-.65691-.05647c.39761.33652.79175.6039 1.04414 1.01879-.07113-.00261-.14112-.01865-.20629-.04726-.15213-.05877-.29964-.13253-.45407-.17748-.29913-.08457-.60614-.13825-.91622-.16019.16826-.21897.34459-.43102.53244-.63386zm-2.468591 6.32937c.00014-.89207.127423-1.77956.378011-2.6357.48519-.18901.95886-.38147 1.44059-.55319.33052-.11506.6897-.11829 1.02224-.00922-.28351.17287-.54281.32039-.78944.48635-.25936.15899-.48176.37156-.6523.62348l.27774.01268c-.27774.26392-.5382.49902-.78598.7468-.26773.25753-.45542.58688-.54051.94848l.48634-.3031c-.09565.32154-.24432.61542-.26046.91617-.03342.6235 0 1.2516.01153 1.8774 0 .2063.02651.4115.04034.6166l.06453.03c.13373-.1352.25201-.2848.35266-.446.15904-.3274.28005-.6742.41259-1.0142.12194-.3311.32338-.6271.5866-.8621.02421.1429.04495.2628.07261.423.40567-.7353 1.17322-.97155 1.70681-1.49131l.04264.03457c-.04495.14637-.09105.29043-.14867.47136.50248-.29733.74104-.76985 1.00957-1.2147l.05071.02305v.65921l.52783-.32615c.00429.1079-.01417.21549-.05417.31578l.29964-.05416v9.26815c-1.65301-.7345-3.05739-1.9328-4.04279-3.4497-.9854-1.5168-1.509473-3.287-1.508661-5.09586zm15.965161 6.61405c-1.0995 1.097-2.4548 1.9031-3.9436 2.3457-1.4888.4427-3.06438.5078-4.58466.1897v-9.64732c.07931.14182.15049.28804.2132.43794l.31809-.99228c.52898.55204.85513 1.15936.89086 1.92236l.17632-.2305c.17057.3342.29849.6442.47709.9219.3296.5117.7365.9808.7849 1.6654.2149-.2435.3373-.5548.3457-.8794.0173-.2985.0161-.5981.0219-.8977h.0461l.2559.3226c.2086-.5866.0968-1.1132-.1245-1.6388-.1195-.27391-.2095-.55979-.2685-.85279-.0991-.53129-.2743-1.01879-.6316-1.43137-.0611-.0703-.1083-.15328-.1913-.27198.5128.0968.7353.51169 1.0995.76639.0253-.14982.0495-.2812.0714-.41259l.0438-.02765c.0097.03106.0245.06027.0438.08643.3792.36879.7572.73873 1.1444 1.10061.0772.07145.2109.17057.2789.14636.2305-.08182.3238.05993.4287.20514.189.26277.3792.52438.5693.78715l.2086-.1602.438 1.2562c.1452-.3586.1852-.7512.1152-1.1317-.0622-.35269-.1567-.69843-.2455-1.07875l.3331.21551c-.1152-.8171-.6592-1.3334-1.2101-1.89581h.5624c-.1705-.2086-.2812-.39875-.4437-.52668-.3054-.24087-.6396-.44716-.9634-.66497-.3458-.2305-.6915-.46099-1.0304-.69149 1.0234-.26391 1.9823-.09911 2.9308.29273-.0277-.08874-.0438-.14521-.0692-.23049.6673.17287 1.1756.54166 1.6435 1.0499-.007-.08874-.0081-.12677-.0139-.16365-.0126-.06454-.0253-.12793-.0438-.19131-.2305-.82863-.8067-1.33341-1.5754-1.65034-.0968-.03919-.189-.08874-.2835-.13369l.0104-.04033.3065-.0703c-.9323-.56932-1.9165-.47367-2.9042-.34575 0-.02074-.0092-.04148-.015-.06223l.4979-.23049c-.7779-.05302-1.4348.16365-2.0572.52668l-.0369-.07491 1.4441-1.65726-.0231-.02766-.7998.3008c.3043-.4836.695-.90707 1.1525-1.24928.2593-.18324.529-.35265.7987-.51746 1.5348.48158 2.9196 1.35079 4.0206 2.52369 1.1009 1.1729 1.8809 2.60986 2.2644 4.17211.3836 1.56226.3579 3.19703-.0746 4.74643-.4326 1.5494-1.2573 2.9611-2.3946 4.0988z" fill="#2f4358"/></svg>