<svg fill="none" height="20" viewBox="0 0 20 20" width="20" xmlns="http://www.w3.org/2000/svg"><path d="m19.6751 9.99889c0 1.91421-.5677 3.78551-1.6312 5.37711-1.0634 1.5916-2.575 2.8321-4.3435 3.5647-1.7686.7325-3.71459.9242-5.59204.5507-1.87746-.3734-3.602-1.2952-4.95557-2.6488-1.35357-1.3535-2.27536-3.0781-2.648808-4.9555-.373449-1.8775-.181782-3.8235.550768-5.59201.73254-1.76852 1.97306-3.2801 3.56469-4.34359s3.46287-1.631125 5.3771-1.631125c2.56686 0 5.02866 1.019695 6.84376 2.834775 1.8151 1.81507 2.8348 4.27684 2.8348 6.84374z" fill="#ffcc24"/><path d="m14.5985 4.2782h-3.2262c0-.29703.118-.58189.328-.79192s.4949-.32802.7919-.32802h.9829c.1473-.00046.2933.02817.4296.08425s.2601.1385.3645.24254c.1044.10405.1872.22766.2437.36377.0565.1361.0856.28201.0856.42938zm-2.263 5.08583c.6856 1.09227.242 2.51867-.8123 3.17897-.5934.3733-.0461 1.3192.5519.9448.7684-.4704 1.3236-1.2212 1.5483-2.0935.2247-.8724.1013-1.79802-.3442-2.58102-.9218-1.65342-3.0845-2.0901-4.67452-1.20636-.61528.34566-.06453 1.28816.55075.9448.53129-.30616 1.16117-.39258 1.75527-.24082.5942.15176 1.1054.52968 1.4248 1.05313zm7.6645.63486c.0003 2.31361-.8017 4.55571-2.2693 6.34431-1.4675 1.7886-3.5099 3.0129-5.779 3.4645-2.2691.4515-4.62458.1023-6.66507-.9882s-3.63973-2.8547-4.525217-4.9922c-.885492-2.1374-1.002444-4.51576-.330928-6.72976.671515-2.21401 2.089945-4.12667 4.013605-5.41208 1.92366-1.285418 4.23351-1.864049 6.53601-1.6373024 2.3024.2267474 4.455 1.2448424 6.091 2.8808124.9297.92745 1.667 2.02949 2.1694 3.24278.5025 1.2133.7602 2.51393.7583 3.82714zm-16.62403-1.8297c.2903 0 .56872-.11532.77399-.3206.20528-.20527.3206-.48369.3206-.77399 0-.29031-.11532-.56872-.3206-.774-.20527-.20527-.48369-.3206-.77399-.3206h-1.36537c-.18033.00111-.35761.04662-.51619.13251-.20192.4413-.36874.89784-.498901 1.36536.080391.20372.220171.37856.401181.50184.18102.12328.39491.18929.61391.18948zm15.97423 1.8297c.0003-1.84956-.5478-3.65768-1.5752-5.19565-1.0274-1.53798-2.4878-2.7367-4.1966-3.44455-1.7087-.707849-3.58904-.893017-5.40305-.532081-1.814.360931-3.48021 1.251761-4.78786 2.559781-.40627.40776-.77458.85165-1.10036 1.32619h12.24337c.4346.0003.8514.17318 1.1586.48063s.4798.72431.4798 1.15896v8.40183c.0002.2153-.0421.4285-.1244.6274-.0822.1989-.2029.3797-.3551.5319-.1521.1523-.3328.2731-.5317.3555-.1988.0824-.412.1248-.6272.1248h-11.35502c.07029.0738.14057.1498.21201.2224 1.30765 1.308 2.97386 2.1989 4.78786 2.5598 1.81401.3609 3.69435.1758 5.40305-.5321 1.7088-.7078 3.1692-1.9066 4.1966-3.4445 1.0274-1.538 1.5755-3.3461 1.5752-5.1957zm-9.0794 4.64911c.8104.0003 1.6027-.2399 2.2767-.69s1.1993-1.09 1.5096-1.8387c.3102-.7487.3915-1.5727.2334-2.36755-.1581-.79489-.5483-1.52506-1.1214-2.09814s-1.3032-.96332-2.0981-1.12138c-.7949-.15805-1.61884-.07682-2.36756.23344-.74872.31025-1.38861.83558-1.83873 1.50954-.45013.67397-.69026 1.46629-.69003 2.27679 0 .5379.10594 1.0705.31179 1.5675.20585.4969.50757.9485.88792 1.3288.38036.3804.83191.6821 1.32887.8879.49696.2059 1.0296.3118 1.56754.3118z" fill="#2f4358"/></svg>