<svg fill="none" height="20" viewBox="0 0 20 20" width="20" xmlns="http://www.w3.org/2000/svg"><path d="m19.6716 9.99889c0 1.91421-.5676 3.78551-1.6311 5.37711s-2.5751 2.8321-4.3436 3.5647c-1.7685.7325-3.71455.9242-5.592.5507-1.87745-.3734-3.602-1.2952-4.95557-2.6488-1.35357-1.3535-2.275356-3.0781-2.648805-4.9555-.373448-1.8775-.181781-3.8235.550765-5.59201.73254-1.76852 1.97307-3.2801 3.56469-4.34359 1.59163-1.06349 3.46287-1.631125 5.37711-1.631125 2.56691 0 5.02871 1.019695 6.84371 2.834775 1.8151 1.81507 2.8348 4.27684 2.8348 6.84374z" fill="#ffcc24"/><path d="m5.68499 8.16458c0-.06875.02731-.13469.07593-.18331s.11456-.07593.18331-.07593h1.54051c.05144-.00008.1017-.01546.14438-.04418.04267-.02873.07584-.0695.09527-.11713l.07951-.19472.32377 1.07846c.01635.05447.05015.10205.09621.13541s.1018.05066.15865.04922c.05686-.00144.11166-.02154.15596-.05719.04431-.03565.07566-.08489.08923-.14011l.4171-1.68453.14633.74894c.01191.05888.04372.11186.09009.15005s.10448.05925.16455.05965h.97251c.0659-.0044.1277-.03368.1728-.08192s.0702-.11184.0702-.17791c0-.06606-.0251-.12966-.0702-.1779s-.1069-.07752-.1728-.08192h-.7582l-.33299-1.68682c-.01142-.05781-.04219-.10999-.08724-.14796-.04505-.03798-.10169-.05947-.16059-.06095-.0589-.00147-.11655.01716-.16344.05283-.0469.03567-.08024.08625-.09455.1434l-.46894 1.89999-.26271-.87453c-.01541-.05141-.0464-.09677-.08869-.12981-.0423-.03305-.0938-.05216-.14742-.05469-.05361-.00252-.10668.01165-.1519.04057-.04521.02892-.08034.07116-.10052.12089l-.29151.71321h-1.02201c-.10431-.27448-.15216-.56718-.14068-.86059.01149-.29341.08206-.58149.20751-.84697.51849-1.10266 1.48519-.92983 1.8539-.86416.39751.07029.79157.4148.94827.42632.1567-.01152.5519-.35603.94831-.42632.3675-.06567 1.3354-.2385 1.8539.86416.5184 1.10266.0103 2.30441-.8481 2.88051s-1.69141 1.10842-1.81585 1.18331c-.04152.02709-.08504.05098-.1302.07144h-.01613c-.04516-.02046-.08868-.04435-.1302-.07144-.12444-.07489-.95633-.60951-1.81587-1.18331-.06023-.03993-.1183-.08301-.17399-.12905h-1.08423c-.03453.00001-.06872-.00688-.10055-.02027-.03184-.01339-.06068-.033-.08483-.05769-.02415-.02468-.04312-.05395-.05581-.08607-.01268-.03212-.01882-.06645-.01805-.10098zm2.44844 4.51552h5.10657v-1.8171h-5.10657zm0 3.513h5.10657v-1.817h-5.10657zm-3.68015-5.8635h2.88052v2.8805h-2.88052zm.23044 2.6581h2.42885v-2.4334h-2.43346zm2.02443-1.832-.91255.8561-.56573-.5116c-.0165-.0151-.03581-.0268-.05684-.0345-.02102-.0077-.04335-.0111-.06572-.0102-.02236.001-.04431.0063-.0646.0158-.02029.0094-.03852.0228-.05365.0393-.01514.0165-.02687.0358-.03454.0568-.00766.021-.01112.0434-.01015.0657.00096.0224.00632.0444.01577.0646.00944.0203.02279.0386.03929.0537l.6798.6153c.03132.029.07248.0452.11522.0452s.08389-.0162.11522-.0452l1.02661-.9621c.01756-.0148.03193-.033.04223-.0535.01031-.0205.01635-.0429.01774-.0658.0014-.0229-.00188-.0458-.00962-.0674s-.0198-.0414-.03543-.0582c-.01562-.0168-.0345-.0303-.05549-.0396s-.04364-.0142-.06659-.0144c-.02294-.0003-.0457.0041-.06689.0129-.0212.0088-.04038.0218-.05639.0383zm-2.25487 2.6869h2.88052v2.8806h-2.88052zm.23044 2.6582h2.42885v-2.4381h-2.43346zm15.31628-6.50191c.0003 2.31361-.8017 4.55571-2.2693 6.34431-1.4675 1.7886-3.5099 3.0129-5.779 3.4645-2.2691.4515-4.62458.1023-6.66507-.9882s-3.63973-2.8547-4.525218-4.9922c-.885491-2.1374-1.002443-4.51576-.330927-6.72976.671515-2.21401 2.089945-4.12667 4.013605-5.41208 1.92366-1.285418 4.23351-1.864049 6.53601-1.6373024 2.3024.2267474 4.455 1.2448424 6.091 2.8808124.9291.92773 1.6657 2.0299 2.1676 3.24318.5018 1.21329.759 2.51377.7567 3.82674zm-17.3361-5.79904c-1.30734 1.6502-2.018723 3.69374-2.018723 5.79904 0 2.10531.711383 4.14881 2.018723 5.79901zm9.6198 12.64885h2.1765l.0069-.0057v-12.88281h-11.1764v12.55901c.03227.0323.06222.0657.09333.098 1.09862 1.0986 2.45375 1.906 3.94285 2.3493h4.95452zm7.063-6.84981c-.0008-1.8416-.5455-3.64195-1.5657-5.17515-1.0202-1.53319-2.4705-2.73092-4.1689-3.4429-1.6984-.711977-3.5693-.906486-5.37783-.559118-1.80855.347368-3.47423 1.221138-4.78802 2.511668h11.00355c.1719.00031.3366.06878.458.1904s.1896.28645.1896.45829v13.17202l-1.5555 1.4979c1.7183-.7029 3.1884-1.9014 4.223-3.4429s1.5869-3.356 1.5864-5.21251z" fill="#2f4358"/></svg>