<svg width="126" height="31" viewBox="0 0 126 31" fill="none" xmlns="http://www.w3.org/2000/svg">
<path fill-rule="evenodd" clip-rule="evenodd" d="M14.047 4.93845H16.5746V7.55703H19.1024V10.1756H16.5746V12.7942H14.047V10.1756H11.5195V7.55703H14.047V4.93845Z" fill="#326699"/>
<path fill-rule="evenodd" clip-rule="evenodd" d="M8.53795 8.71127C8.53795 10.5684 9.22589 12.4588 10.5357 13.9864C11.7119 15.3584 13.0743 16.719 14.4366 18.0799L15.3114 18.9547L16.1866 18.0799C17.5486 16.719 18.911 15.3584 20.0872 13.9864C21.397 12.4588 22.0849 10.568 22.0849 8.71127C22.0849 6.95635 21.461 5.22689 20.1547 3.8735C18.8179 2.48821 17.0645 1.79521 15.3114 1.79521C13.5584 1.79521 11.8053 2.48821 10.4682 3.8735C9.16222 5.22689 8.53795 6.95635 8.53795 8.71127ZM15.3114 21.4661C13.2888 19.3698 11.0399 17.2743 9.24319 15.1788C6.09521 11.5077 5.89139 6.07656 9.24319 2.60437C12.5946 -0.867823 18.0282 -0.867823 21.38 2.60437C24.7315 6.07656 24.5277 11.5073 21.38 15.1788C19.5827 17.2743 17.3341 19.3698 15.3114 21.4661Z" fill="#FFCC00"/>
<path fill-rule="evenodd" clip-rule="evenodd" d="M17.5065 25.1442L16.6618 24.1507C17.3823 24.1808 18.054 23.5366 18.7582 24.1134C19.8039 24.9703 20.8974 25.5841 23.2852 26.0311C23.68 26.105 23.0668 26.5951 21.0698 26.4273C19.3901 26.2864 21.2037 26.7969 19.0921 26.5943C18.3582 26.5237 18.7509 26.7005 20.0925 26.9629C20.7649 27.0945 20.5275 27.7032 16.8733 27.4691C14.3942 27.3107 13.9249 27.3992 10.6697 27.5415C9.57652 27.5892 7.83244 27.0841 9.64676 26.7044C10.6465 26.4954 7.21094 26.2731 7.21094 25.9917C7.21094 25.7024 8.90311 25.3413 9.65576 25.1051C11.0735 24.6598 12.2459 23.9869 12.7768 23.5631C14.6599 22.0595 15.0963 23.8972 17.5065 25.1442Z" fill="#326699"/>
<path fill-rule="evenodd" clip-rule="evenodd" d="M28.2222 26.3858C29.7382 26.8127 30.6168 27.32 30.6168 27.8643C30.6168 29.3847 23.7627 30.6169 15.3084 30.6169C6.8538 30.6169 0 29.3847 0 27.8643C0 27.32 0.878958 26.8127 2.39464 26.3858C1.62711 26.6779 1.19975 27.0013 1.19975 27.3412C1.19975 28.6498 7.51648 29.7106 15.3084 29.7106C23.1004 29.7106 29.4171 28.6498 29.4171 27.3412C29.4171 27.0013 28.9901 26.6779 28.2222 26.3858Z" fill="#FFCC00"/>
<path fill-rule="evenodd" clip-rule="evenodd" d="M25.6401 26.2244C26.8527 26.5076 27.5555 26.8439 27.5555 27.2042C27.5555 28.2116 22.072 29.0283 15.3082 29.0283C8.54436 29.0283 3.06055 28.2116 3.06055 27.2042C3.06055 26.8439 3.76371 26.5076 4.97661 26.2244C4.36238 26.4183 4.02048 26.6324 4.02048 26.8579C4.02048 27.7251 9.07416 28.4278 15.3082 28.4278C21.5422 28.4278 26.5959 27.7251 26.5959 26.8579C26.5959 26.6324 26.2537 26.4183 25.6401 26.2244Z" fill="#FFCC00"/>
<path d="M37.9479 6.99426H41.1906V11.7735H43.1174V14.5781H41.1906V24.7219H37.9479V14.5781H36.2896V11.7735H37.9479V6.99426Z" fill="#326699"/>
<path d="M51.0219 14.4285C50.014 14.4285 49.1766 14.7821 48.5141 15.4932C47.8479 16.2005 47.5145 17.1104 47.5145 18.22C47.5145 19.3378 47.8517 20.2567 48.5306 20.9797C49.2095 21.6997 50.0424 22.0608 51.0346 22.0608C52.0544 22.0608 52.9038 21.7072 53.5745 20.9961C54.2489 20.2888 54.5868 19.3587 54.5868 18.208C54.5868 17.082 54.2489 16.1721 53.5745 15.4722C52.9038 14.7776 52.0499 14.4285 51.0219 14.4285ZM54.4403 11.7697H57.6838V24.7189H54.4403V23.3409C53.8063 23.9428 53.1677 24.3734 52.53 24.6374C51.8922 24.902 51.1968 25.0366 50.4529 25.0366C48.7743 25.0366 47.3275 24.3899 46.1043 23.0934C44.8811 21.8006 44.271 20.1916 44.271 18.2693C44.271 16.2737 44.8647 14.6393 46.0475 13.363C47.2303 12.0912 48.6652 11.4534 50.3557 11.4534C51.1355 11.4534 51.863 11.6 52.5464 11.8886C53.229 12.1764 53.8586 12.6153 54.4403 13.1925V11.7697Z" fill="#326699"/>
<path d="M60.9321 11.7735H64.1748V13.2853C64.7319 12.6722 65.3495 12.2132 66.0329 11.9126C66.711 11.6068 67.455 11.4565 68.2595 11.4565C69.0685 11.4565 69.8042 11.6561 70.4547 12.0547C71.1089 12.4524 71.633 13.0379 72.0315 13.802C72.5474 13.0379 73.1815 12.4524 73.9337 12.0547C74.6858 11.6561 75.5105 11.4565 76.4003 11.4565C77.3229 11.4565 78.1357 11.6718 78.8348 12.0995C79.5383 12.5257 80.0378 13.0865 80.3466 13.7736C80.6516 14.4644 80.8064 15.586 80.8064 17.1389V24.7219H77.5629V18.1789C77.5629 16.7157 77.3805 15.7243 77.0104 15.2084C76.6403 14.6917 76.0833 14.4323 75.3475 14.4323C74.783 14.4323 74.2791 14.5908 73.8357 14.9071C73.3893 15.2203 73.0551 15.6592 72.8398 16.2155C72.6252 16.7733 72.5153 17.6668 72.5153 18.9027V24.7219H69.2718V18.4758C69.2718 17.3213 69.1866 16.4847 69.0116 15.968C68.8412 15.4476 68.581 15.0656 68.2393 14.8099C67.8946 14.5579 67.4751 14.4323 66.9876 14.4323C66.4433 14.4323 65.9476 14.5908 65.5042 14.9116C65.0571 15.2323 64.7281 15.6802 64.5046 16.2566C64.2848 16.8339 64.1748 17.7438 64.1748 18.9842V24.7219H60.9321V11.7735Z" fill="#326699"/>
<path d="M90.0394 14.4285C89.0315 14.4285 88.1934 14.7821 87.5317 15.4932C86.8647 16.2005 86.532 17.1104 86.532 18.22C86.532 19.3378 86.8692 20.2567 87.5481 20.9797C88.2255 21.6997 89.0592 22.0608 90.0514 22.0608C91.072 22.0608 91.9206 21.7072 92.592 20.9961C93.2664 20.2888 93.6044 19.3587 93.6044 18.208C93.6044 17.082 93.2664 16.1721 92.592 15.4722C91.9206 14.7776 91.0675 14.4285 90.0394 14.4285ZM93.4563 11.7697H96.6998V24.7189H93.4563V23.3409C92.823 23.9428 92.1845 24.3734 91.5467 24.6374C90.9082 24.902 90.2144 25.0366 89.4697 25.0366C87.7919 25.0366 86.3451 24.3899 85.1211 23.0934C83.8987 21.8006 83.2886 20.1916 83.2886 18.2693C83.2886 16.2738 83.8815 14.6393 85.0643 13.363C86.2472 12.0912 87.6827 11.4534 89.3717 11.4534C90.1531 11.4534 90.8806 11.6 91.5624 11.8886C92.2458 12.1764 92.8754 12.6153 93.4563 13.1925V11.7697Z" fill="#326699"/>
<path d="M99.9775 11.7735H103.221V13.1066C103.955 12.4891 104.627 12.0629 105.225 11.8191C105.821 11.5784 106.435 11.4565 107.062 11.4565C108.345 11.4565 109.439 11.9036 110.333 12.7978C111.084 13.562 111.463 14.6872 111.463 16.1759V24.7219H108.245V19.0612C108.245 17.5172 108.174 16.4929 108.037 15.9882C107.899 15.4805 107.655 15.094 107.313 14.8301C106.968 14.5654 106.54 14.4323 106.037 14.4323C105.38 14.4323 104.814 14.6514 104.343 15.0903C103.871 15.5291 103.545 16.1393 103.362 16.9109C103.269 17.3176 103.221 18.1909 103.221 19.5367V24.7219H99.9775V11.7735Z" fill="#326699"/>
<path d="M114.613 11.7704H117.904V17.9972C117.904 19.2084 117.989 20.0496 118.157 20.5206C118.324 20.9924 118.59 21.358 118.961 21.6227C119.331 21.8821 119.79 22.0122 120.331 22.0122C120.872 22.0122 121.335 21.8821 121.713 21.6264C122.091 21.3707 122.372 20.9924 122.554 20.4929C122.689 20.1191 122.757 19.3221 122.757 18.1033V11.7704H126V17.2495C126 19.509 125.822 21.0537 125.465 21.8866C125.03 22.9027 124.382 23.6788 123.534 24.2231C122.684 24.7645 121.604 25.0366 120.294 25.0366C118.871 25.0366 117.726 24.7189 116.847 24.0856C115.969 23.4515 115.352 22.5693 114.994 21.4358C114.738 20.6514 114.613 19.2249 114.613 17.156V11.7704Z" fill="#326699"/>
</svg>
