<svg fill="none" height="34" viewBox="0 0 140 34" width="140" xmlns="http://www.w3.org/2000/svg"><path clip-rule="evenodd" d="m15.6077 5.41948h2.8083v2.87373h2.8087v2.87369h-2.8087v2.8737h-2.8083v-2.8737h-2.8084v-2.87369h2.8084z" fill="#326699" fill-rule="evenodd"/><path clip-rule="evenodd" d="m9.48658 9.55986c0 2.03804.76442 4.11264 2.21972 5.78914 1.3069 1.5057 2.8206 2.9988 4.3344 4.4923l.972.96.9724-.96c1.5134-1.4935 3.0271-2.9866 4.334-4.4923 1.4553-1.6765 2.2197-3.7515 2.2197-5.78914 0-1.92591-.6932-3.82389-2.1447-5.30914-1.4853-1.52026-3.4336-2.28079-5.3814-2.28079-1.9479 0-3.8957.76053-5.3814 2.28079-1.4511 1.48525-2.14472 3.38323-2.14472 5.30914zm7.52612 13.99754c-2.2474-2.3004-4.7462-4.6001-6.7425-6.8998-3.49777-4.0289-3.72424-9.98916 0-13.79967 3.7238-3.810506 9.7612-3.810506 13.4854 0 3.7238 3.81051 3.4973 9.77037 0 13.79967-1.9971 2.2997-4.4955 4.5994-6.7429 6.8998z" fill="#fc0" fill-rule="evenodd"/><path clip-rule="evenodd" d="m19.4515 27.5939-.9385-1.0902c.8005.0331 1.5468-.674 2.3292-.0409 1.162.9403 2.377 1.6139 5.03 2.1045.4387.0811-.2426.6189-2.4615.4348-1.8664-.1546.1488.4056-2.1974.1833-.8155-.0775-.3791.1165 1.1116.4045.747.1444.4833.8125-3.577.5555-2.7546-.1739-3.2759-.0767-6.8929.0795-1.2146.0523-3.15248-.502-1.1366-.9187 1.1108-.2294-2.70644-.4733-2.70644-.7821 0-.3176 1.88019-.7138 2.71644-.973 1.5753-.4887 2.878-1.2272 3.4678-1.6922 2.0924-1.6502 2.5773.3666 5.2553 1.735z" fill="#326699" fill-rule="evenodd"/><path clip-rule="evenodd" d="m31.358 28.9566c1.6845.4686 2.6607 1.0253 2.6607 1.6225 0 1.6686-7.6157 3.0209-17.0093 3.0209-9.39406 0-17.0094-1.3523-17.0094-3.0209 0-.5972.97662-1.1539 2.66071-1.6225-.85281.3206-1.32766.6755-1.32766 1.0485 0 1.4361 7.0186 2.6003 15.67635 2.6003 8.6577 0 15.6763-1.1642 15.6763-2.6003 0-.373-.4745-.7279-1.3277-1.0485z" fill="#fc0" fill-rule="evenodd"/><path clip-rule="evenodd" d="m28.4891 28.7795c1.3473.3109 2.1282.6799 2.1282 1.0753 0 1.1056-6.0928 2.0019-13.6082 2.0019-7.51534 0-13.60847-.8963-13.60847-2.0019 0-.3954.7813-.7644 2.12897-1.0753-.68249.2129-1.06237.4478-1.06237.6953 0 .9517 5.61517 1.7229 12.54187 1.7229 6.9268 0 12.542-.7712 12.542-1.7229 0-.2475-.3803-.4824-1.062-.6953z" fill="#fc0" fill-rule="evenodd"/><g fill="#326699"><path d="m42.1642 7.67574h3.603v5.24486h2.1409v3.0779h-2.1409v11.1322h-3.603v-11.1322h-1.8427v-3.0779h1.8427z"/><path d="m56.6909 15.8344c-1.1199 0-2.0503.3881-2.7864 1.1685-.7402.7762-1.1107 1.7748-1.1107 2.9925 0 1.2267.3747 2.2351 1.129 3.0286.7543.7901 1.6798 1.1865 2.7822 1.1865 1.1332 0 2.0769-.3882 2.8221-1.1685.7494-.7762 1.1249-1.797 1.1249-3.0598 0-1.2357-.3755-2.2343-1.1249-3.0023-.7452-.7623-1.6939-1.1455-2.8362-1.1455zm3.7983-2.9178h3.6038v14.2109h-3.6038v-1.5123c-.7045.6606-1.414 1.1332-2.1226 1.4228-.7087.2905-1.4813.4382-2.3079.4382-1.8651 0-3.4726-.7098-4.8317-2.1326-1.3592-1.4187-2.0371-3.1845-2.0371-5.2941 0-2.19.6597-3.9837 1.9739-5.3843 1.3143-1.3958 2.9085-2.0957 4.7869-2.0957.8665 0 1.6748.1608 2.4341.4776.7585.3159 1.458.7975 2.1044 1.431z"/><path d="m67.7024 12.9207h3.603v1.6591c.6189-.6728 1.3051-1.1767 2.0645-1.5065.7535-.3356 1.5801-.5005 2.474-.5005.8989 0 1.7163.219 2.4391.6564.7269.4365 1.3093 1.079 1.7521 1.9176.5732-.8386 1.2777-1.4811 2.1134-1.9176.8358-.4374 1.7521-.6564 2.7407-.6564 1.0252 0 1.9282.2363 2.705.7056.7817.4677 1.3367 1.0831 1.6798 1.8372.339.7582.5109 1.989.5109 3.6932v8.3219h-3.6038v-7.1805c0-1.6058-.2027-2.6938-.614-3.26-.4112-.567-1.0301-.8517-1.8476-.8517-.6272 0-1.1871.174-1.6798.521-.496.3438-.8673.8255-1.1066 1.436-.2384.6121-.3605 1.5926-.3605 2.949v6.3862h-3.6039v-6.8547c0-1.267-.0947-2.1851-.2891-2.7521-.1894-.5711-.4785-.9904-.8582-1.271-.3829-.2766-.849-.4144-1.3907-.4144-.6047 0-1.1555.174-1.6482.526-.4968.352-.8623.8435-1.1107 1.4761-.2443.6335-.3664 1.632-.3664 2.9933v6.2968h-3.603z"/><path d="m100.044 15.8344c-1.1197 0-2.051.3881-2.7862 1.1685-.7411.7762-1.1107 1.7748-1.1107 2.9925 0 1.2267.3746 2.2351 1.129 3.0286.7526.7901 1.6789 1.1865 2.7809 1.1865 1.134 0 2.077-.3881 2.823-1.1685.75-.7762 1.125-1.797 1.125-3.0598 0-1.2357-.375-2.2343-1.125-3.0023-.746-.7623-1.694-1.1455-2.836-1.1455zm3.797-2.9178h3.604v14.2109h-3.604v-1.5123c-.704.6606-1.413 1.1332-2.122 1.4228-.71.2905-1.48.4382-2.3079.4382-1.8642 0-3.4717-.7098-4.8317-2.1326-1.3583-1.4187-2.0362-3.1845-2.0362-5.2941 0-2.19.6588-3.9837 1.9731-5.3843 1.3142-1.3958 2.9093-2.0957 4.786-2.0957.8677 0 1.6767.1608 2.4337.4776.76.3159 1.459.7975 2.105 1.431z"/><path d="m111.086 12.9207h3.604v1.463c.816-.6778 1.563-1.1455 2.226-1.413.663-.2642 1.345-.3979 2.042-.3979 1.425 0 2.641.4906 3.634 1.472.835.8386 1.255 2.0735 1.255 3.7072v9.3787h-3.575v-6.2123c0-1.6944-.078-2.8185-.231-3.3724-.154-.5571-.425-.9813-.804-1.271-.383-.2904-.859-.4365-1.418-.4365-.731 0-1.359.2404-1.883.7221-.524.4816-.886 1.1512-1.089 1.998-.104.4463-.157 1.4047-.157 2.8817v5.6904h-3.604z"/><path d="m127.347 12.9174h3.657v6.8334c0 1.3293.095 2.2524.281 2.7694.185.5177.482.919.894 1.2094.411.2848.921.4275 1.522.4275s1.115-.1427 1.535-.4234c.421-.2806.732-.6958.935-1.2439.149-.4103.226-1.285.226-2.6224v-6.95h3.603v6.0129c0 2.4797-.198 4.1749-.595 5.089-.483 1.1151-1.203 1.9668-2.145 2.5642-.944.594-2.145.8927-3.6.8927-1.581 0-2.853-.3487-3.83-1.0437-.976-.6958-1.662-1.6641-2.059-2.908-.284-.8608-.424-2.4263-.424-4.6968z"/></g></svg>