<svg fill="none" height="26" viewBox="0 0 107 26" width="107" xmlns="http://www.w3.org/2000/svg"><g clip-rule="evenodd" fill-rule="evenodd"><path d="m11.9286 4.19361h2.1464v2.22371h2.1467v2.22371h-2.1467v2.22367h-2.1464v-2.22367h-2.14637v-2.22371h2.14637z" fill="#fff"/><path d="m7.25029 7.39756c0 1.57705.5842 3.18244 1.69648 4.47964.99884 1.1652 2.15583 2.3206 3.31273 3.4763l.7429.7428.7432-.7428c1.1566-1.1557 2.3136-2.3111 3.3124-3.4763 1.1123-1.2972 1.6965-2.90289 1.6965-4.47964 0-1.49029-.5299-2.95896-1.6392-4.10826-1.1352-1.1764-2.6242-1.76491-4.1129-1.76491s-2.9774.58851-4.11294 1.76491c-1.10904 1.1493-1.63917 2.61797-1.63917 4.10826zm5.75211 10.83144c-1.7177-1.7801-3.62747-3.5596-5.15321-5.3392-2.67329-3.11753-2.84637-7.72965 0-10.67826 2.84611-2.948607 7.46031-2.948607 10.30671 0 2.8461 2.94861 2.673 7.56043 0 10.67826-1.5264 1.7796-3.4359 3.5591-5.1535 5.3392z" fill="#ffcc24"/><path d="m14.8666 21.3525-.7173-.8437c.6118.0256 1.1822-.5215 1.7802-.0316.8881.7276 1.8167 1.2488 3.8444 1.6285.3353.0627-.1855.4789-1.8814.3364-1.4264-.1197.1138.3139-1.6794.1419-.6233-.06-.2897.0901.8496.3129.571.1118.3694.6287-2.7339.4299-2.1052-.1345-2.5037-.0593-5.26808.0615-.92832.0405-2.4094-.3885-.86867-.7109.84898-.1775-2.06851-.3662-2.06851-.6052 0-.2457 1.437-.5523 2.07615-.7529 1.20397-.3782 2.19961-.9496 2.65041-1.3095 1.5992-1.2768 1.9697.2838 4.0165 1.3427z" fill="#fff"/><path d="m23.9665 22.4069c1.2874.3626 2.0335.7934 2.0335 1.2555 0 1.2912-5.8206 2.3376-13 2.3376-7.17971 0-13-1.0464-13-2.3376 0-.4621.746417-.8929 2.03355-1.2555-.6518.2481-1.01472.5227-1.01472.8113 0 1.1113 5.36421 2.0121 11.98117 2.0121 6.617 0 11.9812-.9008 11.9812-2.0121 0-.2886-.3627-.5632-1.0147-.8113z" fill="#ffcc24"/><path d="m21.7738 22.2699c1.0298.2405 1.6266.5261 1.6266.832 0 .8556-4.6566 1.5491-10.4005 1.5491-5.74389 0-10.40078-.6935-10.40078-1.5491 0-.3059.59714-.5915 1.62713-.832-.52161.1647-.81195.3464-.81195.5379 0 .7365 4.29162 1.3332 9.5856 1.3332 5.294 0 9.5856-.5967 9.5856-1.3332 0-.1915-.2906-.3732-.8117-.5379z" fill="#ffcc24"/></g><g fill="#fff"><path d="m32.2257 5.93958h2.7537v4.05854h1.6363v2.38168h-1.6363v8.6142h-2.7537v-8.6142h-1.4083v-2.38168h1.4083z"/><path d="m43.3281 12.2528c-.8559 0-1.567.3004-2.1296.9042-.5657.6006-.8489 1.3734-.8489 2.3156 0 .9492.2863 1.7296.8629 2.3436.5765.6114 1.2838.9181 2.1264.9181.866 0 1.5873-.3003 2.1569-.9042.5727-.6006.8597-1.3905.8597-2.3676 0-.9563-.287-1.729-.8597-2.3233-.5696-.5898-1.2947-.8864-2.1677-.8864zm2.9029-2.2578h2.7544v10.9965h-2.7544v-1.1702c-.5384.5111-1.0806.8769-1.6222 1.101-.5416.2248-1.1321.3391-1.7639.3391-1.4254 0-2.654-.5493-3.6928-1.6503-1.0388-1.0978-1.5569-2.4642-1.5569-4.0966 0-1.6946.5042-3.0826 1.5086-4.1664 1.0045-1.0801 2.223-1.62168 3.6586-1.62168.6622 0 1.28.12445 1.8603.36958.5797.2444 1.1144.6171 1.6083 1.1073z"/><path d="m51.7441 9.99816h2.7538v1.28384c.473-.5206.9975-.9105 1.5778-1.1657.5759-.25973 1.2077-.38736 1.8909-.38736.687 0 1.3117.16953 1.8641.50796.5556.3378 1.0007.8349 1.3391 1.4838.4381-.6489.9766-1.146 1.6153-1.4838.6388-.33843 1.3391-.50796 2.0947-.50796.7835 0 1.4737.18287 2.0673.54606.5975.3619 1.0217.8381 1.2839 1.4216.2591.5867.3905 1.5391.3905 2.8579v6.4395h-2.7544v-5.5563c0-1.2426-.1549-2.0845-.4692-2.5226-.3143-.4388-.7873-.6591-1.4121-.6591-.4794 0-.9073.1346-1.2839.4032-.379.266-.6628.6387-.8457 1.1111-.1822.4737-.2756 1.2324-.2756 2.282v4.9417h-2.7543v-5.3043c0-.9803-.0724-1.6908-.221-2.1295-.1448-.442-.3657-.7664-.6559-.9836-.2927-.2139-.6489-.3206-1.0629-.3206-.4622 0-.8832.1346-1.2597.407-.3797.2724-.6591.6527-.8489 1.1422-.1867.4902-.28 1.2629-.28 2.3163v4.8725h-2.7538z"/><path d="m76.4623 12.2528c-.8558 0-1.5676.3004-2.1295.9042-.5664.6007-.8489 1.3734-.8489 2.3156 0 .9493.2863 1.7296.8628 2.3436.5753.6114 1.2832.9181 2.1258.9181.8667 0 1.5874-.3003 2.1575-.9042.5727-.6006.8597-1.3905.8597-2.3676 0-.9563-.287-1.729-.8597-2.3233-.5701-.5898-1.2946-.8864-2.1677-.8864zm2.9017-2.2578h2.7544v10.9965h-2.7544v-1.1702c-.5378.5111-1.08.8769-1.6216 1.101-.5423.2248-1.1315.3391-1.7639.3391-1.4248 0-2.6534-.5493-3.6928-1.6503-1.0381-1.0978-1.5562-2.4641-1.5562-4.0966 0-1.6946.5035-3.0826 1.508-4.1664 1.0044-1.0801 2.2235-1.62167 3.6578-1.62167.6636 0 1.2814.12444 1.8604.36957.5803.2444 1.115.6171 1.6083 1.1073z"/><path d="m84.9014 9.99816h2.7543v1.13214c.6235-.5245 1.1943-.8864 1.7017-1.0934.5066-.20446 1.0279-.30796 1.56-.30796 1.0896 0 2.0185.37966 2.7779 1.13906.6381.6489.9594 1.6045.9594 2.8687v7.2573h-2.7328v-4.8071c0-1.3111-.0597-2.181-.1765-2.6096-.1175-.4311-.3245-.7594-.6147-.9835-.2927-.2248-.6565-.3378-1.0838-.3378-.5581 0-1.0381.186-1.4388.5587-.4006.3728-.6774.8909-.8324 1.5461-.0793.3454-.12 1.087-.12 2.2299v4.4033h-2.7543z"/><path d="m97.3296 9.99563h2.7954v5.28777c0 1.0286.072 1.7429.214 2.1429.142.4007.368.7112.683.9359.315.2203.704.3308 1.164.3308.459 0 .852-.1105 1.173-.3276.321-.2172.559-.5384.714-.9626.115-.3174.173-.9943.173-2.0292v-5.37797h2.754v4.65287c0 1.9187-.151 3.2305-.455 3.9379-.369.8628-.919 1.5219-1.639 1.9841-.722.4597-1.64.6909-2.752.6909-1.208 0-2.1805-.2699-2.9272-.8077-.7454-.5384-1.2699-1.2876-1.5734-2.2502-.2171-.6661-.3238-1.8775-.3238-3.6344z"/></g></svg>