<svg height="26" viewBox="0 0 26 26" width="26" xmlns="http://www.w3.org/2000/svg"><g clip-rule="evenodd"><path d="m11.9286 4.19361h2.1464v2.22371h2.1467v2.22371h-2.1467v2.22367h-2.1464v-2.22367h-2.14637v-2.22371h2.14637z" fill="#fff" fill-rule="evenodd"/><path d="m7.25029 7.39756c0 1.57705.5842 3.18244 1.69648 4.47964.99884 1.1652 2.15583 2.3206 3.31273 3.4763l.7429.7428.7432-.7428c1.1566-1.1557 2.3136-2.3111 3.3124-3.4763 1.1123-1.2972 1.6965-2.90289 1.6965-4.47964 0-1.49029-.5299-2.95896-1.6392-4.10826-1.1352-1.1764-2.6242-1.76491-4.1129-1.76491s-2.9774.58851-4.11294 1.76491c-1.10904 1.1493-1.63917 2.61797-1.63917 4.10826zm5.75211 10.83144c-1.7177-1.7801-3.62747-3.5596-5.15321-5.3392-2.67329-3.11753-2.84637-7.72965 0-10.67826 2.84611-2.948607 7.46031-2.948607 10.30671 0 2.8461 2.94861 2.673 7.56043 0 10.67826-1.5264 1.7796-3.4359 3.5591-5.1535 5.3392z" fill="#fc0" fill-rule="evenodd"/><path d="m14.8666 21.3525-.7173-.8437c.6118.0256 1.1822-.5215 1.7802-.0316.8881.7276 1.8167 1.2488 3.8444 1.6285.3353.0627-.1855.4789-1.8814.3364-1.4264-.1197.1138.3139-1.6794.1419-.6233-.06-.2897.0901.8496.3129.571.1118.3694.6287-2.7339.4299-2.1052-.1345-2.5037-.0593-5.26808.0615-.92832.0405-2.4094-.3885-.86867-.7109.84898-.1775-2.06851-.3662-2.06851-.6052 0-.2457 1.437-.5523 2.07615-.7529 1.20397-.3782 2.19961-.9496 2.65041-1.3095 1.5992-1.2768 1.9697.2838 4.0165 1.3427z" fill="#fff"/><g fill="#fc0" fill-rule="evenodd"><path d="m23.9665 22.4069c1.2874.3626 2.0335.7934 2.0335 1.2555 0 1.2912-5.8206 2.3376-13 2.3376-7.17971 0-13-1.0464-13-2.3376 0-.4621.746417-.8929 2.03355-1.2555-.6518.2481-1.01472.5227-1.01472.8113 0 1.1113 5.36421 2.0121 11.98117 2.0121 6.617 0 11.9812-.9008 11.9812-2.0121 0-.2886-.3627-.5632-1.0147-.8113z"/><path d="m21.7738 22.2699c1.0298.2405 1.6266.5261 1.6266.832 0 .8556-4.6566 1.5491-10.4005 1.5491-5.74389 0-10.40078-.6935-10.40078-1.5491 0-.3059.59714-.5915 1.62713-.832-.52161.1647-.81195.3464-.81195.5379 0 .7365 4.29162 1.3332 9.5856 1.3332 5.294 0 9.5856-.5967 9.5856-1.3332 0-.1915-.2906-.3732-.8117-.5379z"/></g></g></svg>