<svg fill="none" height="34" viewBox="0 0 140 34" width="140" xmlns="http://www.w3.org/2000/svg"><g clip-rule="evenodd" fill-rule="evenodd"><path d="m15.6077 5.41948h2.8083v2.87373h2.8087v2.87369h-2.8087v2.8737h-2.8083v-2.8737h-2.8084v-2.87369h2.8084z" fill="#326699"/><path d="m9.48634 9.55986c0 2.03804.76436 4.11264 2.21966 5.78914 1.3069 1.5057 2.8207 2.9988 4.3344 4.4923l.972.96.9724-.96c1.5134-1.4935 3.0272-2.9866 4.3341-4.4923 1.4553-1.6765 2.2197-3.7515 2.2197-5.78914 0-1.92591-.6933-3.82389-2.1448-5.30914-1.4853-1.52026-3.4335-2.28079-5.3814-2.28079-1.9478 0-3.8957.76053-5.3813 2.28079-1.4511 1.48525-2.14476 3.38323-2.14476 5.30914zm7.52606 13.99754c-2.2473-2.3004-4.7462-4.6001-6.7425-6.8998-3.49771-4.0289-3.72418-9.98916 0-13.79967 3.7239-3.810506 9.7612-3.810506 13.4854 0 3.7239 3.81051 3.4974 9.77037 0 13.79967-1.997 2.2997-4.4955 4.5994-6.7429 6.8998z" fill="#ffcc24"/><path d="m19.4518 27.5939-.9386-1.0902c.8005.0331 1.5468-.674 2.3293-.0409 1.1619.9403 2.3769 1.6139 5.03 2.1045.4387.0811-.2427.6189-2.4616.4348-1.8663-.1546.1488.4056-2.1974.1833-.8155-.0775-.3791.1165 1.1116.4045.7471.1444.4833.8125-3.577.5555-2.7545-.1739-3.2759-.0767-6.8928.0795-1.2147.0523-3.15254-.502-1.1366-.9187 1.1108-.2294-2.70649-.4733-2.70649-.7821 0-.3176 1.88019-.7138 2.71649-.973 1.5753-.4887 2.8779-1.2272 3.4678-1.6922 2.0924-1.6502 2.5772.3666 5.2553 1.735z" fill="#326699"/><path d="m31.358 28.9566c1.6845.4686 2.6607 1.0253 2.6607 1.6225 0 1.6686-7.6157 3.0209-17.0093 3.0209-9.39406 0-17.0094-1.3523-17.0094-3.0209 0-.5972.97662-1.1539 2.66071-1.6225-.85281.3206-1.32766.6755-1.32766 1.0485 0 1.4361 7.0186 2.6003 15.67635 2.6003 8.6577 0 15.6763-1.1642 15.6763-2.6003 0-.373-.4745-.7279-1.3277-1.0485z" fill="#ffcc24"/><path d="m28.4888 28.7795c1.3473.3109 2.1282.6799 2.1282 1.0753 0 1.1056-6.0927 2.0019-13.6081 2.0019-7.51538 0-13.60851-.8963-13.60851-2.0019 0-.3954.7813-.7644 2.12896-1.0753-.68248.2129-1.06236.4478-1.06236.6953 0 .9517 5.61521 1.7229 12.54191 1.7229s12.5419-.7712 12.5419-1.7229c0-.2475-.3803-.4824-1.062-.6953z" fill="#ffcc24"/></g><g fill="#326699"><path d="m42.1644 7.67574h3.603v5.24486h2.1409v3.0779h-2.1409v11.1322h-3.603v-11.1322h-1.8426v-3.0779h1.8426z"/><path d="m56.6909 15.8344c-1.1199 0-2.0503.3881-2.7864 1.1685-.7402.7762-1.1107 1.7748-1.1107 2.9925 0 1.2267.3747 2.2351 1.129 3.0286.7543.7901 1.6798 1.1865 2.7822 1.1865 1.1332 0 2.0769-.3882 2.8221-1.1685.7494-.7762 1.1249-1.797 1.1249-3.0598 0-1.2357-.3755-2.2343-1.1249-3.0023-.7452-.7623-1.6939-1.1455-2.8362-1.1455zm3.7983-2.9178h3.6038v14.2109h-3.6038v-1.5123c-.7045.6606-1.414 1.1332-2.1226 1.4228-.7087.2905-1.4813.4382-2.3079.4382-1.8651 0-3.4726-.7098-4.8317-2.1326-1.3592-1.4187-2.0371-3.1845-2.0371-5.2941 0-2.19.6597-3.9837 1.9739-5.3843 1.3143-1.3958 2.9085-2.0957 4.7869-2.0957.8665 0 1.6748.1608 2.4341.4776.7585.3159 1.458.7975 2.1044 1.431z"/><path d="m67.7026 12.9207h3.6031v1.6591c.6189-.6728 1.3051-1.1767 2.0644-1.5065.7535-.3356 1.5801-.5005 2.474-.5005.8989 0 1.7164.219 2.4391.6564.727.4365 1.3093 1.079 1.7521 1.9176.5733-.8386 1.2777-1.4811 2.1135-1.9176.8357-.4374 1.7521-.6564 2.7407-.6564 1.0251 0 1.9282.2363 2.7049.7056.7818.4677 1.3367 1.0831 1.6798 1.8372.339.7582.511 1.989.511 3.6932v8.3219h-3.6039v-7.1805c0-1.6058-.2027-2.6938-.6139-3.26-.4113-.567-1.0302-.8517-1.8476-.8517-.6273 0-1.1872.174-1.6798.521-.496.3438-.8674.8255-1.1066 1.436-.2385.6121-.3606 1.5926-.3606 2.949v6.3862h-3.6038v-6.8547c0-1.267-.0947-2.1851-.2891-2.7521-.1894-.5711-.4786-.9904-.8582-1.271-.383-.2766-.8491-.4144-1.3907-.4144-.6048 0-1.1556.174-1.6482.526-.4968.352-.8624.8435-1.1108 1.4761-.2442.6335-.3663 1.632-.3663 2.9933v6.2968h-3.6031z"/><path d="m100.044 15.8344c-1.12 0-2.0512.3881-2.7865 1.1685-.741.7762-1.1107 1.7748-1.1107 2.9925 0 1.2267.3747 2.2351 1.129 3.0286.7527.7901 1.679 1.1865 2.7812 1.1865 1.134 0 2.077-.3881 2.823-1.1685.749-.7762 1.125-1.797 1.125-3.0598 0-1.2357-.376-2.2343-1.125-3.0023-.746-.7623-1.694-1.1455-2.836-1.1455zm3.796-2.9178h3.604v14.2109h-3.604v-1.5123c-.703.6606-1.413 1.1332-2.121 1.4228-.71.2905-1.481.4382-2.3081.4382-1.8643 0-3.4718-.7098-4.8317-2.1326-1.3583-1.4187-2.0362-3.1845-2.0362-5.2941 0-2.19.6588-3.9837 1.973-5.3843 1.3143-1.3958 2.9093-2.0957 4.786-2.0957.868 0 1.677.1608 2.434.4776.759.3159 1.459.7975 2.104 1.431z"/><path d="m111.086 12.9207h3.604v1.463c.816-.6778 1.563-1.1455 2.227-1.413.663-.2642 1.345-.3979 2.041-.3979 1.425 0 2.641.4906 3.634 1.472.835.8386 1.256 2.0735 1.256 3.7072v9.3787h-3.576v-6.2123c0-1.6944-.078-2.8185-.231-3.3724-.153-.5571-.424-.9813-.804-1.271-.383-.2904-.859-.4365-1.418-.4365-.73 0-1.358.2404-1.883.7221-.524.4816-.886 1.1512-1.089 1.998-.104.4463-.157 1.4047-.157 2.8817v5.6904h-3.604z"/><path d="m127.348 12.9174h3.657v6.8334c0 1.3293.094 2.2524.28 2.7694.186.5177.482.919.894 1.2094.412.2848.921.4275 1.522.4275s1.115-.1427 1.536-.4234c.42-.2806.731-.6958.934-1.2439.15-.4103.226-1.285.226-2.6224v-6.95h3.603v6.0129c0 2.4797-.198 4.1749-.595 5.089-.483 1.1151-1.203 1.9668-2.145 2.5642-.944.594-2.145.8927-3.6.8927-1.581 0-2.853-.3487-3.83-1.0437-.975-.6958-1.662-1.6641-2.059-2.908-.284-.8608-.423-2.4263-.423-4.6968z"/></g></svg>