<svg viewBox="70 70 200 200" xmlns="http://www.w3.org/2000/svg" xmlns:xlink="http://www.w3.org/1999/xlink"><clipPath id="a"><path d="m0 250h250v-250h-250z"/></clipPath><g transform="matrix(1.3333333 0 0 -1.3333333 0 333.33333)"><path d="m0 0h250v250h-250z" fill="none"/><path d="m0 0h4.337v-6.392h2.577v-3.751h-2.577v-13.567h-4.337v13.567h-2.218v3.751h2.218z" fill="#326699" transform="translate(67.2178 94.7158)"/><g clip-path="url(#a)"><g fill="#326699"><path d="m0 0c-1.348 0-2.468-.473-3.354-1.424-.891-.946-1.337-2.163-1.337-3.647 0-1.495.451-2.724 1.359-3.691.908-.963 2.022-1.446 3.349-1.446 1.364 0 2.5.473 3.397 1.424.902.946 1.354 2.19 1.354 3.729 0 1.506-.452 2.723-1.354 3.659-.897.929-2.039 1.396-3.414 1.396m4.572 3.556h4.338v-17.319h-4.338v1.843c-.848-.805-1.702-1.381-2.555-1.734-.853-.354-1.783-.534-2.778-.534-2.245 0-4.18.865-5.816 2.599-1.636 1.729-2.452 3.881-2.452 6.452 0 2.669.794 4.855 2.376 6.562 1.582 1.701 3.501 2.554 5.762 2.554 1.043 0 2.016-.196 2.93-.582.913-.385 1.755-.972 2.533-1.744z" transform="translate(84.7207 84.7686)"/><path d="m0 0h4.337v-2.022c.745.82 1.571 1.434 2.485 1.836.907.409 1.902.61 2.978.61 1.082 0 2.066-.267 2.936-.8.875-.532 1.576-1.315 2.109-2.337.69 1.022 1.538 1.805 2.544 2.337 1.006.533 2.109.8 3.299.8 1.234 0 2.321-.288 3.256-.86.941-.57 1.609-1.32 2.022-2.239.408-.924.615-2.424.615-4.501v-10.142h-4.338v8.751c0 1.957-.244 3.283-.739 3.973-.495.691-1.24 1.038-2.224 1.038-.755 0-1.429-.212-2.022-.635-.597-.419-1.044-1.006-1.332-1.75-.287-.746-.434-1.941-.434-3.594v-7.783h-4.338v8.354c0 1.544-.114 2.663-.348 3.354-.228.696-.576 1.207-1.033 1.549-.461.337-1.022.505-1.674.505-.728 0-1.391-.212-1.984-.641-.598-.429-1.038-1.028-1.337-1.799-.294-.772-.441-1.989-.441-3.648v-7.674h-4.337z" transform="translate(97.9736 88.3242)"/><path d="m0 0c-1.348 0-2.469-.473-3.354-1.424-.892-.946-1.337-2.163-1.337-3.647 0-1.495.451-2.724 1.359-3.691.906-.963 2.021-1.446 3.348-1.446 1.365 0 2.5.473 3.398 1.424.902.946 1.354 2.19 1.354 3.729 0 1.506-.452 2.723-1.354 3.659-.898.929-2.039 1.396-3.414 1.396m4.57 3.556h4.338v-17.319h-4.338v1.843c-.847-.805-1.701-1.381-2.554-1.734-.854-.354-1.782-.534-2.778-.534-2.244 0-4.179.865-5.816 2.599-1.635 1.729-2.451 3.881-2.451 6.452 0 2.669.793 4.855 2.375 6.562 1.582 1.701 3.502 2.554 5.761 2.554 1.045 0 2.018-.196 2.93-.582.914-.385 1.756-.972 2.533-1.744z" transform="translate(136.9102 84.7686)"/><path d="m0 0h4.338v-1.783c.982.826 1.881 1.396 2.68 1.722.798.322 1.619.485 2.457.485 1.716 0 3.179-.598 4.375-1.794 1.005-1.022 1.511-2.527 1.511-4.518v-11.43h-4.304v7.571c0 2.065-.094 3.435-.278 4.11-.185.679-.511 1.196-.968 1.549-.461.354-1.034.532-1.707.532-.879 0-1.635-.293-2.266-.88s-1.067-1.403-1.311-2.435c-.125-.544-.189-1.712-.189-3.512v-6.935h-4.338z" transform="translate(150.1953 88.3242)"/><path d="m0 0h4.402v-8.328c0-1.62.114-2.745.338-3.375.223-.631.58-1.12 1.076-1.474.495-.347 1.108-.521 1.832-.521.723 0 1.342.174 1.848.516s.881.848 1.125 1.516c.18.5.272 1.566.272 3.196v8.47h4.337v-7.328c0-3.022-.238-5.088-.716-6.202-.582-1.359-1.448-2.397-2.582-3.125-1.137-.724-2.582-1.088-4.334-1.088-1.903 0-3.434.425-4.61 1.272-1.174.848-2 2.028-2.478 3.544-.342 1.049-.51 2.957-.51 5.724z" transform="translate(169.7695 88.3242)"/></g><path d="m0 0c0-5.18 1.988-10.453 5.773-14.714 3.399-3.827 7.336-7.622 11.273-11.418l2.528-2.44 2.529 2.44c3.936 3.796 7.873 7.591 11.272 11.418 3.785 4.261 5.773 9.535 5.773 14.714 0 4.895-1.803 9.719-5.578 13.494-3.863 3.864-8.93 5.797-13.996 5.797s-10.132-1.933-13.996-5.797c-3.774-3.775-5.578-8.599-5.578-13.494m19.574-35.577c-5.845 5.847-12.344 11.692-17.536 17.537-9.097 10.24-9.686 25.389 0 35.074 9.685 9.685 25.387 9.685 35.073 0 9.685-9.685 9.096-24.833 0-35.074-5.194-5.845-11.692-11.69-17.537-17.537" fill="#fc0" fill-rule="evenodd" transform="translate(105.0103 155.1196)"/><path d="m0 0h7.304v-7.304h7.305v-7.304h-7.305v-7.304h-7.304v7.304h-7.304v7.304h7.304z" fill="#326699" fill-rule="evenodd" transform="translate(120.9321 165.6392)"/><path d="m0 0-2.441 2.771c2.082-.084 4.023 1.713 6.058.104 3.022-2.39 6.182-4.102 13.082-5.349 1.141-.206-.631-1.573-6.402-1.105-4.854.393.387-1.031-5.715-.466-2.121.197-.986-.296 2.891-1.028 1.943-.367 1.257-2.065-9.303-1.412-7.164.442-8.52.195-17.927-.202-3.159-.133-8.199 1.276-2.956 2.335 2.889.583-7.039 1.203-7.039 1.988 0 .807 4.89 1.814 7.065 2.473 4.097 1.242 7.485 3.119 9.019 4.301 5.442 4.194 6.703-.932 13.668-4.41" fill="#326699" fill-rule="evenodd" transform="translate(130.9473 109.2871)"/><path d="m0 0c4.381-1.191 6.92-2.606 6.92-4.124 0-4.241-19.807-7.678-44.238-7.678-24.432 0-44.238 3.437-44.238 7.678 0 1.518 2.54 2.933 6.92 4.124-2.218-.815-3.453-1.717-3.453-2.665 0-3.65 18.254-6.609 40.771-6.609s40.771 2.959 40.771 6.609c-0 .948-1.234 1.85-3.453 2.665" fill="#fc0" fill-rule="evenodd" transform="translate(161.9023 105.8105)"/><path d="m0 0c3.504-.79 5.535-1.728 5.535-2.733 0-2.81-15.846-5.088-35.392-5.088s-35.393 2.278-35.393 5.088c0 1.005 2.032 1.943 5.537 2.733-1.775-.541-2.763-1.138-2.763-1.767 0-2.419 14.604-4.379 32.619-4.379s32.619 1.96 32.619 4.379c-0 .629-.989 1.226-2.762 1.767" fill="#fc0" fill-rule="evenodd" transform="translate(154.4414 106.2725)"/></g></g></svg>