<svg width="20" height="20" viewBox="0 0 20 20" fill="none" xmlns="http://www.w3.org/2000/svg"><path d="M16.6117 3.38697C15.0817 1.85705 13.0685 0.904966 10.9152 0.692954C8.76194 0.480941 6.60175 1.02211 4.80273 2.22427C3.00371 3.42642 1.67717 5.21516 1.04915 7.28573C0.421132 9.35629 0.530482 11.5805 1.35857 13.5795C2.18666 15.5785 3.68225 17.2285 5.59051 18.2484C7.49877 19.2683 9.70163 19.595 11.8237 19.1728C13.9459 18.7506 15.8559 17.6056 17.2285 15.933C18.6011 14.2604 19.3512 12.1636 19.3512 9.99985C19.3532 8.7714 19.1122 7.55468 18.642 6.41976C18.1719 5.28483 17.4819 4.25412 16.6117 3.38697Z" fill="color(display-p3 1.0000 0.8000 0.1412)" fill-opacity="1"/><path d="M17.0704 2.92829C15.4344 1.29254 13.2817 0.274662 10.9793 0.0480875C8.67695 -0.178487 6.36722 0.400261 4.44369 1.68572C2.52016 2.97118 1.10185 4.88382 0.430415 7.09776C-0.241024 9.3117 -0.124048 11.69 0.761412 13.8273C1.64687 15.9647 3.24603 17.7289 5.28642 18.8194C7.32681 19.9099 9.68219 20.2592 11.9512 19.8078C14.2203 19.3563 16.2626 18.1321 17.7303 16.3437C19.1979 14.5553 20 12.3134 20 9.99985C20.0015 8.68627 19.7435 7.38533 19.2408 6.17176C18.738 4.9582 18.0005 3.85594 17.0704 2.92829ZM16.6094 16.6139C15.0794 18.1438 13.0663 19.0958 10.9131 19.3079C8.75983 19.5199 6.59968 18.9788 4.80066 17.7767C3.00164 16.5747 1.67507 14.786 1.04697 12.7155C0.418871 10.6451 0.528098 8.42084 1.35604 6.42186C2.18399 4.42288 3.67943 2.77281 5.58757 1.75279C7.49571 0.732774 9.69849 0.405919 11.8206 0.827915C13.9427 1.24991 15.8528 2.39465 17.2256 4.06709C18.5983 5.73953 19.3487 7.83619 19.3488 9.99985C19.3511 11.2283 19.1105 12.4451 18.6407 13.5802C18.171 14.7153 17.4814 15.7463 16.6117 16.6139H16.6094ZM9.49406 2.45578C9.50027 2.46394 9.50471 2.4733 9.50709 2.48328C9.50947 2.49325 9.50975 2.5036 9.50791 2.51369C9.50607 2.52378 9.50214 2.53337 9.49638 2.54185C9.49063 2.55033 9.48316 2.55752 9.47447 2.56296C9.46525 2.56987 8.47182 3.236 8.14798 3.5391C7.68882 3.93279 7.38553 4.47766 7.29284 5.07534C7.28814 5.09589 7.27569 5.11383 7.25808 5.12543C7.24048 5.13702 7.21907 5.14137 7.19834 5.13758C7.18815 5.13617 7.17835 5.13275 7.1695 5.1275C7.16065 5.12225 7.15294 5.11529 7.14682 5.10703C7.14071 5.09876 7.1363 5.08935 7.13387 5.07936C7.13143 5.06937 7.13102 5.05899 7.13265 5.04884C7.22934 4.41784 7.54861 3.84226 8.03273 3.42616C8.36579 3.11384 9.33848 2.46154 9.37997 2.43388C9.39831 2.4227 9.42015 2.41876 9.44124 2.4228C9.46233 2.42685 9.48116 2.43861 9.49406 2.45578ZM12.8766 5.05345C12.8792 5.07404 12.8737 5.09484 12.8612 5.11143C12.8487 5.12801 12.8302 5.13905 12.8097 5.14219C12.789 5.14598 12.7676 5.14163 12.75 5.13004C12.7324 5.11844 12.7199 5.1005 12.7152 5.07995C12.6236 4.48061 12.3202 3.93395 11.8601 3.5391C11.5374 3.236 10.544 2.56987 10.5336 2.56296C10.5248 2.55755 10.5174 2.55035 10.5116 2.54182C10.5059 2.5333 10.502 2.52365 10.5002 2.51352C10.4985 2.50339 10.4989 2.493 10.5015 2.48305C10.5041 2.47309 10.5087 2.4638 10.5152 2.45578C10.5286 2.43881 10.548 2.42759 10.5694 2.42438C10.5908 2.42117 10.6126 2.42622 10.6304 2.43849C10.6719 2.46615 11.6446 3.11845 11.9776 3.43077C12.4609 3.84738 12.7797 4.42278 12.8766 5.05345ZM13.9852 10.5081C13.8804 8.72983 13.7813 7.05068 13.719 6.20937C13.6937 5.86363 13.6706 5.52711 13.6234 5.20327C13.5645 4.70756 13.4078 4.22848 13.1624 3.7938C12.8457 3.27805 12.4191 2.83851 11.9131 2.50649L11.0545 1.90144C10.9024 1.79426 10.7848 1.71013 10.6892 1.64444C10.5778 1.56265 10.4594 1.49091 10.3354 1.43008C10.2764 1.40384 10.2145 1.38487 10.151 1.37361C10.0988 1.36532 10.0459 1.36146 9.99308 1.36208C9.96542 1.36208 9.932 1.36208 9.89397 1.36208C9.82081 1.36921 9.74902 1.38667 9.68076 1.41395C9.5756 1.45933 9.47555 1.51574 9.38227 1.58221C9.26703 1.65596 9.13219 1.75508 8.93396 1.89568L8.07652 2.49957C7.73031 2.73857 7.41821 3.02354 7.14878 3.34664C6.81509 3.74727 6.5809 4.22116 6.46537 4.7296C6.36272 5.21886 6.30027 5.71569 6.27867 6.21514C6.21759 7.05644 6.11732 8.73559 6.01245 10.5139L5.78195 14.234C5.77734 14.3109 5.77504 14.3877 5.77504 14.4645C5.77392 14.9764 5.8923 15.4816 6.12078 15.9397C6.44212 16.5498 6.89955 17.0778 7.45765 17.4828C7.92625 17.8275 8.42057 18.1357 8.93627 18.4048C9.10568 18.4993 9.2555 18.5811 9.36844 18.6503C9.42491 18.6849 9.47217 18.7148 9.50789 18.7402C9.54362 18.7655 9.56436 18.7863 9.57128 18.792C9.63073 18.8553 9.70358 18.9046 9.78448 18.9361C9.893 18.9782 10.0116 18.9872 10.1252 18.962C10.2388 18.9368 10.3425 18.8784 10.423 18.7943C10.443 18.7758 10.4641 18.7584 10.4863 18.7425C10.5394 18.7056 10.6189 18.6561 10.7168 18.5984C10.8148 18.5408 10.93 18.4832 11.0626 18.4071C11.3415 18.2538 11.6757 18.0694 12.0203 17.847C12.5864 17.4992 13.0881 17.0563 13.5035 16.5378C13.7219 16.2544 13.8963 15.9397 14.021 15.6043C14.1533 15.2385 14.2204 14.8524 14.2192 14.4634C14.2192 14.3885 14.2192 14.3124 14.2123 14.2329L13.9852 10.5081ZM10.2605 17.1336L10.1325 17.2062C10.0681 16.9787 10.0363 16.7432 10.038 16.5067C10.0377 16.4965 10.0335 16.4868 10.0262 16.4797C10.0188 16.4726 10.009 16.4687 9.99884 16.4687C9.98863 16.468 9.97858 16.4714 9.97083 16.4781C9.96307 16.4848 9.95824 16.4942 9.95736 16.5044C9.94026 16.7379 9.90169 16.9694 9.84211 17.1959L9.73493 17.1348C9.47793 16.993 9.19672 16.8375 8.92013 16.6623C8.50369 16.4124 8.1311 16.0959 7.81722 15.7253C7.67262 15.5491 7.55601 15.3516 7.47148 15.1399C7.38661 14.9193 7.34362 14.6848 7.3447 14.4484V14.2651L7.59594 14.2536L7.66394 12.6563C7.60747 12.6563 7.52679 12.6563 7.44151 12.6644L7.56598 10.5899C7.64435 9.28417 7.7181 8.03258 7.77688 7.1325L7.96819 7.11406C7.96819 6.84554 8.07767 5.27011 8.07767 5.27011C8.03024 5.27114 7.9829 5.27499 7.93592 5.28164C7.95612 5.15952 7.98345 5.03869 8.01775 4.91976C8.0834 4.69356 8.1909 4.48168 8.33468 4.29512C8.52947 4.06091 8.75875 3.85767 9.01463 3.69238L9.28892 3.49992C9.47364 3.67898 9.62918 3.88586 9.74991 4.11303C9.66841 4.14779 9.59864 4.20529 9.54898 4.27867C9.49931 4.35205 9.47184 4.43818 9.46986 4.52677V5.41532C9.01502 5.43299 8.56094 5.46834 8.10764 5.52135L8.03158 6.87204C9.3306 6.68539 10.6492 6.6788 11.95 6.85245C11.958 6.85245 11.8785 5.50521 11.8658 5.50406C11.4106 5.45335 10.9542 5.42339 10.4979 5.41071V4.52216C10.4959 4.43817 10.4711 4.3563 10.426 4.28542C10.3809 4.21453 10.3173 4.15731 10.242 4.11995C10.3632 3.88814 10.5208 3.67726 10.7088 3.49531L10.9819 3.69238C11.212 3.84555 11.4206 4.02889 11.6019 4.2375C11.7054 4.35827 11.7923 4.49239 11.8601 4.63625C11.955 4.84348 12.0202 5.06308 12.0537 5.28855C12.0044 5.28192 11.9548 5.27807 11.905 5.27703C11.905 5.27703 12.0134 6.849 12.0134 7.12098C12.0134 7.12098 12.0998 7.1302 12.215 7.13942C12.2715 8.04065 12.3464 9.29223 12.4236 10.5968L12.5493 12.6713C12.4628 12.6713 12.3833 12.6632 12.3257 12.6632L12.3937 14.2605L12.6449 14.2721V14.4553C12.6456 14.766 12.5705 15.0722 12.4259 15.3473C12.1921 15.7591 11.8692 16.1135 11.4809 16.3845C11.0918 16.663 10.684 16.9145 10.2605 17.1371V17.1336ZM10.68 18.0879C10.6794 18.0825 10.6777 18.0774 10.6749 18.0728C10.6721 18.0682 10.6683 18.0643 10.6638 18.0614C10.6116 18.0225 10.5633 17.9784 10.5198 17.93C11.0718 17.6879 11.5917 17.3782 12.0675 17.008C13.0932 16.2013 13.5992 15.2724 13.5289 14.317C13.5268 14.2961 13.5166 14.2768 13.5004 14.2634C13.4842 14.2501 13.4634 14.2436 13.4424 14.2455C13.4321 14.2457 13.4219 14.2479 13.4124 14.2521C13.403 14.2562 13.3944 14.2623 13.3873 14.2698C13.3802 14.2773 13.3747 14.2862 13.3711 14.2959C13.3675 14.3056 13.3659 14.3159 13.3664 14.3262C13.5266 16.5228 10.4564 17.7836 10.4253 17.7998H10.4183C10.376 17.7432 10.3375 17.684 10.3031 17.6223L10.5036 17.507C11.5535 16.9308 13.1232 16.0618 13.1232 14.4369C13.1232 14.3838 13.1232 14.3297 13.1232 14.2755V14.2582C13.1232 14.2525 13.1232 14.2444 13.1232 14.2352C13.1105 14.0151 13.0448 12.9444 13.0298 12.6863L12.9008 10.5519C12.8259 9.27495 12.7533 8.04987 12.6956 7.15209C12.6737 6.80635 12.653 6.5021 12.6357 6.2693C12.5377 4.91169 12.4824 4.16374 11.2689 3.31667L10.4057 2.70932C10.242 2.59408 10.0991 2.49151 10.0012 2.42581C9.90319 2.49151 9.76144 2.59292 9.59663 2.70932L8.73343 3.31667C7.82067 3.95399 7.56367 4.53484 7.44958 5.36116H7.44151C7.4346 5.4061 7.41731 5.61931 7.39541 5.88323C7.39541 5.92702 7.3885 5.97312 7.38504 6.01922C7.3447 6.53091 7.2986 7.14979 7.2986 7.14979H7.30667C7.2502 8.04756 7.17759 9.27264 7.10153 10.5496L6.97361 12.684C6.97361 12.7151 6.97361 12.7589 6.96554 12.8119L6.87795 14.2559V14.264C6.87768 14.2671 6.87768 14.2701 6.87795 14.2732C6.87795 14.3274 6.87795 14.3815 6.87795 14.4346C6.87795 16.0595 8.44762 16.925 9.49752 17.5047L9.69575 17.6142C9.66801 17.6729 9.63604 17.7296 9.60009 17.7836C9.41224 17.7053 6.51262 16.4502 6.66935 14.3147C6.66982 14.3044 6.6682 14.294 6.6646 14.2844C6.661 14.2747 6.65549 14.2658 6.6484 14.2583C6.6413 14.2507 6.63277 14.2447 6.6233 14.2406C6.61384 14.2364 6.60363 14.2342 6.59329 14.234C6.5829 14.2329 6.57239 14.2339 6.56239 14.2369C6.55238 14.2399 6.54308 14.2449 6.53502 14.2515C6.52697 14.2582 6.52033 14.2664 6.51549 14.2757C6.51066 14.2849 6.50772 14.2951 6.50686 14.3055C6.43656 15.2609 6.94134 16.1921 7.96819 16.9965C8.44001 17.3624 8.95475 17.6693 9.50098 17.9104C9.45447 17.9637 9.40005 18.0096 9.33963 18.0464C9.33482 18.0494 9.33076 18.0534 9.32776 18.0582C9.32477 18.063 9.32291 18.0684 9.32234 18.0741C8.20675 17.4552 6.13691 16.4041 6.27175 14.2398C6.455 11.2872 6.65898 7.62691 6.76155 6.22666C6.86412 4.82641 6.9448 3.85027 8.37501 2.85338C9.80523 1.85649 9.81791 1.79887 10.0081 1.79887C10.1982 1.79887 10.2121 1.85649 11.6411 2.85338C13.0702 3.85027 13.1416 4.84485 13.2442 6.24049C13.3468 7.63613 13.5508 11.301 13.734 14.2536C13.8688 16.418 11.799 17.469 10.6846 18.0879H10.68ZM10.4933 13.8998C10.4933 13.8998 10.4933 13.9079 10.4933 13.9102V15.5006C10.489 15.6265 10.4352 15.7457 10.3434 15.8321C10.2516 15.9184 10.1294 15.965 10.0035 15.9616H9.95275C9.82677 15.965 9.70457 15.9184 9.6128 15.8321C9.52103 15.7457 9.46716 15.6265 9.46295 15.5006V13.9056C8.85905 13.9171 8.25554 13.9451 7.65241 13.9897L7.70658 12.9098C9.2285 12.8148 10.7547 12.809 12.2773 12.8925L12.3176 13.9678C11.7145 13.9286 11.1079 13.906 10.4979 13.8998H10.4933ZM7.9025 7.70874V7.68569L7.92555 7.69491C8.14776 7.77312 8.39066 7.76903 8.61012 7.68338L8.56517 7.58773L8.73113 7.2731L8.74957 7.24199L8.77607 7.28924L8.90284 7.55776C8.97214 7.52099 9.03946 7.48059 9.10453 7.43675L9.12297 7.42293L9.13449 7.44136C9.3961 7.84358 9.43068 8.06946 9.43183 8.07868V8.09597H9.41339C9.33544 8.10988 9.25845 8.12874 9.18289 8.15244L9.30621 8.41751C9.62783 8.08169 9.84796 7.6618 9.94122 7.20626C9.94122 7.20626 9.94122 7.20626 9.94122 7.19935C9.94531 7.19785 9.94981 7.19785 9.9539 7.19935C9.95805 7.19822 9.96242 7.19822 9.96658 7.19935C9.96658 7.19935 9.96658 7.19935 9.96658 7.20626C10.062 7.69227 10.3032 8.13769 10.6581 8.4832C10.6938 8.41059 10.7214 8.35297 10.7376 8.31494C10.854 7.99521 10.8645 7.64651 10.7675 7.32036L10.7606 7.29846H10.7848C11.0389 7.26793 11.2965 7.31071 11.527 7.42177C11.7514 7.53002 11.9378 7.70357 12.0618 7.91964L12.0733 7.94038L12.0491 7.9473C11.7147 8.0591 11.4206 8.26669 11.2032 8.54428C11.1686 8.59268 11.1156 8.67912 11.0476 8.79436C11.22 8.90673 11.4079 8.99331 11.6054 9.05137C11.6095 9.05312 11.6129 9.05643 11.6146 9.06059C11.6144 9.06609 11.6124 9.07137 11.6088 9.07557C10.8021 9.76705 10.5659 10.5115 10.5186 11.0348L11.0948 12.2679L10.8862 12.4984L10.8678 12.5215L10.8378 12.4707L10.6073 11.9832C10.4921 12.1965 10.2674 12.4604 9.89858 12.4604C9.52979 12.4604 9.29584 12.1803 9.17944 11.9648C8.95816 12.2956 8.82102 12.45 8.75763 12.42C8.65276 12.3693 8.87288 11.8622 9.36844 10.8953C9.21862 9.76935 8.28627 9.08709 8.27475 9.07903C8.2723 9.07736 8.27029 9.07513 8.26888 9.07252C8.26748 9.06991 8.26672 9.067 8.26668 9.06404C8.26847 9.05963 8.27173 9.05597 8.2759 9.05367C8.55082 8.96251 8.80809 8.82491 9.03653 8.64685L8.86596 8.28036C8.65845 8.37844 8.49433 8.54952 8.40498 8.76094L8.39806 8.7863L8.37386 8.77247C8.1973 8.66348 8.05808 8.50335 7.97471 8.31334C7.89134 8.12334 7.86776 7.91246 7.90711 7.70874H7.9025Z" fill="color(display-p3 0.1843 0.2627 0.3451)" fill-opacity="1"/></svg>