<svg fill="none" height="315" viewBox="0 0 1042 315" width="1042" xmlns="http://www.w3.org/2000/svg"><g opacity=".7"><path d="m46.2128 311.196c-1.6504 0-4.4597-20.118-4.7406-21.768-8.1821-48.556-8.1119-101.782 11.6585-147.634 13.4144-31.107 37.1177-55.8943 65.4913-74.0458 31.394-20.0474 67.564-28.6491 104.471-30.2993 42.455-1.8959 84.594 4.1078 126.944 5.8984 43.369 1.8608 86.281-4.6695 128.631-13.3766 37.679-7.7241 75.148-16.7471 113.249-22.43482 37.223-5.75791 75.991-9.40927 113.636-6.53032 30.726 2.35232 60.154 11.09454 86.139 27.80654 24.02 15.448 44.001 36.6891 69.32 50.136 14.011 7.4431 29.286 12.0073 45.054 13.7277 15.064 1.6501 29.989.7373 44.878 4.3535 23.317 5.6527 43.965 18.9237 59.066 37.4967 29.46 36.162 38.07 88.089 27.81 132.923-3.55 15.484-9.55 30.581-18.61 43.711z" fill="#ebf3fa"/><path d="m316.15 40.7842v270.4108h-301.7524s-42.6661-139.559 42.6661-214.9734c76.5533-67.6554 161.5343-61.9677 259.0863-55.4374z" fill="#dceaff"/><path d="m227.517 93.6235h30.446c1.404 0 2.528 1.1235 2.528 2.5279v29.3866c0 1.404-1.124 2.528-2.528 2.528h-30.446c-1.405 0-2.528-1.124-2.528-2.528v-29.3866c0-1.4044 1.159-2.5279 2.528-2.5279z" fill="#9fc1f4"/><path d="m228.852 95.1333h27.812c1.299 0 2.317 1.0533 2.317 2.3172v26.8235c0 1.299-1.053 2.317-2.317 2.317h-27.812c-1.3 0-2.318-1.053-2.318-2.317v-26.8235c0-1.299 1.053-2.3172 2.318-2.3172z" fill="#f0f6ff"/><path d="m242.02 98.2583c0-.4213.316-.7373.737-.7373.422 0 .738.316.738.7373s-.316.7373-.738.7373c-.421 0-.737-.316-.737-.7373z" fill="#9fc1f4"/><path d="m247.955 99.3115c.21-.3511.632-.4915.983-.2809.351.2107.492.632.281 1.0184-.211.351-.632.491-.983.281-.352-.211-.492-.6674-.281-1.0185z" fill="#9fc1f4"/><path d="m253.046 103.349c.352-.211.808-.14 1.019.211s.105.807-.211 1.018c-.316.21-.807.14-1.018-.211s-.141-.807.21-1.018z" fill="#9fc1f4"/><path d="m255.575 109.599c.421 0 .737.316.737.737s-.316.737-.737.737c-.422 0-.738-.316-.738-.737s.316-.737.738-.737z" fill="#9fc1f4"/><path d="m254.276 116.866c.281.281.281.737 0 1.053-.281.281-.738.281-1.054 0s-.281-.737 0-1.053c.316-.316.773-.316 1.054 0z" fill="#9fc1f4"/><path d="m249.64 121.501c.281.281.281.737 0 1.053-.281.281-.737.281-1.053 0s-.281-.737 0-1.053c.316-.316.772-.316 1.053 0z" fill="#9fc1f4"/><path d="m242.02 123.853c0-.422.316-.738.737-.738.422 0 .738.316.738.738 0 .421-.316.737-.738.737-.421 0-.737-.316-.737-.737z" fill="#9fc1f4"/><path d="m237.525 99.3115c-.21-.3511-.632-.4915-.983-.2809-.351.2107-.492.632-.281 1.0184.211.351.632.491.983.281.352-.211.492-.6674.281-1.0185z" fill="#9fc1f4"/><path d="m232.433 103.349c-.351-.211-.807-.14-1.018.211s-.105.807.211 1.018c.316.21.807.14 1.018-.211s.141-.807-.211-1.018z" fill="#9fc1f4"/><path d="m229.94 109.599c-.421 0-.737.316-.737.737s.316.737.737.737.738-.316.738-.737-.352-.737-.738-.737z" fill="#9fc1f4"/><path d="m231.204 116.866c-.281.281-.281.737 0 1.053.281.281.738.281 1.054 0s.281-.737 0-1.053-.773-.316-1.054 0z" fill="#9fc1f4"/><path d="m235.84 121.501c-.281.281-.281.737 0 1.053.281.281.737.281 1.053 0s.281-.737 0-1.053c-.316-.316-.772-.316-1.053 0z" fill="#9fc1f4"/><path d="m242.547 110.336c0-.421.316-.737.737-.737.422 0 .738.316.738.737s-.316.737-.738.737c-.421 0-.737-.351-.737-.737z" fill="#9fc1f4"/><path d="m243.39 101.137h-.211v9.199h.211z" fill="#9fc1f4"/><path d="m247.872 106.25-4.861 3.817.369.469 4.861-3.817z" fill="#9fc1f4"/><g opacity=".7"><path d="m962.743 121.887h-103.593v189.309h103.593z" fill="#bad4f4"/><path d="m958.283 125.222h-94.603v185.974h94.603z" fill="#dfebfd"/><path d="m942.235 216.927c0-2.317 1.861-4.177 4.179-4.177s4.179 1.86 4.179 4.177c0 2.318-1.861 4.179-4.179 4.179s-4.179-1.861-4.179-4.179z" fill="#c8dbf4"/><path d="m930.647 153.415h-39.049v12.323h39.049z" fill="#fff"/><g fill="#bad4f4"><path d="m923.378 157.207h-24.546v1.263h24.546z"/><path d="m919.972 160.647h-17.699v1.264h17.699z"/><path d="m891.141 152.923v13.272h39.997v-13.272zm39.049 12.324h-38.136v-11.376h38.136z"/></g></g><path d="m515.329 121.887h-103.593v189.309h103.593z" fill="#bad4f4"/><path d="m510.869 125.222h-94.603v185.974h94.603z" fill="#dfebfd"/><path d="m494.856 216.927c0-2.317 1.861-4.178 4.179-4.178 2.317 0 4.179 1.861 4.179 4.178s-1.862 4.178-4.179 4.178c-2.318 0-4.179-1.861-4.179-4.178z" fill="#c8dbf4"/><path d="m483.233 153.415h-39.049v12.323h39.049z" fill="#fff"/><path d="m475.999 157.207h-24.546v1.263h24.546z" fill="#bad4f4"/><path d="m472.593 160.647h-17.699v1.264h17.699z" fill="#bad4f4"/><path d="m443.727 152.923v13.272h39.997v-13.272zm39.049 12.324h-38.136v-11.376h38.136z" fill="#bad4f4"/><g opacity=".7"><path d="m183.13 121.887h-103.592v189.309h103.592z" fill="#bad4f4"/><path d="m178.706 125.222h-94.603v185.974h94.603z" fill="#eef5ff"/><path d="m162.658 216.927c0-2.317 1.861-4.177 4.179-4.177 2.317 0 4.178 1.86 4.178 4.177 0 2.318-1.861 4.179-4.178 4.179-2.318 0-4.179-1.861-4.179-4.179z" fill="#c8dbf4"/></g><path d="m956.387 311.195h-9.271c.07-.491.316-1.966.738-3.335.14-.456.316-.948.526-1.334.913-1.791 6.637-.667 6.637-.667s.527.456.948 2.212c.176.772.316 1.79.422 3.124z" fill="#233862"/><path d="m939.356 169.565s-7.375 1.299-9.06 5.653c-1.686 4.353-11.097 74.817-11.097 74.817s4.67 3.687 14.714 2.388c10.008-1.334 5.443-82.858 5.443-82.858z" fill="#aec3ff"/><path d="m928.364 308.281c-.035 1.264-.175 2.458-.632 2.914h-18.33c.245-.667.878-1.65 2.774-1.966 2.142-.351 5.478-1.369 7.409-3.44.703-.738 1.194-1.58 1.44-2.598.878-3.827 7.129 1.158 7.129 1.158s.245 2.036.21 3.932z" fill="#233862"/><path d="m920.463 306.421c2.037.667 5.97 2.633 8.463 1.72 1.615-.597 10.605-26.613 11.167-37.988.035-.843.211-1.966.456-3.406.527-2.949 1.475-6.951 2.529-11.41 2.879-11.937 6.777-26.859 6.672-31.598-.141-7.408-22.053-1.545-22.053-1.545s-1.51 6.074-1.791 14.851c-.597 17.449-2.247 46.906-6.672 67.375-.211.842.386 1.72 1.229 2.001z" fill="#ea8b49"/><path d="m935.668 223.739 11.589 84.016s5.092 1.229 9.06.246c0 0 3.406-44.694 3.125-55.473-.281-10.813 2.423-28.895-.632-30.896s-23.142 2.107-23.142 2.107z" fill="#ffa561"/><path d="m960.285 173.427s-12.185-7.864-20.929-3.862c-1.405.632-2.985 2.423-4.109 3.687-3.16 3.475-9.341 58.772-9.341 58.772s17.523 5.934 34.379-2.001z" fill="#fff"/><path d="m938.653 169.39s-12.325 5.055-14.011 8.953c-1.685 3.897-7.093 27.736-7.093 30.509 0 2.774 9.446.632 10.956-3.897 1.264-3.756 5.513-15.237 7.76-22.54z" fill="#aec3ff"/><path d="m941.217 173.216c2.704.527 6.637-.035 9.551-1.931-1.299-3.125-1.826-5.582-2.036-7.197 0-.07-.036-.176-.036-.246-.07-.843-.07-1.404-.035-1.65h-6.953s-1.896.878-1.896 1.474v.913c0 .808-.035 1.51-.07 2.107-.141 1.966-.351 2.879-.351 2.879s-.878 3.125 1.826 3.651z" fill="#a5714e"/><path d="m939.707 166.721c5.267 1.018 8.322-1.861 9.025-2.598.105-.105.14-.175.14-.175-.07-.036-.105-.036-.175-.071-1.967-.807-6.427-.175-8.92.738 0 .772-.035 1.474-.07 2.106z" fill="#8c5c3b"/><path d="m950.452 161.069c-.948 5.055-7.479 4.915-10.324 4.599-.807-.07-1.299-.176-1.299-.176-.913-.245-1.405-1.65-1.615-3.511-.457-3.651.14-9.058.737-10.427.913-2.071 2.669-4.318 9.271-2.703 6.601 1.615 4.459 5.722 3.23 12.218z" fill="#a5714e"/><path d="m937.705 148.71c.913-1.229 2.809-2.774 4.53-3.722 3.722-2.001 8.498.071 8.498.071 5.373 2.352 6.778 6.495 3.933 12.885-3.02 6.776-5.899 6.003-5.899 6.003s.597-.386.562-2.492c0-.106 0-.211 0-.316-.036-.422.14-.878.456-1.159.667-.597.983-2.388.421-2.914-.667-.597-1.615.14-1.931.702-.281.386-.737.527-1.194.246-1.685-1.053-.597-3.16-2.177-4.459s-4.846-.211-7.234-1.229c-3.125-1.123-.632-2.668.035-3.616z" fill="#233862"/><path d="m936.968 255.197c1.053.28 2.107.491 3.16.667.913.175 1.826.281 2.774.351 5.233.456 10.465-.281 16.575-2.037 1.37-.386 2.809-.842 4.284-1.334.141-.07-.386-16.22-1.053-32.932-.07-1.721-.141-3.441-.211-5.161-.035-.738-.07-1.44-.07-2.177-.597-14.746-1.159-28.087-1.299-28.825-.281-1.615-.527-3.019-.843-4.213-.843-3.511-1.861-5.407-4.144-7.057-.211-.175-2.037-1.088-3.617-1.861-1.334-.667-2.493-1.228-2.493-1.228-.527.245-1.159 1.474-1.826 3.159-1.194 3.125-2.528 7.865-3.441 11.446-.597 2.282-1.019 4.108-1.124 4.599-.211.878-.457 2.528-.773 4.81-.421 3.09-.948 7.303-1.475 12.078-.07.491-.105.983-.175 1.475-.07.561-.141 1.158-.211 1.72-.035.175-.035.386-.07.562-.211 1.896-.422 3.827-.632 5.828-.176 1.65-2.669 2.808-2.845 4.494-.105.983-.316 10.006-.561 12.885-.141 2.106-.036 21.803.07 22.751z" fill="#aec3ff"/><path d="m954.947 189.718c0 .035.422 14.921-10.78 16.747s-3.758 2.282-3.758 2.282 21.105-.878 21.421-1.439c.316-.562-6.883-17.59-6.883-17.59z" fill="#9db0f4"/><path d="m945.466 212.854s.211.141.632.422h.035c1.721 1.088 6.777 4.072 14.187 6.074.773.21 1.58.421 2.388.596-.07-1.72-.141-3.44-.211-5.161.983-.07 1.896-.21 2.774-.386-.035-.246-.07-.456-.07-.667-.948-.386-1.861-.772-2.774-1.123-.738-.281-1.44-.562-2.107-.808-3.02-1.158-5.303-1.931-5.303-1.931l-8.989 2.844z" fill="#9db0f4"/><path d="m943.078 212.609s1.159.281 2.985.667h.035c3.371.667 9.095 1.65 14.187 1.58.737 0 1.475-.035 2.212-.105.983-.07 1.896-.211 2.774-.386 1.861-.387 3.406-1.054 4.425-2.107 7.585-7.724-4.144-35.39-6.602-38.058-2.879-3.16-8.112-4.249-11.026-4.635-.106 0-.246-.035-.352-.035-1.018-.105-1.685-.14-1.72-.14 0 0 .21.737.597 1.966.14.491.316 1.053.491 1.65 1.791 5.828 5.197 17.274 6.707 23.699.562 2.352.843 4.037.703 4.564-.597 2.212-6.707 3.335-10.57 3.827-1.616.21-2.845.316-3.125.316-.036 0-.036 0-.071 0l-.21.913-.527 2.211-.527 2.177z" fill="#aec3ff"/><path d="m921.973 225.88 26.021-1.124-5.303-32.37-25.985 1.088z" fill="#233862"/><path d="m944.834 205.446s-5.057-.351-5.303.808c-.597 2.739 4.354 5.021 5.935 4.845 1.58-.175.527-5.828-.632-5.653z" fill="#a5714e"/><path d="m918.11 200.04s4.846-1.51 5.373-.422c1.194 2.528-3.09 5.864-4.67 6.109-1.581.211-1.861-5.582-.703-5.687z" fill="#a5714e"/><path d="m949.504 167.774s2.142 1.019 3.196 2.528c0 0-7.972 13.833-7.936 13.693.07-.105 2.703-14.465 4.74-16.221z" fill="#9db0f4"/><path d="m939.601 167.95c-.702.281-2.036 1.65-2.352 2.387l-.948 12.043s2.036-8.848 3.055-12.85c.245-.983.21-1.299.245-1.58z" fill="#9db0f4"/><path d="m934.088 192.737s-.211-.913-1.405-.808c-1.193.106-7.83.422-7.83.422s-1.265-.035-1.159.807z" fill="#c65447"/><path d="m941.708 162.227s-.878.773-2.247.527c-.843-.141-1.299-1.229-1.299-1.229s1.58-.281 3.546.702z" fill="#fff"/><path d="m534.748 284.442-5.443-42.166c-.702-5.442 3.441-10.287 8.779-10.287h151.35c5.97 0 11.202 4.108 12.782 10.041l10.676 40.095z" fill="#ef8e4b"/><path d="m548.584 284.442-5.443-42.166c-.703-5.442 3.441-10.287 8.779-10.287h151.35c5.97 0 11.202 4.108 12.782 10.041l10.676 40.095z" fill="#f79857"/><path d="m540.542 266.923h177.161c3.195 0 5.829 2.598 5.829 5.828v11.762c0 3.195-2.598 5.828-5.829 5.828h-177.161c-3.195 0-5.829-2.598-5.829-5.828v-11.762c.035-3.195 2.634-5.828 5.829-5.828z" fill="#ef8e4b"/><path d="m576.571 266.923h154.862c6.356 0 11.553 5.161 11.553 11.551v.316c0 6.355-5.162 11.551-11.553 11.551h-154.862c-6.356 0-11.553-5.161-11.553-11.551v-.316c0-6.355 5.162-11.551 11.553-11.551z" fill="#ffa561"/><path d="m558.908 311.196c-1.124 0-2.002-1.054-1.826-2.212l2.844-18.643h5.092l-5.022 20.012c-.105.492-.561.843-1.088.843z" fill="#2e3552"/><path d="m732.873 311.196c1.124 0 2.001-1.054 1.826-2.212l-2.844-18.643h-5.092l5.021 20.012c.141.492.562.843 1.089.843z" fill="#2e3552"/><path d="m711.838 311.196c1.124 0 2.002-1.054 1.827-2.212l-2.845-18.643h-5.092l5.022 20.012c.105.492.562.843 1.088.843z" fill="#2e3552"/><path d="m540.577 311.196c-1.123 0-2.001-1.054-1.826-2.212l2.845-18.643h5.091l-5.021 20.012c-.105.492-.562.843-1.089.843z" fill="#2e3552"/><path d="m258.455 295.958h.07c.632 0 1.124-.526 1.053-1.123l-4.249-42.412-3.687.316 6.11 42.658c.035.316.351.561.703.561z" fill="#ed7d2b"/><path d="m217.579 295.958h-.07c-.632 0-1.124-.526-1.053-1.123l4.249-42.412 3.687.316-6.11 42.622c-.071.352-.351.597-.703.597z" fill="#ed7d2b"/><path d="m288.408 295.958h.071c.632 0 1.123-.526 1.053-1.123l-4.249-42.412-3.687.316 6.11 42.622c.07.352.351.597.702.597z" fill="#ed7d2b"/><path d="m218.843 246.243-7.55-37.216c-.983-5.02 3.196-9.655 8.639-9.514l14.538.351c5.022.105 9.376 3.476 10.781 8.286l11.026 38.128h-37.434z" fill="#ed7d2b"/><path d="m223.409 246.243-7.55-37.216c-.984-5.02 3.195-9.655 8.638-9.514l14.538.351c5.022.105 9.376 3.476 10.781 8.286l11.026 38.128h-37.433z" fill="#ed7d2b"/><path d="m278.471 253.02h-57.521c-1.158 0-2.106-.948-2.106-2.107v-4.669h59.627c1.158 0 2.107.948 2.107 2.106v2.598c-.036 1.159-.949 2.072-2.107 2.072z" fill="#ed7d2b"/><path d="m284.581 253.02h-36.661c-.948 0-1.686-.773-1.686-1.686v-3.405c0-.948.773-1.685 1.686-1.685h36.661c.948 0 1.685.772 1.685 1.685v3.405c.036.948-.737 1.686-1.685 1.686z" fill="#ed7d2b"/><path d="m251.466 208.01 6.111 15.448s5.899 6.951 10.605 4.704l-14.96-29.07z" fill="#abddda"/><path d="m292.974 292.939c-.176 1.72 2.212 2.141 4.951 2.317s1.931.737 5.689 1.439c3.757.703 5.302-.28 5.583-.807.246-.456-1.51-1.159-3.371-2.001-.246-.106-.456-.211-.702-.316-2.107-.948-3.266-2.844-4.881-4.635-1.545-1.685-2.95-7.022-2.95-7.022l-5.127-1.158s1.405 4.81 1.861 6.846c.281 1.194-.175 2.528-.562 3.546-.21.632-.421 1.194-.491 1.791z" fill="#ffb27d"/><path d="m297.925 295.256c2.739.176 1.931.738 5.689 1.44 3.757.702 5.302-.281 5.583-.808.246-.456-1.51-1.158-3.371-2.001l-.035.035s-2.669.878-5.724 0c-2.493-.702-4.881-2.212-6.602-2.738-.211.561-.421 1.123-.492 1.72-.175 1.72 2.213 2.177 4.952 2.352z" fill="#0f2549"/><path d="m285.213 233.604c-2.739-1.931-20.648-10.427-29.954-11.41l-10.64-3.898s-8.744 12.956-8.814 22.892c-.035 4.634 2.107 5.09 2.107 5.09s32.974.246 34.413.387c2.353.245 5.478 6.144 6.251 11.515.773 5.372 14.538 27.21 14.538 27.21s2.88.913 4.179.843c1.44-.07 2.072-.562 2.072-.562s-7.936-47.713-14.152-52.067z" fill="#8e312d"/><path d="m284.44 292.939c-.175 1.72 2.213 2.141 4.952 2.317s1.931.737 5.689 1.439c3.757.703 5.302-.28 5.583-.807.246-.456-1.51-1.159-3.371-2.001-.246-.106-.457-.211-.702-.316-2.107-.948-3.266-2.844-4.881-4.635-1.546-1.685-2.95-7.022-2.95-7.022l-5.127-1.158s1.404 4.81 1.861 6.846c.281 1.194-.176 2.528-.562 3.546-.211.632-.421 1.194-.492 1.791z" fill="#ffb27d"/><path d="m289.392 295.256c2.739.176 1.931.738 5.688 1.44 3.758.702 5.303-.281 5.584-.808.246-.456-1.51-1.158-3.371-2.001l-.035.035s-2.669.878-5.724 0c-2.494-.702-4.881-2.212-6.602-2.738-.211.561-.422 1.123-.492 1.72-.175 1.72 2.213 2.177 4.952 2.352z" fill="#233862"/><path d="m276.61 233.604c-2.388-1.685-8.428-2.458-17.172-5.301-2.107-.703-10.219-4.6-10.781-6.741l4.003-1.861-16.645-1.405s-4.214 8.146-4.284 18.082c-.035 4.634 4.074 9.9 4.074 9.9s26.477.246 27.917.387c2.353.245 5.478 6.144 6.251 11.515.772 5.372 14.538 27.21 14.538 27.21s2.879.913 4.178.843c1.44-.07 2.072-.562 2.072-.562s-7.936-47.713-14.151-52.067z" fill="#a9453d"/><path d="m251.853 164.404c-2.529-1.334-6.391-1.51-7.024-1.615-7.514-1.018-12.044 9.901-12.29 13.236-.492 6.109-3.723 7.022-8.253 10.849-9.095 7.654-6.426 16.571-1.474 19.872 2.984 2.001 8.252 0 8.252 0 .07.07 14.397-8.005 21.456-11.902 10.57-1.51 5.794-27.034-.667-30.44z" fill="#233862"/><path d="m250.272 191.087c.035 0-3.336 1.544-5.794.737-2.282-.772-4.319-4.213-4.284-4.213.983-.141 2.002-1.124 2.283-6.952l.421.106 7.409 1.86s-.28 2.353-.421 4.564c-.035 1.896-.035 3.687.386 3.898z" fill="#aa7d5f"/><path d="m250.378 182.661s0 .491-.281 2.668c-4.179-1.053-6.04-2.458-7.339-4.037z" fill="#966a4d"/><path d="m251.958 182.977s-9.797 1.58-10.675-4.529c-.913-6.109-2.774-10.006 3.441-11.305 6.216-1.264 7.761.877 8.568 2.843.808 1.967 1.159 12.429-1.334 12.991z" fill="#aa7d5f"/><path d="m251.958 166.897s-4.46 7.021-8.428 8.672c-3.968 1.65-5.899.807-5.899.807s1.791-2.738 2.282-6.425c.141-1.088.843-2.001 1.861-2.422 2.845-1.089 8.323-2.915 10.184-.632z" fill="#233862"/><path d="m248.06 167.563s2.599 1.335 3.687 2.599c1.054 1.193 2.213 4.494 2.142 5.968 0 0 1.3-7.057-1.404-9.479-2.845-2.563-4.425.912-4.425.912z" fill="#233862"/><path d="m258.103 206.008c-.28 19.907 7.024 14.325 4.846 16.221-.526.456-2.668 3.827-10.78 4.248-6.11.316-17.137-2.563-17.523-3.686-1.405-3.898-.421-5.126-1.58-11.095-.106-.632-.281-1.334-.457-2.071-.983-4.108-1.931-5.513 1.545-12.078 3.161-5.969 6.848-10.814 7.164-10.638 8.322 4.915 8.603.807 8.603.807s8.358 8.602 8.182 18.292z" fill="#fff"/><path d="m249.921 187.681s8.498 1.44 9.517 5.126c1.018 3.687 10.816 31.528 10.816 31.528s-10.465.281-12.467-1.72c-2.001-2.001-4.775-24.366-4.775-24.366z" fill="#afcdfb"/><path d="m252.204 221.491s1.264 1.615 1.685 1.826c.422.175.668.14.668.14l-.843-1.544z" fill="#ffb27d"/><path d="m251.923 219.806 3.652 1.791s-.141.245-.597.245c-.457 0-1.58-.421-1.58-.421z" fill="#966a4d"/><path d="m249.992 186.382-.071 1.299c.984 3.336 2.599 13.588 4.636 21.522l1.404-11.375-1.158-.948.421-1.615-3.793-7.268z" fill="#95b3ef"/><path d="m245.286 240.731c-13.133 4.389-18.892 1.685-18.892 1.685l2.142-12.674 1.158-6.917 2.529-14.851 4.284-14.114 3.757-2.282 3.266 16.396.878 16.115.035.773z" fill="#afcdfb"/><path d="m234.119 209.554c-.211.351-.246 7.092 6.11 8.742 6.356 1.651-9.306 3.266-9.306 3.266s-5.056-3.862-4.986-4.81c.105-.983 8.182-7.198 8.182-7.198z" fill="#95b3ef"/><path d="m244.443 224.897c-2.704 1.369-9.376 4.459-15.907 4.88l1.158-6.916 14.679 1.264z" fill="#95b3ef"/><path d="m244.935 220.614s6.005-1.334 6.988-.808c.983.527 3.336 2.493 3.652 3.16.281.667-2.177-.527-2.95-.737-.526-.141-1.896.351-2.563.561-2.845.948-4.565.457-4.565.457z" fill="#aa7d5f"/><path d="m241.318 186.874s-8.533.492-11.307 4.389c-3.933 5.477-11.764 28.895-7.269 32.019 5.056 3.511 22.965.913 22.965.913s.597-2.773-.245-4.143c-.843-1.369-14.293-3.511-14.925-4.143s7.761-12.112 7.761-13.973 3.055-15.062 3.02-15.062z" fill="#afcdfb"/><path d="m241.81 185.785 1.72 22.224-3.933-8.496.667-1.51s-1.439-2.493-1.439-2.773c0-.281.421-8.076.421-8.076z" fill="#95b3ef"/><path d="m263.09 222.615h-11.343v.738h11.343z" fill="#233862"/><path d="m298.417 217.665h-34.52l6.251-23.207h34.554z" fill="#142d5e"/><path d="m299.505 217.665h-34.519l6.286-23.207h34.519z" fill="#2b478b"/><path d="m284.792 223.282-7.234.07 5.021-15.272 7.234-.07z" fill="#142d5e"/><path d="m288.9 222.615h-15.802v.738h15.802z" fill="#142d5e"/><path d="m330.618 228.092h-195.21v83.419h195.21z" fill="#ffa561"/><path d="m336.869 223.387h-207.747v6.811h207.747z" fill="#fff"/><path d="m330.618 283.284h-195.21v13.482h195.21z" fill="#fff"/><path d="m451.523 227.881c-.281 0-.527-.14-.632-.421l-2.423-5.161h-7.972c-.386 0-.702-.316-.702-.702s.316-.702.702-.702h8.428c.281 0 .527.175.632.421l2.599 5.582c.175.351 0 .773-.351.948-.071 0-.176.035-.281.035z" fill="#233862"/><path d="m446.431 222.65h-6.145c-.597 0-1.089-.492-1.089-1.088 0-.597.492-1.089 1.089-1.089h6.145c.597 0 1.089.492 1.089 1.089-.036.631-.527 1.088-1.089 1.088z" fill="#233862"/><path d="m440.18 219.35c.211.14 3.758-.281 4.916.421 1.159.737 2.248 2.738 1.721 3.441-.527.702-2.95-1.44-3.652-1.405s-2.774-.597-2.774-.597z" fill="#7c4d2d"/><path d="m441.269 219.069s.386.632.351 1.229c0 .948-.351 1.404-.351 1.404s-4.32.351-8.955-.316c-2.563-.386-5.267-1.053-7.339-2.282-2.845-1.685-5.478-7.619-7.445-13.341-2.072-6.039-3.406-11.762-3.406-11.762.983-2.352 3.547-3.757 5.689-3.406 1.194.176 3.968 1.089 4.6 1.932.948 1.263 3.687 12.814 5.829 18.256.422 1.159 11.027 8.251 11.027 8.286z" fill="#f9ddbf"/><path d="m432.314 221.351c-2.563-.386-5.267-1.053-7.339-2.282-2.845-1.685-5.478-7.619-7.445-13.342-.035-4.108-.035-7.513-.035-7.513l4.671 1.931c.14.281 1.65 14.395 5.021 17.274 2.809 2.422 4.635 3.616 5.127 3.932z" fill="#eac3a2"/><path d="m492.222 256.847h-2.247v46.835h2.247z" fill="#233862" opacity=".2"/><g opacity=".2"><path d="m495.067 307.158c0-2.212-1.791-3.968-3.968-3.968-2.178 0-3.969 1.791-3.969 3.968s1.791 3.967 3.969 3.967c2.177 0 3.968-1.755 3.968-3.967z" fill="#233862"/><path d="m489.729 307.158c0-.773.597-1.369 1.37-1.369.772 0 1.369.596 1.369 1.369 0 .772-.597 1.369-1.369 1.369-.773 0-1.37-.597-1.37-1.369z" fill="#f99746"/></g><path d="m434.456 227.881c-.281 0-.526-.14-.632-.421l-2.423-5.161h-7.971c-.386 0-.702-.316-.702-.702s.316-.702.702-.702h8.428c.281 0 .526.175.632.421l2.598 5.582c.176.351 0 .773-.351.948-.07 0-.175.035-.281.035z" fill="#233862"/><g opacity=".2"><g fill="#2d53a0"><path d="m465.218 309.23c-.176-.738 8.287-30.405 9.236-33.811l.28.071c-2.598 9.093-9.27 32.827-9.235 33.669z"/><path d="m452.998 287.673c.737-.176 30.41 8.285 33.816 9.233l-.07.281c-9.095-2.598-32.833-9.304-33.676-9.234z"/><path d="m456.123 281.528c.773.141 24.897 19.381 27.636 21.557l-.175.211c-7.375-5.898-26.724-21.241-27.496-21.487z"/><path d="m487.517 290.13c-.703-.28-31.289 4.003-34.765 4.459l.035.281c9.341-1.299 33.817-4.669 34.624-4.494z"/><path d="m463.287 276.297c.597.492 11.939 29.176 13.238 32.441l-.281.106c-3.476-8.778-12.606-31.704-13.168-32.336z"/><path d="m483.724 281.879c-.772.141-25.143 19.03-27.917 21.171l.175.211c7.445-5.793 27.005-20.855 27.812-21.136z"/></g><path d="m467.255 292.763c0-1.334 1.053-2.387 2.388-2.387 1.334 0 2.387 1.053 2.387 2.387 0 1.335-1.053 2.388-2.387 2.388-1.335 0-2.388-1.053-2.388-2.388z" fill="#f99746"/><path d="m450.891 292.412c0-10.322 8.392-18.748 18.752-18.748 10.359 0 18.752 8.391 18.752 18.748 0 10.358-8.393 18.749-18.752 18.749-10.36 0-18.752-8.427-18.752-18.749zm2.001 0c0 9.234 7.515 16.747 16.751 16.747 9.235 0 16.75-7.513 16.75-16.747 0-9.233-7.515-16.747-16.75-16.747-9.236 0-16.751 7.514-16.751 16.747z" fill="#233862"/></g><path d="m429.329 222.65h-6.145c-.597 0-1.089-.492-1.089-1.088 0-.597.492-1.089 1.089-1.089h6.145c.597 0 1.089.492 1.089 1.089 0 .631-.492 1.088-1.089 1.088z" fill="#233862"/><path d="m483.513 252.528s3.477.351 3.898.842c.422.492 2.002 3.09 2.037 3.582.035.491 0 1.369-.351 1.228-.351-.14-1.861-2.527-2.599-2.563-.772-.035-3.195-1.053-3.195-1.053z" fill="#b78767"/><path d="m479.897 271.066-32.307.316-14.503-45.397 29.849-.316z" fill="#2b478b"/><path d="m469.467 227.987s.632 16.677 2.177 18.362c1.019 1.088 11.869 6.214 11.869 6.214l-.105 2.036s-14.117-2.001-16.188-4.529c-4.109-4.985-4.39-18.537-4.566-19.942-.245-1.474 3.898-4.353 6.813-2.141z" fill="#b78767"/><path d="m501.247 298.591h-10.816s-.421-1.72.316-2.879c.633-1.053.387-1.615-.07-2.493.492.211 1.124.387 1.826.352.527-.036 1.124-.281 1.616-.562.456.526 2.458 2.773 3.09 3.23.667.491 3.827.281 4.038 2.352z" fill="#1a3670"/><path d="m451.417 259.059c.738 4.318 4.565 7.443 8.955 7.372 5.443-.07 13.379-.175 16.294-.28 6.18-.246 8.498 0 8.463.175-.281 2.598-.492 1.475 2.388 1.299 0 0 10.183-.281 7.128-7.232-3.055-6.952-31.955-9.129-34.484-8.813-2.177.246-9.867.773-8.744 7.479z" fill="#ea8b49"/><path d="m495.207 263.131c-.14 4.915-.878 18.538 1.018 29.492.492 2.773-3.511 2.879-3.546 2.879-.773.07-2.072.14-2.529-.387-3.09-3.827-7.409-21.522-6.25-28.859.562-3.582 4.143-3.511 7.023-4.846 1.826-.807 4.319-.245 4.284 1.721z" fill="#ea8b49"/><path d="m444.183 255.793h-2.247v37.391h2.247z" fill="#233862"/><path d="m459.108 198.144c3.16-.878 6.567-.106 9.06 2.036 1.089.948 2.318 2.107 3.441 3.511 2.81 3.511-1.966 7.373-1.229 8.602.738 1.193 2.318 2.071 1.826 4.704-.526 2.634-4.775 6.215-6.215 6.46-14.608 2.353-21.456-5.371-16.786-10.041 4.671-4.634 2.283-10.884 6.146-13.552 1.158-.843 2.493-1.404 3.757-1.72z" fill="#233862"/><path d="m469.924 226.758c-1.159.912-2.669 1.685-4.53 2.247-7.094 2.071-10.184-3.827-11.448-7.935.948-.632 1.861-.772 2.388-.878.526-.105 1.053-.175 1.51-.21.772-.668 1.826-3.266 1.861-7.198l.351.07 5.724 1.229s-.141 1.826-.176 3.511c-.035 1.334.035 2.598.316 2.914.387.106.738.246.738.246.07.14.105.07.07.035.105.105 1.791 2.563 3.196 5.969z" fill="#af8168"/><path d="m465.815 214.083s-.14 1.826-.176 3.511c-3.23-.14-4.881-3.089-5.548-4.74z" fill="#a0724e"/><path d="m466.868 215.734s-7.62 0-7.549-4.74c.07-4.74-.878-7.935 4.003-8.145 4.881-.211 5.794 1.615 6.145 3.195s-.632 9.549-2.599 9.69z" fill="#af8168"/><path d="m469.256 203.41c-1.158-1.439-2.036-1.158-2.563-.737-4.144-2.352-6.883.983-6.883.983-.562 3.406-3.055 5.301-3.055 5.301s1.405.984 4.6.106c4.074-1.159 5.268-4.81 5.443-5.372.457.421 1.019.667 1.51 1.615.562 1.124.948 1.791 1.054 3.687.035.035 1.615-3.441-.106-5.583z" fill="#233862"/><path d="m504.724 298.416h-27.11v2.177h27.11z" fill="#233862"/><path d="m448.117 259.059c.737 4.318 4.565 7.443 8.954 7.372 5.443-.07 13.379-.175 16.294-.28 6.18-.246 8.498 0 8.463.175-.281 2.598-.492 1.475 2.388 1.299 0 0 10.184-.281 7.128-7.232-3.055-6.952-31.955-9.129-34.484-8.813-2.212.246-9.867.773-8.743 7.479z" fill="#ffa561"/><path d="m448.081 244.629c.527-3.546-.737-16.958 2.072-21.136 2.037-3.02 4.846-4.213 8.323-4.284 1.123.632 5.372 3.02 7.023 2.599.035 0 .035 0 .105-.036.773-.245 1.054-.807.351-1.263 0 0 2.845.631 3.723 1.615.843.947.807 3.019 1.088 5.477.071.596.071 1.228.141 1.825.316 2.739-.562 3.02-3.582 10.919-1.475 3.862-.773 6.952.211 8.988.878 1.826.281 4.038-1.475 5.161-5.97 3.757-17.523 10.322-17.945 4.6-.421-5.864-.772-9.585-.035-14.465z" fill="#f9ddbf"/><path d="m458.195 227.46s2.879 19.415 4.776 21.066c1.229 1.053 13.484 3.019 13.484 3.019l.211 1.896s-17.488 1.299-18.471-.176c-4.039-5.898-6.848-21.135-7.234-22.68-.457-1.545 3.757-5.232 7.234-3.125z" fill="#af8168"/><path d="m497.911 298.451h-10.816s-.421-1.72.316-2.879c.633-1.053.387-1.615-.07-2.493.492.211 1.124.387 1.826.351.527-.035 1.124-.28 1.616-.561.456.526 2.458 2.773 3.09 3.23.667.456 3.828.281 4.038 2.352z" fill="#2b478b"/><path d="m491.871 263.131c-.14 4.915-.878 18.538 1.019 29.492.491 2.773-3.512 2.879-3.547 2.879-.773.07-2.072.14-2.529-.387-3.09-3.827-7.409-21.522-6.25-28.859.562-3.582 4.143-3.511 7.023-4.846 1.826-.807 4.319-.245 4.284 1.721z" fill="#ffa561"/><path d="m468.133 212.925s-.738-.246-2.739.035c0 0 .14.772 1.65.772.808 0 1.089-.807 1.089-.807z" fill="#fff"/><path d="m460.899 233.288s-5.197 4.494-11.202 2.95c0 0-2.177-14.501 5.373-14.676 0-.035 6.25 2.458 5.829 11.726z" fill="#f9ddbf"/><path d="m480.388 268.433h-36.204v2.843h36.204z" fill="#233862"/><path d="m462.469 268.442-2.584 1.493 17.716 30.678 2.584-1.492z" fill="#233862"/><path d="m444.184 268.433c.667 0 3.16-2.388 7.128-2.247 3.968.14 25.951 0 25.951 0s2.879-.316 3.125 2.247z" fill="#2d53a0"/><path d="m479.51 256.847h-2.247v46.835h2.247z" fill="#233862"/><path d="m476.42 251.545s3.863.211 4.319.702c.422.492 2.002 3.09 2.037 3.581.035.492 0 1.369-.351 1.229s-1.826-2.703-2.599-2.738c-.772-.036-3.195-.878-3.195-.878z" fill="#af8168"/><path d="m440.531 258.181h42.245c0-2.598-2.107-4.705-4.705-4.705h-34.765c-1.545 0-2.81 1.264-2.81 2.809v1.896z" fill="#233862"/><path d="m438.67 309.23c-.175-.738 8.288-30.405 9.236-33.811l.281.071c-2.599 9.093-9.271 32.827-9.236 33.669z" fill="#2d53a0"/><path d="m426.45 287.673c.737-.176 30.41 8.285 33.817 9.233l-.07.281c-9.096-2.598-32.834-9.304-33.677-9.234z" fill="#2d53a0"/><path d="m429.575 281.528c.773.141 24.897 19.381 27.637 21.557l-.176.211c-7.374-5.898-26.723-21.241-27.496-21.487z" fill="#2d53a0"/><path d="m460.934 290.13c-.702-.281-31.289 4.002-34.765 4.459l.035.281c9.341-1.299 33.817-4.67 34.625-4.494z" fill="#2d53a0"/><path d="m436.739 276.297c.597.491 11.94 29.176 13.239 32.441l-.281.105c-3.477-8.777-12.607-31.704-13.169-32.335z" fill="#2d53a0"/><path d="m457.177 281.879c-.773.141-25.144 19.03-27.918 21.171l.176.211c7.444-5.793 27.004-20.855 27.812-21.136z" fill="#2d53a0"/><path d="m440.672 292.763c0-1.334 1.053-2.387 2.388-2.387 1.334 0 2.388 1.053 2.388 2.387 0 1.335-1.054 2.388-2.388 2.388-1.335 0-2.388-1.053-2.388-2.388z" fill="#f99746"/><path d="m424.343 292.412c0-10.322 8.393-18.748 18.752-18.748s18.752 8.391 18.752 18.748c0 10.358-8.393 18.749-18.752 18.749s-18.752-8.427-18.752-18.749zm2.001 0c0 9.234 7.515 16.747 16.751 16.747 9.235 0 16.75-7.513 16.75-16.747 0-9.233-7.515-16.747-16.75-16.747-9.236 0-16.751 7.514-16.751 16.747z" fill="#233862"/><path d="m482.39 307.158c0-2.212-1.791-3.968-3.968-3.968s-3.968 1.791-3.968 3.968 1.791 3.967 3.968 3.967 3.968-1.755 3.968-3.967z" fill="#233862"/><path d="m477.017 307.158c0-.772.597-1.369 1.37-1.369.772 0 1.369.597 1.369 1.369 0 .773-.597 1.37-1.369 1.37-.773 0-1.37-.597-1.37-1.37z" fill="#f99746"/><path d="m402.817 196.564c-.527-1.054 11.693-4.74 11.904 5.442 0 0 22.931-.562 11.975-13.342-3.793-4.424-3.407-8.075-3.301-11.481.105-3.405-2.353-13.306-10.851-12.288 0 0-2.213-.913-4.987.527-6.286 3.265-20.402 34.898-4.74 31.142z" fill="#163560"/><path d="m387.331 299.539s-2.564 2.353-2.072 4.003c.491 1.65 2.809 2.774 3.125 4.81s1.58 3.16 2.704 3.16h5.373s.843-1.44-1.159-1.861-2.774-2.809-2.634-5.056c.141-2.212-.175-5.196-.175-5.196l-4.249-.983z" fill="#233862"/><path d="m409.067 300.522s-.913 10.042.211 10.603h14.538s-.14-1.825-2.458-2.176-6.391-1.721-7.093-4.74c-.668-3.019-5.198-3.687-5.198-3.687z" fill="#233862"/><path d="m398.778 229.321c2.985-6.671 4.776-8.567 4.425-10.638-.246-1.545.773-28.684.773-28.684.351-.106 1.053-.211 1.439-.281 1.229-.281 2.213-1.124 2.634-2.282.492-1.405.913-3.511.913-6.109l.386.07 6.392 1.264s-.141 2.001-.141 3.897v.035c0 1.65 1.089 3.09 2.669 3.546.808.246 1.51.421 1.51.421s2.353 6.706 2.809 13.588c.457 6.881-4.284 9.865.035 23.628 4.39 14.079-25.494 5.196-23.844 1.545z" fill="#7c4d2d"/><path d="m415.775 182.626s-.141 2.001-.141 3.897c-3.582-.105-5.478-3.371-6.25-5.161z" fill="#664027"/><path d="m416.969 184.416s-8.463.14-8.463-5.126-1.089-8.812 4.319-9.128 6.461 1.685 6.883 3.475c.421 1.721-.527 10.603-2.739 10.779z" fill="#7c4d2d"/><path d="m416.652 170.022s-2.317 6.179-5.864 7.092-5.092-.035-5.092-.035 2.739-2.177 3.301-5.969c-.035.035 5.9-4.038 7.655-1.088z" fill="#163560"/><path d="m416.091 170.513s1.72.632 2.423 1.896c.702 1.229 1.299 2.844 1.158 4.845 0 0 1.756-4.213-.21-6.601-2.107-2.492-3.407-.14-3.371-.14z" fill="#163560"/><path d="m415.143 181.151s.597.772 1.755.702c.949-.035 1.3-.878 1.3-.878s-1.756-.386-3.055.176z" fill="#ebf3fa"/><path d="m421.393 217.419-8.392 2.528-2.669-.667-7.585-1.861s-.984-.316-1.862-2.317c-.175-.387-.456-1.545-.772-2.915-.351-1.509-.702-3.3-.913-4.564-.281-1.861-.878-4.143-1.405-6.635-.386-1.826-.702-3.722-.878-5.618-.21-2.563 1.686-4.845 4.214-5.126l2.81-.316c8.919 7.268 15.767.562 15.767.562s2.352 4.178 3.898 10.182c1.615 6.074-2.213 16.747-2.213 16.747z" fill="#f9ddbf"/><path d="m420.831 219.069s4.144 12.955 4.425 17.344c.281 4.388-7.971 62.635-8.287 64.671-.317 1.931-2.704 3.125-2.704 3.125s-1.089.632-2.669.21c-2.177-.596-2.845-1.334-2.845-1.334s-3.23-41.534-1.229-56.35c2.002-14.816 2.037-27.666 2.037-27.666z" fill="#ea8b49"/><path d="m403.203 218.683s-6.356 8.496-6.953 14.254-.913 25.981-2.177 31.598c-1.264 5.618-5.9 16.396-5.9 33.916 0 0 .492 1.018 1.967 1.545.456.175 1.124.351 1.721.491 1.229.281 2.493-.316 3.055-1.439 3.125-6.32 13.098-26.648 13.625-30.861.351-2.985 3.511-22.751 10.394-34.337 1.65-2.774-1.018-13.868-1.018-13.868z" fill="#ffa561"/><path d="m415.318 181.292s.141.631 1.686.526c0 0 1.299-.07 1.264-.772 0 0-1.264-.492-2.95.246z" fill="#fff"/><path d="m421.499 217.068s-1.686 1.334-4.987 1.404c-3.968.07-13.765-1.018-13.765-1.018s-.422 1.229-.422 2.493c0 0 12.01 3.019 18.928.456 0-.035.913-1.72.246-3.335z" fill="#233862"/><path d="m415.669 219.806c0-1.123.808-2.036 1.826-2.036 1.019 0 1.826.913 1.826 2.036 0 1.124-.807 2.037-1.826 2.037-1.018 0-1.826-.913-1.826-2.037zm.597 0c0 .808.527 1.44 1.194 1.44s1.194-.632 1.194-1.44c0-.807-.527-1.439-1.194-1.439s-1.194.667-1.194 1.439z" fill="#fff"/><path d="m407.241 217.068c-3.23-1.65-5.548-3.3-7.128-4.845-.351-1.51-.702-3.301-.913-4.564-.281-1.861-1.299-6.425-1.826-8.883l13.484 19.415c.035 0 .632 1.018-3.617-1.123z" fill="#eac3a2"/><path d="m412.017 204.112s6.005 9.515 7.726 11.235c1.72 1.721-7.094-1.369-7.094-1.369z" fill="#eac3a2"/><path d="m425.677 219.385c.211.14 3.758-.281 4.916.421 1.159.737 2.248 2.739 1.721 3.441s-2.95-1.44-3.652-1.405c-.702.036-2.774-.596-2.774-.596z" fill="#7c4d2d"/><path d="m397.409 198.776s6.321 16.852 12.185 20.293c5.865 3.441 16.294 2.633 16.294 2.633s.316-.456.386-1.439c.036-.492-.386-1.159-.386-1.159s-10.605-7.092-11.061-8.286c-2.143-5.477-5.233-12.464-6.532-13.376-1.299-.913-9.446-2.177-10.886 1.334z" fill="#f9ddbf"/><path d="m835.166 196.213s1.616-1.966 2.493-2.247c.878-.281 2.564-1.58 2.81-1.054.246.527-1.124 1.37-1.089 2.002.07.632 4.355 1.615 4.319 2.282-.035.667-1.018 2.247-2.633 2.071-1.616-.175-5.759-1.158-6.602-.737s.702-2.317.702-2.317z" fill="#ffb27d"/><path d="m791.166 186.593c2.423 3.23 5.232 5.793 8.112 7.794 9.2 6.39 19.208 7.373 19.208 7.373 2.388-.772 9.762-1.58 14.082-2.282 1.896-.316 3.23-.597 3.301-.843l-.106-3.792s-15.942-.842-18.576-2.071c-4.179-3.581-7.831-8.251-10.254-11.867-2.037-3.09-4.284-5.337-8.042-6.671-5.372-1.931-15.205 2.318-7.725 12.359z" fill="#f9ddbf"/><path d="m798.505 191.999.808 2.388c9.2 6.39 19.208 7.373 19.208 7.373 1.931 0 9.762-1.58 14.082-2.282-.176 0-11.834.913-14.398.667-2.599-.281-14.678-10.744-14.678-10.744z" fill="#eac3a2"/><path d="m808.899 311.933h-17.628c-1.264-.843.351-9.234.351-9.234s4.811-1.825 5.654 1.896c.843 3.722 6.11 4.88 8.919 5.337 1.897.316 2.529 1.369 2.704 2.001z" fill="#233862"/><path d="m782.773 311.933h-17.629c-1.264-.843.352-9.234.352-9.234s4.811-1.825 5.653 1.896c.843 3.722 6.111 4.88 8.92 5.337 1.896.316 2.493 1.369 2.704 2.001z" fill="#233862"/><path d="m804.159 226.547s-.808 9.901-1.721 21.768c-1.264 16.15-4.671 56.139-4.671 56.139s-2.247 1.896-7.198.878c0 0-4.214-13.798-5.479-29.562-.035-.246-.035-.526-.07-.772-1.159-16.045-2.985-49.82-2.985-49.82z" fill="#2b478b"/><path d="m804.439 223.106s-1.053 13.307-2.001 25.174l-17.348 27.455c-.035-.246-.035-.526-.07-.772-1.159-16.045-2.985-49.82-2.985-49.82z" fill="#233862"/><path d="m799.383 223.106s-12.572 31.318-16.61 43.185c-2.88 8.461-10.956 38.128-10.956 38.128s-3.512 1.054-6.462-.983c0 0-3.02-30.299 3.055-38.866 3.231-4.529.808-47.151 13.871-47.502s17.102 6.038 17.102 6.038z" fill="#2b478b"/><path d="m793.764 176.938c-1.931 1.018-3.792 1.088-5.408.737-1.474-.316-2.774-.983-3.687-1.545-.948-.597-1.475-1.123-1.475-1.123s.071-.106.176-.281c.562-.983 2.282-4.459 1.51-10.077 0-.07.562.036 1.369.211 2.494.597 7.515 2.001 7.726 2.072 0 0 .07 1.193.281 3.3.035.175.035.386.07.597.035.245.035.526.07.772.246 2.212-.632 5.337-.632 5.337z" fill="#ffb27d"/><path d="m794.256 170.267c-3.722.843-9.306-4.634-9.306-4.634.422-.316.843-.527 1.264-.737 2.494.596 7.515 2.001 7.726 2.071.07 0 .105 1.159.316 3.3z" fill="#ed975d"/><path d="m795.52 166.651s-1.545.562-3.476.808c-2.845.386-6.602.175-7.796-3.301-2.002-5.828-4.53-9.304 1.334-11.691 3.126-1.264 5.127-1.334 6.497-.843 1.194.422 1.896 1.264 2.423 2.072 1.123 1.79 3.406 11.937 1.018 12.955z" fill="#ffb27d"/><path d="m799.102 154.187c-3.371 2.423-8.077.035-9.517.702-1.439.632-1.72 3.09-1.755 3.862-.036.773-.141 1.44-2.107.984-.316-.071-.562-.036-.703.035-.807.491.211 2.843.562 3.335 0 0 .457 1.685-.562 2.493-.14.105-2.107.983-6.883-6.355-.737-1.159-1.474-3.722-.316-6.214 1.159-2.493 6.005-4.881 10.114-6.18 1.545-.491 2.669-.456 3.582-.14 1.475.527 2.282 1.966 3.055 3.37 1.299 2.388 4.53 4.108 4.53 4.108z" fill="#a9453d"/><path d="m806.125 217.84c-.281 3.581-1.018 6.144-2.704 6.144 0 0-7.409 2.598-16.223 2.669-1.721 0-4.179-.316-6.216-.668-2.072-.351-3.722-.702-3.722-.702-1.791-.421-3.723-1.509-3.477-3.546.141-1.158.246-2.633.316-4.388.211-4.705.176-11.165.176-17.344.035-3.792.035-7.514.175-10.603 0 0-1.755-12.254.211-14.255 2.283-2.352 8.92-3.089 9.341-2.984.141-.035.246-.07.386-.07 0 0 5.794 3.16 10.008.807 0 0 6.146 1.405 7.937 3.265.597.632 3.055 4.6 3.125 8.953.105 6.039-.14 12.92-.14 12.92.07.984.175 2.247.281 3.687.14 1.545.245 3.265.386 5.091.07.913.105 1.861.14 2.773.141 2.915.176 5.829 0 8.251z" fill="#f9ddbf"/><path d="m784.072 172.198s6.286 6.495 10.781 5.161c0 0 .597-.877-1.44-1.158-2.002-.281-4.214-.176-9.341-4.003z" fill="#eac3a2"/><path d="m795.59 162.894s.141.737-1.615 1.369c0 0-1.475.492-1.721-.281-.035 0 1.124-1.088 3.336-1.088z" fill="#fff"/><path d="m780.104 194.949s0 17.519-5.97 22.435c.211-4.705.176-11.165.176-17.344z" fill="#eac3a2"/><path d="m761.738 227.741s-3.055 4.775-3.195 6.6c-.105 1.229.176 6.144.773 6.144.877.035 1.755-3.019 2.071-3.827.351-.772.738-1.404 1.089-1.404s-.737 3.055 0 2.704c.737-.352 1.966-3.16 2.072-3.827.105-.667-.667-2.844-.281-3.687.386-.842-2.529-2.703-2.529-2.703z" fill="#ffb27d"/><path d="m775.258 174.515s-4.109 1.931-7.55 16.291c-2.599 10.813-7.585 38.48-7.585 38.48l4.214 1.72s15.381-35.355 17.593-40.306c2.212-4.95-6.672-16.185-6.672-16.185z" fill="#f9ddbf"/><path d="m850.898 194.949s4.074 19.872 5.619 23.102 7.725 14.921 7.725 14.921l-1.755.281s-11.202-10.568-11.589-11.832c-.386-1.229-7.69-16.712-7.69-16.712z" fill="#aa7d5f"/><path d="m843.067 164.65s-7.866-9.48-12.045-3.406c0 0-3.125 1.299-4.249 6.601-1.158 5.407 2.459 9.514 4.32 8.496 1.194-.667 2.107 1.44 2.107 1.44z" fill="#233862"/><path d="m831.865 160.261s-1.053-4.248-7.269-2.914c0 0 2.985-.386 3.793.772 0 0-2.353-1.088-3.828-.175-1.475.912-1.721 3.932-1.51 4.88s1.861 3.686 2.95 3.686c1.088 0 2.353-.948 2.353-.948z" fill="#233862"/><path d="m822.56 226.582c3.09-6.951 4.565-8.917 4.635-11.094.035-1.72-.808-3.581-2.458-8.145-.386-1.089-.667-2.177-.843-3.301-1.299-8.812 3.793-18.327 6.953-18.959.878-.245 2.388-3.405 2.353-8.531l.386.07 6.672 1.334s-.14 2.107-.14 4.073c0 1.65.105 3.195.456 3.405.492.035.773.071.773.071s5.548 7.724 6.04 14.886c.456 7.197-4.46 10.287.035 24.647 4.565 14.64-26.583 5.406-24.862 1.544z" fill="#aa7d5f"/><path d="m840.258 177.921s-.14 2.107-.14 4.073c-3.723-.106-5.689-3.511-6.497-5.407z" fill="#825638"/><path d="m832.919 175.884s-1.967-3.089-2.423-5.722c-.316-1.896.632-8.883 7.655-7.865 0 0 2.037.211 3.968 1.51 1.51 1.018 3.722 3.265 1.264 9.339l-.632 2.071z" fill="#233862"/><path d="m841.522 179.782s-8.814.14-8.814-5.337c0-5.512-1.159-9.163 4.495-9.514 5.654-.316 6.742 1.755 7.164 3.616.421 1.826-.562 11.059-2.845 11.235z" fill="#aa7d5f"/><path d="m841.206 164.825s-2.423 6.46-6.11 7.408-5.303-.035-5.303-.035 2.845-2.247 3.442-6.214c-.035 0 6.145-4.248 7.971-1.159z" fill="#233862"/><path d="m840.609 165.316s1.791 1.44 2.248 2.844c.456 1.405.632 4.284 1.474 4.178 0 0 1.826-4.388-.21-6.846-2.213-2.633-3.512-.176-3.512-.176z" fill="#233862"/><path d="m830.39 293.185c2.213 8.847 5.549 15.588 5.549 15.588l2.914-.21s-1.439-6.777-1.334-15.975c.07-6.425.843-13.974 3.371-21.241 8.709-24.858 7.304-42.974 7.304-42.974l-16.364 1.931-.772.07c-.071 7.514-.281 17.73-.422 25.7-.14 7.198-.281 12.569-.281 12.569-3.16 6.847-2.036 16.431.035 24.542z" fill="#163560"/><path d="m811.076 233.955 2.669.808s8.744-14.5 9.552-18.257c.246-1.229.913-3.686 1.65-6.425 1.545-5.688 3.512-12.674 3.512-12.674l.667-2.809 2.212-9.62s-4.249.421-6.742 1.475c-.843.351-1.44.772-1.685 1.228-1.827 4.038-3.652 14.185-4.952 21.417-.702 4.038-1.264 7.162-1.545 7.829-.808 1.826-3.266 12.008-5.338 17.028z" fill="#aa7d5f"/><path d="m817.468 283.881c-.808 5.371-2.81 20.223-2.037 22.715l3.195-.526s5.83-13.412 7.164-17.099c2.739-7.583 5.9-12.182 6.953-15.728 3.371-11.13 7.55-47.398 7.55-47.398l-16.61-.807c-1.685 2.808-2.388 7.408-2.563 12.639-.422 13.201 1.334 28.509 1.791 30.966-1.37 2.212-3.933 5.126-5.443 15.238z" fill="#1c468a"/><path d="m840.925 165.563s-1.72 6.741-6.391 8.917c0 0 4.671-4.143 5.092-8.601.386-4.494 1.299-.316 1.299-.316z" fill="#233862"/><path d="m820.488 231.603c-.035.561 0 1.018.105 1.334.351 1.123 1.58 1.615 4.495 1.299 1.791-.176 2.599-3.195 2.95-5.758 1.088 3.651 2.598 5.723 4.53 6.144 2.844.632 17.171 2.388 18.12-4.459 1.018-7.513-2.072-20.784-2.248-27.947.422-2.528.562-4.739.527-6.635-.105-5.091-1.615-7.97-2.774-9.129-.316-.246-.667-.421-1.967-.632-.667-.105-1.58-.246-2.914-.421 0 0-.527-.07-.527-.035.246.421 3.476 5.336 3.231 6.6-.281 1.335-11.799.141-12.572-.596-.808-.738-2.037-6.32-2.037-6.32s-4.073.456-6.075 1.896c0 0 0 0 .035.035-.246.175-.421.351-.526.562-2.143 4.037-4.249 14.289-5.759 21.592 3.617 2.001 6.777 1.404 7.76 1.123-1.264 8.497-4.179 17.52-4.354 21.347z" fill="#f99746"/><path d="m834.253 311.231h1.861c.632-.106 1.089-.281 1.721-.351.983-.141 1.405.281 1.51.351h.035 7.901c.211-.281 0-.948-.175-1.405-.141-.316-.387-.561-.738-.667-.843-.245-2.493-.456-4.003-1.825-.843-.773-4.109-2.809-4.109-2.809h-.035c-.07 0-.421.105-1.896 1.334-.772.632-2.072-.913-2.072-.913s-.246.211-.421.597c-.141.281-.246.702-.176 1.229.106.702-.281 2.036-.562 2.914-.175.527-.351.913-.351.913s-.07.456 1.51.632z" fill="#233862"/><path d="m833.832 305.543c.456.316 1.369.913 2.001 1.018.843.106 2.423-2.036 2.423-2.036h-.035c-.07 0-.421.105-1.896 1.334-.772.632-2.072-.913-2.072-.913s-.246.211-.421.597z" fill="#466aa5"/><path d="m834.253 311.23h1.861c.632-.105 1.089-.281 1.721-.351.983-.14 1.405.281 1.51.351h.035 7.901c.211-.281 0-.948-.175-1.404-.246-.211-.316.913-.422 1.123-.14.176-6.426.071-6.812-.21-.351-.281-1.44-.737-2.985-.351-1.335.316-3.266-.492-3.758-.702-.175.526-.351.912-.351.912s-.105.422 1.475.632z" fill="#466aa5"/><path d="m815.185 311.231h1.861c.632-.106 1.089-.281 1.721-.351.983-.141 1.405.281 1.51.351h.035 7.901c.211-.281 0-.948-.175-1.405-.141-.316-.387-.561-.738-.667-.843-.245-2.493-.456-4.003-1.825-.843-.773-4.109-2.809-4.109-2.809h-.035c-.07 0-.421.105-1.896 1.334-.772.632-2.072-.913-2.072-.913s-.246.211-.421.597c-.141.281-.246.702-.176 1.229.106.702-.281 2.036-.562 2.914-.175.527-.351.913-.351.913s-.07.456 1.51.632z" fill="#233862"/><path d="m814.764 305.543c.456.316 1.369.913 2.001 1.018.843.106 2.423-2.036 2.423-2.036h-.035c-.07 0-.421.105-1.896 1.334-.773.632-2.072-.913-2.072-.913s-.246.211-.421.597z" fill="#466aa5"/><path d="m815.185 311.23h1.861c.632-.105 1.089-.281 1.721-.351.983-.14 1.405.281 1.51.351h.035 7.901c.211-.281 0-.948-.175-1.404-.246-.211-.316.913-.422 1.123-.14.176-6.426.071-6.812-.21-.352-.281-1.44-.737-2.985-.351-1.335.316-3.266-.492-3.758-.702-.175.526-.351.912-.351.912s-.105.422 1.475.632z" fill="#466aa5"/><path d="m846.052 186.417s5.198 2.669 7.024 13.834c0 0-1.791 2.457-4.355 3.194-.351.106-.737.176-1.124.176-3.125.176-1.545-17.204-1.545-17.204z" fill="#f99746"/><path d="m839.802 176.552s.14.632 1.755.562c0 0 1.37-.071 1.3-.808 0 0-1.3-.526-3.055.246z" fill="#fff"/><path d="m862.838 230.971s3.125 1.545 3.687 2.633c.351.667-.316 3.125-.983 3.441-.668.28-.668-1.756-1.229-1.967-.562-.21-2.283-1.123-2.494-1.755-.632-1.931 1.019-2.352 1.019-2.352z" fill="#aa7d5f"/><path d="m864.9 234.646-.895.182 15.46 76.04.894-.182z" fill="#163560"/><path d="m866.138 242.452-.316.07c-.421.105-.877-.176-.948-.632l-1.404-6.846c-.106-.422.21-.878.632-.948l.316-.07c.456-.106.878.175.948.631l1.405 6.847c.07.421-.211.842-.633.948z" fill="#163560"/><path d="m861.925 233.499s1.439 1.931 1.545 2.106c.105.176.316-.351.21-.702-.105-.351-.562-1.72-.562-1.72z" fill="#aa7d5f"/><path d="m811.568 232.762s-3.828 2.352-4.389 3.37c-.562 1.018-1.862 4.775-1.862 4.775s.913.14 1.862-1.475c.913-1.615 4.003-1.474 5.021-2.352s2.212-3.476 2.212-3.476z" fill="#aa7d5f"/><path d="m813.991 234.376s-.597 2.844-1.334 3.687c-.738.843-1.756 2.212-2.177 1.861-.422-.386.456-3.476.456-3.476z" fill="#aa7d5f"/><path d="m807.67 236.448c-.105.141-3.301 3.546-3.301 3.546s1.159.527 1.475 0c.316-.526 1.826-3.546 1.826-3.546z" fill="#aa7d5f"/><path d="m837.519 171.11h2.493c.176 0 .351.14.351.351v.597c0 .562-.456 1.018-1.018 1.018h-1.264c-.562 0-1.054-.456-1.054-1.053v-.386c-.035-.281.211-.527.492-.527z" fill="#163560"/><path d="m844.331 173.076h-1.264c-.562 0-1.018-.456-1.018-1.018v-.597c0-.176.14-.351.351-.351h2.493c.281 0 .527.246.527.527v.386c-.035.597-.492 1.053-1.089 1.053z" fill="#163560"/><path d="m842.4 171.952s-1.089-.456-2.107 0l-.07-.175c1.124-.492 2.212-.035 2.282 0z" fill="#163560"/><path d="m659.796 99.3115h-98.009v69.3405h98.009z" fill="#dfebfd"/><g fill="#bad4f4"><path d="m596.763 104.753h-27.356v24.472h27.356z"/><path d="m649.578 145.621h-26.548v15.307h26.548z"/><path d="m624.505 105.701h-23.212v1.229h23.212z"/><path d="m636.163 105.701h-10.219v1.229h10.219z"/><path d="m647.822 105.701h-10.219v1.229h10.219z"/><path d="m624.505 109.388h-23.212v1.229h23.212z"/><path d="m636.163 109.388h-10.219v1.229h10.219z"/><path d="m647.822 109.388h-10.219v1.229h10.219z"/><path d="m624.505 113.109h-23.212v1.229h23.212z"/><path d="m636.163 113.109h-10.219v1.229h10.219z"/><path d="m647.822 113.109h-10.219v1.229h10.219z"/><path d="m624.505 120.693h-23.212v1.229h23.212z"/><path d="m636.163 120.693h-10.219v1.229h10.219z"/><path d="m647.822 120.693h-10.219v1.229h10.219z"/><path d="m624.505 124.415h-23.212v1.228h23.212z"/><path d="m636.163 124.415h-10.219v1.228h10.219z"/><path d="m647.822 124.415h-10.219v1.228h10.219z"/><path d="m624.505 128.101h-23.212v1.229h23.212z"/><path d="m636.163 128.101h-10.219v1.229h10.219z"/><path d="m647.822 128.101h-10.219v1.229h10.219z"/><path d="m583.349 145.866h-13.942v1.229h13.942z"/><path d="m616.498 145.866h-10.359v1.229h10.359z"/><path d="m595.393 145.866h-10.359v1.229h10.359z"/><path d="m604.559 145.866h-7.796v1.229h7.796z"/><path d="m592.9 149.588h-23.493v1.229h23.493z"/><path d="m604.699 149.588h-10.359v1.229h10.359z"/><path d="m616.498 149.588h-10.359v1.229h10.359z"/><path d="m583.349 135.685h-13.942v1.228h13.942z"/><path d="m616.498 135.685h-10.359v1.228h10.359z"/><path d="m650.596 135.685h-32.798v1.228h32.798z"/><path d="m595.393 135.685h-10.359v1.228h10.359z"/><path d="m604.559 135.685h-7.796v1.228h7.796z"/><path d="m592.9 139.406h-23.493v1.229h23.493z"/><path d="m614.742 139.406h-20.402v1.229h20.402z"/><path d="m629.772 139.406h-13.625v1.229h13.625z"/><path d="m642.133 139.406h-10.359v1.229h10.359z"/><path d="m587.879 153.274h-18.472v1.229h18.472z"/><path d="m616.498 153.274h-10.359v1.229h10.359z"/><path d="m603.576 153.274h-13.59v1.229h13.59z"/><path d="m592.9 157.136h-23.493v1.229h23.493z"/><path d="m604.699 157.136h-10.359v1.229h10.359z"/><path d="m616.498 157.136h-10.359v1.229h10.359z"/></g><path d="m764.829 99.3115h-49.022v69.3405h49.022z" fill="#dfebfd"/><path d="m761.528 104.753h-18.717v23.348h18.717z" fill="#bad4f4"/><path d="m732.311 131.963h-12.15v1.229h12.15z" fill="#bad4f4"/><path d="m739.053 105.069h-18.892v1.229h18.892z" fill="#bad4f4"/><path d="m739.053 110.441h-18.892v1.229h18.892z" fill="#bad4f4"/><path d="m730.801 113.109h-10.64v1.229h10.64z" fill="#bad4f4"/><path d="m739.826 113.109h-7.972v1.229h7.972z" fill="#bad4f4"/><path d="m727.746 107.737h-7.585v1.229h7.585z" fill="#bad4f4"/><path d="m737.192 107.737h-7.585v1.229h7.585z" fill="#bad4f4"/><path d="m761.177 131.963h-8.99v1.229h8.99z" fill="#bad4f4"/><path d="m742.776 131.963h-8.99v1.229h8.99z" fill="#bad4f4"/><path d="m750.782 131.963h-6.777v1.229h6.777z" fill="#bad4f4"/><path d="m740.598 135.649h-20.437v1.229h20.437z" fill="#bad4f4"/><path d="m750.887 135.649h-8.989v1.229h8.989z" fill="#bad4f4"/><path d="m761.177 135.649h-8.99v1.229h8.99z" fill="#bad4f4"/><path d="m736.244 139.371h-16.083v1.229h16.083z" fill="#bad4f4"/><path d="m761.177 139.371h-8.99v1.229h8.99z" fill="#bad4f4"/><path d="m749.869 139.371h-11.799v1.229h11.799z" fill="#bad4f4"/><path d="m740.598 143.233h-20.437v1.229h20.437z" fill="#bad4f4"/><path d="m750.887 143.233h-8.989v1.229h8.989z" fill="#bad4f4"/><path d="m761.177 143.233h-8.99v1.229h8.99z" fill="#bad4f4"/><path d="m732.311 149.482h-12.15v1.229h12.15z" fill="#bad4f4"/><path d="m761.177 149.482h-8.99v1.229h8.99z" fill="#bad4f4"/><path d="m742.776 149.482h-8.99v1.229h8.99z" fill="#bad4f4"/><path d="m750.782 149.482h-6.777v1.229h6.777z" fill="#bad4f4"/><path d="m740.598 153.169h-20.437v1.229h20.437z" fill="#bad4f4"/><path d="m750.887 153.169h-8.989v1.229h8.989z" fill="#bad4f4"/><path d="m761.177 153.169h-8.99v1.229h8.99z" fill="#bad4f4"/><path d="m736.244 156.891h-16.083v1.228h16.083z" fill="#bad4f4"/><path d="m761.177 156.891h-8.99v1.228h8.99z" fill="#bad4f4"/><path d="m749.869 156.891h-11.799v1.228h11.799z" fill="#bad4f4"/><path d="m740.598 160.752h-20.437v1.229h20.437z" fill="#bad4f4"/><path d="m750.887 160.752h-8.989v1.229h8.989z" fill="#bad4f4"/><path d="m761.177 160.752h-8.99v1.229h8.99z" fill="#bad4f4"/><path d="m680.339 56.7939h-78.906v7.057h78.906z" fill="#fff"/><path d="m613.408 26.1787h-.737v30.6153h.737z" fill="#fff"/><path d="m669.207 26.1787h-.737v30.6153h.737z" fill="#fff"/><path d="m491.977 56.7939h-78.906v7.057h78.906z" fill="#fff"/><path d="m425.01 39.4502v17.344h-.737v-17.2387c.281-.0351.526-.0702.737-.1053z" fill="#fff"/><path d="m480.845 29.5493v27.2448h-.738v-27.0692c.246-.0703.492-.1054.738-.1756z" fill="#fff"/><path d="m261.791 56.7939h-78.906v7.057h78.906z" fill="#fff"/><path d="m194.087 38.8534v1.3342 16.6066h.737v-16.712-1.299z" fill="#fff"/><path d="m250.659 37.2031v19.591h-.738v-19.591z" fill="#fff"/><path d="m49.8999 287.146s-3.8628-4.494-.2458-7.373c0 0 2.6337-1.615 4.8109-1.475 0 0-3.0551 5.126-2.0718 5.618.9832.491 2.9848-5.969 2.9848-5.969s6.0049-.597 7.9363.351c0 0-5.127 4.213-4.0735 4.459 1.0886.246 6.6369-3.862 6.6369-3.862s5.5835.948 5.3026 4.354c-.3161 3.405-2.2123 4.459-3.0902 4.388-.8428-.105-5.7942-2.001-5.9347-1.299-.1053.702 2.8796 2.985 4.9514 3.09 0 0-3.933 4.353-6.5667 3.089-2.6337-1.263-2.8444-3.23-4.4949-4.002-1.6504-.772-3.02-.737-2.3527 0 .6672.737 3.652 1.51 4.565 3.16.9482 1.65 1.791 2.773-.9481 2.352-2.7039-.421-7.1286-2.387-7.3393-4.669z" fill="#77a4e5"/><path d="m68.4764 283.389s-15.2053-.597-18.5764 3.757c0 0-.7375 2.212-3.02 4.248l-.3512.983s2.6337-2.774 3.5818-2.949c0 0-1.4748-5.372 18.3658-6.039z" fill="#77a4e5"/><path d="m46.8801 291.429s-3.2658 2.422-3.4765 6.741l.5969.07s1.0535-4.459 2.9147-6.214c1.8611-1.756-.0351-.597-.0351-.597z" fill="#77a4e5"/><path d="m36.4154 281.493s6.1453-3.44 3.2658-8.11c0 0-2.2826-2.879-4.7407-3.581 0 0 1.2993 6.952 0 7.127-1.2993.176-.913-7.864-.913-7.864s-6.4614-3.09-8.9897-2.879c0 0 4.0032 6.776 2.7039 6.635-1.2993-.175-5.7941-7.022-5.7941-7.022s-6.637-1.228-7.6905 2.704.6672 5.898 1.6505 6.144c.9832.246 7.269.176 7.1286.983-.1756.808-4.4247 2.142-6.7775 1.404 0 0 2.6338 6.461 6.04 6.145 3.4414-.316 4.4949-2.458 6.637-2.634 2.142-.175 3.6871.422 2.6337.983-1.0535.562-4.6705.176-6.3912 1.651-1.7207 1.474-3.0902 2.352.0703 3.019 3.1955.667 8.9195.246 10.0783-2.212z" fill="#77a4e5"/><path d="m17.2771 269.731s17.1718 5.548 19.1383 11.762c0 0-.0703 2.774 1.6504 5.969v1.228s-1.7909-4.178-2.7741-4.739c-.0352 0 3.8276-5.407-18.0146-14.22z" fill="#77a4e5"/><path d="m38.0659 287.462s2.6337 4.037 1.1237 8.917l-.6672-.175s.6672-5.407-.7374-8.11c-1.3696-2.704.2809-.632.2809-.632z" fill="#77a4e5"/><path d="m46.1777 276.754s-8.0767-4.53-4.3193-10.674c0 0 3.02-3.791 6.2507-4.739 0 0-1.7207 9.163 0 9.374 1.7207.21 1.1939-10.357 1.1939-10.357s8.5332-4.108 11.8693-3.792c0 0-5.3026 8.953-3.5468 8.742 1.7207-.211 7.6553-9.269 7.6553-9.269s8.7439-1.615 10.1486 3.546c1.4046 5.161-.8779 7.759-2.1421 8.075-1.2993.316-9.5867.211-9.376 1.299.2107 1.089 5.8293 2.809 8.9546 1.826 0 0-3.4414 8.532-7.9713 8.075-4.53-.456-5.9347-3.23-8.744-3.441-2.8092-.21-4.846.527-3.4413 1.299 1.4046.773 6.1453.246 8.3927 2.177 2.2475 1.931 4.1086 3.125-.1053 3.968-4.214.842-11.7639.316-13.2739-2.915z" fill="#9fc1f4"/><path d="m71.4262 261.235s-22.6499 7.338-25.2485 15.519c0 0 .1054 3.651-2.1421 7.864v1.615s2.3879-5.512 3.6521-6.249c0 0-5.0567-7.092 23.7385-18.749z" fill="#9fc1f4"/><path d="m44.0356 284.653s-3.4765 5.302-1.51 11.762l.9131-.246s-.8779-7.092.9481-10.673c1.826-3.616-.3512-.843-.3512-.843z" fill="#9fc1f4"/><path d="m45.8967 310.388c8.7439 0 15.8373-7.092 15.8373-15.834h-31.6747c0 8.742 7.0935 15.834 15.8374 15.834z" fill="#9fc1f4"/><path d="m49.7946 310.283c-.6321.07-1.2993.105-1.9665.105-8.7439 0-15.8374-7.092-15.8374-15.834h3.933c0 8.075 6.0751 14.746 13.8709 15.729z" fill="#afcdfb"/><path d="m62.0853 294.554h-32.5526v.491h32.5526z" fill="#9fc1f4"/><path d="m50.5672 309.405h-10.0783v1.826h10.0783z" fill="#9fc1f4"/><path d="m350.88 173.322c-2.107 0-3.863 1.72-3.863 3.862v27.455c0 3.16 2.002 5.828 4.776 6.882 1.615.596 2.704 2.106 2.845 3.827h11.834s.526-2.634 2.668-3.336c2.88-1.194 5.338-2.984 4.952-7.303v-27.315c0-2.247-1.826-4.037-4.038-4.037z" fill="#9fc1f4"/><path d="m347.017 193.088h26.934c.281 0 .527.246.527.527v2.984c0 .281-.246.526-.527.526h-26.934c-.281 0-.527-.245-.527-.526v-2.984c0-.281.211-.527.527-.527z" fill="#77a4e5"/><path d="m347.017 201.69h26.934c.281 0 .527.246.527.527v2.984c0 .281-.246.527-.527.527h-26.934c-.281 0-.527-.246-.527-.527v-2.984c0-.281.211-.527.527-.527z" fill="#77a4e5"/><path d="m368.684 216.33h-16.715l.491-1.65c.141-.421.527-.702.949-.702h13.73c.421 0 .808.281.948.667z" fill="#bad4f4"/><path d="m346.28 216.331h29.216c1.3 0 2.353 1.053 2.353 2.352v88.826c0 1.299-1.053 2.353-2.353 2.353h-29.216c-1.3 0-2.353-1.054-2.353-2.353v-88.826c.035-1.299 1.089-2.352 2.353-2.352z" fill="#cde0fb"/><path d="m372.231 230.795h-22.58v30.826h22.58z" fill="#bad4f4"/><path d="m372.231 230.795h-22.58v6.952h22.58z" fill="#9fc1f4"/><path d="m366.577 240.275h-2.95v6.355h2.95z" fill="#dfebfd"/><path d="m366.577 240.275h-2.95v1.685h2.95z" fill="#77a4e5"/><path d="m358.079 240.275h-2.985v6.355h2.985z" fill="#dfebfd"/><path d="m358.079 240.275h-2.985v1.685h2.985z" fill="#f99746"/><path d="m355.691 246.665.281 1.474c.035.106.14.211.246.211h.526c.106 0 .246-.07.246-.211l.316-1.474c.035-.176-.07-.316-.245-.316h-1.124c-.141 0-.281.14-.246.316z" fill="#dfebfd"/><path d="m364.294 246.665.281 1.474c.035.106.141.211.246.211h.527c.105 0 .246-.07.246-.211l.316-1.474c.035-.176-.071-.316-.246-.316h-1.124c-.175 0-.281.14-.246.316z" fill="#dfebfd"/><path d="m370.089 260.849h-18.542v.773h18.542z" fill="#9fc1f4"/><path d="m370.931 274.366h-19.946c-.842 0-1.51-.667-1.51-1.51v-6.741c0-.842.668-1.51 1.51-1.51h19.946c.843 0 1.51.668 1.51 1.51v6.741c-.035.843-.702 1.51-1.51 1.51zm-19.946-9.409c-.632 0-1.158.526-1.158 1.158v6.741c0 .632.526 1.159 1.158 1.159h19.946c.632 0 1.159-.527 1.159-1.159v-6.741c0-.632-.527-1.158-1.159-1.158z" fill="#9fc1f4"/><path d="m350.494 309.826h-2.177v1.124h2.177z" fill="#233862"/><path d="m374.021 309.826h-2.177v1.124h2.177z" fill="#233862"/><path d="m591.917 7.571c-38.101 5.6877-75.57 14.7108-113.25 22.4348-1.474.316-2.984.5968-4.459.9128h320.61c-1.019-.7022-2.072-1.3692-3.126-2.0714-25.985-16.7471-55.413-25.4542-86.139-27.80652-37.645-2.91407-76.413.7724-113.636 6.53032z" fill="#dceaff"/><path d="m673.246 184.486-14.433.071 7.269 25.91 13.871-2.879z" fill="#f9ddbf"/><path d="m666.223 200.215s-.035-.316-.422-.702c-.246-.421-.807-1.755-.843-2.071-.07-.948-.737-.632-.842.21-.035.176.07.632.105.808-.808.316-1.615-.351-1.826-1.229-.105-.421-.246-.843-.316-1.088-.105-.387-1.018.245-1.054.912-.035 1.054-.035 3.968.246 4.424.457.773 3.055 1.58 4.39 1.756l1.58.105.913-2.563z" fill="#7c4d2d"/><path d="m714.823 304.349s-.421 6.741-1.72 6.847c-.176 0-6.602 0-6.602 0l-8.217-.036s.07-1.966 2.458-2.387 6.426-2.107 7.866-5.266c1.545-3.371 6.215.842 6.215.842z" fill="#163560"/><path d="m715.315 304.806s-2.493.842-4.46.842c-2.177 0-4.144-.597-4.144-.597s-.456-4.564-3.055-14.57c-1.369-5.266-3.301-12.007-6.04-20.398-7.62-23.208-9.938-36.795-10.148-38.059 0-.07 0-.105 0-.105h.035l23.457-10.287s-2.879 31.984.808 44.273c.527 1.72.948 3.721 1.335 5.898 2.247 13.271 2.212 33.038 2.212 33.003z" fill="#2b478b"/><path d="m713.032 271.733-9.376 18.748c-1.369-5.266-3.301-12.007-6.04-20.398-7.62-23.208-9.938-36.795-10.148-38.059 0-.035 0-.07 0-.105l23.457-10.287s-2.879 31.984.808 44.273c.492 1.685.913 3.686 1.299 5.828z" fill="#233862"/><path d="m696.528 304.349s-.421 6.741-1.721 6.847c-.175 0-6.602 0-6.602 0l-8.217-.036s.071-1.966 2.458-2.387c2.388-.421 6.427-2.107 7.866-5.266 1.51-3.371 6.216.842 6.216.842z" fill="#163560"/><path d="m683.219 222.334s-.316 20.714 3.266 46.169c3.581 25.454 2.387 36.232 2.387 36.232s2.459.808 3.442.878c2.528.211 5.127-.597 5.127-.597s5.127-25.454 3.652-38.199c-1.475-12.744 7.023-43.711 7.023-43.711z" fill="#2b478b"/><path d="m700.32 173.111-3.862 3.862-6.743.14c-.035-.526-.035-2.808-.07-4.845 0-.105 0-.246 0-.351 0-1.755-.035-3.23-.035-3.23l5.478-3.932 2.037-1.475c0 .035.21 1.896.246 2.142.596 4.81 2.949 7.689 2.949 7.689z" fill="#7c4d2d"/><path d="m681.849 223.247c.105 10.954.808 36.549 1.37 37.04 5.688 5.512 30.761-1.509 32.096-7.548 1.334-6.039-5.057-77.697-14.784-80.576-2.037-.597-12.817 2.879-12.817 2.879s-1.686 4.424-2.81 10.076c-.421 2.107-1.756 17.028-2.528 26.999-.211 2.669-.386 4.951-.492 6.566-.035.702-.035 2.317-.035 4.564z" fill="#afcdfb"/><path d="m696.984 165.633c-.842 2.527-5.408 5.512-7.304 6.67 0-.105 0-.245 0-.351 0-1.755-.035-3.23-.035-3.23l5.478-3.932c1.335-.351 2.212-.211 1.861.843z" fill="#664027"/><path d="m687.292 168.793s10.395 1.018 10.921-5.478c.527-6.495 2.213-10.708-4.389-11.621s-8.077 1.44-8.779 3.581c-.703 2.142-.457 13.096 2.247 13.518z" fill="#7c4d2d"/><path d="m685.256 154.608s2.106 6.952 3.511 6.355 2.704-1.123 2.915 1.054c.21 2.176-1.3 5.09 3.301 4.529 4.6-.562 8.673-13.588 6.953-15.519-4.881-5.652-23.493-3.089-16.68 3.581z" fill="#163560"/><path d="m690.348 172.339c.14-.036 7.409-3.336 8.252-3.02s1.896 2.879 1.896 2.879l-12.817 2.879c.035 0 1.018-2.036 2.669-2.738z" fill="#95b3ef"/><path d="m681.849 223.247c23.774-16.115 21.842-38.269 21.842-38.269-9.27 5.231-18.471 17.625-21.35 27.139-.211 2.669-.387 4.951-.492 6.566z" fill="#95b3ef"/><path d="m694.105 179.431s-6.707 23.312-9.446 23.312c-1.826 0-17.664-2.633-17.664-2.633l-1.475 3.441s17.664 11.621 24.09 9.304c10.184-3.722 16.294-21.733 14.081-27.842-2.212-6.144-5.267-8.216-9.586-5.582z" fill="#afcdfb"/><path d="m147.347 208.15-.246 2.633s-.175 0-.491 0c-.948 0-3.301 0-5.935-.14-2.528-.106-5.338-.316-7.585-.702-1.264-.246-2.353-.527-3.09-.913-2.95-1.58-7.936-6.636-11.272-11.762-.106-.14-.176-.246-.246-.386-1.124-1.756-2.072-3.546-2.634-5.161-.316-.878-.527-1.756-.597-2.528-.14-1.369-.07-2.563.176-3.581.281-1.369.842-2.458 1.404-3.3.07-.141.176-.281.281-.387.983-1.299 1.967-1.895 1.967-1.895.421-.211.842-.106 1.334.245.035.035.105.071.176.106.07.07.14.105.21.175v.035c.176.176.352.351.562.597.351.421.703.948 1.054 1.545.035.035.035.035.035.07.105.176.246.386.386.632.035.035.07.105.105.141.281.491.527.983.808 1.509 3.02 5.688 6.356 14.325 8.885 16.818.596.596 2.247 1.404 4.284 2.282.035 0 .07.035.105.07 1.686.737 3.582 1.474 5.303 2.106 2.774 1.054 5.021 1.791 5.021 1.791z" fill="#c98959"/><path d="m137.058 204.288c-.105.281-.597 1.685-1.44 3.125-.702 1.158-.878 2.106-2.001 2.773-1.229 0-3.266-.737-4.003-1.053-2.494-1.053-4.039-2.282-5.268-3.722-1.44-1.72-2.493-3.756-4.214-6.144-.491-.667-.948-1.369-1.404-2.036-.106-.105-.176-.246-.246-.386-1.124-1.756-2.072-3.546-2.634-5.161 0 0 .983-13.553 5.935-12.113 4.67 1.369 8.357 19.837 10.886 22.329.597.597 2.247 1.405 4.284 2.282.035.106.07.141.105.106z" fill="#afcdfb"/><path d="m127.612 307.193-2.88 1.054s-12.501-17.309-14.046-32.582c-.281-2.738-.176-5.372.421-7.794 0 0-.14-.702-.351-1.931-.105-.562-.211-1.264-.351-2.072-.421-2.317-.983-5.512-1.615-9.128-1.475-8.356-3.372-18.994-4.846-26.859l.772-.245 8.393-2.704 1.721-5.512 6.25-1.65s1.405 2.739 2.634 15.624c.246 1.685.421 3.546.597 5.582.492 6.179.527 13.833-.597 22.575-.281 2.247-.667 4.564-1.089 6.917-.316 1.755-.386 4.108-.245 6.846.667 12.499 5.232 31.879 5.232 31.879z" fill="#f99746"/><path d="m124.346 239.467-13.555 26.508c-.105-.562-.21-1.229-.351-2.037-.421-2.282-.983-5.407-1.615-8.988-1.475-8.215-3.371-18.678-4.846-26.402l.772-.246 8.393-2.668 1.721-5.407 6.25-1.615s1.405 2.669 2.634 15.343c.211 1.685.422 3.511.597 5.512z" fill="#ed7d2b"/><path d="m118.376 221.281-.316-2.704c-5.267 1.405-19.3135-3.897-19.3135-3.897s-5.0919 4.494-4.4246 15.202c.316 5.232.913 27.491 1.5451 34.092.2107 2.387.4213 4.072.4916 4.774.0351.211-.0351.422-.1405.597-.913 1.545-1.6856 3.16-2.2825 4.845-6.1102 16.291.9481 36.338.9481 36.338l1.826-.737s4.0033-22.329 7.2693-32.195c.562-1.685 1.088-2.984 1.58-3.792 1.405-2.282 2.739-6.039 3.933-10.462 2.247-8.427 4.073-19.346 5.267-27.807.176 0 3.617-14.254 3.617-14.254z" fill="#f99746"/><path d="m114.654 188.138c-8.814 2.106-9.271-11.516-8.709-11.551.984-.772 2.423-3.897 2.739-8.707l.422.105 6.953 1.861s-.316 2.212-.457 4.283c-.105 1.65-.105 3.195.211 3.581.527.106.878.176.878.176.105.176.316 9.69-2.037 10.252z" fill="#c98959"/><path d="m108.368 150.536c-.07-.386-1.123-4.494-7.515-3.546 0 0 3.196-.176 3.969 1.088 0 0-2.423-1.299-4.039-.456-1.6152.842-2.1068 4.072-1.9312 5.055s1.7202 4.038 2.8442 4.108c.422.035.913-.07 1.335-.246-.211.527-.387 1.054-.562 1.686-1.58 5.652 1.931 10.252 3.968 9.304 1.299-.597 2.107 1.65 2.107 1.65l11.377-13.201c0-.035-6.707-9.269-11.553-5.442z" fill="#2c3a64"/><path d="m116.059 169.846s-.316 2.212-.457 4.283c-3.933-.351-5.794-4.108-6.531-6.144z" fill="#b77142"/><path d="m117.253 171.882s-9.341-.456-8.99-6.284c.351-5.829-.597-9.796 5.408-9.761 5.97.035 7.023 2.317 7.374 4.319.351 2.001-1.334 11.691-3.792 11.726z" fill="#c98959"/><path d="m120.975 156.926c-1.334-1.826-2.458-1.545-3.09-1.054-4.916-3.124-8.498.808-8.498.808-.878 4.143-4.074 6.32-4.074 6.32s1.651 1.158 5.619.386c1.229-.246 2.353-1.018 3.336-2.001-1.756 2.563-4.039 4.353-4.039 4.353 4.847-1.861 7.129-8.251 7.375-8.953.527.562 1.58 1.721 1.861 2.844.386 1.51.386 4.564 1.264 4.529 0 .035 2.248-4.459.246-7.232z" fill="#2c3a64"/><path d="m105.524 312.003h-14.5031s-.3512-2.212.4214-3.897c.7374-1.615 1.8612-2.352 1.5802-4.283.913.948 2.423 2.001 4.53 1.72.2458.421 1.6505 2.633 2.5285 3.265.913.702 5.127.457 5.443 3.195z" fill="#233862"/><path d="m136.602 312.003h-14.503s-.527-2.317.421-3.897c.843-1.404.527-2.177-.105-3.335.667.28 1.51.526 2.458.456.737-.035 1.475-.351 2.142-.772.632.702 3.301 3.721 4.144 4.318.948.737 5.162.492 5.443 3.23z" fill="#233862"/><path d="m121.818 179.606 3.371 31.809 2.072 19.486c-2.072 1.088-4.074 2.001-5.97 2.773-.421-1.58-1.299-3.405-1.299-3.405.21 1.018-.632 3.16-1.124 4.318-17.734 6.25-27.7418-.175-27.7418-.175-.5618-7.163-.0702-21.979 1.4047-34.618.316-2.633.6672-5.161 1.0886-7.513.913-5.337 1.6153-8.146 2.2123-10.358 1.1588-4.178 9.5862-5.477 9.5862-5.477 2.669 5.512 7.761 8.321 7.761 8.321 2.107-1.825 2.985-7.022 2.985-7.022z" fill="#afcdfb"/><path d="m107.034 175.042s-1.51.386-1.651 1.404c0 0 3.442 7.619 7.761 8.321z" fill="#95b3ef"/><path d="m113.144 184.802s2.634-6.986 2.458-7.934c0 0 1.686.316 1.756 1.299 0 0-2.318 5.828-4.214 6.635z" fill="#95b3ef"/><path d="m107.209 190.701c.176.351 8.99 16.185 17.98 20.714 3.933 2.001-9.446-.632-9.622-1.194-.246-.561-8.393-19.52-8.358-19.52z" fill="#95b3ef"/><path d="m125.154 211.415 1.404 13.271c-22.614 0-25.037-31.071-25.037-31.071l12.571 13.727 10.886 3.898c.07.035.106.07.176.175z" fill="#95b3ef"/><path d="m133.827 214.715-.386 2.879s-.983-.035-2.528-.105c-.457-.035-.738-.07-.738-.07-1.229-.07-2.739-.211-4.354-.351h-.035c-2.774-.281-5.9-.667-8.568-1.159-.246-.035-.492-.105-.703-.14-1.58-.351-2.95-.773-3.968-1.229-.105-.035-.211-.105-.316-.176-2.774-1.509-6.496-6.495-9.587-11.937-.421-.772-.842-1.509-1.229-2.247-1.4746-2.738-2.7036-5.477-3.5464-7.864-.5268-1.405-.913-2.739-1.0886-3.827-.0703-.386-.1405-.737-.1756-1.089-.8077-6.249 3.5466-7.513 4.2136-6.881.843.772 1.826 2.142 2.845 3.757 1.615 2.633 3.371 6.039 5.056 9.479.949 1.861 1.826 3.757 2.739 5.477.527 1.054 1.019 2.037 1.475 2.949.913 1.721 1.721 3.125 2.388 3.968.422.562 1.545 1.264 2.985 2.036.386.211.808.421 1.229.632 2.388 1.194 5.373 2.458 8.042 3.511 1.299.527 2.528.983 3.547 1.404 1.615.597 2.703.983 2.703.983z" fill="#c98959"/><path d="m119.5 208.747s.878 5.196-3.687 8.391c-5.935-1.264-10.078-9.304-13.169-14.746-.421-.772-.842-1.51-1.229-2.247-1.4746-2.738-2.7036-5.477-3.5464-7.864-.5268-1.405-.913-2.739-1.0886-3.827-.0703-.387-.1405-.738-.1756-1.089-.8077-6.249 3.5466-7.513 4.2136-6.881.843.772 1.826 2.142 2.845 3.757 1.615 2.633 3.371 6.038 5.056 9.479.949 1.861 1.826 3.757 2.739 5.477.527 1.053 1.019 2.036 1.475 2.949.913 1.721 1.721 3.125 2.388 3.968.422.561 1.545 1.264 2.985 2.036.386.176.773.386 1.194.597z" fill="#afcdfb"/><path d="m141.237 201.409c0 .035 0 .035-.035.035 0 0 0-.035.035-.035 0-.035 0-.035 0 0z" fill="#abddda"/><path d="m154.651 222.896-18.33.105 12.15-20.012 18.33-.105z" fill="#2b478b"/><path d="m144.362 216.576c-1.194-.07-3.125-.562-4.214-1.018 0 0 .597-.281.948-.421l.668-1.124c-.492.07-.948.386-2.95.351-.808 0-2.493.913-2.388.948-1.405-.246-2.669-.597-3.055-.702-.105-.035-.141-.035-.141-.035l-1.896 2.914s1.3.14 1.756.246c1.124.351 2.95 1.404 5.197 2.177 1.3.421 3.687-.281 5.092-.808 1.159-.421 1.861-1.229 2.177-1.826.457-.807-.491-.667-1.194-.702z" fill="#c98959"/><path d="m133.617 210.186c-1.229 0-3.266-.737-4.004-1.053-2.493-1.053-4.038-2.282-5.267-3.722l-.773-9.339c.071.738 1.932 12.078 10.044 14.114z" fill="#95b3ef"/><path d="m620.396 231.147s2.142-1.896 2.915-2.247c.772-.352 2.142-1.721 2.388-1.264.245.456-.878 1.369-.738 1.931.141.561 4.074.983 4.109 1.58.035.596-.667 2.106-2.142 2.141-1.475 0-5.303-.351-6.427-.175-.842.105-.105-1.966-.105-1.966z" fill="#ffb27d"/><path d="m583.103 210.783s2.282-1.053 9.411 5.407c7.128 6.46 12.01 13.201 15.837 13.482 3.828.281 12.361 1.018 12.361 1.018l1.229 2.388s-.316 1.018-6.356 2.949c-5.162 1.65-10.078 1.229-10.535 1.194-4.881-.597-16.61-8.427-18.365-10.744-1.791-2.352-3.582-15.694-3.582-15.694z" fill="#fff"/><path d="m633.53 281.704c-.106 1.088 0 2.738.245 4.669.949 7.689 4.109 20.013 4.109 20.013l3.933.491c-.281-2.177.527-10.498 1.615-19.731 1.651-13.939 3.898-29.913 3.898-29.913s-8.568-7.092-13.625-5.126.422 24.225-.175 29.597z" fill="#ffb27d"/><path d="m633.775 286.408c.949 7.689 4.109 20.012 4.109 20.012l3.933.492c-.281-2.177.527-10.498 1.615-19.731-1.404.245-5.197.737-8.357-.457-.527-.21-.948-.316-1.3-.316z" fill="#efcdaf"/><path d="m637.357 200.039s2.072-.983 4.39 0c2.317.984 4.003 5.232 2.984 9.199-1.053 3.967 2.494 4.038.843 7.197-.562 1.124-8.217 2.072-8.498-2.282-.175-2.703 2.283-2.843 1.58-5.793-.702-2.949-1.299-8.321-1.299-8.321z" fill="#2c3a64"/><path d="m626.401 280.861c-.246 1.335-.176 3.546.07 6.144.667 7.865 2.809 19.065 2.809 19.065l3.898.913c-.14-2.142 1.124-10.217 2.739-19.275 2.494-14.079 5.795-30.44 5.795-30.44s-8.112-7.584-13.274-5.969-1.124 24.226-2.037 29.562z" fill="#ffc299"/><path d="m641.747 306.105s.948 1.72 2.704 2.106c1.123.246 2.072.843 2.669 1.65.491.702 0 1.686-.843 1.65l-9.06-.07c-.773 0-1.37-.667-1.3-1.439.071-.667.141-1.44.176-2.037.07-1.299 1.475-2.492 1.475-2.492s1.229.702 1.721.807c1.088.211 2.458-.175 2.458-.175z" fill="#212d4c"/><path d="m643.467 218.929s5.9 9.971 7.094 18.081c0 0-2.88 3.862-4.039 1.159-1.158-2.704-9.551-17.274-3.055-19.24z" fill="#ffb27d"/><path d="m642.344 201.268c-.071-.105-2.704-4.283-7.656-5.125-4.003-.668-7.76 2.141-8.357 6.179-.632 4.037 0 9.269 6.601 11.165z" fill="#2c3a64"/><path d="m641.15 219.245-7.445 4.423-1.896-5.231s.878-1.896 1.124-4.985c.105-1.299.105-2.774-.106-4.389l6.462 2.809s-.106.597-.141 1.439c-.035.948-.035 2.177.316 3.336.281 1.018.808 1.966 1.686 2.598z" fill="#ffb27d"/><path d="m639.429 216.646c-3.582.141-6.532-3.195-6.532-3.195l6.216-.14c-.035.913 0 2.177.316 3.335z" fill="#ed975d"/><path d="m641.044 214.575s-6.988 2.317-9.797-3.16c-3.055-5.933-.422-10.568 2.001-11.024 4.776-.913 7.691.772 8.674 2.633.948 1.861 2.985 10.287-.878 11.551z" fill="#ffb27d"/><path d="m638.024 211.555s.352.703 2.178.176c0 0 1.545-.456 1.334-1.264 0 0-1.65-.246-3.512 1.088z" fill="#fff"/><path d="m623.311 276.016c2.037 1.931 16.961 5.934 25.389 3.055 1.51-.527-.913-47.047-2.353-56.035-.386-2.457-2.353-4.388-4.811-4.704-.421-.07-.878-.106-1.369-.176.105 1.124-.281 2.142-2.213 2.528-2.563.492-4.986-1.123-6.25-2.247-2.002.421-3.161.562-4.776 1.229-1.756.737-2.774 2.528-2.529 4.424l.492 3.546 1.545 11.305c.211 1.404.176 2.879-.035 4.283-.667 4.284-1.686 14.746-2.388 22.716-.492 5.582-.808 9.971-.702 10.076z" fill="#f9ddbf"/><path d="m636.163 201.023s.668 6.565-5.548 8.882c-2.493.913-3.757-9.093 1.405-11.094 5.162-2.002 10.289.386 10.886 3.862.597 3.511.14 4.213.14 4.213s-2.458-6.636-6.883-5.863z" fill="#2c3a64"/><path d="m632.371 222.475s2.844 11.305 2.949 15.799c0 0 6.251 10.954 6.637 11.726.387.773-2.247 1.826-2.247 1.826s-7.866-8.391-9.376-11.902-6.883-14.992-4.741-18.397c2.142-3.406 6.778.948 6.778.948z" fill="#ffb27d"/><path d="m650.596 237.045s.562 7.689-4.916 13.763c0 0-1.51-1.791-1.299-2.353.175-.561 2.317-9.128 3.897-10.357 1.546-1.229 2.318-1.053 2.318-1.053z" fill="#ffb27d"/><path d="m641.958 250s3.511-.035 3.687.808c.21.807-.913 3.405-3.477 2.492-2.563-.912-2.493-1.474-2.493-1.474z" fill="#ffb27d"/><path d="m644.38 248.42s-2.809 1.299-1.861 2.704c.948 1.404 2.88.562 3.161-.316s-1.3-2.388-1.3-2.388z" fill="#ffb27d"/><path d="m634.443 228.443s-3.688 3.406-9.341 2.879c0 0-2.775-9.901 1.685-11.13 4.46-1.228 8.147 4.67 7.656 8.251z" fill="#f9ddbf"/><path d="m645.399 220.684 3.231 5.547s-.422 2.563-2.845 2.809-.386-8.356-.386-8.356z" fill="#f9ddbf"/><path d="m628.438 200.11s-2.072-1.124-4.39 0c-2.318 1.123-4.003 5.898-2.985 10.357 1.054 4.459-2.493 4.529-.843 8.11.597 1.264 8.218 2.352 8.499-2.598.175-3.054-2.283-3.195-1.581-6.53.668-3.336 1.3-9.339 1.3-9.339z" fill="#2c3a64"/><path d="m626.436 287.041c.667 7.864 2.809 19.064 2.809 19.064l3.898.913c-.14-2.142 1.124-10.217 2.739-19.275-2.107.21-5.899.386-9.446-.702z" fill="#f9ddbf"/><path d="m633.248 306.105s.949 1.72 2.704 2.106c1.124.246 2.072.843 2.669 1.65.492.702 0 1.686-.843 1.65l-9.059-.07c-.773 0-1.37-.667-1.3-1.439.07-.667.141-1.44.176-2.037.07-1.299 1.475-2.492 1.475-2.492s1.229.702 1.72.807c1.089.211 2.458-.175 2.458-.175z" fill="#2c3a64"/><path d="m584.472 189.156s.141-4.635-6.004-5.547c-6.146-.913-7.831.526-8.85 2.071-1.053 1.58-2.985 7.935-2.809 10.498.211 2.528 7.199 5.687 7.094 7.162-.141 1.475 10.569-14.184 10.569-14.184z" fill="#163560"/><path d="m611.793 308.176c-.106 1.545 2.036 1.896 4.53 2.001 2.493.106 1.756.632 5.197 1.194s4.811-.386 5.022-.842c.21-.422-1.37-1.054-3.091-1.756-.21-.07-.421-.176-.632-.281-1.931-.807-3.02-2.528-4.53-4.072-1.44-1.475-2.844-6.285-2.844-6.285l-4.671-.948s1.37 4.318 1.826 6.144c.281 1.089-.105 2.317-.421 3.23-.176.562-.351 1.089-.386 1.615z" fill="#ffb27d"/><path d="m616.323 310.177c2.493.106 1.755.632 5.197 1.194 3.441.562 4.811-.386 5.021-.843.211-.421-1.369-1.053-3.09-1.755l-.035.035s-2.388.843-5.197.141c-2.283-.597-4.495-1.896-6.04-2.318-.176.492-.351 1.019-.421 1.58-.106 1.51 2.071 1.861 4.565 1.966z" fill="#b24940"/><path d="m575.869 250.036s30.972 1.615 36.275 6.003c5.302 4.389 6.531 47.608 6.531 47.608-.737.843-1.334.843-2.598.808-1.194-.035-3.687-.913-3.687-.913s-7.656-20.89-7.972-25.77c-.316-4.915-1.791-13.166-3.898-13.587-2.107-.387-26.934 3.581-30.059-4.038s1.124-14.184 1.124-14.184z" fill="#163560"/><path d="m561.331 257.724c1.334.878 4.776 1.369 8.779 1.51 7.128.246 16.083-.597 17.839-2.247.456-.421.667-1.124.737-2.037.211-2.738-1.123-7.267-2.001-10.989-.562-2.422-.949-4.529-.632-5.582.983-3.265 3.968-9.901 4.249-12.078.245-2.176-2.353-13.868-5.935-15.342-3.617-1.44-17.523 0-17.523 0-5.443 1.088-5.654 12.674-3.863 22.54.035.246.106.491.141.772 1.931 9.971-5.514 20.96-1.791 23.453z" fill="#fff"/><path d="m581.909 211.977c-.105.632-1.826 1.65-5.548.702-3.547-.948-4.004-2.106-4.004-2.879 0-.913 1.546-2.141 1.51-7.724l.422.07 7.163 1.405s-.175 2.247-.175 4.388c.07 1.826.808 2.95.632 4.038z" fill="#ffb27d"/><path d="m581.523 203.586s-.176 2.247-.176 4.389c-4.003-.106-6.145-3.792-7.023-5.793z" fill="#ed975d"/><path d="m582.857 205.587s-9.516.175-9.516-5.758c0-5.934-1.23-9.901 4.846-10.252 6.075-.351 7.269 1.896 7.725 3.897.457 2.001-.597 11.937-3.055 12.113z" fill="#ffb27d"/><path d="m582.506 189.437s-2.599 6.952-6.602 7.97-5.724-.035-5.724-.035 3.055-2.423 3.687-6.671c0 0 6.672-4.564 8.639-1.264z" fill="#163560"/><path d="m581.839 190.034s1.931 1.544 2.423 3.054c.456 1.51.702 4.599 1.58 4.494 0 0 1.966-4.74-.246-7.373-2.318-2.844-3.722-.175-3.757-.175z" fill="#163560"/><path d="m580.75 202.006s.176.737 2.037.632c0 0 1.58-.105 1.51-.913 0 0-1.51-.597-3.547.281z" fill="#fff"/><path d="m591.32 309.861c.07 1.545 2.247 1.651 4.741 1.475 2.493-.176 1.826.421 5.302.597 3.477.175 4.706-.913 4.917-1.405.175-.421-1.475-.877-3.266-1.369-.211-.07-.457-.14-.667-.175-2.002-.597-3.266-2.142-4.952-3.546-1.58-1.299 1.44-8.181 1.44-8.181l-4.495-1.931s-.597 4.845-1.475 9.093c-.211 1.089-1.053 2.915-1.264 3.898-.176.491-.281 1.018-.281 1.544z" fill="#ffb27d"/><path d="m561.331 257.724c1.334.878 4.776 1.369 8.779 1.51 6.602-1.51 14.081-3.23 18.576-4.283.211-2.739-1.123-7.268-2.001-10.99-5.198 1.58-12.958-3.826-15.557-5.968-2.739-2.247-2.669-9.725-2.669-9.725l-5.513 5.231c.035.246.106.491.141.772 1.966 10.006-5.478 20.96-1.756 23.453z" fill="#e0eafc"/><path d="m596.061 311.336c2.493-.176 1.826.421 5.302.597 3.477.175 4.706-.913 4.917-1.405.175-.421-1.475-.877-3.266-1.369l-.035.035s-2.283 1.124-5.127.702c-2.318-.316-4.671-1.404-6.286-1.615-.105.527-.246 1.054-.246 1.615.07 1.545 2.247 1.65 4.741 1.44z" fill="#c65447"/><path d="m569.302 252.177c7.796-.597 31.253.07 35.924 3.195 5.724 3.827-8.077 47.573-8.077 47.573h-4.424s-2.564-25.419-.984-30.475c1.475-4.67 2.423-6.355.281-6.53-2.142-.176-28.619 4.494-31.253-3.301-2.037-6.074.246-11.937.246-11.937s1.088 2.036 8.287 1.475z" fill="#1c468a"/><path d="m572.568 185.926s.386-2.493-3.055-3.125c-3.442-.632-3.512 6.671-3.863 8.427-.386 1.755.562 2.808 1.861 2.914 1.3.14 5.057-8.216 5.057-8.216z" fill="#163560"/><path d="m583.454 249.508s5.022-.561 6.11-.035c1.089.527 4.565 3.757 3.898 4.354s-3.933-1.088-5.548-1.124c-1.616-.07-2.985.527-4.109.176s-2.247-1.018-2.247-1.018z" fill="#ffb27d"/><path d="m583.454 249.509s2.528-.808 3.336-1.405c.105-.07.246-.035.281.071.141.316.211.877-.702 1.299-1.335.597-2.915.035-2.915.035z" fill="#ffb27d"/><path d="m566.809 210.959s-5.443.456-5.864 4.775c-.316 3.265-2.704 26.437-.984 28.438 4.811 5.653 15.522 7.338 21.632 7.689 0 0 .737-.562 1.124-1.018.386-.421.737-1.334.737-1.334s-16.786-8.883-16.54-10.849c.281-1.966 5.092-28.473-.105-27.701z" fill="#fff"/><path d="m1.36953 311.195h1034.03047c.77 0 1.37.632 1.37 1.37v1.053c0 .772-.63 1.369-1.37 1.369h-1034.03047c-.772556 0-1.36953-.632-1.36953-1.369v-1.053c0-.738.63209-1.37 1.36953-1.37z" fill="#2e3552"/><path d="m561.155 98.6792v70.6048h99.238v-70.6048zm98.044 69.3758h-96.78v-68.1119h96.78z" fill="#bad4f4"/><path d="m715.209 98.6792v70.6048h50.252v-70.6048zm48.987 69.3758h-47.757v-68.1119h47.757z" fill="#bad4f4"/></g></svg>