<svg width="128" height="40" viewBox="0 0 128 40" fill="none" xmlns="http://www.w3.org/2000/svg">
<path d="M46.37 12.9735H49.2903V17.322H51.0266V19.8746H49.2903V29.1086H46.37V19.8746H44.8754V17.322H46.37V12.9735Z" fill="#33679A"/>
<path d="M61.2442 17.322H64.168V29.1086H61.2442V27.8532C60.6712 28.4007 60.0982 28.7948 59.5217 29.0354C58.9487 29.276 58.3205 29.3981 57.6508 29.3981C56.1389 29.3981 54.8341 28.8087 53.7329 27.6301C52.6317 26.4549 52.0794 24.9903 52.0794 23.2397C52.0794 21.4229 52.6145 19.9339 53.6811 18.7727C54.7478 17.6149 56.0388 17.0326 57.5645 17.0326C58.2687 17.0326 58.9246 17.1651 59.539 17.4301C60.1534 17.6917 60.723 18.0927 61.2442 18.6158V17.322ZM58.1617 19.7421C57.2538 19.7421 56.4979 20.0629 55.9007 20.7115C55.3001 21.3567 54.9997 22.1831 54.9997 23.1944C54.9997 24.2126 55.3035 25.0496 55.9145 25.7051C56.5255 26.3607 57.278 26.6885 58.172 26.6885C59.0902 26.6885 59.8566 26.3677 60.4607 25.7191C61.0682 25.074 61.372 24.2266 61.372 23.1804C61.372 22.1552 61.0682 21.3288 60.4607 20.6906C59.8566 20.0594 59.0903 19.7421 58.1617 19.7421Z" fill="#33679A"/>
<path d="M67.0918 17.322H70.0156V18.6994C70.5161 18.1415 71.0753 17.723 71.6897 17.4476C72.3007 17.1686 72.9704 17.0326 73.6953 17.0326C74.4236 17.0326 75.0864 17.2139 75.6732 17.5766C76.2635 17.9392 76.7364 18.4728 77.0954 19.1667C77.5614 18.4728 78.131 17.9392 78.811 17.5766C79.4876 17.2139 80.2332 17.0326 81.034 17.0326C81.8659 17.0326 82.5977 17.2279 83.2294 17.6184C83.8646 18.0055 84.3133 18.5181 84.5929 19.1423C84.8691 19.77 85.0072 20.7917 85.0072 22.2075V29.1121H82.0834V23.1525C82.0834 21.8204 81.9177 20.9173 81.5863 20.4465C81.2515 19.9757 80.751 19.7386 80.0882 19.7386C79.5808 19.7386 79.1251 19.8816 78.7247 20.171C78.3208 20.457 78.0205 20.8545 77.8272 21.3636C77.6339 21.8693 77.5338 22.6853 77.5338 23.8081V29.1051H74.61V23.4245C74.61 22.3749 74.5341 21.6112 74.3753 21.1405C74.22 20.6662 73.9887 20.3175 73.678 20.0873C73.3674 19.8572 72.9877 19.7421 72.5493 19.7421C72.0591 19.7421 71.6103 19.8851 71.2134 20.178C70.8095 20.4709 70.5126 20.8789 70.3124 21.402C70.1157 21.9286 70.0156 22.755 70.0156 23.8848V29.1086H67.0918V17.322Z" fill="#33679A"/>
<path d="M96.4053 17.322H99.3291V29.1086H96.4053V27.8532C95.8357 28.4007 95.2593 28.7948 94.6828 29.0354C94.1063 29.276 93.4815 29.3981 92.8119 29.3981C91.2999 29.3981 89.9951 28.8087 88.894 27.6301C87.7928 26.4549 87.244 24.9903 87.244 23.2397C87.244 21.4229 87.779 19.9339 88.8456 18.7727C89.9123 17.6149 91.2068 17.0326 92.729 17.0326C93.4332 17.0326 94.0891 17.1651 94.7035 17.4301C95.318 17.6917 95.8875 18.0927 96.4087 18.6158V17.322H96.4053ZM93.3262 19.7421C92.4184 19.7421 91.6624 20.0629 91.0652 20.7115C90.4646 21.3567 90.1643 22.1831 90.1643 23.1944C90.1643 24.2126 90.468 25.0496 91.079 25.7051C91.69 26.3607 92.4425 26.6885 93.3331 26.6885C94.2513 26.6885 95.0176 26.3677 95.6217 25.7191C96.2292 25.074 96.533 24.2266 96.533 23.1804C96.533 22.1552 96.2292 21.3288 95.6217 20.6906C95.0211 20.0594 94.2513 19.7421 93.3262 19.7421Z" fill="#33679A"/>
<path d="M102.277 17.322H105.201V18.5355C105.863 17.9741 106.468 17.5836 107.006 17.3639C107.545 17.1442 108.097 17.0326 108.663 17.0326C109.819 17.0326 110.807 17.4406 111.611 18.2531C112.287 18.947 112.629 19.9723 112.629 21.3288V29.1086H109.73V23.9581C109.73 22.5528 109.667 21.6182 109.543 21.1614C109.419 20.7011 109.198 20.3489 108.891 20.1083C108.58 19.8676 108.194 19.7456 107.741 19.7456C107.148 19.7456 106.64 19.9444 106.216 20.3454C105.791 20.7464 105.498 21.3009 105.332 22.0018C105.249 22.3714 105.204 23.1665 105.204 24.3905V29.1121H102.28V17.322H102.277Z" fill="#33679A"/>
<path d="M115.463 17.322H118.428V22.9921C118.428 24.0941 118.504 24.8613 118.656 25.2902C118.805 25.7191 119.046 26.0539 119.381 26.2945C119.712 26.5316 120.127 26.6502 120.617 26.6502C121.104 26.6502 121.521 26.5316 121.863 26.298C122.205 26.0643 122.457 25.7226 122.622 25.2658C122.743 24.924 122.805 24.1987 122.805 23.0898V17.322H125.729V22.3087C125.729 24.3661 125.567 25.7714 125.246 26.5316C124.852 27.4557 124.272 28.1636 123.506 28.6588C122.74 29.1505 121.766 29.3981 120.586 29.3981C119.305 29.3981 118.273 29.1086 117.479 28.5332C116.689 27.9579 116.133 27.1523 115.808 26.1201C115.577 25.4053 115.463 24.108 115.463 22.225V17.322Z" fill="#33679A"/>
<path fill-rule="evenodd" clip-rule="evenodd" d="M21.613 28.0415C19.3037 25.7086 16.7355 23.3722 14.6816 21.0393C11.0882 16.9524 10.8534 10.9022 14.6816 7.03838C18.5097 3.17112 24.7163 3.17112 28.541 7.03838C32.3691 10.9056 32.1344 16.9524 28.541 21.0393C26.4905 23.3722 23.9223 25.7086 21.613 28.0415ZM13.8773 13.8383C13.8773 15.9062 14.6643 18.0125 16.159 19.7142C17.5018 21.2416 19.0586 22.7585 20.6154 24.2719L21.613 25.2448L22.614 24.2719C24.1709 22.755 25.7242 21.2416 27.067 19.7142C28.5617 18.0125 29.3487 15.9062 29.3487 13.8383C29.3487 11.8855 28.6376 9.95714 27.1429 8.45068C25.6172 6.90936 23.6151 6.13521 21.613 6.13521C19.6109 6.13521 17.6088 6.90587 16.0831 8.45068C14.5884 9.95714 13.8773 11.882 13.8773 13.8383Z" fill="#FFCD05"/>
<path fill-rule="evenodd" clip-rule="evenodd" d="M20.1667 9.63632H23.0559V12.5551H25.9417V15.4703H23.0559V18.3856H20.1667V15.4703H17.2809V12.5551H20.1667V9.63632Z" fill="#33679A"/>
<path fill-rule="evenodd" clip-rule="evenodd" d="M24.126 32.1355L23.1594 31.03C23.981 31.0649 24.7508 30.3465 25.5551 30.9882C26.7494 31.9437 27.999 32.6271 30.726 33.1223C31.1782 33.206 30.4775 33.75 28.1958 33.5652C26.2765 33.4083 28.3476 33.9767 25.9382 33.75C25.0994 33.6698 25.5482 33.8686 27.0808 34.1615C27.8471 34.3079 27.5779 34.9845 23.4045 34.7264C20.574 34.5486 20.0389 34.6497 16.3212 34.8066C15.0716 34.8589 13.0799 34.2975 15.1545 33.8755C16.2971 33.6419 12.3723 33.3943 12.3723 33.0805C12.3723 32.7597 14.3053 32.3551 15.1648 32.0936C16.7838 31.5984 18.1231 30.8487 18.7272 30.3779C20.8743 28.7006 21.3748 30.7476 24.126 32.1355Z" fill="#33679A"/>
<path fill-rule="evenodd" clip-rule="evenodd" d="M36.3595 33.5233C38.0924 33.9976 39.0934 34.5625 39.0934 35.1693C39.0934 36.864 31.2645 38.2345 21.6096 38.2345C11.9581 38.2345 4.12915 36.864 4.12915 35.1693C4.12915 34.5625 5.13365 33.9976 6.86305 33.5233C5.98627 33.8476 5.49955 34.2103 5.49955 34.5869C5.49955 36.0446 12.714 37.2267 21.613 37.2267C30.512 37.2267 37.7265 36.0446 37.7265 34.5869C37.723 34.2103 37.2363 33.8476 36.3595 33.5233Z" fill="#FFCD05"/>
<path fill-rule="evenodd" clip-rule="evenodd" d="M33.4116 33.3385C34.7958 33.6524 35.6001 34.029 35.6001 34.43C35.6001 35.5529 29.3384 36.4595 21.613 36.4595C13.8877 36.4595 7.62592 35.5494 7.62592 34.43C7.62592 34.029 8.43021 33.6559 9.81442 33.3385C9.11369 33.5547 8.72362 33.7919 8.72362 34.0429C8.72362 35.0089 14.4952 35.79 21.613 35.79C28.7308 35.79 34.5024 35.0089 34.5024 34.0429C34.5024 33.7919 34.1123 33.5547 33.4116 33.3385Z" fill="#FFCD05"/>
</svg>
