<svg width="32" height="32" viewBox="0 0 32 32" fill="none" xmlns="http://www.w3.org/2000/svg">
<path d="M30 10.2857H2C0.896 10.2857 0 9.35771 0 8.21429V4.07143C0 2.928 0.896 2 2 2H30C31.104 2 32 2.928 32 4.07143V8.21429C32 9.35771 31.104 10.2857 30 10.2857Z" fill="black"/>
<path d="M30 20.6429H2C0.896 20.6429 0 19.7149 0 18.5714C0 17.428 0.896 16.5 2 16.5H30C31.104 16.5 32 17.428 32 18.5714C32 19.7149 31.104 20.6429 30 20.6429Z" fill="black"/>
<path d="M30 31H2C0.896 31 0 30.072 0 28.9285C0 27.7851 0.896 26.8571 2 26.8571H30C31.104 26.8571 32 27.7851 32 28.9285C32 30.072 31.104 31 30 31Z" fill="black"/>
</svg>
