<svg width="32" height="32" viewBox="0 0 32 32" fill="none" xmlns="http://www.w3.org/2000/svg">
<path d="M14.3551 20.9562C14.3551 16.6696 17.1464 13.0808 20.9346 11.7849C20.9346 11.2864 20.9346 10.788 20.7352 10.3892C20.5358 9.99049 20.4361 9.99049 20.3364 9.49205C20.2368 8.89392 20.5358 7.09953 20.5358 6.70077C20.5358 5.70389 20.5358 5.6042 20.2368 4.60732C20.2368 4.60732 19.9377 3.71012 19.4393 3.41106L18.4424 3.21168L17.8442 2.71324C15.4517 1.3176 12.8598 2.31448 11.5639 2.81292C9.66978 3.61043 8.47352 5.50451 9.27103 9.49205C9.37072 10.1899 8.87228 10.4889 8.87228 10.8877C9.07165 11.6852 9.07165 13.5793 9.86916 14.0777C9.96885 14.0777 10.4673 14.2771 10.4673 14.1774C10.567 14.9749 10.6667 15.7724 10.6667 16.5699C10.866 17.0684 11.3645 17.1681 11.4642 17.8659L10.866 17.9656C10.567 18.5637 10.0685 19.6603 9.57009 19.9593C9.17134 20.059 8.6729 20.1587 8.27414 20.2584C6.77882 20.8565 5.08411 21.5544 3.58879 22.1525C2.19315 22.7506 0.598131 22.95 0.0996885 24.3456C0.0996885 25.3425 -1.48547e-09 27.5357 -1.48547e-09 28.7319H18.4424C16.0498 27.2366 14.3551 24.3456 14.3551 20.9562Z" fill="#010101"/>
<path d="M24.0249 13.0808C19.6386 13.0808 16.0498 16.6696 16.0498 21.0559C16.0498 25.4422 19.6386 29.031 24.0249 29.031C28.4112 29.031 32 25.4422 32 21.0559C32 16.5699 28.4112 13.0808 24.0249 13.0808ZM29.0093 22.1525H25.2211V26.0403C25.2211 26.6384 24.7227 27.1369 24.0249 27.1369C23.3271 27.1369 22.8286 26.6384 22.8286 26.0403V22.1525H19.0405C18.4423 22.1525 17.8442 21.654 17.8442 21.0559C17.8442 20.4578 18.3426 19.8596 19.0405 19.8596H22.8286V16.0715C22.8286 15.4733 23.3271 14.8752 24.0249 14.8752C24.7227 14.8752 25.2211 15.3736 25.2211 16.0715V19.8596H29.0093C29.6074 19.8596 30.2056 20.3581 30.2056 21.0559C30.2056 21.654 29.6074 22.1525 29.0093 22.1525Z" fill="#010101"/>
</svg>
