<svg width="32" height="32" viewBox="0 0 32 32" fill="none" xmlns="http://www.w3.org/2000/svg">
<path fill-rule="evenodd" clip-rule="evenodd" d="M4.94737 0H27.0526C28.6804 0 30 1.30244 30 2.90909V29.0909C30 30.6976 28.6804 32 27.0526 32H4.94737C3.31958 32 2 30.6976 2 29.0909V2.90909C2 1.30244 3.31958 0 4.94737 0ZM17.4286 9.99999C16.6396 9.99999 16 9.32842 16 8.49999C16 7.67157 16.6396 7 17.4286 7H24.5714C25.3604 7 26 7.67157 26 8.49999C26 9.32842 25.3604 9.99999 24.5714 9.99999H17.4286ZM12.2432 6.61309C11.8731 6.19794 11.2313 6.15666 10.8096 6.52089L8.11111 8.85137L7.65827 8.46029C7.23653 8.09605 6.59468 8.13733 6.22466 8.55249C5.85465 8.96764 5.89658 9.59946 6.31833 9.96369L7.44113 10.9334C7.82447 11.2645 8.39774 11.2645 8.78108 10.9334L12.1495 8.0243C12.5712 7.66007 12.6132 7.02825 12.2432 6.61309ZM17.4286 17.5002C16.6396 17.5002 16 16.8287 16 16.0002C16 15.1718 16.6396 14.5002 17.4286 14.5002H24.5714C25.3604 14.5002 26 15.1718 26 16.0002C26 16.8287 25.3604 17.5002 24.5714 17.5002H17.4286ZM12.2432 13.886C11.8731 13.4709 11.2313 13.4296 10.8096 13.7938L8.11111 16.1243L7.65827 15.7332C7.23653 15.369 6.59468 15.4103 6.22466 15.8254C5.85465 16.2406 5.89658 16.8724 6.31833 17.2366L7.44113 18.2063C7.82447 18.5374 8.39774 18.5374 8.78108 18.2063L12.1495 15.2972C12.5712 14.933 12.6132 14.3012 12.2432 13.886ZM17.4286 25C16.6396 25 16 24.3284 16 23.5C16 22.6716 16.6396 22 17.4286 22H24.5714C25.3604 22 26 22.6716 26 23.5C26 24.3284 25.3604 25 24.5714 25H17.4286ZM5.49121 23.2727C5.49121 24.076 6.16147 24.7272 6.98829 24.7272H9.98244C10.8093 24.7272 11.4795 24.076 11.4795 23.2727C11.4795 22.4693 10.8093 21.8181 9.98244 21.8181H6.98829C6.16147 21.8181 5.49121 22.4693 5.49121 23.2727Z" fill="black"/>
</svg>
