<svg width="32" height="32" viewBox="0 0 32 32" fill="none" xmlns="http://www.w3.org/2000/svg">
<path d="M16 32C24.8366 32 32 24.8366 32 16C32 7.16344 24.8366 0 16 0C7.16344 0 0 7.16344 0 16C0 24.8366 7.16344 32 16 32Z" fill="white"/>
<path d="M9.1024 22.9456C9.5456 22.824 9.9872 22.7032 10.4296 22.5816C10.9592 22.2176 11.4768 21.0112 11.7584 20.408L12.3872 20.2568C12.2448 19.4632 11.7528 19.4024 11.5488 18.8408C11.468 17.9936 11.3872 17.1488 11.3072 16.3048C11.3104 16.3456 10.7288 16.1984 10.6536 16.1504C9.8336 15.636 9.816 13.5504 9.7376 12.6832C9.7016 12.2864 10.2528 11.9608 10.1 11.2328C9.2016 6.9744 10.4888 4.9816 12.5248 4.3208C13.936 3.748 16.5736 2.6864 19.0344 4.2L19.644 4.7664L20.6312 4.9368C21.1264 5.2224 21.444 6.1712 21.444 6.1712C21.7048 7.2192 21.7312 7.3072 21.7048 8.3824C21.6968 8.7984 21.4576 10.716 21.5232 11.3032C21.576 11.788 21.6984 11.8264 21.8872 12.2264C22.2216 12.9216 22.1088 13.8808 21.9808 14.5832C21.9104 14.9664 21.7648 15.5136 21.54 15.8264C21.2912 16.1736 20.796 16.1752 20.576 16.5776C20.2616 17.1576 20.44 17.9712 20.24 18.5976C20.0152 19.3088 19.4384 19.3584 19.3944 20.2864C19.6776 20.3272 19.9584 20.368 20.24 20.4064C20.5232 21.0096 21.04 22.216 21.568 22.58C22.012 22.7016 22.4536 22.8224 22.896 22.944C24.4472 23.5784 26.1712 24.3392 27.7256 24.9952C28.1088 25.156 28.5096 25.2904 28.9048 25.428C30.8424 22.7832 32 19.5304 32 16C32 7.1632 24.8368 0 16 0C7.1632 0 0 7.1632 0 16C0 19.5304 1.1576 22.7832 3.0944 25.4296C3.4888 25.292 3.8904 25.1576 4.2728 24.9968C5.8272 24.3408 7.5512 23.58 9.1024 22.9456Z" fill="#CEECFD"/>
</svg>
