<svg width="32" height="32" viewBox="0 0 32 32" fill="none" xmlns="http://www.w3.org/2000/svg">
<path d="M19.669 17.44V21.709H12.351V17.44H0.021V30.041H32V17.44H19.669ZM12.351 12.665H19.669V15.574H31.998V9.83C31.998 8.974 31.3 8.281 30.439 8.281H24.696V6.288C24.693 4.472 23.215 3 21.387 3H10.61C8.784 3 7.304 4.471 7.303 6.288V8.28H1.557C0.697 8.28 0 8.973 0 9.83V15.574H12.351V12.665ZM9.558 6.288C9.558 5.711 10.029 5.242 10.61 5.241H21.388C21.969 5.241 22.439 5.711 22.441 6.288V8.28H9.558V6.288ZM17.825 19.879V14.482H14.175V19.879H17.825Z" fill="black"/>
</svg>
