<svg width="32" height="32" viewBox="0 0 32 32" fill="none" xmlns="http://www.w3.org/2000/svg">
<path d="M29.0002 8H28.0002V17C27.9986 18.3256 27.4713 19.5964 26.534 20.5338C25.5966 21.4711 24.3258 21.9984 23.0002 22H15.1272L11.7002 25H19.6802L28.0002 30.943V25H29.0002C29.7958 25 30.5589 24.6839 31.1215 24.1213C31.6841 23.5587 32.0002 22.7956 32.0002 22V11C32.0002 10.2044 31.6841 9.44129 31.1215 8.87868C30.5589 8.31607 29.7958 8 29.0002 8Z" fill="black"/>
<path d="M23 1H3C2.20435 1 1.44129 1.31607 0.87868 1.87868C0.31607 2.44129 0 3.20435 0 4L0 17C0 17.7956 0.31607 18.5587 0.87868 19.1213C1.44129 19.6839 2.20435 20 3 20H5V28.2L14.376 20H23C23.7956 20 24.5587 19.6839 25.1213 19.1213C25.6839 18.5587 26 17.7956 26 17V4C26 3.20435 25.6839 2.44129 25.1213 1.87868C24.5587 1.31607 23.7956 1 23 1Z" fill="black"/>
</svg>
