<svg width="32" height="32" viewBox="0 0 32 32" fill="none" xmlns="http://www.w3.org/2000/svg">
<path fill-rule="evenodd" clip-rule="evenodd" d="M16 30C23.732 30 30 23.732 30 16C30 8.26801 23.732 2 16 2C8.26802 2 2 8.26801 2 16C2 23.732 8.26801 30 16 30ZM32 16C32 24.8366 24.8366 32 16 32C7.16344 32 6.26248e-07 24.8366 1.39876e-06 16C2.17128e-06 7.16344 7.16345 -2.17128e-06 16 -1.39876e-06C24.8366 -6.26248e-07 32 7.16344 32 16Z" fill="#111111"/>
<path fill-rule="evenodd" clip-rule="evenodd" d="M18.7071 22.1618C18.3166 22.5523 17.6834 22.5523 17.2929 22.1618L11.8383 16.7073C11.4478 16.3167 11.4478 15.6836 11.8383 15.2931L17.2929 9.83851C17.6834 9.44799 18.3166 9.44799 18.7071 9.83851C19.0976 10.229 19.0976 10.8622 18.7071 11.2527L13.9597 16.0002L18.7071 20.7476C19.0976 21.1381 19.0976 21.7713 18.7071 22.1618Z" fill="#111111"/>
</svg>
