<svg width="32" height="32" viewBox="0 0 32 32" fill="none" xmlns="http://www.w3.org/2000/svg">
<path d="M27.3927 4.759C24.3619 1.69 20.3168 0 16.0036 0C11.7685 0 7.77444 1.64 4.76063 4.616C1.71581 7.618 0.02736 11.625 0.000352795 15.9C-0.0276547 20.173 1.61279 24.2 4.61459 27.243C7.6464 30.312 11.6925 32 16.0056 32C20.2408 32 24.2349 30.361 27.2517 27.387C33.5273 21.186 33.5904 11.035 27.3927 4.759ZM25.7333 25.848C23.1256 28.425 19.6696 29.842 16.0056 29.842C12.2736 29.842 8.77371 28.381 6.151 25.726C3.55031 23.094 2.13293 19.61 2.15693 15.913C2.17994 12.216 3.64433 8.749 6.27504 6.151C8.88274 3.576 12.3377 2.157 16.0026 2.157C19.7336 2.157 23.2336 3.619 25.8553 6.274C31.2237 11.706 31.1647 20.485 25.7333 25.848Z" fill="black"/>
<path d="M24.5021 14.922H17.0841V7.50503C17.0841 6.90803 16.601 6.42603 16.0048 6.42603C15.4076 6.42603 14.9265 6.90803 14.9265 7.50503V14.922H7.50751C6.91135 14.922 6.42822 15.404 6.42822 16C6.42822 16.596 6.91035 17.078 7.50751 17.078H14.9265V24.494C14.9265 25.09 15.4076 25.573 16.0048 25.573C16.6 25.573 17.0841 25.09 17.0841 24.494V17.078H24.5021C25.0992 17.078 25.5804 16.596 25.5804 16C25.5804 15.403 25.0972 14.922 24.5021 14.922Z" fill="black"/>
</svg>
