<svg width="32" height="32" viewBox="0 0 32 32" fill="none" xmlns="http://www.w3.org/2000/svg">
<path d="M27.4101 4.8C24.409 1.7 20.3075 0 16.0059 0C11.8044 0 7.80288 1.6 4.80177 4.6C1.80067 7.6 0.100037 11.6 0 15.9C0 20.2 1.60059 24.2 4.6017 27.2C7.60281 30.3 11.7043 32 16.0059 32C20.2075 32 24.2089 30.4 27.2101 27.4C33.5124 21.2 33.6124 11 27.4101 4.8ZM25.7095 25.9C23.1085 28.5 19.6072 29.9 16.0059 29.9C12.3045 29.9 8.80325 28.4 6.10225 25.8C3.50129 23.2 2.10078 19.7 2.10078 16C2.10078 12.3 3.60133 8.8 6.20229 6.2C8.80325 3.6 12.3045 2.2 15.9059 2.2C19.6072 2.2 23.1085 3.7 25.8095 6.3C31.2115 11.7 31.2115 20.5 25.7095 25.9Z" fill="black"/>
<path d="M17.1063 14.9H7.50275C6.90253 14.9 6.40234 15.4 6.40234 16C6.40234 16.6 6.90253 17.1 7.50275 17.1H17.3064L17.1063 14.9ZM17.1063 17.1H24.509C25.1093 17.1 25.6094 16.6 25.6094 16C25.6094 15.4 25.1093 14.9 24.509 14.9H17.1063" fill="black"/>
</svg>
