<svg width="32" height="32" viewBox="0 0 32 32" fill="none" xmlns="http://www.w3.org/2000/svg">
<path fill-rule="evenodd" clip-rule="evenodd" d="M16 2C8.26801 2 2 8.26801 2 16C2 23.732 8.26801 30 16 30C23.732 30 30 23.732 30 16C30 8.26801 23.732 2 16 2ZM0 16C0 7.16344 7.16344 0 16 0C24.8366 0 32 7.16344 32 16C32 24.8366 24.8366 32 16 32C7.16344 32 0 24.8366 0 16Z" fill="#111111"/>
<path fill-rule="evenodd" clip-rule="evenodd" d="M13.9291 9.83818C14.3196 9.44766 14.9528 9.44766 15.3433 9.83818L20.7979 15.2927C21.1884 15.6833 21.1884 16.3164 20.7979 16.7069L15.3433 22.1615C14.9528 22.552 14.3196 22.552 13.9291 22.1615C13.5386 21.771 13.5386 21.1378 13.9291 20.7473L18.6766 15.9998L13.9291 11.2524C13.5386 10.8619 13.5386 10.2287 13.9291 9.83818Z" fill="#111111"/>
</svg>
