<svg width="32" height="32" viewBox="0 0 32 32" fill="none" xmlns="http://www.w3.org/2000/svg">
<path d="M17.5998 23.044L10.7998 15.8993L17.4998 8.65405L19.4998 10.7673L14.7998 15.7987L19.4998 20.8302L17.5998 23.044Z" fill="black"/>
<path d="M16 3.22013C23.1 3.22013 28.8 8.95597 28.8 16C28.8 23.044 23.1 28.7799 16 28.7799C8.9 28.7799 3.2 23.044 3.2 16C3.2 8.95597 8.9 3.22013 16 3.22013ZM16 1.49949e-09C7.2 1.49949e-09 0 7.14465 0 16C0 24.8553 7.2 32 16 32C24.8 32 32 24.8553 32 16C32 7.14465 24.8 1.49949e-09 16 1.49949e-09Z" fill="black"/>
</svg>
