<svg width="32" height="32" viewBox="0 0 32 32" fill="none" xmlns="http://www.w3.org/2000/svg">
<path d="M8.808 30.21H20.707V1H8.808V30.21ZM18.949 26.111H15.773V22.933H18.949V26.111ZM13.035 21.351V18.171H16.215V21.351H13.035ZM18.949 16.591H15.773V13.414H18.949V16.591ZM13.035 11.832V8.653H16.215V11.832H13.035ZM15.773 3.895H18.949V7.073H15.773V3.895ZM10.297 3.895H13.476V7.073H10.297V3.895ZM10.297 13.414H13.476V16.591H10.297V13.414ZM10.297 22.933H13.476V26.111H10.297V22.933ZM0 30.21H7.134V10.234H0V30.21ZM1.979 11.803H5.157V14.982H1.979V11.803ZM1.979 17.453H5.157V20.633H1.979V17.453ZM1.979 22.882H5.157V26.062H1.979V22.882ZM30.592 13.05V9.253H28.862V5.549H27.618V2.103H26.575V5.549H25.333V9.253H23.603V13.05H22.193V30.211H32V13.05H30.592ZM26.994 28.029H23.816V24.851H26.994V28.029ZM26.994 18.285H23.816V15.105H26.994V18.285ZM30.727 23.117H27.547V19.937H30.727V23.117Z" fill="black"/>
</svg>
