<svg width="32" height="32" viewBox="0 0 32 32" fill="none" xmlns="http://www.w3.org/2000/svg">
<path d="M4 0H2V2V4V8H6V4.102C11.116 4.528 15.776 6.554 19.482 9.692L16.728 12.444L19.556 15.272L22.308 12.52C25.446 16.224 27.472 20.886 27.898 26.002H24V30.002H28H30H32V28.002C32 12.56 19.44 0 4 0Z" fill="black"/>
<path d="M16.828 18L14 15.172L8.572 20.6C7.79 20.226 6.924 20 6 20C2.686 20 0 22.686 0 26C0 29.314 2.686 32 6 32C9.314 32 12 29.314 12 26C12 25.076 11.774 24.21 11.4 23.428L16.828 18Z" fill="black"/>
</svg>
