<svg width="33" height="32" viewBox="0 0 33 32" fill="none" xmlns="http://www.w3.org/2000/svg">
<path d="M10.0034 14.0034H2.00341C1.73658 14.0194 1.46938 13.9787 1.21946 13.8839C0.969544 13.789 0.742584 13.6423 0.553568 13.4532C0.364553 13.2642 0.217782 13.0373 0.122946 12.7873C0.0281097 12.5374 -0.0126337 12.2702 0.00340555 12.0034V4.00341C-0.0126337 3.73658 0.0281097 3.46938 0.122946 3.21946C0.217782 2.96954 0.364553 2.74258 0.553568 2.55357C0.742584 2.36455 0.969544 2.21778 1.21946 2.12295C1.46938 2.02811 1.73658 1.98737 2.00341 2.00341H10.0034C10.2702 1.98737 10.5374 2.02811 10.7873 2.12295C11.0373 2.21778 11.2642 2.36455 11.4532 2.55357C11.6423 2.74258 11.789 2.96954 11.8839 3.21946C11.9787 3.46938 12.0194 3.73658 12.0034 4.00341V12.0034C12.0194 12.2702 11.9787 12.5374 11.8839 12.7873C11.789 13.0373 11.6423 13.2642 11.4532 13.4532C11.2642 13.6423 11.0373 13.789 10.7873 13.8839C10.5374 13.9787 10.2702 14.0194 10.0034 14.0034Z" fill="black"/>
<path d="M16.0034 2.00342H32.0034V6.00342H16.0034V2.00342Z" fill="black"/>
<path d="M16.0034 10.0034H32.0034V14.0034H16.0034V10.0034Z" fill="black"/>
<path d="M0.00341797 18.0034H32.0034V22.0034H0.00341797V18.0034Z" fill="black"/>
<path d="M0.00341797 26.0034H32.0034V30.0034H0.00341797V26.0034Z" fill="black"/>
</svg>
