<svg width="32" height="32" viewBox="0 0 32 32" fill="none" xmlns="http://www.w3.org/2000/svg">
<path d="M16 0C7.2 0 0 7.2 0 16C0 24.8 7.2 32 16 32C24.8 32 32 24.8 32 16C32 7.2 24.8 0 16 0ZM24.9333 11.6L14.2667 22.2667C14 22.5333 13.7333 22.6667 13.3333 22.6667C12.9333 22.6667 12.6667 22.5333 12.4 22.2667L7.06667 16.9333C6.53333 16.4 6.53333 15.6 7.06667 15.0667C7.6 14.5333 8.4 14.5333 8.93333 15.0667L13.3333 19.4667L23.0667 9.73333C23.6 9.2 24.4 9.2 24.9333 9.73333C25.4667 10.2667 25.4667 11.0667 24.9333 11.6Z" fill="#111111"/>
</svg>
