<svg width="32" height="32" viewBox="0 0 32 32" fill="none" xmlns="http://www.w3.org/2000/svg">
<g clip-path="url(#clip0)">
<path d="M31.5361 5.05603L29.3571 7.23603C29.1041 7.49303 28.6861 7.49303 28.4311 7.23603L24.7461 3.54603C24.4881 3.28903 24.4881 2.87103 24.7461 2.61403L26.9221 0.433029C27.4991 -0.145971 28.4331 -0.145971 29.0111 0.433029L31.5351 2.96203C32.1081 3.54203 32.1081 4.47603 31.5361 5.05603ZM27.6411 8.78003L15.5931 20.855C15.3401 21.283 14.9251 21.283 14.6671 21.029L10.9831 17.34C10.7261 17.082 10.7261 16.666 10.9831 16.408L23.0301 4.33403C23.2881 4.07903 23.7011 4.07903 23.9591 4.33403L27.6411 8.02603C27.9011 8.28303 27.9011 8.70103 27.6411 8.78003ZM13.5501 22.559L8.32213 24.352L8.22513 24.387C8.06513 24.422 7.89113 24.379 7.76613 24.254C7.64113 24.129 7.59713 23.955 7.63613 23.793L7.66813 23.697L9.45913 18.459L9.49313 18.361C9.51413 18.31 9.54913 18.261 9.58913 18.22C9.78113 18.027 10.0951 18.027 10.2871 18.22L13.7881 21.728C13.9781 21.923 13.9781 22.232 13.7881 22.425C13.7441 22.468 13.6981 22.499 13.6471 22.523L13.5501 22.559ZM17.1021 5.53203H3.33913V28.69H26.4601V14.906C26.4601 13.992 27.2011 13.251 28.1141 13.251C29.0241 13.251 29.7621 13.992 29.7621 14.906V30.345C29.7621 30.572 29.7151 30.79 29.6321 30.988C29.3831 31.582 28.7961 32 28.1141 32H1.68713C0.775133 32 0.0361328 31.26 0.0361328 30.346V3.87803C0.0361328 2.96403 0.776133 2.22303 1.68713 2.22303H17.1021C18.0131 2.22303 18.7531 2.96403 18.7531 3.87803C18.7531 4.79103 18.0151 5.53203 17.1021 5.53203Z" fill="black"/>
</g>
<defs>
<clipPath id="clip0">
<rect width="32" height="32" fill="white"/>
</clipPath>
</defs>
</svg>
