<svg width="32" height="32" viewBox="0 0 32 32" fill="none" xmlns="http://www.w3.org/2000/svg">
<path d="M17.416 17.676C16.984 17.908 16.494 18.031 16 18.031C15.506 18.031 15.016 17.908 14.583 17.676L0.024 9.88C0.019 9.921 0 9.958 0 10V27C0 27.553 0.448 28 1 28H31C31.552 28 32 27.553 32 27V10C32 9.958 31.981 9.922 31.976 9.881L17.416 17.676Z" fill="black"/>
<path d="M31 4H1C0.448 4 0 4.447 0 5V7C0 7.369 0.203 7.708 0.528 7.882L15.528 15.913C15.675 15.992 15.838 16.031 16 16.031C16.162 16.031 16.325 15.992 16.472 15.913L31.472 7.882C31.797 7.708 32 7.369 32 7V5C32 4.447 31.552 4 31 4Z" fill="black"/>
</svg>
