<svg width="32" height="32" viewBox="0 0 32 32" fill="none" xmlns="http://www.w3.org/2000/svg">
<path d="M15.9988 12.913C14.3448 12.913 12.9988 14.255 12.9988 15.906C12.9988 17.558 14.3448 18.902 15.9988 18.902C17.6538 18.902 18.9998 17.558 18.9998 15.906C18.9998 14.256 17.6538 12.913 15.9988 12.913ZM15.9988 7.367C8.04179 7.367 0.0297852 16 0.0297852 16C0.0297852 16 8.04279 24.634 15.9988 24.634C23.9558 24.634 31.9708 16 31.9708 16C31.9708 16 23.9558 7.367 15.9988 7.367ZM15.9988 22.017C12.6188 22.017 9.87679 19.284 9.87679 15.907C9.87679 12.532 12.6188 9.798 15.9988 9.798C19.3818 9.798 22.1238 12.532 22.1238 15.907C22.1238 19.283 19.3818 22.017 15.9988 22.017Z" fill="black"/>
<path d="M30.369 32L0 1.632L1.632 0L32 30.369L30.369 32Z" fill="black"/>
</svg>
