<svg width="32" height="32" viewBox="0 0 32 32" fill="none" xmlns="http://www.w3.org/2000/svg">
<path d="M15.999 12.556C14.342 12.556 12.993 13.901 12.993 15.555C12.993 17.21 14.342 18.556 15.999 18.556C17.657 18.556 19.006 17.21 19.006 15.555C19.006 13.902 17.657 12.556 15.999 12.556ZM15.999 7C8.028 7 0 15.649 0 15.649C0 15.649 8.028 24.298 15.999 24.298C23.971 24.298 32 15.649 32 15.649C32 15.649 23.971 7 15.999 7ZM15.999 21.676C12.612 21.676 9.866 18.938 9.866 15.555C9.866 12.174 12.613 9.435 15.999 9.435C19.389 9.435 22.135 12.174 22.135 15.555C22.135 18.938 19.389 21.676 15.999 21.676Z" fill="black"/>
</svg>
