<svg width="32" height="32" viewBox="0 0 32 32" fill="none" xmlns="http://www.w3.org/2000/svg">
<g clip-path="url(#clip0)">
<path d="M18.5283 15.7562C17.9407 14.0129 16.051 13.076 14.3077 13.6636C12.6737 14.2144 11.7302 15.921 12.1326 17.5977C13.3318 21.7669 17.7182 25.5084 21.7355 28.6876C22.024 28.9161 22.443 28.8675 22.6716 28.579C22.9 28.2905 22.8515 27.8715 22.563 27.643C18.7068 24.5917 14.503 21.0194 13.4131 17.2299C13.108 16.1683 13.7213 15.0606 14.7828 14.7555C15.8444 14.4505 16.9521 15.0638 17.2572 16.1253C17.9847 18.6569 21.6023 21.7855 25.044 24.509C25.3325 24.7375 25.7515 24.6889 25.9801 24.4004C26.2085 24.1119 26.1599 23.6929 25.8714 23.4644C24.054 22.0294 19.2412 18.2212 18.5283 15.7562Z" fill="#FFC107"/>
<path d="M23.5783 14.0387C22.1299 9.59791 17.4372 7.08939 12.9401 8.3518C8.34235 9.67105 5.68462 14.4678 7.00393 19.0655C7.00486 19.0688 7.0058 19.0721 7.00674 19.0753C8.1007 22.8755 5.75557 23.9294 5.00807 24.1613C4.65705 24.2716 4.462 24.6457 4.57236 24.9967C4.68272 25.3477 5.05679 25.5428 5.4078 25.4324C7.44513 24.7955 9.42382 22.653 8.2872 18.7062C7.16669 14.817 9.4112 10.7559 13.3004 9.63538C13.3024 9.63482 13.3045 9.6342 13.3065 9.63363C17.1519 8.55273 21.1585 10.7321 22.3405 14.5477C22.3562 14.5996 22.3786 14.6494 22.4071 14.6956C22.4764 14.8102 22.619 15.0513 26.9014 18.5263C27.1869 18.7585 27.6066 18.7153 27.8388 18.4297C28.071 18.1442 28.0277 17.7245 27.7422 17.4923C26.1859 16.2292 23.9114 14.3518 23.5783 14.0387Z" fill="#FFC107"/>
<path d="M21.0917 15.0194C20.1715 11.8418 16.8552 10.0064 13.674 10.9141C10.5504 11.8785 8.73741 15.1288 9.55805 18.2932C10.9038 24.4224 9.89782 25.8375 7.13698 26.7009C6.78596 26.8113 6.5909 27.1854 6.70127 27.5364C6.81163 27.8874 7.18569 28.0824 7.53671 27.9721C11.3941 26.7729 12.2323 24.2519 10.8678 18.0067C10.2049 15.5304 11.6064 12.9704 14.0497 12.1946C16.5254 11.4917 19.1039 12.9206 19.8205 15.3925C20.087 16.3012 20.7946 17.5483 26.2509 21.8668C26.5394 22.0953 26.9585 22.0467 27.187 21.7582C27.4155 21.4697 27.3669 21.0507 27.0784 20.8222C22.1257 16.9048 21.2782 15.6643 21.0917 15.0194Z" fill="#FFC107"/>
<path d="M22.9252 24.2932C20.6707 22.5823 16.8972 19.7202 15.9685 16.4931C15.8608 16.1412 15.4882 15.9433 15.1364 16.051C14.7932 16.1561 14.5949 16.5142 14.688 16.8608C15.738 20.5144 19.7326 23.5444 22.119 25.3552C22.604 25.7044 23.071 26.0779 23.5181 26.4744C23.7827 26.7301 24.2045 26.7227 24.4602 26.4581C24.7096 26.1999 24.7096 25.7906 24.4602 25.5324C23.9722 25.0908 23.4598 24.677 22.9252 24.2932Z" fill="#FFC107"/>
<path d="M19.3194 28.9275C18.646 27.6782 17.4057 26.8358 15.9963 26.6703C13.7311 26.6703 13.3807 30.5211 13.3314 31.2925C13.3086 31.6597 13.5878 31.9759 13.955 31.9988H13.9976C14.35 31.9994 14.642 31.7256 14.6639 31.3739C14.7478 30.0015 15.2728 28.0028 15.9963 28.0028C16.9836 28.0028 17.6845 28.9542 18.2468 29.7176C18.4325 29.9825 18.636 30.2344 18.8557 30.4718C19.1203 30.7275 19.5421 30.7201 19.7978 30.4555C20.0472 30.1973 20.0472 29.788 19.7978 29.5298C19.6254 29.3396 19.4656 29.1384 19.3194 28.9275Z" fill="#FFC107"/>
<path d="M13.3011 23.1367C13.1759 22.7907 12.7939 22.6117 12.448 22.737C12.1225 22.8548 11.9415 23.2022 12.0314 23.5364C12.6017 25.3179 11.481 28.8142 9.79553 29.3618C9.44439 29.4717 9.24884 29.8455 9.3587 30.1966C9.46863 30.5478 9.84238 30.7433 10.1935 30.6335C10.1981 30.632 10.2027 30.6305 10.2073 30.629C12.7708 29.8029 14.0073 25.3499 13.3011 23.1367Z" fill="#FFC107"/>
<path d="M27.5284 14.044C26.6956 13.7775 26.0414 12.7116 25.2832 11.495C23.679 8.90208 21.479 5.35114 15.3311 5.35114C9.07912 5.35851 4.01268 10.4249 4.00537 16.677C4.00537 17.0449 4.30367 17.3432 4.67161 17.3432C5.03956 17.3432 5.33786 17.0449 5.33786 16.677C5.34373 11.1602 9.81444 6.68949 15.3312 6.68362C20.7369 6.68362 22.6303 9.74027 24.152 12.1973C25.0474 13.643 25.8202 14.8915 27.118 15.3125C27.4667 15.43 27.8446 15.2425 27.9621 14.8939C28.0796 14.5452 27.8921 14.1673 27.5435 14.0498C27.5389 14.0483 27.5344 14.0468 27.5298 14.0453L27.5284 14.044Z" fill="#FFC107"/>
<path d="M5.33688 22.0067C5.70482 22.0067 6.00313 21.7084 6.00306 21.3404C6.00306 21.2368 5.97889 21.1346 5.93249 21.042C5.64817 20.5091 5.44725 19.9357 5.33688 19.3418C5.33688 18.9739 5.03858 18.6756 4.67064 18.6756C4.3027 18.6756 4.00439 18.9739 4.00439 19.3418C4.11132 20.1453 4.36091 20.9232 4.74122 21.639C4.85427 21.8644 5.0848 22.0067 5.33688 22.0067Z" fill="#FFC107"/>
<path d="M4.99057 7.9188C5.30474 8.11029 5.71472 8.01092 5.90621 7.69675C5.90659 7.69613 5.90696 7.69557 5.90727 7.69494C6.48558 6.74089 9.33431 4.0187 14.6641 4.0187C19.786 4.0187 23.4303 6.61298 24.0872 7.69494C24.2781 8.00955 24.688 8.10973 25.0026 7.9188C25.3172 7.72786 25.4173 7.31801 25.2264 7.0034C24.3123 5.49772 20.2764 2.68628 14.6641 2.68628C8.69611 2.68628 5.49692 5.80289 4.76672 7.00472C4.57654 7.31901 4.67672 7.72792 4.99057 7.9188Z" fill="#FFC107"/>
<path d="M8.93451 2.62761C9.23962 2.49439 9.49813 2.3611 9.74328 2.22788C10.7453 1.7229 11.4661 1.35377 14.664 1.35377C16.8233 1.23479 18.9829 1.58056 20.9971 2.36779C21.2516 2.46241 21.5074 2.55697 21.7753 2.64891C21.8451 2.67315 21.9185 2.68576 21.9924 2.6862C22.3604 2.68689 22.6592 2.38915 22.6599 2.0212C22.6604 1.73602 22.4794 1.48219 22.2096 1.38975C21.9511 1.3005 21.7059 1.20987 21.4608 1.12324C19.2985 0.279989 16.982 -0.0955731 14.6641 0.0213491C11.1411 0.0213491 10.259 0.47436 9.13975 1.04866C8.91459 1.16459 8.67474 1.28719 8.39493 1.41242C8.05303 1.54833 7.88602 1.9357 8.02187 2.2776C8.15778 2.61949 8.54514 2.78651 8.88704 2.65066C8.90453 2.64373 8.92171 2.63605 8.93851 2.62761H8.93451Z" fill="#FFC107"/>
<path d="M26.6865 11.5497C26.8117 11.8956 27.1937 12.0746 27.5397 11.9494C27.8651 11.8316 28.0461 11.4842 27.9563 11.15C27.5783 10.1712 27.1094 9.22985 26.5559 8.33851C26.3631 8.02503 25.9526 7.92716 25.6392 8.11997C25.3257 8.31278 25.2278 8.72319 25.4206 9.03667C25.9166 9.83501 26.3403 10.676 26.6865 11.5497Z" fill="#FFC107"/>
<path d="M22.1438 28.8315C21.9938 28.8313 21.8483 28.7806 21.7308 28.6876C17.7134 25.507 13.331 21.7669 12.1318 17.5977C11.7024 15.8087 12.8046 14.0105 14.5935 13.5811C16.2702 13.1787 17.9768 14.1222 18.5276 15.7562C19.2364 18.2199 24.0492 22.0293 25.856 23.4631C26.1515 23.6823 26.2133 24.0996 25.994 24.3951C25.7747 24.6905 25.3574 24.7523 25.062 24.533C25.051 24.5249 25.0403 24.5164 25.0299 24.5077C21.5882 21.7842 17.9679 18.6569 17.2417 16.1239C16.9367 15.0628 15.8292 14.4498 14.7681 14.7549C13.7069 15.0599 13.0939 16.1674 13.399 17.2285C14.4889 21.018 18.6928 24.5903 22.5476 27.6416C22.8361 27.87 22.8847 28.289 22.6563 28.5775C22.5298 28.7373 22.337 28.8303 22.1332 28.8301L22.1438 28.8315Z" fill="black"/>
<path d="M5.20308 25.459C4.83514 25.4583 4.5374 25.1595 4.53809 24.7916C4.53859 24.501 4.7274 24.2443 5.00459 24.1572C5.74941 23.9241 8.09453 22.8701 7.00326 19.0713C5.68101 14.4744 8.33562 9.67598 12.9325 8.35373C12.9347 8.35311 12.9371 8.35242 12.9393 8.3518C17.4369 7.08851 22.1304 9.59722 23.5789 14.0387C23.9107 14.3505 26.1852 16.2292 27.7414 17.4924C28.0199 17.7329 28.0507 18.1536 27.8102 18.4321C27.58 18.6987 27.1821 18.7399 26.902 18.5264C22.6182 15.05 22.4756 14.8089 22.4063 14.6943C22.3788 14.6482 22.3568 14.5989 22.341 14.5477C21.1591 10.7314 17.1516 8.55185 13.3057 9.63363C9.41571 10.7513 7.16834 14.8109 8.28603 18.7008C8.28615 18.7013 8.28628 18.7018 8.2864 18.7022C9.42165 22.6476 7.44428 24.7915 5.40563 25.4284C5.34012 25.4491 5.27179 25.4595 5.20308 25.459Z" fill="black"/>
<path d="M7.33541 28.0027C6.96746 28.002 6.66972 27.7032 6.67041 27.3353C6.67091 27.0447 6.85972 26.788 7.13691 26.7009C9.89776 25.8374 10.9024 24.4197 9.55661 18.2932C8.73666 15.1288 10.5494 11.879 13.6726 10.9141C16.8538 10.0087 20.1689 11.8431 21.0916 15.0193C21.2768 15.6629 22.1229 16.9034 27.0676 20.8182C27.3631 21.0374 27.4249 21.4547 27.2056 21.7502C26.9863 22.0457 26.569 22.1074 26.2736 21.8881C26.2627 21.88 26.2519 21.8715 26.2415 21.8628C20.7785 17.543 20.0709 16.2945 19.8111 15.3884C19.0971 12.9139 16.5155 11.4837 14.0389 12.1905C11.5929 12.967 10.1913 15.5312 10.8584 18.0093C12.2295 24.2559 11.3913 26.7702 7.52728 27.9747C7.46507 27.9935 7.40043 28.0029 7.33541 28.0027Z" fill="black"/>
<path d="M23.9908 26.6702C23.814 26.6705 23.6443 26.6006 23.5191 26.4756C23.0719 26.0788 22.6049 25.7048 22.1201 25.3551C19.7337 23.5443 15.739 20.5143 14.689 16.8607C14.5813 16.5089 14.7792 16.1364 15.131 16.0287C15.4829 15.921 15.8554 16.1189 15.9631 16.4707C15.9654 16.4781 15.9675 16.4855 15.9695 16.4929C16.9022 19.7201 20.6703 22.5822 22.9248 24.293C23.4597 24.6775 23.9726 25.0916 24.4611 25.5335C24.7209 25.7941 24.7203 26.2159 24.4596 26.4757C24.3352 26.5999 24.1666 26.6698 23.9908 26.6702Z" fill="black"/>
<path d="M13.9976 32H13.955C13.5878 31.9772 13.3086 31.661 13.3314 31.2938C13.3793 30.5223 13.7311 26.6716 15.9963 26.6716C17.4087 26.8358 18.6521 27.6788 19.3274 28.9301C19.4727 29.1413 19.6321 29.3425 19.8044 29.5324C20.06 29.797 20.0527 30.2188 19.788 30.4744C19.5298 30.7238 19.1205 30.7238 18.8623 30.4744C18.6422 30.2379 18.4387 29.9863 18.2534 29.7216C17.6858 28.9541 16.9849 28.0028 15.9962 28.0028C15.274 28.0028 14.7477 30.0014 14.6638 31.3752C14.642 31.7268 14.35 32.0007 13.9976 32Z" fill="black"/>
<path d="M10 30.6676C9.63207 30.6683 9.33321 30.3706 9.33252 30.0027C9.33196 29.7128 9.5189 29.4558 9.79484 29.3671C11.479 28.8195 12.593 25.3232 12.0307 23.5417C11.8989 23.1981 12.0707 22.8129 12.4142 22.6812C12.7577 22.5494 13.143 22.7212 13.2748 23.0647C13.2845 23.09 13.2926 23.1158 13.2991 23.142C14.0067 25.3552 12.7662 29.8042 10.2052 30.641C10.1386 30.6605 10.0694 30.6695 10 30.6676Z" fill="black"/>
<path d="M4.67064 17.3431C4.3027 17.3431 4.00439 17.0448 4.00439 16.6769C4.01176 10.4248 9.07814 5.35838 15.3302 5.35107C21.4781 5.35107 23.6779 8.90203 25.2835 11.495C26.0417 12.7169 26.6959 13.7735 27.5287 14.044C27.8799 14.1539 28.0754 14.5277 27.9656 14.8788C27.8557 15.2299 27.4819 15.4255 27.1307 15.3156C27.1261 15.3142 27.1216 15.3127 27.117 15.3111C25.8192 14.8901 25.0464 13.6416 24.151 12.1959C22.6293 9.74022 20.7359 6.68356 15.3302 6.68356C9.8134 6.68943 5.34269 11.1601 5.33682 16.6769C5.33682 17.0448 5.03858 17.3431 4.67064 17.3431Z" fill="black"/>
<path d="M5.33682 22.0067C5.08424 22.0072 4.85308 21.8648 4.7399 21.639C4.35972 20.9232 4.11064 20.1453 4.00439 19.3418C4.00439 18.9738 4.3027 18.6755 4.67064 18.6755C5.03858 18.6755 5.33688 18.9738 5.33688 19.3418C5.44756 19.9356 5.64842 20.509 5.93248 21.042C6.09731 21.3709 5.96428 21.7712 5.63531 21.9361C5.54262 21.9825 5.44044 22.0067 5.33682 22.0067Z" fill="black"/>
<path d="M24.6571 8.01592C24.4239 8.01605 24.2076 7.89425 24.0868 7.69482C23.4312 6.61285 19.7856 4.01858 14.6637 4.01858C9.33398 4.01858 6.48519 6.74077 5.90558 7.69482C5.72607 8.01598 5.32015 8.13084 4.99899 7.95128C4.67783 7.77177 4.56297 7.36585 4.74254 7.04469C4.75041 7.03058 4.75884 7.01677 4.76771 7.00328C5.49654 5.80277 8.69578 2.68616 14.6638 2.68616C20.2761 2.68616 24.3121 5.4976 25.2261 7.00459C25.4167 7.31932 25.316 7.72899 25.0013 7.91955C24.8974 7.98244 24.7784 8.0158 24.6571 8.01592Z" fill="black"/>
<path d="M21.9919 2.68598C21.9181 2.68611 21.8447 2.67399 21.7748 2.65001C21.5083 2.55807 21.2498 2.46213 20.9953 2.36888C18.9816 1.58153 16.8224 1.23526 14.6635 1.35356C11.4656 1.35356 10.7448 1.72262 9.74946 2.23297C9.50431 2.35958 9.24448 2.49149 8.94068 2.63271C8.60366 2.78173 8.20961 2.62933 8.06058 2.29225C7.91156 1.95522 8.06395 1.56117 8.40104 1.41214C8.68217 1.28554 8.9207 1.163 9.14723 1.04707C10.2585 0.474143 11.1419 0.0210703 14.6636 0.0210703C16.9808 -0.097101 19.2969 0.277087 21.459 1.11903C21.7042 1.20965 21.9494 1.30159 22.2079 1.38554C22.5582 1.49796 22.7511 1.87315 22.6386 2.22348C22.5487 2.50342 22.2859 2.69142 21.9919 2.68598Z" fill="black"/>
<path d="M27.3217 12.0133C27.032 12.0131 26.7756 11.8256 26.6875 11.5496C26.3413 10.6742 25.9177 9.83134 25.4216 9.03125C25.2288 8.71777 25.3266 8.30736 25.6402 8.11455C25.9536 7.92174 26.3641 8.01955 26.5569 8.33309C27.1099 9.22456 27.5782 10.1658 27.9559 11.1445C28.0678 11.495 27.8743 11.8699 27.5238 11.9817C27.4585 12.0026 27.3903 12.0133 27.3217 12.0133Z" fill="black"/>
</g>
<defs>
<clipPath id="clip0">
<rect width="32" height="32" fill="white"/>
</clipPath>
</defs>
</svg>
