<svg width="32" height="32" viewBox="0 0 32 32" fill="none" xmlns="http://www.w3.org/2000/svg">
<path fill-rule="evenodd" clip-rule="evenodd" d="M5.7856 0H26.2144C28.3051 0 30 1.69318 30 3.78182V28.2182C30 30.3068 28.3051 32 26.2144 32H5.7856C3.69487 32 2 30.3068 2 28.2182V3.78182C2 1.69318 3.69487 0 5.7856 0ZM7.7847 14.9508C6.79904 14.9508 6 14.2967 6 13.4898C6 12.6829 6.79904 12.0288 7.7847 12.0288H24.2153C25.201 12.0288 26 12.6829 26 13.4898C26 14.2967 25.201 14.9508 24.2153 14.9508H7.7847ZM6 19.5143C6 20.3212 6.79904 20.9753 7.7847 20.9753H24.2153C25.201 20.9753 26 20.3212 26 19.5143C26 18.7074 25.201 18.0533 24.2153 18.0533H7.7847C6.79904 18.0533 6 18.7074 6 19.5143ZM7.86075 27C6.83309 27 6 26.3459 6 25.539C6 24.7321 6.83309 24.078 7.86075 24.078H18.1392C19.1669 24.078 20 24.7321 20 25.539C20 26.3459 19.1669 27 18.1392 27H7.86075ZM6 6.46098C6 7.26785 6.78788 7.92195 7.75977 7.92195H14.2402C15.2121 7.92195 16 7.26785 16 6.46098C16 5.6541 15.2121 5 14.2402 5H7.75977C6.78788 5 6 5.6541 6 6.46098Z" fill="black"/>
</svg>
