<svg width="32" height="32" viewBox="0 0 32 32" fill="none" xmlns="http://www.w3.org/2000/svg">
<path fill-rule="evenodd" clip-rule="evenodd" d="M16 32C7.1776 32 0 24.8224 0 16C0 7.1776 7.1776 0 16 0C24.8224 0 32 7.1776 32 16C32 24.8224 24.8224 32 16 32ZM4.20214 14H8.08652C8.25943 11.0333 8.81464 8.18021 9.74224 5.80885C6.85631 7.58802 4.78964 10.5323 4.20214 14ZM12.086 14C12.498 7.76458 14.723 4 16.0001 4C17.2771 4 19.5021 7.76458 19.9141 14H12.086ZM16.0001 28C17.2771 28 19.5021 24.2354 19.9141 18H12.086C12.498 24.2354 14.723 28 16.0001 28ZM23.9136 14C23.7407 11.0333 23.1855 8.18021 22.2579 5.80885C25.1438 7.58802 27.2105 10.5323 27.798 14H23.9136ZM22.2579 26.1911C25.1443 24.412 27.211 21.4677 27.798 18H23.9136C23.7407 20.9667 23.1855 23.8198 22.2579 26.1911ZM9.74224 26.1911C6.85631 24.412 4.78964 21.4677 4.20214 18H8.08652C8.25943 20.9667 8.81464 23.8198 9.74224 26.1911Z" fill="black"/>
</svg>
