<svg width="32" height="32" viewBox="0 0 32 32" fill="none" xmlns="http://www.w3.org/2000/svg">
<path d="M19 9.5C19 11.985 21.015 15 23.5 15C25.985 15 28 11.985 28 9.5C28 7.015 25.985 5 23.5 5C21.015 5 19 7.015 19 9.5Z" fill="black"/>
<path d="M16 9.5C16 12.538 13.538 16 10.5 16C7.462 16 5 12.538 5 9.5C5 6.462 7.462 4 10.5 4C13.538 4 16 6.462 16 9.5Z" fill="black"/>
<path d="M29.4991 18.128C28.2081 17.613 26.1201 17 23.5001 17C21.5691 17 19.9301 17.334 18.6831 17.715C21.5771 19.036 23.0001 21.579 23.0001 24.185V25H32.0001V21.838C32.0001 20.189 31.0191 18.733 29.4991 18.128Z" fill="black"/>
<path d="M18.205 19.695C16.618 18.922 13.993 18 10.5 18C7.007 18 4.382 18.922 2.795 19.695C1.097 20.522 0 22.285 0 24.185V28H21V24.185C21 22.285 19.903 20.522 18.205 19.695Z" fill="black"/>
</svg>
