<svg width="49" height="45" viewBox="0 0 49 45" fill="none" xmlns="http://www.w3.org/2000/svg">
<circle cx="20" cy="20" r="20" fill="#B8B8B8"/>
<path d="M18.8545 15.7578V21.8452C18.8545 22.8566 18.5371 23.6564 17.9023 24.2446C17.2718 24.8328 16.4085 25.127 15.3125 25.127C14.2334 25.127 13.3765 24.8413 12.7417 24.27C12.1069 23.6987 11.7832 22.9137 11.7705 21.915V15.7578H13.6748V21.8579C13.6748 22.4631 13.8187 22.9053 14.1064 23.1846C14.3984 23.4596 14.8005 23.5972 15.3125 23.5972C16.3831 23.5972 16.9269 23.0343 16.9438 21.9087V15.7578H18.8545ZM27.6143 22.334L28.8584 15.7578H30.7563L28.7061 25H26.7891L25.2847 18.8174L23.7803 25H21.8633L19.813 15.7578H21.7109L22.9614 22.3213L24.4849 15.7578H26.0972L27.6143 22.334Z" fill="white"/>
<rect x="31" y="31" width="10" height="9" fill="white"/>
<path d="M37.8459 35.4158H38.8102L35.9998 38.2854L33.1893 35.4158H34.1536H34.6536V34.9158V31.7491H37.3459V34.9158V35.4158H37.8459ZM47.5767 36.7491C47.5767 34.2264 45.6333 32.0867 43.2376 31.7107C42.4146 28.5409 39.526 26.1658 35.9998 26.1658C33.2308 26.1658 30.8182 27.6349 29.5826 29.8766C26.5602 30.4187 24.4229 33.5178 24.4229 36.4741C24.4229 39.7755 27.1393 42.5 30.4613 42.5H42.4613C43.8878 42.5 45.1774 41.9455 46.1068 40.9315C47.0348 39.9191 47.5767 38.4795 47.5767 36.7491Z" fill="#B8B8B8" stroke="white"/>
</svg>
