<svg width="32" height="32" viewBox="0 0 32 32" fill="none" xmlns="http://www.w3.org/2000/svg">
<path fill-rule="evenodd" clip-rule="evenodd" d="M26.025 0H5.975C3.77967 0 2 1.77967 2 3.975V28.025C2 30.2203 3.77967 32 5.975 32H26.025C28.2203 32 30 30.2203 30 28.025V3.975C30 1.77967 28.2203 0 26.025 0ZM17.5314 11.7172L20.1453 12.3855C20.7545 12.5414 21.182 13.1014 21.182 13.7435V14.9839H11.1428V13.7435C11.1428 13.1014 11.5704 12.5414 12.1796 12.3855L14.7934 11.7172V10.7536C13.9757 10.131 13.4245 9.01991 13.4245 7.98391V6.34731C13.4245 5.76724 13.8511 5.12231 14.3777 4.90671L16.5311 4.02611C16.7059 3.95471 16.9145 4.03404 17.0012 4.21184L17.3603 4.94684H17.531C18.2871 4.94684 18.9004 5.57684 18.9004 6.34684V7.98391C18.9004 9.01991 18.3492 10.131 17.5314 10.7536V11.7172ZM9.0958 21.455C8.28795 21.455 7.63306 20.8036 7.63306 20C7.63306 19.1965 8.28795 18.545 9.0958 18.545H23.1703C23.9782 18.545 24.6331 19.1965 24.6331 20C24.6331 20.8036 23.9782 21.455 23.1703 21.455H9.0958ZM7.63306 26C7.63306 26.8036 8.28795 27.455 9.0958 27.455H23.1703C23.9782 27.455 24.6331 26.8036 24.6331 26C24.6331 25.1965 23.9782 24.545 23.1703 24.545H9.0958C8.28795 24.545 7.63306 25.1965 7.63306 26Z" fill="black"/>
</svg>
