<svg width="32" height="32" viewBox="0 0 32 32" fill="none" xmlns="http://www.w3.org/2000/svg">
<path d="M16 0C7.17733 0 0 7.17733 0 16C0 24.8227 7.17733 32 16 32C24.8227 32 32 24.8227 32 16C32 7.17733 24.8227 0 16 0ZM19.544 24.3787C18.6627 24.7253 15.608 26.184 13.848 24.6333C13.3227 24.172 13.0613 23.5867 13.0613 22.876C13.0613 21.5453 13.4987 20.3853 14.2867 17.6C14.4253 17.0733 14.5947 16.3907 14.5947 15.8493C14.5947 14.9147 14.24 14.6667 13.2787 14.6667C12.8093 14.6667 12.2893 14.8333 11.8187 15.0093L12.0787 13.944C13.128 13.5173 14.4453 12.9973 15.5733 12.9973C17.2653 12.9973 18.5107 13.8413 18.5107 15.4467C18.5107 15.9093 18.4307 16.72 18.2627 17.28L17.2893 20.7227C17.088 21.4187 16.724 22.9533 17.288 23.408C17.8427 23.8573 19.156 23.6187 19.804 23.3133L19.544 24.3787ZM17.936 10.6667C16.832 10.6667 15.936 9.77067 15.936 8.66667C15.936 7.56267 16.832 6.66667 17.936 6.66667C19.04 6.66667 19.936 7.56267 19.936 8.66667C19.936 9.77067 19.04 10.6667 17.936 10.6667Z" fill="black"/>
</svg>
