<svg width="32" height="32" viewBox="0 0 32 32" fill="none" xmlns="http://www.w3.org/2000/svg">
<path d="M25.9999 10H18.1159L19.9889 1.103C20.0199 0.9555 19.9829 0.802 19.8879 0.685C19.7929 0.568 19.6504 0.5 19.4999 0.5H9.99988C9.77338 0.5 9.57488 0.6525 9.51688 0.871L5.51688 15.871C5.47688 16.021 5.50888 16.1815 5.60338 16.3045C5.69788 16.4275 5.84438 16.5 5.99988 16.5H12.3899L9.50988 30.902C9.46438 31.1295 9.58088 31.358 9.79138 31.4545C9.85838 31.4855 9.92938 31.5 9.99988 31.5C10.1504 31.5 10.2969 31.432 10.3944 31.3075L26.3944 10.8075C26.5119 10.657 26.5334 10.4525 26.4499 10.2805C26.3654 10.109 26.1909 10 25.9999 10Z" fill="black"/>
</svg>
