<svg width="32" height="32" viewBox="0 0 32 32" fill="none" xmlns="http://www.w3.org/2000/svg">
<path d="M15.6923 7.38462C17.7354 7.38462 19.3846 5.73538 19.3846 3.69231C19.3846 1.64923 17.7354 0 15.6923 0C13.6492 0 12 1.64923 12 3.69231C12 5.73538 13.6492 7.38462 15.6923 7.38462ZM15.6923 12.3077C13.6492 12.3077 12 13.9569 12 16C12 18.0431 13.6492 19.6923 15.6923 19.6923C17.7354 19.6923 19.3846 18.0431 19.3846 16C19.3846 13.9569 17.7354 12.3077 15.6923 12.3077ZM15.6923 24.6154C13.6492 24.6154 12 26.2646 12 28.3077C12 30.3508 13.6492 32 15.6923 32C17.7354 32 19.3846 30.3508 19.3846 28.3077C19.3846 26.2646 17.7354 24.6154 15.6923 24.6154Z" fill="black"/>
</svg>
