<svg width="32" height="32" viewBox="0 0 32 32" fill="none" xmlns="http://www.w3.org/2000/svg">
<path d="M15.9782 0C8.19033 0 2 6.19033 2 13.9782C2 17.7722 3.39782 21.3666 6.19345 23.9626C6.39314 24.1622 14.3807 31.351 14.5803 31.5507C15.3791 32.1498 16.5772 32.1498 17.1763 31.5507C17.376 31.351 25.5632 24.1622 25.5632 23.9626C28.3588 21.3666 29.7566 17.7722 29.7566 13.9782C29.9563 6.19033 23.766 0 15.9782 0ZM15.9782 17.9719C13.7816 17.9719 11.9844 16.1747 11.9844 13.9782C11.9844 11.7816 13.7816 9.9844 15.9782 9.9844C18.1747 9.9844 19.9719 11.7816 19.9719 13.9782C19.9719 16.1747 18.1747 17.9719 15.9782 17.9719Z" fill="black"/>
</svg>
