<svg width="12" height="12" viewBox="0 0 12 12" fill="none" xmlns="http://www.w3.org/2000/svg">
<path d="M5.82065 0C3.525 0 1.125 1.77391 1.125 4.69565C1.125 7.46087 5.29891 11.687 5.45543 11.8435C5.55978 11.9478 5.66413 12 5.82065 12C5.97717 12 6.08152 11.9478 6.18587 11.8435C6.34239 11.687 10.5163 7.46087 10.5163 4.69565C10.5163 1.77391 8.1163 0 5.82065 0ZM5.82065 6.26087C4.9337 6.26087 4.25543 5.58261 4.25543 4.69565C4.25543 3.8087 4.9337 3.13043 5.82065 3.13043C6.70761 3.13043 7.38587 3.8087 7.38587 4.69565C7.38587 5.58261 6.70761 6.26087 5.82065 6.26087Z" fill="#B8B8B8"/>
</svg>
