<svg width="32" height="32" viewBox="0 0 32 32" fill="none" xmlns="http://www.w3.org/2000/svg">
<path d="M15.5217 0C9.4 0 3 4.73043 3 12.5217C3 19.8957 14.1304 31.1652 14.5478 31.5826C14.8261 31.8609 15.1043 32 15.5217 32C15.9391 32 16.2174 31.8609 16.4957 31.5826C16.913 31.1652 28.0435 19.8957 28.0435 12.5217C28.0435 4.73043 21.6435 0 15.5217 0ZM15.5217 16.6957C13.1565 16.6957 11.3478 14.887 11.3478 12.5217C11.3478 10.1565 13.1565 8.34783 15.5217 8.34783C17.887 8.34783 19.6957 10.1565 19.6957 12.5217C19.6957 14.887 17.887 16.6957 15.5217 16.6957Z" fill="black"/>
</svg>
