<svg width="32" height="32" viewBox="0 0 32 32" fill="none" xmlns="http://www.w3.org/2000/svg">
<path fill-rule="evenodd" clip-rule="evenodd" d="M16.246 1.00448C7.40995 0.813636 0.136912 6.74639 0.00191104 14.2536C-0.0450892 16.8632 0.776915 19.3187 2.23992 21.4213C4.75693 24.943 2.00992 31 2.00992 31L10.119 27.1942C11.867 27.7956 13.765 28.1462 15.754 28.1895C24.589 28.3781 31.8621 22.4465 31.9981 14.9393C32.1341 7.4332 25.081 1.19421 16.246 1.00448ZM9.15996 16.7556C8.07195 16.7556 7.18895 15.7936 7.18895 14.6075C7.18895 13.4225 8.07195 12.4606 9.15996 12.4606C10.248 12.4606 11.131 13.4225 11.131 14.6075C11.131 15.7936 10.249 16.7556 9.15996 16.7556ZM15.729 16.7556C14.641 16.7556 13.759 15.7936 13.759 14.6075C13.759 13.4225 14.641 12.4606 15.729 12.4606C16.818 12.4606 17.7 13.4225 17.7 14.6075C17.7 15.7936 16.818 16.7556 15.729 16.7556ZM22.299 16.7556C21.21 16.7556 20.327 15.7936 20.327 14.6075C20.327 13.4225 21.21 12.4606 22.299 12.4606C23.387 12.4606 24.27 13.4225 24.27 14.6075C24.27 15.7936 23.387 16.7556 22.299 16.7556Z" fill="black"/>
</svg>
