<svg width="32" height="32" viewBox="0 0 32 32" fill="none" xmlns="http://www.w3.org/2000/svg">
<path d="M10.1001 20.8H4.5001C4.0001 20.8 3.6001 21.2 3.6001 21.6C3.6001 22 4.0001 22.4 4.5001 22.4H10.1001C10.6001 22.4 11.0001 22 11.0001 21.6C11.0001 21.2 10.6001 20.8 10.1001 20.8Z" fill="black"/>
<path d="M31.8 7.29998L27.9 3.39998C27.5 2.99998 27 2.99998 26.6 3.39998L23.6 6.29998V4.99998C23.6 4.49998 23.2 4.19998 22.7 4.19998H0.7C0.4 4.09998 0 4.49998 0 4.99998V28C0 28.5 0.4 28.8 0.9 28.8H22.9C23.4 28.8 23.8 28.4 23.8 28V16.3L28.4 11.8L31.9 8.49998C31.9 8.29998 32 8.09998 32 7.89998C32 7.59998 31.9 7.39998 31.8 7.29998ZM22 27.2H1.7V5.79998H22V7.89998L19.8 10.1H19.7H4.5C4 10.1 3.6 10.5 3.6 10.9C3.6 11.4 4 11.7 4.5 11.7H18L15.1 14.6L15 14.7L14.9 14.8L14.7 15.4H4.5C4 15.4 3.6 15.8 3.6 16.2C3.6 16.7 4 17 4.5 17H14L12.1 21.4C12 21.7 12 22.1 12.3 22.3C12.5 22.5 12.7 22.5 12.9 22.5C13 22.5 13.1 22.5 13.2 22.4L20 19.7C20 19.7 20.1 19.7 20.1 19.6L20.2 19.5L22 18V27.2ZM16 16.7L18.1 18.8L14.4 20.3L16 16.7ZM27.1 10.6L22.2 15.3L19.6 17.8L16.9 15.1L23.4 8.79998L27.2 5.09998L29.9 7.79998L27.1 10.6Z" fill="black"/>
</svg>
