<svg width="32" height="32" viewBox="0 0 32 32" fill="none" xmlns="http://www.w3.org/2000/svg">
<g clip-path="url(#clip0)">
<path d="M22.6002 22.4C21.3002 21.9 19.9002 21.2 18.6002 20.7C18.2002 20.6 17.9002 20.5 17.5002 20.4C17.1002 20.1 16.6002 19.1 16.4002 18.6C16.2002 18.6 15.9002 18.5 15.7002 18.5C15.7002 17.7 16.2002 17.7 16.4002 17.1C16.6002 16.6 16.4002 15.9 16.7002 15.4C16.9002 15.1 17.3002 15.1 17.5002 14.8C17.7002 14.5 17.8002 14.1 17.9002 13.8C18.0002 13.2 18.1002 12.4 17.8002 11.8C17.6002 11.5 17.5002 11.4 17.5002 11C17.4002 10.5 17.6002 8.90003 17.7002 8.60003C17.7002 7.70003 17.7002 6.90003 17.5002 6.00003C17.5002 6.00003 17.2002 5.20003 16.8002 5.00003L16.0002 4.90003L15.5002 4.40003C13.5002 3.10003 11.3002 4.00003 10.1002 4.50003C8.4002 5.00003 7.3002 7.40003 8.1002 11C8.2002 11.6 7.8002 11.9 7.8002 12.2C7.9002 12.9 7.9002 14.7 8.6002 15.1C8.7002 15.1 9.1002 15.3 9.1002 15.2C9.2002 15.9 9.2002 16.6 9.3002 17.3C9.5002 17.8 9.9002 17.8 10.0002 18.5L9.5002 18.6C9.3002 19.1 8.80019 20.1 8.4002 20.4C8.0002 20.5 7.7002 20.6 7.3002 20.7C6.0002 21.2 4.60019 21.9 3.3002 22.4C2.1002 22.9 0.700195 23.1 0.300195 24.3C0.300195 25.1 0.200195 27.1 0.200195 28.2H25.8002C25.8002 27.1 25.7002 25.1 25.7002 24.3C25.1002 23.1 23.7002 22.9 22.6002 22.4Z" fill="black"/>
<path d="M29.8002 22.3C28.9002 21.9 27.9002 21.5 26.9002 21.1C26.6002 21 26.4002 21 26.1002 20.9C25.8002 20.7 25.5002 20 25.3002 19.6C25.1002 19.6 25.0002 19.6 24.8002 19.5C24.8002 18.9 25.2002 18.9 25.3002 18.5C25.4002 18.1 25.3002 17.6 25.5002 17.3C25.6002 17.1 25.9002 17.1 26.1002 16.9C26.2002 16.7 26.3002 16.4 26.4002 16.2C26.5002 15.8 26.5002 15.2 26.3002 14.8C26.2002 14.6 26.1002 14.5 26.1002 14.3C26.1002 14 26.2002 12.8 26.2002 12.6C26.2002 12 26.2002 11.4 26.0002 10.8C26.0002 10.8 25.8002 10.2 25.5002 10.1L25.0002 9.80003L24.6002 9.50003C23.1002 8.60003 21.6002 9.20003 20.7002 9.60003C19.5002 10 18.7002 11.7 19.3002 14.2C19.4002 14.6 19.1002 14.8 19.1002 15.1C19.1002 15.6 19.2002 16.8 19.6002 17.2L20.0002 17.3C20.0002 17.8 20.1002 18.3 20.1002 18.8C20.2002 19.1 20.5002 19.2 20.6002 19.6L20.2002 19.7C20.1002 20 19.9002 20.4 19.7002 20.7C20.2002 20.9 20.6002 21.1 21.1002 21.3C21.6002 21.5 22.2002 21.8 22.7002 22C22.9002 22.1 23.2002 22.2 23.5002 22.3C24.5002 22.6 25.7002 23 26.1002 24.3V24.4V24.5C26.1002 24.8 26.1002 25.3 26.1002 25.9C26.1002 26.1 26.1002 26.4 26.1002 26.6H32.0002C32.0002 25.8 32.0002 24.4 32.0002 23.8C31.7002 22.8 30.6002 22.7 29.8002 22.3Z" fill="black"/>
</g>
<defs>
<clipPath id="clip0">
<rect width="32" height="32" fill="white"/>
</clipPath>
</defs>
</svg>
