<svg width="33" height="32" viewBox="0 0 33 32" fill="none" xmlns="http://www.w3.org/2000/svg">
<path d="M10.5444 12.5573C10.5444 12.1573 10.6444 11.8573 10.7444 11.6573C10.7444 11.6573 10.7444 11.5573 10.8444 11.5573C10.7444 11.1573 10.7444 10.7573 10.6444 10.3573L10.1444 10.2573L9.84444 9.9573C8.44444 9.2573 7.04444 9.75729 6.34444 10.0573C5.24444 10.4573 4.54444 11.9573 5.04444 14.1573C5.14444 14.5573 4.84444 14.7573 4.84444 14.9573C4.84444 15.4573 4.94444 16.5573 5.34444 16.7573L5.64444 16.8573C5.64444 17.2573 5.74444 17.7573 5.74444 18.1573C5.84444 18.4573 6.14444 18.4573 6.14444 18.9573L5.84444 19.0573C5.74444 19.3573 5.44444 20.0573 5.14444 20.2573C4.94444 20.3573 4.64444 20.3573 4.44444 20.4573C3.64444 20.7573 2.74444 21.1573 1.94444 21.5573C1.24444 21.8573 0.344444 21.9573 0.0444444 22.7573C0.0444444 23.2573 -0.0555556 24.5573 0.0444444 25.2573H3.74444C3.74444 25.0573 3.74444 24.7573 3.74444 24.5573C3.74444 24.0573 3.74444 23.6573 3.74444 23.3573V23.1573V23.0573C4.14444 21.7573 5.34444 21.3573 6.24444 21.0573C6.54444 20.9573 6.84444 20.8573 7.04444 20.7573C7.54444 20.5573 7.94444 20.3573 8.44444 20.1573C9.14444 19.8573 9.84444 19.5573 10.5444 19.2573C10.5444 19.1573 10.4444 19.1573 10.4444 19.0573C10.3444 19.0573 10.1444 19.0573 10.0444 18.9573C10.0444 18.4573 10.3444 18.4573 10.4444 18.0573C10.5444 17.7573 10.4444 17.2573 10.6444 16.9573C10.7444 16.7573 11.0444 16.7573 11.1444 16.5573C11.2444 16.3573 11.3444 16.0573 11.3444 15.8573C11.3444 15.7573 11.3444 15.6573 11.4444 15.4573C10.7444 14.7573 10.6444 13.5573 10.5444 12.6573C10.5444 12.7573 10.5444 12.6573 10.5444 12.5573ZM32.0444 22.7573C31.7444 21.9573 30.8444 21.8573 30.1444 21.5573C29.3444 21.2573 28.4444 20.7573 27.6444 20.4573C27.4444 20.3573 27.1444 20.3573 26.9444 20.2573C26.6444 20.0573 26.3444 19.4573 26.2444 19.0573C26.1444 19.0573 25.9444 19.0573 25.8444 18.9573C25.8444 18.4573 26.1444 18.4573 26.2444 18.0573C26.3444 17.7573 26.2444 17.2573 26.4444 16.9573C26.5444 16.7573 26.8444 16.7573 26.9444 16.5573C27.0444 16.3573 27.1444 16.0573 27.1444 15.8573C27.2444 15.4573 27.2444 14.9573 27.1444 14.5573C27.0444 14.3573 26.9444 14.3573 26.9444 14.0573C26.9444 13.7573 27.0444 12.7573 27.0444 12.4573C27.0444 11.8573 27.0444 11.3573 26.9444 10.8573C26.9444 10.8573 26.7444 10.3573 26.5444 10.1573L26.0444 10.0573L25.7444 9.75729C24.4444 8.95729 23.0444 9.55729 22.3444 9.85729C21.9444 9.95729 21.5444 10.2573 21.3444 10.7573C21.3444 10.9573 21.3444 11.0573 21.3444 11.0573V11.1573C21.3444 11.1573 21.3444 11.1573 21.3444 11.2573C21.3444 11.3573 21.4444 11.4573 21.4444 11.5573C21.8444 12.3573 21.7444 13.2573 21.5444 13.8573C21.4444 14.1573 21.3444 14.7573 21.0444 15.1573C20.9444 15.2573 20.8444 15.3573 20.8444 15.4573C20.8444 15.9573 20.9444 16.4573 21.2444 16.6573L21.5444 16.7573C21.5444 17.1573 21.6444 17.6573 21.6444 18.0573C21.7444 18.3573 22.0444 18.3573 22.0444 18.8573L21.7444 18.9573C21.7444 19.0573 21.6444 19.0573 21.6444 19.1573C22.3444 19.4573 23.0444 19.7573 23.7444 20.0573C24.2444 20.2573 24.6444 20.4573 25.1444 20.6573C25.3444 20.7573 25.5444 20.8573 25.8444 20.8573C26.7444 21.1573 27.9444 21.5573 28.3444 22.8573V22.9573V23.1573C28.3444 23.4573 28.3444 23.8573 28.3444 24.3573C28.3444 24.5573 28.3444 24.7573 28.3444 25.0573H32.0444C32.0444 24.5573 32.0444 23.2573 32.0444 22.7573Z" fill="black"/>
<path d="M20.0445 6.95723C20.2445 7.75723 20.2445 8.45723 20.2445 9.25723C20.2445 9.55723 20.0445 10.9572 20.1445 11.4572C20.1445 11.8572 20.2445 11.8572 20.4445 12.1572C20.6445 12.6572 20.6445 13.3572 20.5445 13.9572C20.4445 14.2572 20.3445 14.6572 20.2445 14.8572C20.0445 15.1572 19.6445 15.1572 19.5445 15.4572C19.3445 15.8572 19.4445 16.4572 19.3445 16.9572C19.1445 17.4572 18.7445 17.5572 18.7445 18.2572C18.9445 18.2572 19.1445 18.3572 19.3445 18.3572C19.5445 18.7572 19.9445 19.6572 20.3445 19.9572C20.6445 20.0572 21.0445 20.1572 21.3445 20.2572C22.4445 20.7572 23.7445 21.2572 24.9445 21.7572C25.9445 22.1572 27.2445 22.3572 27.6445 23.4572C27.6445 24.2572 27.7445 25.9572 27.7445 26.9572H4.64453C4.64453 25.9572 4.74453 24.1572 4.74453 23.4572C5.14453 22.3572 6.34453 22.1572 7.44453 21.7572C8.64453 21.2572 9.84453 20.6572 11.0445 20.2572C11.3445 20.1572 11.7445 20.0572 12.0445 19.9572C12.4445 19.6572 12.8445 18.7572 13.0445 18.3572L13.5445 18.2572C13.4445 17.6572 13.0445 17.6572 12.9445 17.1572C12.8445 16.5572 12.8445 15.8572 12.7445 15.2572C12.7445 15.2572 12.3445 15.1572 12.2445 15.1572C11.6445 14.7572 11.6445 13.2572 11.5445 12.5572C11.5445 12.2572 11.9445 12.0572 11.8445 11.4572C11.1445 8.25723 12.1445 6.15723 13.6445 5.65723C14.6445 5.25723 16.6445 4.45723 18.4445 5.55723L18.7445 5.85723L19.4445 5.95723C19.8445 6.25723 20.0445 6.95723 20.0445 6.95723Z" fill="black"/>
</svg>
