<svg width="33" height="32" viewBox="0 0 33 32" fill="none" xmlns="http://www.w3.org/2000/svg">
<path d="M21.6487 4.76541C21.9197 5.82141 21.9457 5.90941 21.9197 6.99241C21.9107 7.40941 21.6627 9.33941 21.7307 9.93141C21.7867 10.4194 21.9117 10.4574 22.1097 10.8604C22.4567 11.5604 22.3397 12.5274 22.2087 13.2334C22.1347 13.6204 21.9817 14.1704 21.7487 14.4854C21.4917 14.8334 20.9777 14.8364 20.7497 15.2414C20.4237 15.8244 20.6077 16.6444 20.4017 17.2754C20.1667 17.9914 19.5687 18.0404 19.5227 18.9764C19.8167 19.0174 20.1097 19.0584 20.4017 19.0974C20.6937 19.7024 21.2317 20.9194 21.7797 21.2864C22.2387 21.4074 22.6967 21.5284 23.1577 21.6494C24.7667 22.2884 26.5537 23.0554 28.1677 23.7154C29.6357 24.3174 31.3947 24.5314 31.9257 26.0244C31.9257 27.0404 32.0237 29.4344 31.9977 30.7644H0.00470569C-0.0222943 29.4344 0.0757057 27.0394 0.0757057 26.0244C0.606706 24.5324 2.36471 24.3174 3.83371 23.7154C5.44571 23.0554 7.23371 22.2874 8.84371 21.6494C9.30171 21.5284 9.76171 21.4074 10.2207 21.2864C10.7687 20.9194 11.3047 19.7024 11.5987 19.0974L12.2507 18.9434C12.1037 18.1464 11.5927 18.0844 11.3807 17.5194C11.2977 16.6684 11.2137 15.8174 11.1307 14.9674C11.1337 15.0074 10.5307 14.8604 10.4517 14.8124C9.60071 14.2944 9.58471 12.1934 9.50271 11.3204C9.46471 10.9214 10.0367 10.5944 9.87871 9.86241C8.94471 5.57641 10.2807 3.57041 12.3927 2.90441C13.8587 2.32841 16.5947 1.25941 19.1467 2.78341L19.7817 3.35241L20.8037 3.52441C21.3197 3.81041 21.6487 4.76541 21.6487 4.76541Z" fill="black"/>
</svg>
