<svg width="32" height="32" viewBox="0 0 32 32" fill="none" xmlns="http://www.w3.org/2000/svg">
<g clip-path="url(#clip0)">
<path d="M31.8741 28.9785L29.6773 22.5852C30.7339 20.4493 31.2927 18.0686 31.2965 15.6731C31.3028 11.548 29.7068 7.64745 26.8022 4.6902C23.8971 1.73239 20.0259 0.0675232 15.9019 0.0020858C13.7412 -0.0326016 11.6446 0.365523 9.66707 1.18408C7.75977 1.97364 6.04933 3.11733 4.58333 4.58333C3.11727 6.04932 1.97359 7.75976 1.18409 9.66707C0.36553 11.6446 -0.032157 13.7422 0.00203041 15.9019C0.0673428 20.0259 1.73228 23.8971 4.69008 26.8022C7.64158 29.7012 11.5321 31.2967 15.6483 31.2967C15.6564 31.2967 15.6649 31.2967 15.6729 31.2967C18.0684 31.2929 20.4491 30.7341 22.5851 29.6775L28.9784 31.8743C29.2242 31.9588 29.4762 32 29.7255 32C30.3176 32 30.8936 31.7673 31.3303 31.3305C31.9509 30.7099 32.1593 29.8087 31.8741 28.9785ZM29.9888 29.989C29.9258 30.0519 29.7911 30.1474 29.5948 30.08L22.8202 27.7522C22.72 27.7178 22.6158 27.7007 22.5119 27.7007C22.3588 27.7007 22.2064 27.7377 22.0683 27.8108C20.1104 28.8466 17.8979 29.396 15.6699 29.3993C8.19808 29.4114 2.01734 23.3425 1.89896 15.8718C1.8394 12.1131 3.26915 8.58057 5.92483 5.92489C8.58051 3.26927 12.112 1.83977 15.8717 1.89921C23.3424 2.01764 29.4108 8.19532 29.3992 15.6702C29.3957 17.8982 28.8463 20.1107 27.8106 22.0685C27.688 22.3002 27.6668 22.5724 27.752 22.8204L30.0798 29.595C30.1473 29.7912 30.0518 29.9261 29.9888 29.989Z" fill="black"/>
<path d="M15.4944 22.6718C14.9982 22.6718 14.5228 23.1081 14.5457 23.6204C14.5687 24.1343 14.9625 24.569 15.4944 24.569C15.9905 24.569 16.4659 24.1327 16.443 23.6204C16.42 23.1064 16.0262 22.6718 15.4944 22.6718Z" fill="black"/>
<path d="M15.4941 7.97961C12.8917 7.97961 10.7744 10.0969 10.7744 12.6993C10.7744 13.2232 11.1992 13.6479 11.723 13.6479C12.2469 13.6479 12.6717 13.2232 12.6717 12.6993C12.6717 11.1431 13.9379 9.87686 15.4941 9.87686C17.0503 9.87686 18.3165 11.1431 18.3165 12.6993C18.3165 14.2555 17.0503 15.5217 15.4941 15.5217C14.9702 15.5217 14.5455 15.9465 14.5455 16.4704V20.3394C14.5455 20.8633 14.9702 21.288 15.4941 21.288C16.018 21.288 16.4427 20.8634 16.4427 20.3394V17.3232C18.592 16.8829 20.2138 14.9769 20.2138 12.6993C20.2138 10.0969 18.0965 7.97961 15.4941 7.97961Z" fill="black"/>
</g>
<defs>
<clipPath id="clip0">
<rect width="32" height="32" fill="white"/>
</clipPath>
</defs>
</svg>
