<svg width="32" height="32" viewBox="0 0 32 32" fill="none" xmlns="http://www.w3.org/2000/svg">
<g clip-path="url(#clip0)">
<path d="M15.7871 0.00133202C6.95129 0.119593 -0.115143 7.37907 0.0024225 16.2152C0.120683 25.0476 7.37947 32.1161 16.2149 31.9986C25.049 31.8796 32.1169 24.6201 31.9993 15.7846C31.881 6.95159 24.6219 -0.116581 15.7871 0.00133202ZM15.7398 25.7391L15.6515 25.7377C14.2908 25.6973 13.3315 24.6949 13.3701 23.3544C13.408 22.0368 14.3906 21.0803 15.7064 21.0803L15.7854 21.0817C17.184 21.1231 18.1325 22.1154 18.0932 23.4945C18.0542 24.8159 17.0869 25.7391 15.7398 25.7391ZM21.4633 14.3794C21.1433 14.834 20.4396 15.3985 19.553 16.0893L18.5767 16.7634C18.0407 17.1801 17.7172 17.5721 17.5958 17.9579C17.5002 18.2615 17.4532 18.3419 17.4449 18.9596L17.4435 19.1165H13.7155L13.7262 18.801C13.7718 17.5043 13.8038 16.7415 14.3412 16.1112C15.1843 15.1213 17.0442 13.9238 17.1231 13.873C17.3896 13.6723 17.6142 13.4438 17.7816 13.1996C18.1729 12.6601 18.3461 12.2354 18.3461 11.818C18.3461 11.2389 18.1742 10.7032 17.8344 10.2264C17.5078 9.7662 16.8873 9.53316 15.9899 9.53316C15.0998 9.53316 14.4904 9.81559 14.1259 10.3951C13.7509 10.9909 13.5614 11.6166 13.5614 12.2559V12.4149H9.71755L9.72451 12.249C9.82364 9.89455 10.664 8.19925 12.2212 7.21003C13.1996 6.58011 14.417 6.26081 15.8376 6.26081C17.697 6.26081 19.2668 6.71264 20.5026 7.60377C21.7548 8.50672 22.3899 9.85907 22.3899 11.6232C22.3899 12.61 22.0782 13.537 21.4633 14.3794Z" fill="#030104"/>
</g>
<defs>
<clipPath id="clip0">
<rect width="32" height="32" fill="white"/>
</clipPath>
</defs>
</svg>
