<svg width="32" height="32" viewBox="0 0 32 32" fill="none" xmlns="http://www.w3.org/2000/svg">
<path d="M8.9999 9.00005C12.7999 5.20005 19.1999 5.20005 22.9999 9.00005C24.3999 10.4 25.3999 12.4 25.7999 14.4L29.7999 13.8C29.3999 10.8 27.9999 8.20005 25.9999 6.20005C20.5999 0.800048 11.7999 0.800048 6.1999 6.20005L1.7999 1.80005L0.399902 14.6L13.1999 13.2L8.9999 9.00005Z" fill="black"/>
<path d="M31.5997 17.4001L18.7997 18.8001L22.9997 23.0001C19.1997 26.8001 12.7997 26.8001 8.99971 23.0001C7.59971 21.6001 6.59971 19.6001 6.19971 17.6001L2.19971 18.2001C2.59971 21.2001 3.99971 23.8001 5.99971 25.8001C8.79971 28.6001 12.1997 29.8001 15.7997 29.8001C19.3997 29.8001 22.9997 28.4001 25.5997 25.8001L29.9997 30.2001L31.5997 17.4001Z" fill="black"/>
</svg>
