<svg width="32" height="32" viewBox="0 0 32 32" fill="none" xmlns="http://www.w3.org/2000/svg">
<circle cx="16" cy="16" r="16" fill="white"/>
<path d="M16 0C7.2 0 0 7.2 0 16C0 24.8 7.2 32 16 32C24.8 32 32 24.8 32 16C32 7.2 24.8 0 16 0ZM22.2667 20.4C22.8 20.9333 22.8 21.7333 22.2667 22.2667C22 22.5333 21.7333 22.6667 21.3333 22.6667C20.9333 22.6667 20.6667 22.5333 20.4 22.2667L16 17.8667L11.6 22.2667C11.3333 22.5333 11.0667 22.6667 10.6667 22.6667C10.2667 22.6667 10 22.5333 9.73333 22.2667C9.2 21.7333 9.2 20.9333 9.73333 20.4L14.1333 16L9.73333 11.6C9.2 11.0667 9.2 10.2667 9.73333 9.73333C10.2667 9.2 11.0667 9.2 11.6 9.73333L16 14.1333L20.4 9.73333C20.9333 9.2 21.7333 9.2 22.2667 9.73333C22.8 10.2667 22.8 11.0667 22.2667 11.6L17.8667 16L22.2667 20.4Z" fill="#DC4E41"/>
</svg>
