<svg width="32" height="32" viewBox="0 0 32 32" fill="none" xmlns="http://www.w3.org/2000/svg">
<g clip-path="url(#clip0)">
<path d="M31.6071 25.836L31.4331 25.663H31.4341L24.5031 18.732C25.4661 17.074 26.0251 15.15 26.0381 13.095C26.0781 6.80298 21.0111 1.67098 14.7191 1.63098H14.6441C8.38713 1.63098 3.29413 6.68398 3.25413 12.95C3.24013 15.18 3.87713 17.258 4.97413 19.022C5.00513 18.918 5.02213 18.801 4.99113 18.658C4.43813 16.119 5.10513 14.808 6.26013 14.256C6.19813 13.835 6.15713 13.407 6.16013 12.969C6.19013 8.31998 9.99613 4.53698 14.6451 4.53698H14.7021C16.9691 4.55098 19.0941 5.44698 20.6871 7.05998C22.2801 8.67298 23.1491 10.81 23.1341 13.077C23.1201 15.335 22.2301 17.453 20.6281 19.044C19.0271 20.634 16.9041 21.51 14.6491 21.51H14.5931C14.0291 21.506 13.4781 21.445 12.9451 21.335C12.8971 21.468 12.8411 21.594 12.7721 21.688C12.6031 21.917 12.2671 21.918 12.1181 22.184C11.9031 22.565 12.1451 23.072 12.0091 23.486C11.9391 23.701 12.4351 24.21 12.4351 24.21C13.3891 24.476 13.5381 24.408 14.5761 24.415C14.6011 24.415 14.6251 24.416 14.6501 24.416C16.7411 24.416 18.7011 23.849 20.3871 22.863L27.3111 29.788L27.3121 29.787L27.4851 29.961C28.0081 30.484 28.8581 30.484 29.3811 29.961L31.6091 27.733C32.1311 27.209 32.1311 26.36 31.6071 25.836Z" fill="black"/>
<path d="M17.9641 27.702C17.6641 26.862 16.6751 26.741 15.8491 26.403C14.9421 26.031 13.9351 25.6 13.0301 25.241C12.7721 25.173 12.5131 25.104 12.2541 25.035C11.9461 24.829 11.6441 24.145 11.4791 23.804C11.3141 23.782 11.1491 23.759 10.9851 23.737C11.0101 23.211 11.3461 23.182 11.4791 22.78C11.5951 22.425 11.4921 21.964 11.6751 21.635C11.8031 21.406 12.0921 21.405 12.2371 21.209C12.3681 21.031 12.4541 20.723 12.4951 20.505C12.5701 20.108 12.6351 19.565 12.4401 19.171C12.3291 18.943 12.2571 18.922 12.2271 18.648C12.1891 18.315 12.3281 17.228 12.3331 16.994C12.3471 16.385 12.3321 16.335 12.1811 15.742C12.1811 15.742 11.9961 15.204 11.7061 15.042L11.1291 14.945L10.7731 14.625C9.3361 13.768 7.7981 14.37 6.9731 14.693C5.7851 15.067 5.0331 16.196 5.5581 18.608C5.6481 19.019 5.3251 19.205 5.3471 19.429C5.3921 19.919 5.4021 21.102 5.8811 21.392C5.9261 21.419 6.2661 21.503 6.2631 21.48C6.3101 21.959 6.3571 22.437 6.4041 22.917C6.5241 23.234 6.8111 23.27 6.8941 23.719L6.5261 23.805C6.3621 24.147 6.0601 24.83 5.7521 25.036C5.4931 25.105 5.2341 25.174 4.9761 25.242C4.0711 25.601 3.0641 26.032 2.1571 26.404C1.3301 26.742 0.341104 26.863 0.0421037 27.703C0.0421037 28.273 -0.0128963 29.622 0.00210372 30.37H18.0021C18.0191 29.621 17.9641 28.272 17.9641 27.702Z" fill="black"/>
</g>
<defs>
<clipPath id="clip0">
<rect width="32" height="32" fill="white"/>
</clipPath>
</defs>
</svg>
