<svg width="32" height="32" viewBox="0 0 32 32" fill="none" xmlns="http://www.w3.org/2000/svg">
<path d="M30.6667 2.70709H1.33333C0.979711 2.70709 0.640572 2.84757 0.390523 3.09762C0.140475 3.34766 0 3.6868 0 4.04043V28.0404C0 28.394 0.140475 28.7332 0.390523 28.9832C0.640572 29.2333 0.979711 29.3738 1.33333 29.3738H30.6667C31.0203 29.3738 31.3594 29.2333 31.6095 28.9832C31.8595 28.7332 32 28.394 32 28.0404V4.04043C32 3.6868 31.8595 3.34766 31.6095 3.09762C31.3594 2.84757 31.0203 2.70709 30.6667 2.70709ZM28.6666 26.7071H15.3333V5.37376H28.6666V26.7071ZM12 24.0404H4V21.3738H12V24.0404ZM12 17.3738H4V14.7071H12V17.3738ZM12 10.7071H4V8.04043H12V10.7071Z" fill="black"/>
</svg>
