<svg width="32" height="32" viewBox="0 0 32 32" fill="none" xmlns="http://www.w3.org/2000/svg">
<g clip-path="url(#clip0)">
<path d="M12.2614 10.5365V9.78363H2.53487V11.4735H0V18.4864H2.53487V20.1762H4.65238V20.1763H10.5579V20.1762H12.2614V19.4233L12.2615 19.4233V10.5364L12.2614 10.5365Z" fill="black"/>
<path d="M10.9718 22.0771H5.06641L6.55359 28.9075H12.4591L10.9718 22.0771Z" fill="black"/>
<path d="M16.3767 9.21647C15.5655 9.52597 14.821 9.78104 14.1626 9.98979V19.9697C14.821 20.1784 15.5655 20.4335 16.3767 20.743C19.1436 21.7986 23.2534 23.712 27.2798 26.8672V3.09229C23.2534 6.2476 19.1436 8.16091 16.3767 9.21647Z" fill="black"/>
<path d="M29.6846 10.544H29.1807V19.4157H29.6846C30.9612 19.4157 31.9999 18.377 31.9999 17.1004V12.8592C31.9999 11.5826 30.9612 10.544 29.6846 10.544Z" fill="black"/>
</g>
<defs>
<clipPath id="clip0">
<rect width="32" height="32" fill="white"/>
</clipPath>
</defs>
</svg>
