<svg width="32" height="32" viewBox="0 0 32 32" fill="none" xmlns="http://www.w3.org/2000/svg">
<g clip-path="url(#clip0)">
<path d="M12.2614 10.5364V9.78357H2.53487V11.4734H0V18.4863H2.53487V20.1761H4.65238V20.1762H10.5579V20.1761H12.2614V19.4232L12.2615 19.4233V10.5364L12.2614 10.5364Z" fill="black"/>
<path d="M10.9718 22.0771H5.06641L6.55359 28.9075H12.4591L10.9718 22.0771Z" fill="black"/>
<path d="M16.3767 9.21647C15.5655 9.52597 14.821 9.78104 14.1626 9.98979V19.9697C14.821 20.1784 15.5655 20.4335 16.3767 20.743C19.1436 21.7986 23.2534 23.712 27.2798 26.8672V3.09229C23.2534 6.2476 19.1436 8.16091 16.3767 9.21647Z" fill="black"/>
<path d="M29.6851 10.5439H29.1812V19.4156H29.6851C30.9617 19.4156 32.0004 18.377 32.0004 17.1003V12.8592C32.0004 11.5826 30.9617 10.5439 29.6851 10.5439Z" fill="black"/>
</g>
<defs>
<clipPath id="clip0">
<rect width="32" height="32" fill="white"/>
</clipPath>
</defs>
</svg>
