<svg width="32" height="32" viewBox="0 0 32 32" fill="none" xmlns="http://www.w3.org/2000/svg">
<path d="M31.2589 18.473L12.9809 0.208C12.8469 0.074 12.6649 0 12.4779 0C12.4449 0 12.4129 0.001 12.3819 0.005L3.05393 1.263C2.09593 1.409 1.46993 2.042 1.32393 3.003L0.00693338 12.382C-0.0240666 12.604 0.0499334 12.827 0.207933 12.985L18.4789 31.265C19.4599 32.245 20.6269 32.245 21.6089 31.265L31.2529 21.597C32.2209 20.6 32.2209 19.464 31.2589 18.473ZM30.2379 20.596L20.5979 30.255C20.4519 30.401 20.2379 30.577 20.0419 30.577C19.8489 30.577 19.6319 30.4 19.4869 30.255L1.46993 12.228L2.73693 3.208C2.78893 2.868 2.92493 2.726 3.25493 2.675L12.2219 1.467L30.2429 19.475C30.6559 19.9 30.6559 20.162 30.2379 20.596Z" fill="black"/>
<path d="M7.35211 5.58606C6.88011 5.58606 6.48611 5.74306 6.15411 6.07706C5.82111 6.41206 5.66211 6.82506 5.66211 7.27606C5.66211 7.74706 5.82011 8.14006 6.15411 8.47506C6.48611 8.80806 6.88011 8.98506 7.35211 8.98506C7.82211 8.98506 8.21511 8.80806 8.54911 8.47406C8.88311 8.14006 9.04111 7.74706 9.06011 7.27406C9.04011 6.82406 8.88311 6.41106 8.54911 6.07606C8.21411 5.74306 7.82311 5.58606 7.35211 5.58606Z" fill="black"/>
</svg>
