<svg width="32" height="32" viewBox="0 0 32 32" fill="none" xmlns="http://www.w3.org/2000/svg">
<path d="M29.7031 24.9522L22 12.4337V6.00006C23.1045 6.00006 24 5.10455 24 4.00006C24 2.89557 23.1045 2.00006 22 2.00006H10C8.8955 2.00006 8 2.89557 8 4.00006C8 5.10455 8.8955 6.00006 10 6.00006V12.4337L2.29688 24.9522C2.10254 25.2667 2 25.63 2 26.0001V28.0001C2 29.1046 2.89551 30.0001 4 30.0001H28C29.1045 30.0001 30 29.1046 30 28.0001V26.0001C30 25.63 29.8975 25.2667 29.7031 24.9522H29.7031ZM18 6.00008V13.5665L19.4982 16.0001H12.5023L14 13.5665V6.00008H18H18Z" fill="black"/>
</svg>
