<svg width="32" height="32" viewBox="0 0 32 32" fill="none" xmlns="http://www.w3.org/2000/svg">
<path d="M26.6903 3.16587C21.4533 10.1999 16.2143 17.2349 10.9753 24.2709C11.7763 23.8349 12.5763 23.3999 13.3763 22.9629C15.2093 22.9509 15.5483 24.0869 13.8063 22.4369C12.5263 21.2199 11.2453 20.0059 9.96531 18.7909C8.22631 17.1399 6.48931 15.4899 4.75131 13.8409C2.21431 11.4339 -1.71569 15.1639 0.81831 17.5729C3.83731 20.4379 6.85431 23.3019 9.87331 26.1679C12.0543 28.2389 14.1623 29.1019 16.2393 26.3139C21.3233 19.4879 26.4083 12.6579 31.4903 5.82887C33.5693 3.04287 28.7453 0.411868 26.6903 3.16587Z" fill="black"/>
</svg>
