<svg width="32" height="32" viewBox="0 0 32 32" fill="none" xmlns="http://www.w3.org/2000/svg">
<path d="M16 0C24.836 0 32 7.164 32 16C32 24.835 24.836 32 16 32C7.163 32 0 24.835 0 16C0 7.163 7.163 0 16 0ZM16 4.856C9.855 4.856 4.856 9.855 4.856 16C4.856 22.144 9.855 27.143 16 27.143C22.144 27.143 27.143 22.144 27.143 16C27.143 9.855 22.144 4.856 16 4.856Z" fill="black"/>
<path d="M18.8961 20.9701L14.6221 16.5581V7.67607C14.6221 6.91507 15.2391 6.29907 16.0011 6.29907C16.7621 6.29907 17.3791 6.91507 17.3791 7.67607V15.4411L20.8771 19.0521C21.4061 19.5981 21.3931 20.4701 20.8461 21.0001C20.5781 21.2591 20.2331 21.3881 19.8871 21.3881C19.5251 21.3891 19.1661 21.2491 18.8961 20.9701Z" fill="black"/>
</svg>
