<svg width="32" height="32" viewBox="0 0 32 32" fill="none" xmlns="http://www.w3.org/2000/svg">
<path d="M31.9998 0C26.0082 0.399445 21.0151 2.19695 17.2204 4.79334C13.0262 2.79612 8.03312 3.59501 4.63784 7.19001C4.03867 7.78918 3.4395 8.58807 2.84033 9.38696L7.8334 14.38C6.43534 16.7767 5.63645 18.3745 5.63645 18.3745L13.8251 26.5631C13.8251 26.5631 15.4229 25.9639 17.8195 24.3662L22.8126 29.3592C23.6115 28.9598 24.4104 28.3606 25.0095 27.5617C28.4048 24.1664 29.2037 18.9736 27.4062 14.7795C29.8029 10.785 31.6004 5.99168 31.9998 0Z" fill="black"/>
<path d="M1.24272 25.1651C2.8405 23.5673 5.23717 23.5673 6.83495 25.1651C8.43273 26.7629 8.43273 29.1595 6.83495 30.7573C5.23717 32.3551 0.0443828 31.9556 0.0443828 31.9556C0.0443828 31.9556 -0.355062 26.5631 1.24272 25.1651Z" fill="black"/>
</svg>
