<svg width="32" height="32" viewBox="0 0 32 32" fill="none" xmlns="http://www.w3.org/2000/svg">
<path d="M6.42691 31.999H25.5729L27.4069 11.071H4.58991L6.42691 31.999ZM28.3409 3.966H22.3579V3.283C22.3569 1.47 20.8879 0 19.0739 0H12.9249C11.1089 0 9.64091 1.47 9.63991 3.283V3.966H3.65591C2.80191 3.966 2.10791 4.659 2.10791 5.514V9.248H29.8919V5.514C29.8919 4.66 29.1969 3.966 28.3409 3.966ZM20.1199 3.966H11.8779V3.283C11.8789 2.708 12.3479 2.24 12.9249 2.239H19.0739C19.6489 2.24 20.1169 2.709 20.1199 3.283V3.966Z" fill="black"/>
</svg>
