<svg width="33" height="32" viewBox="0 0 33 32" fill="none" xmlns="http://www.w3.org/2000/svg">
<path fill-rule="evenodd" clip-rule="evenodd" d="M16.4959 13.0014L10.3099 21.0358H14.4339V30H18.5578V21.0358H22.6818L16.4959 13.0014ZM28.8678 12.112V12.0009C28.8466 10.0092 28.1591 8.07941 26.9108 6.50782C25.6625 4.93623 23.9225 3.80973 21.9579 3.30131C19.9933 2.7929 17.9127 2.93067 16.0357 3.69347C14.1587 4.45628 12.589 5.80194 11.5677 7.52382C10.7857 7.14392 9.91808 6.96487 9.04618 7.00345C8.17428 7.04204 7.32665 7.29699 6.58274 7.74442C5.83882 8.19185 5.22298 8.8171 4.79292 9.56157C4.36287 10.306 4.13269 11.1454 4.12396 12.0009V12.112C1.67021 13.5067 0 15.063 0 18.0141C0 22.4305 3.71157 27.0591 8.24793 27.0591H10.3099V25.0379H8.24793C6.89416 25.0515 5.57409 24.6242 4.49474 23.8231C3.41539 23.022 2.63783 21.8924 2.28401 20.6114C1.93018 19.3305 2.02012 17.9706 2.5397 16.7452C3.05928 15.5197 3.97913 14.498 5.15496 13.8402L6.18595 13.254V11.8998C6.20952 11.3961 6.36088 10.9061 6.62632 10.4742C6.89176 10.0423 7.26289 9.68216 7.70612 9.42629C8.14936 9.17042 8.65069 9.02695 9.16475 9.00887C9.6788 8.99078 10.1893 9.09866 10.6501 9.32273L12.3719 10.1615L13.4029 8.52434C14.2015 7.2171 15.4094 6.19756 16.8468 5.61744C18.2841 5.03731 19.8741 4.9276 21.3802 5.30463C22.8863 5.68167 24.228 6.52529 25.2056 7.70997C26.1831 8.89465 26.7444 10.3571 26.8058 11.8796V13.2641L27.8368 13.8503C29.0179 14.5057 29.943 15.5277 30.4662 16.7553C30.9894 17.9829 31.081 19.3463 30.7266 20.6306C30.3722 21.9148 29.5919 23.047 28.5087 23.8486C27.4255 24.6502 26.1009 25.0757 24.7438 25.0581H22.6818V27.0793H24.7438C26.5529 27.1013 28.3181 26.5329 29.7616 25.4637C31.2051 24.3944 32.2448 22.885 32.7172 21.1729C33.1895 19.4609 33.0677 17.6435 32.3708 16.0069C31.6739 14.3702 30.4416 13.0071 28.8678 12.1322V12.112Z" fill="black"/>
</svg>
