<svg width="32" height="32" viewBox="0 0 32 32" fill="none" xmlns="http://www.w3.org/2000/svg">
<g clip-path="url(#clip0)">
<path d="M31.7166 26.9923L17.8147 2.90961C17.0089 1.51418 14.9911 1.51418 14.1853 2.90961L0.283367 26.9923C-0.522446 28.3877 0.486458 30.1369 2.09808 30.1369H29.9019C31.5135 30.1369 32.5224 28.3877 31.7166 26.9923ZM16.0196 10.3257C16.9106 10.3257 17.6313 11.066 17.6051 11.957L17.343 21.1026C17.3234 21.8233 16.7337 22.3932 16.0131 22.3932C15.2924 22.3932 14.7028 21.8167 14.6832 21.1026L14.4277 11.957C14.408 11.066 15.1221 10.3257 16.0196 10.3257ZM16 26.8678C15.0894 26.8678 14.3491 26.1275 14.3491 25.2169C14.3491 24.3062 15.0894 23.5659 16 23.5659C16.9106 23.5659 17.6509 24.3062 17.6509 25.2169C17.6509 26.1275 16.9106 26.8678 16 26.8678Z" fill="black"/>
</g>
<defs>
<clipPath id="clip0">
<rect width="32" height="32" fill="white"/>
</clipPath>
</defs>
</svg>
