<svg width="32" height="32" viewBox="0 0 32 32" fill="none" xmlns="http://www.w3.org/2000/svg">
<path d="M25.4 22.4596C27.2 20.0745 28.2 17.2919 28.2 14.1118C28.2 6.36025 22 0 14.2 0C6.4 0 0 6.36025 0 14.1118C0 21.8634 6.4 28.2236 14.2 28.2236C17.4 28.2236 20.4 27.2298 22.6 25.441L28.6 31.4037C29 31.8012 29.6 32 30 32C30.4 32 31 31.8012 31.4 31.4037C32.2 30.6087 32.2 29.4161 31.4 28.6211L25.4 22.4596ZM14.2 24.0497C8.6 24.0497 4 19.677 4 14.1118C4 8.54658 8.6 3.97516 14.2 3.97516C19.8 3.97516 24.4 8.54658 24.4 14.1118C24.4 19.677 19.8 24.0497 14.2 24.0497Z" fill="black"/>
<path d="M20 12H8V16H20V12Z" fill="black"/>
</svg>
